<svg xmlns="http://www.w3.org/2000/svg" xmlns:xlink="http://www.w3.org/1999/xlink" xmlns:lucid="lucid" width="582" height="1432"><g transform="translate(21 -219)" lucid:page-tab-id="aY1GeO_BK_MD"><g filter="url(#a)"><path d="M0 240h540v1390H0z" fill="#fff"/><path d="M0 240h540v40H0z" fill="#ccc"/><path d="M0 240h540v1390H0zM0 280h540M134.67 280v1350M341.33 280v1350" stroke="#3d4752" stroke-width="4" fill="none"/><use xlink:href="#b" transform="matrix(1,0,0,1,10,240) translate(191.75 26)"/><use xlink:href="#c" transform="matrix(1,0,0,1,5,282.5) translate(15.31481481481481 14.222222222222223)"/><use xlink:href="#d" transform="matrix(1,0,0,1,5,282.5) translate(55.75925925925926 14.222222222222223)"/><use xlink:href="#e" transform="matrix(1,0,0,1,5,282.5) translate(96.20370370370371 14.222222222222223)"/><use xlink:href="#f" transform="matrix(1,0,0,1,5,282.5) translate(49.01851851851852 32)"/><use xlink:href="#g" transform="matrix(1,0,0,1,139.66666666666666,282.5) translate(15.083333333333329 20.5)"/><use xlink:href="#h" transform="matrix(1,0,0,1,139.66666666666666,282.5) translate(151.58333333333331 20.5)"/><use xlink:href="#i" transform="matrix(1,0,0,1,346.3333333333333,282.5) translate(11.083333333333343 20.5)"/><use xlink:href="#j" transform="matrix(1,0,0,1,5,316.5) translate(47.333333333333336 20.5)"/><use xlink:href="#k" transform="matrix(1,0,0,1,139.66666666666666,316.5) translate(45.41666666666667 20.5)"/><use xlink:href="#h" transform="matrix(1,0,0,1,139.66666666666666,316.5) translate(121.25 20.5)"/><use xlink:href="#l" transform="matrix(1,0,0,1,346.3333333333333,316.5) translate(41.416666666666664 20.5)"/><use xlink:href="#m" transform="matrix(1,0,0,1,5,350.5) translate(39.75 20.5)"/><use xlink:href="#n" transform="matrix(1,0,0,1,139.66666666666666,350.5) translate(60.583333333333336 20.5)"/><use xlink:href="#o" transform="matrix(1,0,0,1,346.3333333333333,350.5) translate(64.16666666666667 20.5)"/><use xlink:href="#m" transform="matrix(1,0,0,1,5,384.5) translate(39.75 19.5)"/><use xlink:href="#n" transform="matrix(1,0,0,1,139.66666666666666,384.5) translate(60.583333333333336 19.5)"/><use xlink:href="#o" transform="matrix(1,0,0,1,346.3333333333333,384.5) translate(64.16666666666667 19.5)"/><use xlink:href="#m" transform="matrix(1,0,0,1,5,416.5) translate(39.75 19.5)"/><use xlink:href="#n" transform="matrix(1,0,0,1,139.66666666666666,416.5) translate(60.583333333333336 19.5)"/><use xlink:href="#o" transform="matrix(1,0,0,1,346.3333333333333,416.5) translate(64.16666666666667 19.5)"/><use xlink:href="#m" transform="matrix(1,0,0,1,5,448.5) translate(39.75 19.5)"/><use xlink:href="#n" transform="matrix(1,0,0,1,139.66666666666666,448.5) translate(60.583333333333336 19.5)"/><use xlink:href="#o" transform="matrix(1,0,0,1,346.3333333333333,448.5) translate(64.16666666666667 19.5)"/><use xlink:href="#m" transform="matrix(1,0,0,1,5,480.5) translate(39.75 19.5)"/><use xlink:href="#n" transform="matrix(1,0,0,1,139.66666666666666,480.5) translate(60.583333333333336 19.5)"/><use xlink:href="#o" transform="matrix(1,0,0,1,346.3333333333333,480.5) translate(64.16666666666667 19.5)"/><use xlink:href="#m" transform="matrix(1,0,0,1,5,512.5) translate(39.75 19.5)"/><use xlink:href="#n" transform="matrix(1,0,0,1,139.66666666666666,512.5) translate(60.583333333333336 19.5)"/><use xlink:href="#o" transform="matrix(1,0,0,1,346.3333333333333,512.5) translate(64.16666666666667 19.5)"/><use xlink:href="#m" transform="matrix(1,0,0,1,5,544.5) translate(39.75 19.5)"/><use xlink:href="#n" transform="matrix(1,0,0,1,139.66666666666666,544.5) translate(60.583333333333336 19.5)"/><use xlink:href="#o" transform="matrix(1,0,0,1,346.3333333333333,544.5) translate(64.16666666666667 19.5)"/><use xlink:href="#m" transform="matrix(1,0,0,1,5,576.5) translate(39.75 19.5)"/><use xlink:href="#n" transform="matrix(1,0,0,1,139.66666666666666,576.5) translate(60.583333333333336 19.5)"/><use xlink:href="#o" transform="matrix(1,0,0,1,346.3333333333333,576.5) translate(64.16666666666667 19.5)"/><use xlink:href="#m" transform="matrix(1,0,0,1,5,608.5) translate(39.75 19.5)"/><use xlink:href="#n" transform="matrix(1,0,0,1,139.66666666666666,608.5) translate(60.583333333333336 19.5)"/><use xlink:href="#o" transform="matrix(1,0,0,1,346.3333333333333,608.5) translate(64.16666666666667 19.5)"/><use xlink:href="#m" transform="matrix(1,0,0,1,5,640.5) translate(39.75 19.5)"/><use xlink:href="#n" transform="matrix(1,0,0,1,139.66666666666666,640.5) translate(60.583333333333336 19.5)"/><use xlink:href="#o" transform="matrix(1,0,0,1,346.3333333333333,640.5) translate(64.16666666666667 19.5)"/><use xlink:href="#m" transform="matrix(1,0,0,1,5,672.5) translate(39.75 19.5)"/><use xlink:href="#n" transform="matrix(1,0,0,1,139.66666666666666,672.5) translate(60.583333333333336 19.5)"/><use xlink:href="#o" transform="matrix(1,0,0,1,346.3333333333333,672.5) translate(64.16666666666667 19.5)"/><use xlink:href="#m" transform="matrix(1,0,0,1,5,704.5) translate(39.75 19.5)"/><use xlink:href="#n" transform="matrix(1,0,0,1,139.66666666666666,704.5) translate(60.583333333333336 19.5)"/><use xlink:href="#o" transform="matrix(1,0,0,1,346.3333333333333,704.5) translate(64.16666666666667 19.5)"/><use xlink:href="#m" transform="matrix(1,0,0,1,5,736.5) translate(39.75 19.5)"/><use xlink:href="#n" transform="matrix(1,0,0,1,139.66666666666666,736.5) translate(60.583333333333336 19.5)"/><use xlink:href="#o" transform="matrix(1,0,0,1,346.3333333333333,736.5) translate(64.16666666666667 19.5)"/><use xlink:href="#m" transform="matrix(1,0,0,1,5,768.5) translate(39.75 19.5)"/><use xlink:href="#n" transform="matrix(1,0,0,1,139.66666666666666,768.5) translate(60.583333333333336 19.5)"/><use xlink:href="#o" transform="matrix(1,0,0,1,346.3333333333333,768.5) translate(64.16666666666667 19.5)"/><use xlink:href="#m" transform="matrix(1,0,0,1,5,800.5) translate(39.75 19.5)"/><use xlink:href="#n" transform="matrix(1,0,0,1,139.66666666666666,800.5) translate(60.583333333333336 19.5)"/><use xlink:href="#o" transform="matrix(1,0,0,1,346.3333333333333,800.5) translate(64.16666666666667 19.5)"/><use xlink:href="#m" transform="matrix(1,0,0,1,5,832.5) translate(39.75 19.5)"/><use xlink:href="#n" transform="matrix(1,0,0,1,139.66666666666666,832.5) translate(60.583333333333336 19.5)"/><use xlink:href="#o" transform="matrix(1,0,0,1,346.3333333333333,832.5) translate(64.16666666666667 19.5)"/><use xlink:href="#m" transform="matrix(1,0,0,1,5,864.5) translate(39.75 19.5)"/><use xlink:href="#n" transform="matrix(1,0,0,1,139.66666666666666,864.5) translate(60.583333333333336 19.5)"/><use xlink:href="#o" transform="matrix(1,0,0,1,346.3333333333333,864.5) translate(64.16666666666667 19.5)"/><use xlink:href="#m" transform="matrix(1,0,0,1,5,896.5) translate(39.75 19.5)"/><use xlink:href="#n" transform="matrix(1,0,0,1,139.66666666666666,896.5) translate(60.583333333333336 19.5)"/><use xlink:href="#o" transform="matrix(1,0,0,1,346.3333333333333,896.5) translate(64.16666666666667 19.5)"/><use xlink:href="#m" transform="matrix(1,0,0,1,5,928.5) translate(39.75 19.5)"/><use xlink:href="#n" transform="matrix(1,0,0,1,139.66666666666666,928.5) translate(60.583333333333336 19.5)"/><use xlink:href="#o" transform="matrix(1,0,0,1,346.3333333333333,928.5) translate(64.16666666666667 19.5)"/><use xlink:href="#m" transform="matrix(1,0,0,1,5,960.5) translate(39.75 19.5)"/><use xlink:href="#n" transform="matrix(1,0,0,1,139.66666666666666,960.5) translate(60.583333333333336 19.5)"/><use xlink:href="#o" transform="matrix(1,0,0,1,346.3333333333333,960.5) translate(64.16666666666667 19.5)"/><use xlink:href="#m" transform="matrix(1,0,0,1,5,992.5) translate(39.75 19.5)"/><use xlink:href="#n" transform="matrix(1,0,0,1,139.66666666666666,992.5) translate(60.583333333333336 19.5)"/><use xlink:href="#o" transform="matrix(1,0,0,1,346.3333333333333,992.5) translate(64.16666666666667 19.5)"/><use xlink:href="#m" transform="matrix(1,0,0,1,5,1024.5) translate(39.75 19.5)"/><use xlink:href="#n" transform="matrix(1,0,0,1,139.66666666666666,1024.5) translate(60.583333333333336 19.5)"/><use xlink:href="#o" transform="matrix(1,0,0,1,346.3333333333333,1024.5) translate(64.16666666666667 19.5)"/><use xlink:href="#m" transform="matrix(1,0,0,1,5,1056.5) translate(39.75 19.5)"/><use xlink:href="#n" transform="matrix(1,0,0,1,139.66666666666666,1056.5) translate(60.583333333333336 19.5)"/><use xlink:href="#o" transform="matrix(1,0,0,1,346.3333333333333,1056.5) translate(64.16666666666667 19.5)"/><use xlink:href="#m" transform="matrix(1,0,0,1,5,1088.5) translate(39.75 19.5)"/><use xlink:href="#n" transform="matrix(1,0,0,1,139.66666666666666,1088.5) translate(60.583333333333336 19.5)"/><use xlink:href="#o" transform="matrix(1,0,0,1,346.3333333333333,1088.5) translate(64.16666666666667 19.5)"/><use xlink:href="#m" transform="matrix(1,0,0,1,5,1120.5) translate(39.75 19.5)"/><use xlink:href="#n" transform="matrix(1,0,0,1,139.66666666666666,1120.5) translate(60.583333333333336 19.5)"/><use xlink:href="#o" transform="matrix(1,0,0,1,346.3333333333333,1120.5) translate(64.16666666666667 19.5)"/><use xlink:href="#m" transform="matrix(1,0,0,1,5,1152.5) translate(39.75 19.5)"/><use xlink:href="#n" transform="matrix(1,0,0,1,139.66666666666666,1152.5) translate(60.583333333333336 19.5)"/><use xlink:href="#o" transform="matrix(1,0,0,1,346.3333333333333,1152.5) translate(64.16666666666667 19.5)"/><use xlink:href="#m" transform="matrix(1,0,0,1,5,1184.5) translate(39.75 19.5)"/><use xlink:href="#n" transform="matrix(1,0,0,1,139.66666666666666,1184.5) translate(60.583333333333336 19.5)"/><use xlink:href="#o" transform="matrix(1,0,0,1,346.3333333333333,1184.5) translate(64.16666666666667 19.5)"/><use xlink:href="#m" transform="matrix(1,0,0,1,5,1216.5) translate(39.75 19.5)"/><use xlink:href="#n" transform="matrix(1,0,0,1,139.66666666666666,1216.5) translate(60.583333333333336 19.5)"/><use xlink:href="#o" transform="matrix(1,0,0,1,346.3333333333333,1216.5) translate(64.16666666666667 19.5)"/><use xlink:href="#m" transform="matrix(1,0,0,1,5,1248.5) translate(39.75 19.5)"/><use xlink:href="#n" transform="matrix(1,0,0,1,139.66666666666666,1248.5) translate(60.583333333333336 19.5)"/><use xlink:href="#o" transform="matrix(1,0,0,1,346.3333333333333,1248.5) translate(64.16666666666667 19.5)"/><use xlink:href="#m" transform="matrix(1,0,0,1,5,1280.5) translate(39.75 19.5)"/><use xlink:href="#n" transform="matrix(1,0,0,1,139.66666666666666,1280.5) translate(60.583333333333336 19.5)"/><use xlink:href="#o" transform="matrix(1,0,0,1,346.3333333333333,1280.5) translate(64.16666666666667 19.5)"/><use xlink:href="#m" transform="matrix(1,0,0,1,5,1312.5) translate(39.75 19.5)"/><use xlink:href="#n" transform="matrix(1,0,0,1,139.66666666666666,1312.5) translate(60.583333333333336 19.5)"/><use xlink:href="#o" transform="matrix(1,0,0,1,346.3333333333333,1312.5) translate(64.16666666666667 19.5)"/><use xlink:href="#m" transform="matrix(1,0,0,1,5,1344.5) translate(39.75 19.5)"/><use xlink:href="#n" transform="matrix(1,0,0,1,139.66666666666666,1344.5) translate(60.583333333333336 19.5)"/><use xlink:href="#o" transform="matrix(1,0,0,1,346.3333333333333,1344.5) translate(64.16666666666667 19.5)"/><use xlink:href="#m" transform="matrix(1,0,0,1,5,1376.5) translate(39.75 19.5)"/><use xlink:href="#n" transform="matrix(1,0,0,1,139.66666666666666,1376.5) translate(60.583333333333336 19.5)"/><use xlink:href="#o" transform="matrix(1,0,0,1,346.3333333333333,1376.5) translate(64.16666666666667 19.5)"/><use xlink:href="#m" transform="matrix(1,0,0,1,5,1408.5) translate(39.75 19.5)"/><use xlink:href="#n" transform="matrix(1,0,0,1,139.66666666666666,1408.5) translate(60.583333333333336 19.5)"/><use xlink:href="#o" transform="matrix(1,0,0,1,346.3333333333333,1408.5) translate(64.16666666666667 19.5)"/><use xlink:href="#m" transform="matrix(1,0,0,1,5,1440.5) translate(39.75 19.5)"/><use xlink:href="#n" transform="matrix(1,0,0,1,139.66666666666666,1440.5) translate(60.583333333333336 19.5)"/><use xlink:href="#o" transform="matrix(1,0,0,1,346.3333333333333,1440.5) translate(64.16666666666667 19.5)"/><use xlink:href="#m" transform="matrix(1,0,0,1,5,1472.5) translate(39.75 19.5)"/><use xlink:href="#n" transform="matrix(1,0,0,1,139.66666666666666,1472.5) translate(60.583333333333336 19.5)"/><use xlink:href="#o" transform="matrix(1,0,0,1,346.3333333333333,1472.5) translate(64.16666666666667 19.5)"/><use xlink:href="#m" transform="matrix(1,0,0,1,5,1504.5) translate(39.75 19.5)"/><use xlink:href="#n" transform="matrix(1,0,0,1,139.66666666666666,1504.5) translate(60.583333333333336 19.5)"/><use xlink:href="#o" transform="matrix(1,0,0,1,346.3333333333333,1504.5) translate(64.16666666666667 19.5)"/><use xlink:href="#m" transform="matrix(1,0,0,1,5,1536.5) translate(39.75 19.5)"/><use xlink:href="#n" transform="matrix(1,0,0,1,139.66666666666666,1536.5) translate(60.583333333333336 19.5)"/><use xlink:href="#o" transform="matrix(1,0,0,1,346.3333333333333,1536.5) translate(64.16666666666667 19.5)"/><use xlink:href="#m" transform="matrix(1,0,0,1,5,1568.5) translate(39.75 19.5)"/><g><use xlink:href="#n" transform="matrix(1,0,0,1,139.66666666666666,1568.5) translate(60.583333333333336 19.5)"/></g><g><use xlink:href="#o" transform="matrix(1,0,0,1,346.3333333333333,1568.5) translate(64.16666666666667 19.5)"/></g><g><use xlink:href="#m" transform="matrix(1,0,0,1,5,1600.5) translate(39.75 19.5)"/></g><g><use xlink:href="#n" transform="matrix(1,0,0,1,139.66666666666666,1600.5) translate(60.583333333333336 19.5)"/></g><g><use xlink:href="#o" transform="matrix(1,0,0,1,346.3333333333333,1600.5) translate(64.16666666666667 19.5)"/></g></g><defs><path d="M33 0v-248h34V0H33" id="p"/><path d="M117-194c89-4 53 116 60 194h-32v-121c0-31-8-49-39-48C34-167 62-67 57 0H25l-1-190h30c1 10-1 24 2 32 11-22 29-35 61-36" id="q"/><path d="M108 0H70L1-190h34L89-25l56-165h34" id="r"/><path d="M100-194c63 0 86 42 84 106H49c0 40 14 67 53 68 26 1 43-12 49-29l28 8c-11 28-37 45-77 45C44 4 14-33 15-96c1-61 26-98 85-98zm52 81c6-60-76-77-97-28-3 7-6 17-6 28h103" id="s"/><path d="M135-143c-3-34-86-38-87 0 15 53 115 12 119 90S17 21 10-45l28-5c4 36 97 45 98 0-10-56-113-15-118-90-4-57 82-63 122-42 12 7 21 19 24 35" id="t"/><path d="M59-47c-2 24 18 29 38 22v24C64 9 27 4 27-40v-127H5v-23h24l9-43h21v43h35v23H59v120" id="u"/><path d="M100-194c62-1 85 37 85 99 1 63-27 99-86 99S16-35 15-95c0-66 28-99 85-99zM99-20c44 1 53-31 53-75 0-43-8-75-51-75s-53 32-53 75 10 74 51 75" id="v"/><path d="M114-163C36-179 61-72 57 0H25l-1-190h30c1 12-1 29 2 39 6-27 23-49 58-41v29" id="w"/><g id="b"><use transform="matrix(0.05555555555555555,0,0,0.05555555555555555,0,0)" xlink:href="#p"/><use transform="matrix(0.05555555555555555,0,0,0.05555555555555555,15.166666666666666,0)" xlink:href="#q"/><use transform="matrix(0.05555555555555555,0,0,0.05555555555555555,30.333333333333332,0)" xlink:href="#r"/><use transform="matrix(0.05555555555555555,0,0,0.05555555555555555,45.5,0)" xlink:href="#s"/><use transform="matrix(0.05555555555555555,0,0,0.05555555555555555,60.666666666666664,0)" xlink:href="#t"/><use transform="matrix(0.05555555555555555,0,0,0.05555555555555555,75.83333333333333,0)" xlink:href="#u"/><use transform="matrix(0.05555555555555555,0,0,0.05555555555555555,91,0)" xlink:href="#v"/><use transform="matrix(0.05555555555555555,0,0,0.05555555555555555,106.16666666666667,0)" xlink:href="#w"/><use transform="matrix(0.05555555555555555,0,0,0.05555555555555555,121.33333333333336,0)" xlink:href="#t"/></g><path d="M205 0l-28-72H64L36 0H1l101-248h38L239 0h-34zm-38-99l-47-123c-12 45-31 82-46 123h93" id="x"/><g id="c"><use transform="matrix(0.04938271604938272,0,0,0.04938271604938272,0,0)" xlink:href="#x"/><use transform="matrix(0.04938271604938272,0,0,0.04938271604938272,13.481481481481483,0)" xlink:href="#p"/></g><path d="M30-248c87 1 191-15 191 75 0 78-77 80-158 76V0H30v-248zm33 125c57 0 124 11 124-50 0-59-68-47-124-48v98" id="y"/><path d="M194 0L95-120 63-95V0H30v-248h33v124l119-124h40L117-140 236 0h-42" id="z"/><g id="d"><use transform="matrix(0.04938271604938272,0,0,0.04938271604938272,0,0)" xlink:href="#y"/><use transform="matrix(0.04938271604938272,0,0,0.04938271604938272,13.481481481481483,0)" xlink:href="#z"/></g><path d="M232-93c-1 65-40 97-104 97C67 4 28-28 28-90v-158h33c8 89-33 224 67 224 102 0 64-133 71-224h33v155" id="A"/><use transform="matrix(0.04938271604938272,0,0,0.04938271604938272,0,0)" xlink:href="#A" id="e"/><path d="M190 0L58-211 59 0H30v-248h39L202-35l-2-213h31V0h-41" id="B"/><g id="f"><use transform="matrix(0.04938271604938272,0,0,0.04938271604938272,0,0)" xlink:href="#B"/><use transform="matrix(0.04938271604938272,0,0,0.04938271604938272,13.481481481481483,0)" xlink:href="#B"/></g><g id="g"><use transform="matrix(0.05555555555555555,0,0,0.05555555555555555,0,0)" xlink:href="#p"/><use transform="matrix(0.05555555555555555,0,0,0.05555555555555555,15.166666666666666,0)" xlink:href="#q"/><use transform="matrix(0.05555555555555555,0,0,0.05555555555555555,30.333333333333332,0)" xlink:href="#r"/><use transform="matrix(0.05555555555555555,0,0,0.05555555555555555,45.5,0)" xlink:href="#s"/><use transform="matrix(0.05555555555555555,0,0,0.05555555555555555,60.666666666666664,0)" xlink:href="#t"/><use transform="matrix(0.05555555555555555,0,0,0.05555555555555555,75.83333333333333,0)" xlink:href="#u"/><use transform="matrix(0.05555555555555555,0,0,0.05555555555555555,91,0)" xlink:href="#v"/><use transform="matrix(0.05555555555555555,0,0,0.05555555555555555,106.16666666666667,0)" xlink:href="#w"/></g><path d="M30-248c118-7 216 8 213 122C240-48 200 0 122 0H30v-248zM63-27c89 8 146-16 146-99s-60-101-146-95v194" id="C"/><g id="h"><use transform="matrix(0.05555555555555555,0,0,0.05555555555555555,0,0)" xlink:href="#p"/><use transform="matrix(0.05555555555555555,0,0,0.05555555555555555,15.166666666666666,0)" xlink:href="#C"/></g><path d="M177-190C167-65 218 103 67 71c-23-6-38-20-44-43l32-5c15 47 100 32 89-28v-30C133-14 115 1 83 1 29 1 15-40 15-95c0-56 16-97 71-98 29-1 48 16 59 35 1-10 0-23 2-32h30zM94-22c36 0 50-32 50-73 0-42-14-75-50-75-39 0-46 34-46 75s6 73 46 73" id="D"/><path d="M87 75C49 33 22-17 22-94c0-76 28-126 65-167h31c-38 41-64 92-64 168S80 34 118 75H87" id="E"/><path d="M27 0v-27h64v-190l-56 39v-29l58-41h29v221h61V0H27" id="F"/><path d="M33-261c38 41 65 92 65 168S71 34 33 75H2C39 34 66-17 66-93S39-220 2-261h31" id="G"/><g id="i"><use transform="matrix(0.05555555555555555,0,0,0.05555555555555555,0,0)" xlink:href="#p"/><use transform="matrix(0.05555555555555555,0,0,0.05555555555555555,15.166666666666666,0)" xlink:href="#q"/><use transform="matrix(0.05555555555555555,0,0,0.05555555555555555,30.333333333333332,0)" xlink:href="#u"/><use transform="matrix(0.05555555555555555,0,0,0.05555555555555555,45.5,0)" xlink:href="#s"/><use transform="matrix(0.05555555555555555,0,0,0.05555555555555555,60.666666666666664,0)" xlink:href="#D"/><use transform="matrix(0.05555555555555555,0,0,0.05555555555555555,75.83333333333333,0)" xlink:href="#s"/><use transform="matrix(0.05555555555555555,0,0,0.05555555555555555,91,0)" xlink:href="#w"/><use transform="matrix(0.05555555555555555,0,0,0.05555555555555555,106.16666666666667,0)" xlink:href="#E"/><use transform="matrix(0.05555555555555555,0,0,0.05555555555555555,121.33333333333336,0)" xlink:href="#F"/><use transform="matrix(0.05555555555555555,0,0,0.05555555555555555,136.5,0)" xlink:href="#F"/><use transform="matrix(0.05555555555555555,0,0,0.05555555555555555,151.66666666666666,0)" xlink:href="#G"/></g><g id="j"><use transform="matrix(0.05555555555555555,0,0,0.05555555555555555,0,0)" xlink:href="#B"/><use transform="matrix(0.05555555555555555,0,0,0.05555555555555555,15.166666666666666,0)" xlink:href="#B"/></g><path d="M63-220v92h138v28H63V0H30v-248h175v28H63" id="H"/><path d="M24-231v-30h32v30H24zM24 0v-190h32V0H24" id="I"/><path d="M210-169c-67 3-38 105-44 169h-31v-121c0-29-5-50-35-48C34-165 62-65 56 0H25l-1-190h30c1 10-1 24 2 32 10-44 99-50 107 0 11-21 27-35 58-36 85-2 47 119 55 194h-31v-121c0-29-5-49-35-48" id="J"/><g id="k"><use transform="matrix(0.05555555555555555,0,0,0.05555555555555555,0,0)" xlink:href="#H"/><use transform="matrix(0.05555555555555555,0,0,0.05555555555555555,15.166666666666666,0)" xlink:href="#I"/><use transform="matrix(0.05555555555555555,0,0,0.05555555555555555,30.333333333333332,0)" xlink:href="#w"/><use transform="matrix(0.05555555555555555,0,0,0.05555555555555555,45.5,0)" xlink:href="#J"/></g><path d="M33-154v-36h34v36H33zM33 0v-36h34V0H33" id="K"/><path d="M240 0l2-218c-23 76-54 145-80 218h-23L58-218 59 0H30v-248h44l77 211c21-75 51-140 76-211h43V0h-30" id="L"/><g id="l"><use transform="matrix(0.05555555555555555,0,0,0.05555555555555555,0,0)" xlink:href="#H"/><use transform="matrix(0.05555555555555555,0,0,0.05555555555555555,15.166666666666666,0)" xlink:href="#z"/><use transform="matrix(0.05555555555555555,0,0,0.05555555555555555,30.333333333333332,0)" xlink:href="#E"/><use transform="matrix(0.05555555555555555,0,0,0.05555555555555555,45.5,0)" xlink:href="#F"/><use transform="matrix(0.05555555555555555,0,0,0.05555555555555555,60.666666666666664,0)" xlink:href="#K"/><use transform="matrix(0.05555555555555555,0,0,0.05555555555555555,75.83333333333333,0)" xlink:href="#L"/><use transform="matrix(0.05555555555555555,0,0,0.05555555555555555,91,0)" xlink:href="#G"/></g><path d="M179-190L93 31C79 59 56 82 12 73V49c39 6 53-20 64-50L1-190h34L92-34l54-156h33" id="M"/><g id="m"><use transform="matrix(0.05555555555555555,0,0,0.05555555555555555,0,0)" xlink:href="#z"/><use transform="matrix(0.05555555555555555,0,0,0.05555555555555555,15.166666666666666,0)" xlink:href="#s"/><use transform="matrix(0.05555555555555555,0,0,0.05555555555555555,30.333333333333332,0)" xlink:href="#M"/></g><path d="M24 0v-261h32V0H24" id="N"/><path d="M85-194c31 0 48 13 60 33l-1-100h32l1 261h-30c-2-10 0-23-3-31C134-8 116 4 85 4 32 4 16-35 15-94c0-66 23-100 70-100zm9 24c-40 0-46 34-46 75 0 40 6 74 45 74 42 0 51-32 51-76 0-42-9-74-50-73" id="O"/><g id="n"><use transform="matrix(0.05555555555555555,0,0,0.05555555555555555,0,0)" xlink:href="#H"/><use transform="matrix(0.05555555555555555,0,0,0.05555555555555555,15.166666666666666,0)" xlink:href="#I"/><use transform="matrix(0.05555555555555555,0,0,0.05555555555555555,30.333333333333332,0)" xlink:href="#s"/><use transform="matrix(0.05555555555555555,0,0,0.05555555555555555,45.5,0)" xlink:href="#N"/><use transform="matrix(0.05555555555555555,0,0,0.05555555555555555,60.666666666666664,0)" xlink:href="#O"/></g><path d="M127-220V0H93v-220H8v-28h204v28h-85" id="P"/><path d="M115-194c55 1 70 41 70 98S169 2 115 4C84 4 66-9 55-30l1 105H24l-1-265h31l2 30c10-21 28-34 59-34zm-8 174c40 0 45-34 45-75s-6-73-45-74c-42 0-51 32-51 76 0 43 10 73 51 73" id="Q"/><g id="o"><use transform="matrix(0.05555555555555555,0,0,0.05555555555555555,0,0)" xlink:href="#P"/><use transform="matrix(0.05555555555555555,0,0,0.05555555555555555,15.166666666666666,0)" xlink:href="#M"/><use transform="matrix(0.05555555555555555,0,0,0.05555555555555555,30.333333333333332,0)" xlink:href="#Q"/><use transform="matrix(0.05555555555555555,0,0,0.05555555555555555,45.5,0)" xlink:href="#s"/></g><filter id="a" filterUnits="objectBoundingBox" x="-.02" y="0" width="1.04" height="1.01"><feOffset result="offOut" in="SourceAlpha" dy="6"/><feGaussianBlur result="blurOut" in="offOut" stdDeviation="5"/><feColorMatrix result="colorOut" in="blurOut" values="0 0 0 0 0 0 0 0 0 0 0 0 0 0 0 0 0 0 0.16862745098039217 0"/><feBlend in="SourceGraphic" in2="colorOut"/></filter></defs></g></svg>