<svg xmlns="http://www.w3.org/2000/svg" xmlns:xlink="http://www.w3.org/1999/xlink" xmlns:lucid="lucid" width="1600" height="932"><g transform="translate(-9.43396226415092 -9.43396226415095)" lucid:page-tab-id="0_0"><path d="M233.43 561.43c0 7.74-26.86 14-60 14-33.13 0-60-6.26-60-14v-112c0-7.73 26.87-14 60-14 33.14 0 60 6.27 60 14z" stroke="#000" stroke-width="2" fill="#fff"/><path d="M233.43 449.43c0 7.74-26.86 14-60 14-33.13 0-60-6.26-60-14" stroke="#000" stroke-width="2" fill="none"/><use xlink:href="#a" transform="matrix(1,0,0,1,118.43396226415095,468.433962264151) translate(2.3919753086419675 44.77777777777777)"/><use xlink:href="#b" transform="matrix(1,0,0,1,118.43396226415095,468.433962264151) translate(68.76234567901236 44.77777777777777)"/><use xlink:href="#c" transform="matrix(1,0,0,1,118.43396226415095,468.433962264151) translate(41.648148148148145 63.44444444444444)"/><path d="M569.43 467.43h200v106h-200z" fill="#fff"/><path d="M569.43 467.43h200v40h-200z" fill="#ccc"/><path d="M569.43 467.43h200v106h-200zM569.43 507.43h200M629.43 507.43v66M699.43 507.43v66" stroke="#000" stroke-width="2" fill="none"/><use xlink:href="#d" transform="matrix(1,0,0,1,579.433962264151,467.433962264151) translate(20.518518518518505 23.11111111111111)"/><use xlink:href="#e" transform="matrix(1,0,0,1,579.433962264151,467.433962264151) translate(56.728395061728385 23.11111111111111)"/><use xlink:href="#f" transform="matrix(1,0,0,1,579.433962264151,467.433962264151) translate(94.70987654320987 23.11111111111111)"/><use xlink:href="#g" transform="matrix(1,0,0,1,574.433962264151,509.933962264151) translate(12.922839506172838 24.277777777777775)"/><use xlink:href="#h" transform="matrix(1,0,0,1,574.433962264151,509.933962264151) translate(11.66975308641975 42.94444444444444)"/><use xlink:href="#i" transform="matrix(1,0,0,1,634.433962264151,509.933962264151) translate(11.441358024691358 14.944444444444443)"/><use xlink:href="#j" transform="matrix(1,0,0,1,634.433962264151,509.933962264151) translate(9.712962962962962 33.611111111111114)"/><use xlink:href="#k" transform="matrix(1,0,0,1,634.433962264151,509.933962264151) translate(18.787037037037038 52.277777777777786)"/><use xlink:href="#l" transform="matrix(1,0,0,1,704.433962264151,509.933962264151) translate(2.4104938271604937 33.611111111111114)"/><path d="M825.43 387.43h200v69h-200z" fill="#fff"/><path d="M825.43 387.43h200v40h-200z" fill="#ccc"/><path d="M825.43 387.43h200v69h-200zM825.43 427.43h200M925.43 427.43v29" stroke="#000" stroke-width="2" fill="none"/><use xlink:href="#m" transform="matrix(1,0,0,1,835.4339622641509,387.433962264151) translate(27.82098765432098 23.11111111111111)"/><use xlink:href="#n" transform="matrix(1,0,0,1,835.4339622641509,387.433962264151) translate(83.12962962962962 23.11111111111111)"/><use xlink:href="#o" transform="matrix(1,0,0,1,830.4339622641509,429.933962264151) translate(26.441358024691358 15.11111111111111)"/><use xlink:href="#p" transform="matrix(1,0,0,1,930.4339622641509,429.933962264151) translate(40.67901234567901 15.11111111111111)"/><path d="M825.43 485.43h200v69h-200z" fill="#fff"/><path d="M825.43 485.43h200v40h-200z" fill="#ccc"/><path d="M825.43 485.43h200v69h-200zM825.43 525.43h200M925.43 525.43v29" stroke="#000" stroke-width="2" fill="none"/><use xlink:href="#q" transform="matrix(1,0,0,1,835.4339622641509,485.43396226415086) translate(64.54938271604938 23.11111111111111)"/><use xlink:href="#o" transform="matrix(1,0,0,1,830.4339622641509,527.9339622641509) translate(26.441358024691358 15.11111111111111)"/><use xlink:href="#r" transform="matrix(1,0,0,1,930.4339622641509,527.9339622641509) translate(40.67901234567901 15.11111111111111)"/><path d="M825.43 572.43h200v69h-200z" fill="#fff"/><path d="M825.43 572.43h200v40h-200z" fill="#ccc"/><path d="M825.43 572.43h200v69h-200zM825.43 612.43h200M925.43 612.43v29" stroke="#000" stroke-width="2" fill="none"/><use xlink:href="#s" transform="matrix(1,0,0,1,835.4339622641509,572.433962264151) translate(56.36111111111111 23.11111111111111)"/><use xlink:href="#o" transform="matrix(1,0,0,1,830.4339622641509,614.933962264151) translate(26.441358024691358 15.11111111111111)"/><use xlink:href="#t" transform="matrix(1,0,0,1,930.4339622641509,614.933962264151) translate(40.67901234567901 15.11111111111111)"/><path d="M289.43 107.43h224v814h-224z" fill="#fff"/><path d="M289.43 194.43h224v47h-224zM289.43 288.43h224v29h-224zM289.43 364.43h224v47h-224zM289.43 458.43h224v47h-224zM289.43 552.43h224v29h-224zM289.43 610.43h224v47h-224zM289.43 704.43h224v47h-224zM289.43 798.43h224v29h-224zM289.43 874.43h224v47h-224z" fill="#e6e6e6"/><path d="M289.43 107.43h224v40h-224z" fill="#ccc"/><path d="M289.43 107.43h224v814h-224zM289.43 147.43h224M349.43 147.43v774M431.43 147.43v774" stroke="#000" stroke-width="2" fill="none"/><use xlink:href="#u" transform="matrix(1,0,0,1,299.4339622641509,107.43396226415086) translate(41.592592592592595 23.11111111111111)"/><use xlink:href="#v" transform="matrix(1,0,0,1,299.4339622641509,107.43396226415086) translate(99.45061728395062 23.11111111111111)"/><use xlink:href="#g" transform="matrix(1,0,0,1,294.4339622641509,149.93396226415086) translate(12.922839506172838 14.777777777777775)"/><use xlink:href="#h" transform="matrix(1,0,0,1,294.4339622641509,149.93396226415086) translate(11.66975308641975 33.44444444444444)"/><use xlink:href="#w" transform="matrix(1,0,0,1,354.4339622641509,149.93396226415086) translate(20.941358024691358 14.777777777777775)"/><use xlink:href="#x" transform="matrix(1,0,0,1,354.4339622641509,149.93396226415086) translate(15.302469135802468 33.44444444444444)"/><use xlink:href="#y" transform="matrix(1,0,0,1,436.4339622641509,149.93396226415086) translate(15.734567901234566 24.11111111111111)"/><use xlink:href="#z" transform="matrix(1,0,0,1,294.4339622641509,196.93396226415086) translate(-3.0000000000000036 24.11111111111111)"/><use xlink:href="#A" transform="matrix(1,0,0,1,354.4339622641509,196.93396226415086) translate(13.163580246913579 14.777777777777775)"/><use xlink:href="#B" transform="matrix(1,0,0,1,354.4339622641509,196.93396226415086) translate(17.916666666666664 33.44444444444444)"/><use xlink:href="#y" transform="matrix(1,0,0,1,436.4339622641509,196.93396226415086) translate(15.734567901234566 24.11111111111111)"/><use xlink:href="#g" transform="matrix(1,0,0,1,294.4339622641509,243.93396226415086) translate(12.922839506172838 14.777777777777775)"/><use xlink:href="#h" transform="matrix(1,0,0,1,294.4339622641509,243.93396226415086) translate(11.66975308641975 33.44444444444444)"/><use xlink:href="#C" transform="matrix(1,0,0,1,354.4339622641509,243.93396226415086) translate(21.30864197530864 14.777777777777775)"/><use xlink:href="#x" transform="matrix(1,0,0,1,354.4339622641509,243.93396226415086) translate(15.302469135802468 33.44444444444444)"/><use xlink:href="#y" transform="matrix(1,0,0,1,436.4339622641509,243.93396226415086) translate(15.734567901234566 24.11111111111111)"/><use xlink:href="#z" transform="matrix(1,0,0,1,294.4339622641509,290.93396226415086) translate(-3.0000000000000036 15.11111111111111)"/><use xlink:href="#D" transform="matrix(1,0,0,1,354.4339622641509,290.93396226415086) translate(16.728395061728392 15.11111111111111)"/><use xlink:href="#y" transform="matrix(1,0,0,1,436.4339622641509,290.93396226415086) translate(15.734567901234566 15.11111111111111)"/><use xlink:href="#E" transform="matrix(1,0,0,1,294.4339622641509,319.93396226415086) translate(11.604938271604937 24.11111111111111)"/><use xlink:href="#F" transform="matrix(1,0,0,1,354.4339622641509,319.93396226415086) translate(7.913580246913579 14.777777777777775)"/><use xlink:href="#G" transform="matrix(1,0,0,1,354.4339622641509,319.93396226415086) translate(22.648148148148145 33.44444444444444)"/><use xlink:href="#y" transform="matrix(1,0,0,1,436.4339622641509,319.93396226415086) translate(15.734567901234566 24.11111111111111)"/><use xlink:href="#H" transform="matrix(1,0,0,1,294.4339622641509,366.93396226415086) translate(6.873456790123456 14.777777777777775)"/><use xlink:href="#I" transform="matrix(1,0,0,1,294.4339622641509,366.93396226415086) translate(37.98456790123457 14.777777777777775)"/><use xlink:href="#J" transform="matrix(1,0,0,1,294.4339622641509,366.93396226415086) translate(-1.3580246913580254 33.44444444444444)"/><use xlink:href="#K" transform="matrix(1,0,0,1,354.4339622641509,366.93396226415086) translate(9.231481481481481 14.777777777777775)"/><use xlink:href="#G" transform="matrix(1,0,0,1,354.4339622641509,366.93396226415086) translate(22.648148148148145 33.44444444444444)"/><use xlink:href="#y" transform="matrix(1,0,0,1,436.4339622641509,366.93396226415086) translate(15.734567901234566 24.11111111111111)"/><use xlink:href="#g" transform="matrix(1,0,0,1,294.4339622641509,413.93396226415086) translate(12.922839506172838 14.777777777777775)"/><use xlink:href="#h" transform="matrix(1,0,0,1,294.4339622641509,413.93396226415086) translate(11.66975308641975 33.44444444444444)"/><use xlink:href="#L" transform="matrix(1,0,0,1,354.4339622641509,413.93396226415086) translate(9.296296296296294 14.777777777777775)"/><use xlink:href="#M" transform="matrix(1,0,0,1,354.4339622641509,413.93396226415086) translate(7.049382716049383 33.44444444444444)"/><use xlink:href="#N" transform="matrix(1,0,0,1,354.4339622641509,413.93396226415086) translate(56.308641975308646 33.44444444444444)"/><use xlink:href="#l" transform="matrix(1,0,0,1,436.4339622641509,413.93396226415086) translate(8.410493827160494 24.11111111111111)"/><use xlink:href="#z" transform="matrix(1,0,0,1,294.4339622641509,460.93396226415086) translate(-3.0000000000000036 24.11111111111111)"/><use xlink:href="#O" transform="matrix(1,0,0,1,354.4339622641509,460.93396226415086) translate(2.3179012345678984 14.777777777777775)"/><use xlink:href="#P" transform="matrix(1,0,0,1,354.4339622641509,460.93396226415086) translate(24.743827160493826 14.777777777777775)"/><use xlink:href="#N" transform="matrix(1,0,0,1,354.4339622641509,460.93396226415086) translate(31.679012345679013 33.44444444444444)"/><use xlink:href="#l" transform="matrix(1,0,0,1,436.4339622641509,460.93396226415086) translate(8.410493827160494 24.11111111111111)"/><use xlink:href="#z" transform="matrix(1,0,0,1,294.4339622641509,507.93396226415086) translate(-3.0000000000000036 24.11111111111111)"/><use xlink:href="#Q" transform="matrix(1,0,0,1,354.4339622641509,507.93396226415086) translate(16.57716049382716 14.777777777777775)"/><use xlink:href="#M" transform="matrix(1,0,0,1,354.4339622641509,507.93396226415086) translate(7.049382716049383 33.44444444444444)"/><use xlink:href="#N" transform="matrix(1,0,0,1,354.4339622641509,507.93396226415086) translate(56.308641975308646 33.44444444444444)"/><use xlink:href="#l" transform="matrix(1,0,0,1,436.4339622641509,507.93396226415086) translate(8.410493827160494 24.11111111111111)"/><use xlink:href="#z" transform="matrix(1,0,0,1,294.4339622641509,554.9339622641509) translate(-3.0000000000000036 15.11111111111111)"/><use xlink:href="#R" transform="matrix(1,0,0,1,354.4339622641509,554.9339622641509) translate(16.577160493827158 15.11111111111111)"/><use xlink:href="#N" transform="matrix(1,0,0,1,354.4339622641509,554.9339622641509) translate(46.78086419753086 15.11111111111111)"/><use xlink:href="#l" transform="matrix(1,0,0,1,436.4339622641509,554.9339622641509) translate(8.410493827160494 15.11111111111111)"/><use xlink:href="#z" transform="matrix(1,0,0,1,294.4339622641509,583.9339622641509) translate(-3.0000000000000036 15.11111111111111)"/><use xlink:href="#O" transform="matrix(1,0,0,1,354.4339622641509,583.9339622641509) translate(11.845679012345677 15.11111111111111)"/><use xlink:href="#S" transform="matrix(1,0,0,1,354.4339622641509,583.9339622641509) translate(34.27160493827161 15.11111111111111)"/><use xlink:href="#l" transform="matrix(1,0,0,1,436.4339622641509,583.9339622641509) translate(8.410493827160494 15.11111111111111)"/><use xlink:href="#g" transform="matrix(1,0,0,1,294.4339622641509,612.9339622641509) translate(12.922839506172838 14.777777777777775)"/><use xlink:href="#h" transform="matrix(1,0,0,1,294.4339622641509,612.9339622641509) translate(11.66975308641975 33.44444444444444)"/><use xlink:href="#T" transform="matrix(1,0,0,1,354.4339622641509,612.9339622641509) translate(16.620370370370367 24.11111111111111)"/><use xlink:href="#y" transform="matrix(1,0,0,1,436.4339622641509,612.9339622641509) translate(15.734567901234566 24.11111111111111)"/><use xlink:href="#E" transform="matrix(1,0,0,1,294.4339622641509,659.9339622641509) translate(11.604938271604937 24.11111111111111)"/><use xlink:href="#U" transform="matrix(1,0,0,1,354.4339622641509,659.9339622641509) translate(6.638888888888886 14.777777777777775)"/><use xlink:href="#G" transform="matrix(1,0,0,1,354.4339622641509,659.9339622641509) translate(22.648148148148145 33.44444444444444)"/><use xlink:href="#y" transform="matrix(1,0,0,1,436.4339622641509,659.9339622641509) translate(15.734567901234566 24.11111111111111)"/><use xlink:href="#V" transform="matrix(1,0,0,1,294.4339622641509,706.9339622641509) translate(1.7314814814814774 24.11111111111111)"/><use xlink:href="#W" transform="matrix(1,0,0,1,354.4339622641509,706.9339622641509) translate(20.077160493827158 14.777777777777775)"/><use xlink:href="#X" transform="matrix(1,0,0,1,354.4339622641509,706.9339622641509) translate(15.410493827160494 33.44444444444444)"/><use xlink:href="#y" transform="matrix(1,0,0,1,436.4339622641509,706.9339622641509) translate(15.734567901234566 24.11111111111111)"/><use xlink:href="#g" transform="matrix(1,0,0,1,294.4339622641509,753.9339622641509) translate(12.922839506172838 14.777777777777775)"/><use xlink:href="#h" transform="matrix(1,0,0,1,294.4339622641509,753.9339622641509) translate(11.66975308641975 33.44444444444444)"/><use xlink:href="#Y" transform="matrix(1,0,0,1,354.4339622641509,753.9339622641509) translate(1.4320987654320945 14.777777777777775)"/><use xlink:href="#Z" transform="matrix(1,0,0,1,354.4339622641509,753.9339622641509) translate(-1.981481481481481 33.44444444444444)"/><use xlink:href="#aa" transform="matrix(1,0,0,1,436.4339622641509,753.9339622641509) translate(13.12037037037037 24.11111111111111)"/><use xlink:href="#z" transform="matrix(1,0,0,1,294.4339622641509,800.9339622641509) translate(-3.0000000000000036 15.11111111111111)"/><use xlink:href="#ab" transform="matrix(1,0,0,1,354.4339622641509,800.9339622641509) translate(21.65432098765432 15.11111111111111)"/><use xlink:href="#y" transform="matrix(1,0,0,1,436.4339622641509,800.9339622641509) translate(15.734567901234566 15.11111111111111)"/><use xlink:href="#g" transform="matrix(1,0,0,1,294.4339622641509,829.9339622641509) translate(12.922839506172838 14.777777777777775)"/><use xlink:href="#h" transform="matrix(1,0,0,1,294.4339622641509,829.9339622641509) translate(11.66975308641975 33.44444444444444)"/><use xlink:href="#ac" transform="matrix(1,0,0,1,354.4339622641509,829.9339622641509) translate(1.0648148148148096 14.777777777777775)"/><use xlink:href="#ad" transform="matrix(1,0,0,1,354.4339622641509,829.9339622641509) translate(37.27469135802469 14.777777777777775)"/><use xlink:href="#ae" transform="matrix(1,0,0,1,354.4339622641509,829.9339622641509) translate(12.299382716049383 33.44444444444444)"/><use xlink:href="#l" transform="matrix(1,0,0,1,436.4339622641509,829.9339622641509) translate(8.410493827160494 24.11111111111111)"/><use xlink:href="#z" transform="matrix(1,0,0,1,294.4339622641509,876.9339622641509) translate(-3.0000000000000036 24.11111111111111)"/><use xlink:href="#af" transform="matrix(1,0,0,1,354.4339622641509,876.9339622641509) translate(3.6574074074074048 14.777777777777775)"/><use xlink:href="#x" transform="matrix(1,0,0,1,354.4339622641509,876.9339622641509) translate(15.302469135802468 33.44444444444444)"/><use xlink:href="#y" transform="matrix(1,0,0,1,436.4339622641509,876.9339622641509) translate(15.734567901234566 24.11111111111111)"/><path d="M29.43 29.43h224v376h-224z" fill="#fff"/><path d="M29.43 123.43h224v47h-224zM29.43 217.43h224v47h-224zM29.43 311.43h224v47h-224z" fill="#e6e6e6"/><path d="M29.43 29.43h224v47h-224z" fill="#ccc"/><path d="M29.43 29.43h224v376h-224zM29.43 76.43h224M89.43 76.43v329M171.43 76.43v329" stroke="#000" stroke-width="2" fill="none"/><use xlink:href="#ag" transform="matrix(1,0,0,1,39.43396226415092,29.43396226415095) translate(25.669753086419746 17.277777777777775)"/><use xlink:href="#ah" transform="matrix(1,0,0,1,39.43396226415092,29.43396226415095) translate(47.188271604938265 17.277777777777775)"/><use xlink:href="#ai" transform="matrix(1,0,0,1,39.43396226415092,29.43396226415095) translate(90.35493827160494 17.277777777777775)"/><use xlink:href="#aj" transform="matrix(1,0,0,1,39.43396226415092,29.43396226415095) translate(144.75617283950618 17.277777777777775)"/><use xlink:href="#v" transform="matrix(1,0,0,1,39.43396226415092,29.43396226415095) translate(70.52160493827161 35.94444444444444)"/><use xlink:href="#g" transform="matrix(1,0,0,1,34.43396226415092,78.93396226415095) translate(12.922839506172838 14.777777777777775)"/><use xlink:href="#h" transform="matrix(1,0,0,1,34.43396226415092,78.93396226415095) translate(11.66975308641975 33.44444444444444)"/><use xlink:href="#ak" transform="matrix(1,0,0,1,94.43396226415092,78.93396226415095) translate(8.38888888888889 14.777777777777775)"/><use xlink:href="#al" transform="matrix(1,0,0,1,94.43396226415092,78.93396226415095) translate(25.62962962962963 33.44444444444444)"/><use xlink:href="#am" transform="matrix(1,0,0,1,176.43396226415092,78.93396226415095) translate(-2.0895061728395063 24.11111111111111)"/><use xlink:href="#g" transform="matrix(1,0,0,1,34.43396226415092,125.93396226415095) translate(12.922839506172838 14.777777777777775)"/><use xlink:href="#h" transform="matrix(1,0,0,1,34.43396226415092,125.93396226415095) translate(11.66975308641975 33.44444444444444)"/><use xlink:href="#ak" transform="matrix(1,0,0,1,94.43396226415092,125.93396226415095) translate(8.38888888888889 14.777777777777775)"/><use xlink:href="#an" transform="matrix(1,0,0,1,94.43396226415092,125.93396226415095) translate(26.925925925925924 33.44444444444444)"/><use xlink:href="#ao" transform="matrix(1,0,0,1,176.43396226415092,125.93396226415095) translate(0.6759259259259238 24.11111111111111)"/><use xlink:href="#ap" transform="matrix(1,0,0,1,176.43396226415092,125.93396226415095) translate(45.52777777777778 24.11111111111111)"/><use xlink:href="#g" transform="matrix(1,0,0,1,34.43396226415092,172.93396226415095) translate(12.922839506172838 14.777777777777775)"/><use xlink:href="#h" transform="matrix(1,0,0,1,34.43396226415092,172.93396226415095) translate(11.66975308641975 33.44444444444444)"/><use xlink:href="#aq" transform="matrix(1,0,0,1,94.43396226415092,172.93396226415095) translate(6.638888888888889 14.777777777777775)"/><use xlink:href="#al" transform="matrix(1,0,0,1,94.43396226415092,172.93396226415095) translate(25.62962962962963 33.44444444444444)"/><use xlink:href="#am" transform="matrix(1,0,0,1,176.43396226415092,172.93396226415095) translate(-2.0895061728395063 24.11111111111111)"/><use xlink:href="#g" transform="matrix(1,0,0,1,34.43396226415092,219.93396226415095) translate(12.922839506172838 14.777777777777775)"/><use xlink:href="#h" transform="matrix(1,0,0,1,34.43396226415092,219.93396226415095) translate(11.66975308641975 33.44444444444444)"/><use xlink:href="#aq" transform="matrix(1,0,0,1,94.43396226415092,219.93396226415095) translate(6.638888888888889 14.777777777777775)"/><use xlink:href="#an" transform="matrix(1,0,0,1,94.43396226415092,219.93396226415095) translate(26.925925925925924 33.44444444444444)"/><use xlink:href="#ao" transform="matrix(1,0,0,1,176.43396226415092,219.93396226415095) translate(0.6759259259259238 24.11111111111111)"/><use xlink:href="#ap" transform="matrix(1,0,0,1,176.43396226415092,219.93396226415095) translate(45.52777777777778 24.11111111111111)"/><use xlink:href="#z" transform="matrix(1,0,0,1,34.43396226415092,266.933962264151) translate(-3.0000000000000036 24.11111111111111)"/><use xlink:href="#ar" transform="matrix(1,0,0,1,94.43396226415092,266.933962264151) translate(9.253086419753085 14.777777777777775)"/><use xlink:href="#al" transform="matrix(1,0,0,1,94.43396226415092,266.933962264151) translate(25.62962962962963 33.44444444444444)"/><g><use xlink:href="#am" transform="matrix(1,0,0,1,176.43396226415092,266.933962264151) translate(-2.0895061728395063 24.11111111111111)"/></g><g><use xlink:href="#z" transform="matrix(1,0,0,1,34.43396226415092,313.933962264151) translate(-3.0000000000000036 24.11111111111111)"/></g><g><use xlink:href="#ar" transform="matrix(1,0,0,1,94.43396226415092,313.933962264151) translate(9.253086419753085 14.777777777777775)"/><use xlink:href="#an" transform="matrix(1,0,0,1,94.43396226415092,313.933962264151) translate(26.925925925925924 33.44444444444444)"/></g><g><use xlink:href="#ao" transform="matrix(1,0,0,1,176.43396226415092,313.933962264151) translate(0.6759259259259238 24.11111111111111)"/><use xlink:href="#ap" transform="matrix(1,0,0,1,176.43396226415092,313.933962264151) translate(45.52777777777778 24.11111111111111)"/></g><g><use xlink:href="#E" transform="matrix(1,0,0,1,34.43396226415092,360.933962264151) translate(11.604938271604937 24.11111111111111)"/></g><g><use xlink:href="#as" transform="matrix(1,0,0,1,94.43396226415092,360.933962264151) translate(2.361111111111107 14.777777777777775)"/><use xlink:href="#G" transform="matrix(1,0,0,1,94.43396226415092,360.933962264151) translate(22.648148148148145 33.44444444444444)"/></g><g><use xlink:href="#y" transform="matrix(1,0,0,1,176.43396226415092,360.933962264151) translate(15.734567901234566 24.11111111111111)"/></g><path d="M235.43 505.43h34.5" stroke="#000" stroke-width="2" fill="none"/><path d="M235.46 506.43h-1.03v-2h1.03z"/><path d="M285.2 505.43l-14.27 4.64v-9.27z" stroke="#000" stroke-width="2"/><path d="M533.43 850.93h7.5V508.4h8.68" stroke="#000" stroke-width="2" fill="none"/><path d="M533.43 860.93v-20M513.43 850.93h20M568 518.4l-20-10 20-10M568 508.4h-20" stroke="#000" stroke-width="2" fill="#fff"/><path d="M790.43 487.43h7v-80h8.18" stroke="#000" stroke-width="2" fill="none"/><path d="M790.43 497.43v-20M770.43 487.43h20M824 417.43l-20-10 20-10M824 407.43h-20" stroke="#000" stroke-width="2" fill="#fff"/><path d="M790.43 487.43h7v19.18h8.18" stroke="#000" stroke-width="2" fill="none"/><path d="M790.43 497.43v-20M770.43 487.43h20M824 516.6l-20-10 20-10M824 506.6h-20" stroke="#000" stroke-width="2" fill="#fff"/><path d="M790.43 487.43h7V592.3h8.18" stroke="#000" stroke-width="2" fill="none"/><path d="M790.43 497.43v-20M770.43 487.43h20M824 602.3l-20-10 20-10M824 592.3h-20" stroke="#000" stroke-width="2" fill="#fff"/><path d="M67.93 426.43v79H93.6" stroke="#000" stroke-width="2" fill="none"/><path d="M57.93 426.43h20M67.93 406.43v20M112 515.43l-20-10 20-10M112 505.43H92M1109.43 387.43h228v254h-228z" stroke="#000" stroke-width="2" fill="#fff"/><g><use xlink:href="#at" transform="matrix(1,0,0,1,1114.433962264151,392.43396226415086) translate(7.675000000000011 114.80000000000001)"/><use xlink:href="#au" transform="matrix(1,0,0,1,1114.433962264151,392.43396226415086) translate(32.57500000000001 114.80000000000001)"/><use xlink:href="#av" transform="matrix(1,0,0,1,1114.433962264151,392.43396226415086) translate(112.525 114.80000000000001)"/><use xlink:href="#aw" transform="matrix(1,0,0,1,1114.433962264151,392.43396226415086) translate(45.074999999999996 136.4)"/><use xlink:href="#ax" transform="matrix(1,0,0,1,1114.433962264151,392.43396226415086) translate(80.07499999999999 136.4)"/></g><path d="M1044.94 407.3h22.5v107.13h22.5" stroke="#000" stroke-width="2" fill="none"/><path d="M1029.67 407.3l14.27-4.65v9.27zM1105.2 514.43l-14.27 4.64v-9.27z" stroke="#000" stroke-width="2"/><path d="M1044.94 514.43h45" stroke="#000" stroke-width="2" fill="none"/><path d="M1029.67 514.43l14.27-4.63v9.27zM1105.2 514.43l-14.27 4.64v-9.27z" stroke="#000" stroke-width="2"/><path d="M1044.94 592.3h22.5v-77.87h22.5" stroke="#000" stroke-width="2" fill="none"/><path d="M1029.67 592.3l14.27-4.65v9.27zM1105.2 514.43l-14.27 4.64v-9.27z" stroke="#000" stroke-width="2"/><path d="M1409.43 387.43h180v254h-180z" fill="none"/><path d="M1409.43 641.43c8.77 0 15.88-7.1 15.88-15.87V530.3c0-8.76 7.12-15.87 15.88-15.87-8.76 0-15.87-7.1-15.87-15.87V403.3c0-8.76-7.1-15.87-15.87-15.87" stroke="#000" stroke-width="2" fill="none"/><g><use xlink:href="#ay" transform="matrix(1,0,0,1,1462.058962264151,392.43396226415086) translate(0 28.400000000000013)"/><use xlink:href="#az" transform="matrix(1,0,0,1,1462.058962264151,392.43396226415086) translate(0 50.000000000000014)"/><use xlink:href="#aA" transform="matrix(1,0,0,1,1462.058962264151,392.43396226415086) translate(0 71.60000000000002)"/><use xlink:href="#aB" transform="matrix(1,0,0,1,1462.058962264151,392.43396226415086) translate(40.95 71.60000000000002)"/><use xlink:href="#aC" transform="matrix(1,0,0,1,1462.058962264151,392.43396226415086) translate(0 93.20000000000003)"/><use xlink:href="#aD" transform="matrix(1,0,0,1,1462.058962264151,392.43396226415086) translate(0 114.80000000000003)"/><use xlink:href="#aE" transform="matrix(1,0,0,1,1462.058962264151,392.43396226415086) translate(0 136.4)"/><use xlink:href="#aF" transform="matrix(1,0,0,1,1462.058962264151,392.43396226415086) translate(0 158.00000000000003)"/><use xlink:href="#aG" transform="matrix(1,0,0,1,1462.058962264151,392.43396226415086) translate(40.9 158.00000000000003)"/><use xlink:href="#aH" transform="matrix(1,0,0,1,1462.058962264151,392.43396226415086) translate(0 179.6)"/><use xlink:href="#aI" transform="matrix(1,0,0,1,1462.058962264151,392.43396226415086) translate(63 179.6)"/><use xlink:href="#aJ" transform="matrix(1,0,0,1,1462.058962264151,392.43396226415086) translate(0 201.20000000000002)"/><use xlink:href="#aK" transform="matrix(1,0,0,1,1462.058962264151,392.43396226415086) translate(0 222.79999999999998)"/><use xlink:href="#aL" transform="matrix(1,0,0,1,1462.058962264151,392.43396226415086) translate(51.900000000000006 222.79999999999998)"/></g><defs><path d="M30-248c118-7 216 8 213 122C240-48 200 0 122 0H30v-248zM63-27c89 8 146-16 146-99s-60-101-146-95v194" id="aM"/><path d="M24-231v-30h32v30H24zM24 0v-190h32V0H24" id="aN"/><path d="M114-163C36-179 61-72 57 0H25l-1-190h30c1 12-1 29 2 39 6-27 23-49 58-41v29" id="aO"/><path d="M100-194c63 0 86 42 84 106H49c0 40 14 67 53 68 26 1 43-12 49-29l28 8c-11 28-37 45-77 45C44 4 14-33 15-96c1-61 26-98 85-98zm52 81c6-60-76-77-97-28-3 7-6 17-6 28h103" id="aP"/><path d="M96-169c-40 0-48 33-48 73s9 75 48 75c24 0 41-14 43-38l32 2c-6 37-31 61-74 61-59 0-76-41-82-99-10-93 101-131 147-64 4 7 5 14 7 22l-32 3c-4-21-16-35-41-35" id="aQ"/><path d="M59-47c-2 24 18 29 38 22v24C64 9 27 4 27-40v-127H5v-23h24l9-43h21v43h35v23H59v120" id="aR"/><path d="M100-194c62-1 85 37 85 99 1 63-27 99-86 99S16-35 15-95c0-66 28-99 85-99zM99-20c44 1 53-31 53-75 0-43-8-75-51-75s-53 32-53 75 10 74 51 75" id="aS"/><path d="M179-190L93 31C79 59 56 82 12 73V49c39 6 53-20 64-50L1-190h34L92-34l54-156h33" id="aT"/><g id="a"><use transform="matrix(0.04320987654320988,0,0,0.04320987654320988,0,0)" xlink:href="#aM"/><use transform="matrix(0.04320987654320988,0,0,0.04320987654320988,11.19135802469136,0)" xlink:href="#aN"/><use transform="matrix(0.04320987654320988,0,0,0.04320987654320988,14.60493827160494,0)" xlink:href="#aO"/><use transform="matrix(0.04320987654320988,0,0,0.04320987654320988,19.746913580246915,0)" xlink:href="#aP"/><use transform="matrix(0.04320987654320988,0,0,0.04320987654320988,28.388888888888893,0)" xlink:href="#aQ"/><use transform="matrix(0.04320987654320988,0,0,0.04320987654320988,36.16666666666667,0)" xlink:href="#aR"/><use transform="matrix(0.04320987654320988,0,0,0.04320987654320988,40.48765432098766,0)" xlink:href="#aS"/><use transform="matrix(0.04320987654320988,0,0,0.04320987654320988,49.12962962962963,0)" xlink:href="#aO"/><use transform="matrix(0.04320987654320988,0,0,0.04320987654320988,54.27160493827161,0)" xlink:href="#aT"/></g><path d="M30 0v-248h187v28H63v79h144v27H63v87h162V0H30" id="aU"/><path d="M117-194c89-4 53 116 60 194h-32v-121c0-31-8-49-39-48C34-167 62-67 57 0H25l-1-190h30c1 10-1 24 2 32 11-22 29-35 61-36" id="aV"/><g id="b"><use transform="matrix(0.04320987654320988,0,0,0.04320987654320988,0,0)" xlink:href="#aU"/><use transform="matrix(0.04320987654320988,0,0,0.04320987654320988,10.370370370370372,0)" xlink:href="#aV"/><use transform="matrix(0.04320987654320988,0,0,0.04320987654320988,19.01234567901235,0)" xlink:href="#aR"/><use transform="matrix(0.04320987654320988,0,0,0.04320987654320988,23.333333333333336,0)" xlink:href="#aN"/><use transform="matrix(0.04320987654320988,0,0,0.04320987654320988,26.746913580246915,0)" xlink:href="#aR"/><use transform="matrix(0.04320987654320988,0,0,0.04320987654320988,31.067901234567906,0)" xlink:href="#aT"/></g><path d="M232-93c-1 65-40 97-104 97C67 4 28-28 28-90v-158h33c8 89-33 224 67 224 102 0 64-133 71-224h33v155" id="aW"/><path d="M33 0v-248h34V0H33" id="aX"/><g id="c"><use transform="matrix(0.04320987654320988,0,0,0.04320987654320988,0,0)" xlink:href="#aW"/><use transform="matrix(0.04320987654320988,0,0,0.04320987654320988,11.19135802469136,0)" xlink:href="#aX"/><use transform="matrix(0.04320987654320988,0,0,0.04320987654320988,15.512345679012347,0)" xlink:href="#aM"/></g><path d="M233-177c-1 41-23 64-60 70L243 0h-38l-65-103H63V0H30v-248c88 3 205-21 203 71zM63-129c60-2 137 13 137-47 0-61-80-42-137-45v92" id="aY"/><path d="M24 0v-261h32V0H24" id="aZ"/><g id="d"><use transform="matrix(0.04320987654320988,0,0,0.04320987654320988,0,0)" xlink:href="#aY"/><use transform="matrix(0.04320987654320988,0,0,0.04320987654320988,11.19135802469136,0)" xlink:href="#aS"/><use transform="matrix(0.04320987654320988,0,0,0.04320987654320988,19.833333333333336,0)" xlink:href="#aZ"/><use transform="matrix(0.04320987654320988,0,0,0.04320987654320988,23.246913580246915,0)" xlink:href="#aP"/></g><path d="M127-220V0H93v-220H8v-28h204v28h-85" id="ba"/><path d="M115-194c55 1 70 41 70 98S169 2 115 4C84 4 66-9 55-30l1 105H24l-1-265h31l2 30c10-21 28-34 59-34zm-8 174c40 0 45-34 45-75s-6-73-45-74c-42 0-51 32-51 76 0 43 10 73 51 73" id="bb"/><g id="e"><use transform="matrix(0.04320987654320988,0,0,0.04320987654320988,0,0)" xlink:href="#ba"/><use transform="matrix(0.04320987654320988,0,0,0.04320987654320988,8.598765432098766,0)" xlink:href="#aT"/><use transform="matrix(0.04320987654320988,0,0,0.04320987654320988,16.376543209876544,0)" xlink:href="#bb"/><use transform="matrix(0.04320987654320988,0,0,0.04320987654320988,25.018518518518523,0)" xlink:href="#aP"/></g><path d="M185-189c-5-48-123-54-124 2 14 75 158 14 163 119 3 78-121 87-175 55-17-10-28-26-33-46l33-7c5 56 141 63 141-1 0-78-155-14-162-118-5-82 145-84 179-34 5 7 8 16 11 25" id="bc"/><path d="M84 4C-5 8 30-112 23-190h32v120c0 31 7 50 39 49 72-2 45-101 50-169h31l1 190h-30c-1-10 1-25-2-33-11 22-28 36-60 37" id="bd"/><path d="M115-194c53 0 69 39 70 98 0 66-23 100-70 100C84 3 66-7 56-30L54 0H23l1-261h32v101c10-23 28-34 59-34zm-8 174c40 0 45-34 45-75 0-40-5-75-45-74-42 0-51 32-51 76 0 43 10 73 51 73" id="be"/><g id="f"><use transform="matrix(0.04320987654320988,0,0,0.04320987654320988,0,0)" xlink:href="#bc"/><use transform="matrix(0.04320987654320988,0,0,0.04320987654320988,10.370370370370372,0)" xlink:href="#bd"/><use transform="matrix(0.04320987654320988,0,0,0.04320987654320988,19.01234567901235,0)" xlink:href="#be"/><use transform="matrix(0.04320987654320988,0,0,0.04320987654320988,27.654320987654323,0)" xlink:href="#aP"/><use transform="matrix(0.04320987654320988,0,0,0.04320987654320988,36.2962962962963,0)" xlink:href="#aV"/><use transform="matrix(0.04320987654320988,0,0,0.04320987654320988,44.93827160493828,0)" xlink:href="#aR"/><use transform="matrix(0.04320987654320988,0,0,0.04320987654320988,49.25925925925925,0)" xlink:href="#aN"/><use transform="matrix(0.04320987654320988,0,0,0.04320987654320988,52.67283950617284,0)" xlink:href="#aR"/><use transform="matrix(0.04320987654320988,0,0,0.04320987654320988,56.99382716049384,0)" xlink:href="#aT"/></g><path d="M190 0L58-211 59 0H30v-248h39L202-35l-2-213h31V0h-41" id="bf"/><g id="g"><use transform="matrix(0.04320987654320988,0,0,0.04320987654320988,0,0)" xlink:href="#bf"/><use transform="matrix(0.04320987654320988,0,0,0.04320987654320988,11.19135802469136,0)" xlink:href="#aS"/><use transform="matrix(0.04320987654320988,0,0,0.04320987654320988,19.833333333333336,0)" xlink:href="#aR"/></g><g id="h"><use transform="matrix(0.04320987654320988,0,0,0.04320987654320988,0,0)" xlink:href="#bf"/><use transform="matrix(0.04320987654320988,0,0,0.04320987654320988,11.19135802469136,0)" xlink:href="#bd"/><use transform="matrix(0.04320987654320988,0,0,0.04320987654320988,19.833333333333336,0)" xlink:href="#aZ"/><use transform="matrix(0.04320987654320988,0,0,0.04320987654320988,23.246913580246915,0)" xlink:href="#aZ"/></g><path d="M212-179c-10-28-35-45-73-45-59 0-87 40-87 99 0 60 29 101 89 101 43 0 62-24 78-52l27 14C228-24 195 4 139 4 59 4 22-46 18-125c-6-104 99-153 187-111 19 9 31 26 39 46" id="bg"/><path d="M85-194c31 0 48 13 60 33l-1-100h32l1 261h-30c-2-10 0-23-3-31C134-8 116 4 85 4 32 4 16-35 15-94c0-66 23-100 70-100zm9 24c-40 0-46 34-46 75 0 40 6 74 45 74 42 0 51-32 51-76 0-42-9-74-50-73" id="bh"/><g id="i"><use transform="matrix(0.04320987654320988,0,0,0.04320987654320988,0,0)" xlink:href="#bg"/><use transform="matrix(0.04320987654320988,0,0,0.04320987654320988,11.19135802469136,0)" xlink:href="#aS"/><use transform="matrix(0.04320987654320988,0,0,0.04320987654320988,19.833333333333336,0)" xlink:href="#bh"/><use transform="matrix(0.04320987654320988,0,0,0.04320987654320988,28.47530864197531,0)" xlink:href="#aP"/></g><path d="M87 75C49 33 22-17 22-94c0-76 28-126 65-167h31c-38 41-64 92-64 168S80 34 118 75H87" id="bi"/><path d="M160-131c35 5 61 23 61 61C221 17 115-2 30 0v-248c76 3 177-17 177 60 0 33-19 50-47 57zm-97-11c50-1 110 9 110-42 0-47-63-36-110-37v79zm0 115c55-2 124 14 124-45 0-56-70-42-124-44v89" id="bj"/><path d="M141-36C126-15 110 5 73 4 37 3 15-17 15-53c-1-64 63-63 125-63 3-35-9-54-41-54-24 1-41 7-42 31l-33-3c5-37 33-52 76-52 45 0 72 20 72 64v82c-1 20 7 32 28 27v20c-31 9-61-2-59-35zM48-53c0 20 12 33 32 33 41-3 63-29 60-74-43 2-92-5-92 41" id="bk"/><path d="M135-143c-3-34-86-38-87 0 15 53 115 12 119 90S17 21 10-45l28-5c4 36 97 45 98 0-10-56-113-15-118-90-4-57 82-63 122-42 12 7 21 19 24 35" id="bl"/><g id="j"><use transform="matrix(0.04320987654320988,0,0,0.04320987654320988,0,0)" xlink:href="#bi"/><use transform="matrix(0.04320987654320988,0,0,0.04320987654320988,5.1419753086419755,0)" xlink:href="#bj"/><use transform="matrix(0.04320987654320988,0,0,0.04320987654320988,15.512345679012347,0)" xlink:href="#bk"/><use transform="matrix(0.04320987654320988,0,0,0.04320987654320988,24.154320987654323,0)" xlink:href="#bl"/><use transform="matrix(0.04320987654320988,0,0,0.04320987654320988,31.9320987654321,0)" xlink:href="#aP"/></g><path d="M27 0v-27h64v-190l-56 39v-29l58-41h29v221h61V0H27" id="bm"/><path d="M101-251c68 0 85 55 85 127S166 4 100 4C33 4 14-52 14-124c0-73 17-127 87-127zm-1 229c47 0 54-49 54-102s-4-102-53-102c-51 0-55 48-55 102 0 53 5 102 54 102" id="bn"/><path d="M33-261c38 41 65 92 65 168S71 34 33 75H2C39 34 66-17 66-93S39-220 2-261h31" id="bo"/><g id="k"><use transform="matrix(0.04320987654320988,0,0,0.04320987654320988,0,0)" xlink:href="#bm"/><use transform="matrix(0.04320987654320988,0,0,0.04320987654320988,8.641975308641976,0)" xlink:href="#bn"/><use transform="matrix(0.04320987654320988,0,0,0.04320987654320988,17.283950617283953,0)" xlink:href="#bo"/></g><path d="M210-169c-67 3-38 105-44 169h-31v-121c0-29-5-50-35-48C34-165 62-65 56 0H25l-1-190h30c1 10-1 24 2 32 10-44 99-50 107 0 11-21 27-35 58-36 85-2 47 119 55 194h-31v-121c0-29-5-49-35-48" id="bp"/><g id="l"><use transform="matrix(0.04320987654320988,0,0,0.04320987654320988,0,0)" xlink:href="#bf"/><use transform="matrix(0.04320987654320988,0,0,0.04320987654320988,11.19135802469136,0)" xlink:href="#bd"/><use transform="matrix(0.04320987654320988,0,0,0.04320987654320988,19.833333333333336,0)" xlink:href="#bp"/><use transform="matrix(0.04320987654320988,0,0,0.04320987654320988,32.75308641975309,0)" xlink:href="#be"/><use transform="matrix(0.04320987654320988,0,0,0.04320987654320988,41.39506172839506,0)" xlink:href="#aP"/><use transform="matrix(0.04320987654320988,0,0,0.04320987654320988,50.037037037037045,0)" xlink:href="#aO"/></g><path d="M30 0v-248h33v221h125V0H30" id="bq"/><path d="M108 0H70L1-190h34L89-25l56-165h34" id="br"/><g id="m"><use transform="matrix(0.04320987654320988,0,0,0.04320987654320988,0,0)" xlink:href="#bq"/><use transform="matrix(0.04320987654320988,0,0,0.04320987654320988,8.641975308641976,0)" xlink:href="#aP"/><use transform="matrix(0.04320987654320988,0,0,0.04320987654320988,17.283950617283953,0)" xlink:href="#aV"/><use transform="matrix(0.04320987654320988,0,0,0.04320987654320988,25.925925925925927,0)" xlink:href="#aS"/><use transform="matrix(0.04320987654320988,0,0,0.04320987654320988,34.567901234567906,0)" xlink:href="#br"/><use transform="matrix(0.04320987654320988,0,0,0.04320987654320988,42.345679012345684,0)" xlink:href="#aS"/></g><g id="n"><use transform="matrix(0.04320987654320988,0,0,0.04320987654320988,0,0)" xlink:href="#aU"/><use transform="matrix(0.04320987654320988,0,0,0.04320987654320988,10.370370370370372,0)" xlink:href="#bp"/><use transform="matrix(0.04320987654320988,0,0,0.04320987654320988,23.290123456790127,0)" xlink:href="#bb"/><use transform="matrix(0.04320987654320988,0,0,0.04320987654320988,31.9320987654321,0)" xlink:href="#aZ"/><use transform="matrix(0.04320987654320988,0,0,0.04320987654320988,35.345679012345684,0)" xlink:href="#aS"/><use transform="matrix(0.04320987654320988,0,0,0.04320987654320988,43.98765432098766,0)" xlink:href="#aT"/><use transform="matrix(0.04320987654320988,0,0,0.04320987654320988,51.76543209876544,0)" xlink:href="#aP"/><use transform="matrix(0.04320987654320988,0,0,0.04320987654320988,60.40740740740741,0)" xlink:href="#aP"/></g><g id="o"><use transform="matrix(0.04320987654320988,0,0,0.04320987654320988,0,0)" xlink:href="#bg"/><use transform="matrix(0.04320987654320988,0,0,0.04320987654320988,11.19135802469136,0)" xlink:href="#aS"/><use transform="matrix(0.04320987654320988,0,0,0.04320987654320988,19.833333333333336,0)" xlink:href="#bh"/><use transform="matrix(0.04320987654320988,0,0,0.04320987654320988,28.47530864197531,0)" xlink:href="#aP"/></g><use transform="matrix(0.04320987654320988,0,0,0.04320987654320988,0,0)" xlink:href="#bm" id="p"/><path d="M30-248c87 1 191-15 191 75 0 78-77 80-158 76V0H30v-248zm33 125c57 0 124 11 124-50 0-59-68-47-124-48v98" id="bs"/><g id="q"><use transform="matrix(0.04320987654320988,0,0,0.04320987654320988,0,0)" xlink:href="#bs"/><use transform="matrix(0.04320987654320988,0,0,0.04320987654320988,10.370370370370372,0)" xlink:href="#bk"/><use transform="matrix(0.04320987654320988,0,0,0.04320987654320988,19.01234567901235,0)" xlink:href="#aO"/><use transform="matrix(0.04320987654320988,0,0,0.04320987654320988,24.154320987654323,0)" xlink:href="#aR"/><use transform="matrix(0.04320987654320988,0,0,0.04320987654320988,28.47530864197531,0)" xlink:href="#aV"/><use transform="matrix(0.04320987654320988,0,0,0.04320987654320988,37.117283950617285,0)" xlink:href="#aP"/><use transform="matrix(0.04320987654320988,0,0,0.04320987654320988,45.75925925925927,0)" xlink:href="#aO"/></g><path d="M101-251c82-7 93 87 43 132L82-64C71-53 59-42 53-27h129V0H18c2-99 128-94 128-182 0-28-16-43-45-43s-46 15-49 41l-32-3c6-41 34-60 81-64" id="bt"/><use transform="matrix(0.04320987654320988,0,0,0.04320987654320988,0,0)" xlink:href="#bt" id="r"/><g id="s"><use transform="matrix(0.04320987654320988,0,0,0.04320987654320988,0,0)" xlink:href="#bg"/><use transform="matrix(0.04320987654320988,0,0,0.04320987654320988,11.19135802469136,0)" xlink:href="#bd"/><use transform="matrix(0.04320987654320988,0,0,0.04320987654320988,19.833333333333336,0)" xlink:href="#bl"/><use transform="matrix(0.04320987654320988,0,0,0.04320987654320988,27.611111111111114,0)" xlink:href="#aR"/><use transform="matrix(0.04320987654320988,0,0,0.04320987654320988,31.9320987654321,0)" xlink:href="#aS"/><use transform="matrix(0.04320987654320988,0,0,0.04320987654320988,40.574074074074076,0)" xlink:href="#bp"/><use transform="matrix(0.04320987654320988,0,0,0.04320987654320988,53.49382716049383,0)" xlink:href="#aP"/><use transform="matrix(0.04320987654320988,0,0,0.04320987654320988,62.1358024691358,0)" xlink:href="#aO"/></g><path d="M126-127c33 6 58 20 58 59 0 88-139 92-164 29-3-8-5-16-6-25l32-3c6 27 21 44 54 44 32 0 52-15 52-46 0-38-36-46-79-43v-28c39 1 72-4 72-42 0-27-17-43-46-43-28 0-47 15-49 41l-32-3c6-42 35-63 81-64 48-1 79 21 79 65 0 36-21 52-52 59" id="bu"/><use transform="matrix(0.04320987654320988,0,0,0.04320987654320988,0,0)" xlink:href="#bu" id="t"/><g id="u"><use transform="matrix(0.04320987654320988,0,0,0.04320987654320988,0,0)" xlink:href="#bg"/><use transform="matrix(0.04320987654320988,0,0,0.04320987654320988,11.19135802469136,0)" xlink:href="#aS"/><use transform="matrix(0.04320987654320988,0,0,0.04320987654320988,19.833333333333336,0)" xlink:href="#aV"/><use transform="matrix(0.04320987654320988,0,0,0.04320987654320988,28.47530864197531,0)" xlink:href="#aR"/><use transform="matrix(0.04320987654320988,0,0,0.04320987654320988,32.7962962962963,0)" xlink:href="#bk"/><use transform="matrix(0.04320987654320988,0,0,0.04320987654320988,41.43827160493827,0)" xlink:href="#aQ"/><use transform="matrix(0.04320987654320988,0,0,0.04320987654320988,49.21604938271606,0)" xlink:href="#aR"/></g><g id="v"><use transform="matrix(0.04320987654320988,0,0,0.04320987654320988,0,0)" xlink:href="#ba"/><use transform="matrix(0.04320987654320988,0,0,0.04320987654320988,7.734567901234567,0)" xlink:href="#aP"/><use transform="matrix(0.04320987654320988,0,0,0.04320987654320988,16.376543209876544,0)" xlink:href="#bp"/><use transform="matrix(0.04320987654320988,0,0,0.04320987654320988,29.296296296296298,0)" xlink:href="#bb"/><use transform="matrix(0.04320987654320988,0,0,0.04320987654320988,37.93827160493827,0)" xlink:href="#aZ"/><use transform="matrix(0.04320987654320988,0,0,0.04320987654320988,41.351851851851855,0)" xlink:href="#bk"/><use transform="matrix(0.04320987654320988,0,0,0.04320987654320988,49.99382716049383,0)" xlink:href="#aR"/><use transform="matrix(0.04320987654320988,0,0,0.04320987654320988,54.314814814814824,0)" xlink:href="#aP"/></g><path d="M63-220v92h138v28H63V0H30v-248h175v28H63" id="bv"/><g id="w"><use transform="matrix(0.04320987654320988,0,0,0.04320987654320988,0,0)" xlink:href="#bv"/><use transform="matrix(0.04320987654320988,0,0,0.04320987654320988,9.462962962962964,0)" xlink:href="#aN"/><use transform="matrix(0.04320987654320988,0,0,0.04320987654320988,12.876543209876544,0)" xlink:href="#aO"/><use transform="matrix(0.04320987654320988,0,0,0.04320987654320988,18.01851851851852,0)" xlink:href="#bl"/><use transform="matrix(0.04320987654320988,0,0,0.04320987654320988,25.796296296296298,0)" xlink:href="#aR"/></g><g id="x"><use transform="matrix(0.04320987654320988,0,0,0.04320987654320988,0,0)" xlink:href="#bf"/><use transform="matrix(0.04320987654320988,0,0,0.04320987654320988,11.19135802469136,0)" xlink:href="#bk"/><use transform="matrix(0.04320987654320988,0,0,0.04320987654320988,19.833333333333336,0)" xlink:href="#bp"/><use transform="matrix(0.04320987654320988,0,0,0.04320987654320988,32.75308641975309,0)" xlink:href="#aP"/></g><path d="M177-190C167-65 218 103 67 71c-23-6-38-20-44-43l32-5c15 47 100 32 89-28v-30C133-14 115 1 83 1 29 1 15-40 15-95c0-56 16-97 71-98 29-1 48 16 59 35 1-10 0-23 2-32h30zM94-22c36 0 50-32 50-73 0-42-14-75-50-75-39 0-46 34-46 75s6 73 46 73" id="bw"/><g id="y"><use transform="matrix(0.04320987654320988,0,0,0.04320987654320988,0,0)" xlink:href="#bc"/><use transform="matrix(0.04320987654320988,0,0,0.04320987654320988,10.370370370370372,0)" xlink:href="#aR"/><use transform="matrix(0.04320987654320988,0,0,0.04320987654320988,14.691358024691363,0)" xlink:href="#aO"/><use transform="matrix(0.04320987654320988,0,0,0.04320987654320988,19.833333333333336,0)" xlink:href="#aN"/><use transform="matrix(0.04320987654320988,0,0,0.04320987654320988,23.246913580246915,0)" xlink:href="#aV"/><use transform="matrix(0.04320987654320988,0,0,0.04320987654320988,31.888888888888893,0)" xlink:href="#bw"/></g><g id="z"><use transform="matrix(0.04320987654320988,0,0,0.04320987654320988,0,0)" xlink:href="#bf"/><use transform="matrix(0.04320987654320988,0,0,0.04320987654320988,11.19135802469136,0)" xlink:href="#bd"/><use transform="matrix(0.04320987654320988,0,0,0.04320987654320988,19.833333333333336,0)" xlink:href="#aZ"/><use transform="matrix(0.04320987654320988,0,0,0.04320987654320988,23.246913580246915,0)" xlink:href="#aZ"/><use transform="matrix(0.04320987654320988,0,0,0.04320987654320988,26.6604938271605,0)" xlink:href="#bk"/><use transform="matrix(0.04320987654320988,0,0,0.04320987654320988,35.302469135802475,0)" xlink:href="#be"/><use transform="matrix(0.04320987654320988,0,0,0.04320987654320988,43.94444444444445,0)" xlink:href="#aZ"/><use transform="matrix(0.04320987654320988,0,0,0.04320987654320988,47.35802469135803,0)" xlink:href="#aP"/></g><path d="M240 0l2-218c-23 76-54 145-80 218h-23L58-218 59 0H30v-248h44l77 211c21-75 51-140 76-211h43V0h-30" id="bx"/><g id="A"><use transform="matrix(0.04320987654320988,0,0,0.04320987654320988,0,0)" xlink:href="#bx"/><use transform="matrix(0.04320987654320988,0,0,0.04320987654320988,12.919753086419755,0)" xlink:href="#aN"/><use transform="matrix(0.04320987654320988,0,0,0.04320987654320988,16.333333333333336,0)" xlink:href="#bh"/><use transform="matrix(0.04320987654320988,0,0,0.04320987654320988,24.97530864197531,0)" xlink:href="#bh"/><use transform="matrix(0.04320987654320988,0,0,0.04320987654320988,33.617283950617285,0)" xlink:href="#aZ"/><use transform="matrix(0.04320987654320988,0,0,0.04320987654320988,37.03086419753087,0)" xlink:href="#aP"/></g><g id="B"><use transform="matrix(0.04320987654320988,0,0,0.04320987654320988,0,0)" xlink:href="#aX"/><use transform="matrix(0.04320987654320988,0,0,0.04320987654320988,4.320987654320988,0)" xlink:href="#aV"/><use transform="matrix(0.04320987654320988,0,0,0.04320987654320988,12.962962962962964,0)" xlink:href="#aN"/><use transform="matrix(0.04320987654320988,0,0,0.04320987654320988,16.376543209876544,0)" xlink:href="#aR"/><use transform="matrix(0.04320987654320988,0,0,0.04320987654320988,20.69753086419753,0)" xlink:href="#aN"/><use transform="matrix(0.04320987654320988,0,0,0.04320987654320988,24.111111111111114,0)" xlink:href="#bk"/><use transform="matrix(0.04320987654320988,0,0,0.04320987654320988,32.75308641975309,0)" xlink:href="#aZ"/></g><g id="C"><use transform="matrix(0.04320987654320988,0,0,0.04320987654320988,0,0)" xlink:href="#bq"/><use transform="matrix(0.04320987654320988,0,0,0.04320987654320988,8.641975308641976,0)" xlink:href="#bk"/><use transform="matrix(0.04320987654320988,0,0,0.04320987654320988,17.283950617283953,0)" xlink:href="#bl"/><use transform="matrix(0.04320987654320988,0,0,0.04320987654320988,25.06172839506173,0)" xlink:href="#aR"/></g><path d="M101-234c-31-9-42 10-38 44h38v23H63V0H32v-167H5v-23h27c-7-52 17-82 69-68v24" id="by"/><path d="M141 0L90-78 38 0H4l68-98-65-92h35l48 74 47-74h35l-64 92 68 98h-35" id="bz"/><g id="D"><use transform="matrix(0.04320987654320988,0,0,0.04320987654320988,0,0)" xlink:href="#bc"/><use transform="matrix(0.04320987654320988,0,0,0.04320987654320988,10.370370370370372,0)" xlink:href="#bd"/><use transform="matrix(0.04320987654320988,0,0,0.04320987654320988,19.01234567901235,0)" xlink:href="#by"/><use transform="matrix(0.04320987654320988,0,0,0.04320987654320988,23.030864197530867,0)" xlink:href="#by"/><use transform="matrix(0.04320987654320988,0,0,0.04320987654320988,27.351851851851855,0)" xlink:href="#aN"/><use transform="matrix(0.04320987654320988,0,0,0.04320987654320988,30.765432098765434,0)" xlink:href="#bz"/></g><path d="M194 0L95-120 63-95V0H30v-248h33v124l119-124h40L117-140 236 0h-42" id="bA"/><g id="E"><use transform="matrix(0.04320987654320988,0,0,0.04320987654320988,0,0)" xlink:href="#bA"/><use transform="matrix(0.04320987654320988,0,0,0.04320987654320988,10.370370370370372,0)" xlink:href="#aP"/><use transform="matrix(0.04320987654320988,0,0,0.04320987654320988,19.01234567901235,0)" xlink:href="#aT"/></g><path d="M205 0l-28-72H64L36 0H1l101-248h38L239 0h-34zm-38-99l-47-123c-12 45-31 82-46 123h93" id="bB"/><g id="F"><use transform="matrix(0.04320987654320988,0,0,0.04320987654320988,0,0)" xlink:href="#bB"/><use transform="matrix(0.04320987654320988,0,0,0.04320987654320988,10.370370370370372,0)" xlink:href="#aQ"/><use transform="matrix(0.04320987654320988,0,0,0.04320987654320988,18.148148148148152,0)" xlink:href="#aQ"/><use transform="matrix(0.04320987654320988,0,0,0.04320987654320988,25.925925925925927,0)" xlink:href="#aS"/><use transform="matrix(0.04320987654320988,0,0,0.04320987654320988,34.567901234567906,0)" xlink:href="#bd"/><use transform="matrix(0.04320987654320988,0,0,0.04320987654320988,43.20987654320988,0)" xlink:href="#aV"/><use transform="matrix(0.04320987654320988,0,0,0.04320987654320988,51.851851851851855,0)" xlink:href="#aR"/></g><g id="G"><use transform="matrix(0.04320987654320988,0,0,0.04320987654320988,0,0)" xlink:href="#aW"/><use transform="matrix(0.04320987654320988,0,0,0.04320987654320988,11.19135802469136,0)" xlink:href="#aX"/><use transform="matrix(0.04320987654320988,0,0,0.04320987654320988,15.512345679012347,0)" xlink:href="#aM"/></g><g id="H"><use transform="matrix(0.04320987654320988,0,0,0.04320987654320988,0,0)" xlink:href="#bA"/><use transform="matrix(0.04320987654320988,0,0,0.04320987654320988,10.370370370370372,0)" xlink:href="#aP"/><use transform="matrix(0.04320987654320988,0,0,0.04320987654320988,19.01234567901235,0)" xlink:href="#aT"/></g><path d="M16-82v-28h88v28H16" id="bC"/><use transform="matrix(0.04320987654320988,0,0,0.04320987654320988,0,0)" xlink:href="#bC" id="I"/><g id="J"><use transform="matrix(0.04320987654320988,0,0,0.04320987654320988,0,0)" xlink:href="#bB"/><use transform="matrix(0.04320987654320988,0,0,0.04320987654320988,10.370370370370372,0)" xlink:href="#bd"/><use transform="matrix(0.04320987654320988,0,0,0.04320987654320988,19.01234567901235,0)" xlink:href="#aR"/><use transform="matrix(0.04320987654320988,0,0,0.04320987654320988,23.333333333333336,0)" xlink:href="#aS"/><use transform="matrix(0.04320987654320988,0,0,0.04320987654320988,31.97530864197531,0)" xlink:href="#aX"/><use transform="matrix(0.04320987654320988,0,0,0.04320987654320988,36.2962962962963,0)" xlink:href="#aV"/><use transform="matrix(0.04320987654320988,0,0,0.04320987654320988,44.93827160493828,0)" xlink:href="#aQ"/></g><g id="K"><use transform="matrix(0.04320987654320988,0,0,0.04320987654320988,0,0)" xlink:href="#bg"/><use transform="matrix(0.04320987654320988,0,0,0.04320987654320988,11.19135802469136,0)" xlink:href="#aS"/><use transform="matrix(0.04320987654320988,0,0,0.04320987654320988,19.833333333333336,0)" xlink:href="#aV"/><use transform="matrix(0.04320987654320988,0,0,0.04320987654320988,28.47530864197531,0)" xlink:href="#aR"/><use transform="matrix(0.04320987654320988,0,0,0.04320987654320988,32.7962962962963,0)" xlink:href="#bk"/><use transform="matrix(0.04320987654320988,0,0,0.04320987654320988,41.43827160493827,0)" xlink:href="#aQ"/><use transform="matrix(0.04320987654320988,0,0,0.04320987654320988,49.21604938271606,0)" xlink:href="#aR"/></g><g id="L"><use transform="matrix(0.04320987654320988,0,0,0.04320987654320988,0,0)" xlink:href="#bs"/><use transform="matrix(0.04320987654320988,0,0,0.04320987654320988,10.370370370370372,0)" xlink:href="#aO"/><use transform="matrix(0.04320987654320988,0,0,0.04320987654320988,15.512345679012347,0)" xlink:href="#aN"/><use transform="matrix(0.04320987654320988,0,0,0.04320987654320988,18.92592592592593,0)" xlink:href="#bp"/><use transform="matrix(0.04320987654320988,0,0,0.04320987654320988,31.845679012345684,0)" xlink:href="#bk"/><use transform="matrix(0.04320987654320988,0,0,0.04320987654320988,40.48765432098766,0)" xlink:href="#aO"/><use transform="matrix(0.04320987654320988,0,0,0.04320987654320988,45.62962962962963,0)" xlink:href="#aT"/></g><path d="M106-169C34-169 62-67 57 0H25v-261h32l-1 103c12-21 28-36 61-36 89 0 53 116 60 194h-32v-121c2-32-8-49-39-48" id="bD"/><g id="M"><use transform="matrix(0.04320987654320988,0,0,0.04320987654320988,0,0)" xlink:href="#bs"/><use transform="matrix(0.04320987654320988,0,0,0.04320987654320988,10.370370370370372,0)" xlink:href="#bD"/><use transform="matrix(0.04320987654320988,0,0,0.04320987654320988,19.01234567901235,0)" xlink:href="#aS"/><use transform="matrix(0.04320987654320988,0,0,0.04320987654320988,27.654320987654323,0)" xlink:href="#aV"/><use transform="matrix(0.04320987654320988,0,0,0.04320987654320988,36.2962962962963,0)" xlink:href="#aP"/></g><path d="M158-156l-14 65h45v19h-49L124 0h-19l15-72H56L41 0H22l15-72H2v-19h39l14-65H11v-19h48l15-71h20l-16 71h64l16-71h19l-16 71h37v19h-40zm-83 0L61-91h63l14-65H75" id="bE"/><use transform="matrix(0.04320987654320988,0,0,0.04320987654320988,0,0)" xlink:href="#bE" id="N"/><g id="O"><use transform="matrix(0.04320987654320988,0,0,0.04320987654320988,0,0)" xlink:href="#bB"/><use transform="matrix(0.04320987654320988,0,0,0.04320987654320988,10.370370370370372,0)" xlink:href="#aZ"/><use transform="matrix(0.04320987654320988,0,0,0.04320987654320988,13.783950617283953,0)" xlink:href="#aR"/></g><g id="P"><use transform="matrix(0.04320987654320988,0,0,0.04320987654320988,0,0)" xlink:href="#bs"/><use transform="matrix(0.04320987654320988,0,0,0.04320987654320988,10.370370370370372,0)" xlink:href="#bD"/><use transform="matrix(0.04320987654320988,0,0,0.04320987654320988,19.01234567901235,0)" xlink:href="#aS"/><use transform="matrix(0.04320987654320988,0,0,0.04320987654320988,27.654320987654323,0)" xlink:href="#aV"/><use transform="matrix(0.04320987654320988,0,0,0.04320987654320988,36.2962962962963,0)" xlink:href="#aP"/></g><path d="M140-251c81 0 123 46 123 126C263-46 219 4 140 4 59 4 17-45 17-125s42-126 123-126zm0 227c63 0 89-41 89-101s-29-99-89-99c-61 0-89 39-89 99S79-25 140-24" id="bF"/><g id="Q"><use transform="matrix(0.04320987654320988,0,0,0.04320987654320988,0,0)" xlink:href="#bF"/><use transform="matrix(0.04320987654320988,0,0,0.04320987654320988,12.098765432098766,0)" xlink:href="#aR"/><use transform="matrix(0.04320987654320988,0,0,0.04320987654320988,16.419753086419753,0)" xlink:href="#bD"/><use transform="matrix(0.04320987654320988,0,0,0.04320987654320988,25.061728395061728,0)" xlink:href="#aP"/><use transform="matrix(0.04320987654320988,0,0,0.04320987654320988,33.7037037037037,0)" xlink:href="#aO"/></g><g id="R"><use transform="matrix(0.04320987654320988,0,0,0.04320987654320988,0,0)" xlink:href="#bv"/><use transform="matrix(0.04320987654320988,0,0,0.04320987654320988,9.462962962962964,0)" xlink:href="#bk"/><use transform="matrix(0.04320987654320988,0,0,0.04320987654320988,18.10493827160494,0)" xlink:href="#bz"/></g><g id="S"><use transform="matrix(0.04320987654320988,0,0,0.04320987654320988,0,0)" xlink:href="#bv"/><use transform="matrix(0.04320987654320988,0,0,0.04320987654320988,9.462962962962964,0)" xlink:href="#bk"/><use transform="matrix(0.04320987654320988,0,0,0.04320987654320988,18.10493827160494,0)" xlink:href="#bz"/></g><g id="T"><use transform="matrix(0.04320987654320988,0,0,0.04320987654320988,0,0)" xlink:href="#aU"/><use transform="matrix(0.04320987654320988,0,0,0.04320987654320988,10.370370370370372,0)" xlink:href="#bp"/><use transform="matrix(0.04320987654320988,0,0,0.04320987654320988,23.290123456790127,0)" xlink:href="#bk"/><use transform="matrix(0.04320987654320988,0,0,0.04320987654320988,31.9320987654321,0)" xlink:href="#aN"/><use transform="matrix(0.04320987654320988,0,0,0.04320987654320988,35.345679012345684,0)" xlink:href="#aZ"/></g><g id="U"><use transform="matrix(0.04320987654320988,0,0,0.04320987654320988,0,0)" xlink:href="#bq"/><use transform="matrix(0.04320987654320988,0,0,0.04320987654320988,8.641975308641976,0)" xlink:href="#aS"/><use transform="matrix(0.04320987654320988,0,0,0.04320987654320988,17.283950617283953,0)" xlink:href="#aQ"/><use transform="matrix(0.04320987654320988,0,0,0.04320987654320988,25.06172839506173,0)" xlink:href="#bk"/><use transform="matrix(0.04320987654320988,0,0,0.04320987654320988,33.70370370370371,0)" xlink:href="#aR"/><use transform="matrix(0.04320987654320988,0,0,0.04320987654320988,38.0246913580247,0)" xlink:href="#aN"/><use transform="matrix(0.04320987654320988,0,0,0.04320987654320988,41.43827160493828,0)" xlink:href="#aS"/><use transform="matrix(0.04320987654320988,0,0,0.04320987654320988,50.080246913580254,0)" xlink:href="#aV"/></g><g id="V"><use transform="matrix(0.04320987654320988,0,0,0.04320987654320988,0,0)" xlink:href="#bB"/><use transform="matrix(0.04320987654320988,0,0,0.04320987654320988,10.370370370370372,0)" xlink:href="#bd"/><use transform="matrix(0.04320987654320988,0,0,0.04320987654320988,19.01234567901235,0)" xlink:href="#aR"/><use transform="matrix(0.04320987654320988,0,0,0.04320987654320988,23.333333333333336,0)" xlink:href="#aS"/><use transform="matrix(0.04320987654320988,0,0,0.04320987654320988,31.97530864197531,0)" xlink:href="#by"/><use transform="matrix(0.04320987654320988,0,0,0.04320987654320988,36.2962962962963,0)" xlink:href="#aN"/><use transform="matrix(0.04320987654320988,0,0,0.04320987654320988,39.70987654320988,0)" xlink:href="#aZ"/><use transform="matrix(0.04320987654320988,0,0,0.04320987654320988,43.12345679012346,0)" xlink:href="#aZ"/></g><g id="W"><use transform="matrix(0.04320987654320988,0,0,0.04320987654320988,0,0)" xlink:href="#aW"/><use transform="matrix(0.04320987654320988,0,0,0.04320987654320988,11.19135802469136,0)" xlink:href="#ba"/><use transform="matrix(0.04320987654320988,0,0,0.04320987654320988,20.654320987654323,0)" xlink:href="#bg"/></g><g id="X"><use transform="matrix(0.04320987654320988,0,0,0.04320987654320988,0,0)" xlink:href="#bF"/><use transform="matrix(0.04320987654320988,0,0,0.04320987654320988,12.098765432098766,0)" xlink:href="#by"/><use transform="matrix(0.04320987654320988,0,0,0.04320987654320988,16.117283950617285,0)" xlink:href="#by"/><use transform="matrix(0.04320987654320988,0,0,0.04320987654320988,20.438271604938272,0)" xlink:href="#bl"/><use transform="matrix(0.04320987654320988,0,0,0.04320987654320988,28.21604938271605,0)" xlink:href="#aP"/><use transform="matrix(0.04320987654320988,0,0,0.04320987654320988,36.858024691358025,0)" xlink:href="#aR"/></g><g id="Y"><use transform="matrix(0.04320987654320988,0,0,0.04320987654320988,0,0)" xlink:href="#bq"/><use transform="matrix(0.04320987654320988,0,0,0.04320987654320988,8.641975308641976,0)" xlink:href="#bk"/><use transform="matrix(0.04320987654320988,0,0,0.04320987654320988,17.283950617283953,0)" xlink:href="#aV"/><use transform="matrix(0.04320987654320988,0,0,0.04320987654320988,25.925925925925927,0)" xlink:href="#bw"/><use transform="matrix(0.04320987654320988,0,0,0.04320987654320988,34.567901234567906,0)" xlink:href="#bd"/><use transform="matrix(0.04320987654320988,0,0,0.04320987654320988,43.20987654320988,0)" xlink:href="#bk"/><use transform="matrix(0.04320987654320988,0,0,0.04320987654320988,51.851851851851855,0)" xlink:href="#bw"/><use transform="matrix(0.04320987654320988,0,0,0.04320987654320988,60.49382716049384,0)" xlink:href="#aP"/></g><g id="Z"><use transform="matrix(0.04320987654320988,0,0,0.04320987654320988,0,0)" xlink:href="#bs"/><use transform="matrix(0.04320987654320988,0,0,0.04320987654320988,10.370370370370372,0)" xlink:href="#aO"/><use transform="matrix(0.04320987654320988,0,0,0.04320987654320988,15.512345679012347,0)" xlink:href="#aP"/><use transform="matrix(0.04320987654320988,0,0,0.04320987654320988,24.154320987654323,0)" xlink:href="#by"/><use transform="matrix(0.04320987654320988,0,0,0.04320987654320988,28.47530864197531,0)" xlink:href="#aP"/><use transform="matrix(0.04320987654320988,0,0,0.04320987654320988,37.117283950617285,0)" xlink:href="#aO"/><use transform="matrix(0.04320987654320988,0,0,0.04320987654320988,42.25925925925926,0)" xlink:href="#aP"/><use transform="matrix(0.04320987654320988,0,0,0.04320987654320988,50.90123456790123,0)" xlink:href="#aV"/><use transform="matrix(0.04320987654320988,0,0,0.04320987654320988,59.54320987654321,0)" xlink:href="#aQ"/><use transform="matrix(0.04320987654320988,0,0,0.04320987654320988,67.32098765432099,0)" xlink:href="#aP"/></g><g id="aa"><use transform="matrix(0.04320987654320988,0,0,0.04320987654320988,0,0)" xlink:href="#bF"/><use transform="matrix(0.04320987654320988,0,0,0.04320987654320988,12.098765432098766,0)" xlink:href="#bb"/><use transform="matrix(0.04320987654320988,0,0,0.04320987654320988,20.74074074074074,0)" xlink:href="#aR"/><use transform="matrix(0.04320987654320988,0,0,0.04320987654320988,25.061728395061728,0)" xlink:href="#aN"/><use transform="matrix(0.04320987654320988,0,0,0.04320987654320988,28.47530864197531,0)" xlink:href="#aS"/><use transform="matrix(0.04320987654320988,0,0,0.04320987654320988,37.117283950617285,0)" xlink:href="#aV"/></g><g id="ab"><use transform="matrix(0.04320987654320988,0,0,0.04320987654320988,0,0)" xlink:href="#ba"/><use transform="matrix(0.04320987654320988,0,0,0.04320987654320988,8.901234567901236,0)" xlink:href="#aN"/><use transform="matrix(0.04320987654320988,0,0,0.04320987654320988,12.314814814814817,0)" xlink:href="#aR"/><use transform="matrix(0.04320987654320988,0,0,0.04320987654320988,16.635802469135804,0)" xlink:href="#aZ"/><use transform="matrix(0.04320987654320988,0,0,0.04320987654320988,20.049382716049386,0)" xlink:href="#aP"/></g><g id="ac"><use transform="matrix(0.04320987654320988,0,0,0.04320987654320988,0,0)" xlink:href="#aY"/><use transform="matrix(0.04320987654320988,0,0,0.04320987654320988,11.19135802469136,0)" xlink:href="#aS"/><use transform="matrix(0.04320987654320988,0,0,0.04320987654320988,19.833333333333336,0)" xlink:href="#aZ"/><use transform="matrix(0.04320987654320988,0,0,0.04320987654320988,23.246913580246915,0)" xlink:href="#aP"/></g><g id="ad"><use transform="matrix(0.04320987654320988,0,0,0.04320987654320988,0,0)" xlink:href="#ba"/><use transform="matrix(0.04320987654320988,0,0,0.04320987654320988,8.598765432098766,0)" xlink:href="#aT"/><use transform="matrix(0.04320987654320988,0,0,0.04320987654320988,16.376543209876544,0)" xlink:href="#bb"/><use transform="matrix(0.04320987654320988,0,0,0.04320987654320988,25.018518518518523,0)" xlink:href="#aP"/></g><g id="ae"><use transform="matrix(0.04320987654320988,0,0,0.04320987654320988,0,0)" xlink:href="#bi"/><use transform="matrix(0.04320987654320988,0,0,0.04320987654320988,5.1419753086419755,0)" xlink:href="#bg"/><use transform="matrix(0.04320987654320988,0,0,0.04320987654320988,16.333333333333336,0)" xlink:href="#aS"/><use transform="matrix(0.04320987654320988,0,0,0.04320987654320988,24.97530864197531,0)" xlink:href="#bh"/><use transform="matrix(0.04320987654320988,0,0,0.04320987654320988,33.617283950617285,0)" xlink:href="#aP"/><use transform="matrix(0.04320987654320988,0,0,0.04320987654320988,42.25925925925926,0)" xlink:href="#bo"/></g><g id="af"><use transform="matrix(0.04320987654320988,0,0,0.04320987654320988,0,0)" xlink:href="#bs"/><use transform="matrix(0.04320987654320988,0,0,0.04320987654320988,10.370370370370372,0)" xlink:href="#aO"/><use transform="matrix(0.04320987654320988,0,0,0.04320987654320988,15.512345679012347,0)" xlink:href="#aP"/><use transform="matrix(0.04320987654320988,0,0,0.04320987654320988,24.154320987654323,0)" xlink:href="#by"/><use transform="matrix(0.04320987654320988,0,0,0.04320987654320988,28.47530864197531,0)" xlink:href="#aP"/><use transform="matrix(0.04320987654320988,0,0,0.04320987654320988,37.117283950617285,0)" xlink:href="#aO"/><use transform="matrix(0.04320987654320988,0,0,0.04320987654320988,42.25925925925926,0)" xlink:href="#aO"/><use transform="matrix(0.04320987654320988,0,0,0.04320987654320988,47.40123456790123,0)" xlink:href="#aP"/><use transform="matrix(0.04320987654320988,0,0,0.04320987654320988,56.04320987654321,0)" xlink:href="#bh"/></g><g id="ag"><use transform="matrix(0.04320987654320988,0,0,0.04320987654320988,0,0)" xlink:href="#bB"/><use transform="matrix(0.04320987654320988,0,0,0.04320987654320988,10.370370370370372,0)" xlink:href="#aZ"/><use transform="matrix(0.04320987654320988,0,0,0.04320987654320988,13.783950617283953,0)" xlink:href="#aZ"/></g><g id="ah"><use transform="matrix(0.04320987654320988,0,0,0.04320987654320988,0,0)" xlink:href="#aU"/><use transform="matrix(0.04320987654320988,0,0,0.04320987654320988,10.370370370370372,0)" xlink:href="#aV"/><use transform="matrix(0.04320987654320988,0,0,0.04320987654320988,19.01234567901235,0)" xlink:href="#aR"/><use transform="matrix(0.04320987654320988,0,0,0.04320987654320988,23.333333333333336,0)" xlink:href="#aN"/><use transform="matrix(0.04320987654320988,0,0,0.04320987654320988,26.746913580246915,0)" xlink:href="#aR"/><use transform="matrix(0.04320987654320988,0,0,0.04320987654320988,31.067901234567906,0)" xlink:href="#aT"/></g><g id="ai"><use transform="matrix(0.04320987654320988,0,0,0.04320987654320988,0,0)" xlink:href="#bc"/><use transform="matrix(0.04320987654320988,0,0,0.04320987654320988,10.370370370370372,0)" xlink:href="#bD"/><use transform="matrix(0.04320987654320988,0,0,0.04320987654320988,19.01234567901235,0)" xlink:href="#bk"/><use transform="matrix(0.04320987654320988,0,0,0.04320987654320988,27.654320987654323,0)" xlink:href="#aO"/><use transform="matrix(0.04320987654320988,0,0,0.04320987654320988,32.7962962962963,0)" xlink:href="#aP"/><use transform="matrix(0.04320987654320988,0,0,0.04320987654320988,41.43827160493827,0)" xlink:href="#bh"/></g><g id="aj"><use transform="matrix(0.04320987654320988,0,0,0.04320987654320988,0,0)" xlink:href="#bv"/><use transform="matrix(0.04320987654320988,0,0,0.04320987654320988,9.462962962962964,0)" xlink:href="#aN"/><use transform="matrix(0.04320987654320988,0,0,0.04320987654320988,12.876543209876544,0)" xlink:href="#aP"/><use transform="matrix(0.04320987654320988,0,0,0.04320987654320988,21.51851851851852,0)" xlink:href="#aZ"/><use transform="matrix(0.04320987654320988,0,0,0.04320987654320988,24.9320987654321,0)" xlink:href="#bh"/></g><g id="ak"><use transform="matrix(0.04320987654320988,0,0,0.04320987654320988,0,0)" xlink:href="#bg"/><use transform="matrix(0.04320987654320988,0,0,0.04320987654320988,11.19135802469136,0)" xlink:href="#aO"/><use transform="matrix(0.04320987654320988,0,0,0.04320987654320988,16.333333333333336,0)" xlink:href="#aP"/><use transform="matrix(0.04320987654320988,0,0,0.04320987654320988,24.97530864197531,0)" xlink:href="#bk"/><use transform="matrix(0.04320987654320988,0,0,0.04320987654320988,33.617283950617285,0)" xlink:href="#aR"/><use transform="matrix(0.04320987654320988,0,0,0.04320987654320988,37.93827160493827,0)" xlink:href="#aP"/><use transform="matrix(0.04320987654320988,0,0,0.04320987654320988,46.58024691358024,0)" xlink:href="#bh"/></g><g id="al"><use transform="matrix(0.04320987654320988,0,0,0.04320987654320988,0,0)" xlink:href="#bF"/><use transform="matrix(0.04320987654320988,0,0,0.04320987654320988,12.098765432098766,0)" xlink:href="#aV"/></g><g id="am"><use transform="matrix(0.04320987654320988,0,0,0.04320987654320988,0,0)" xlink:href="#ba"/><use transform="matrix(0.04320987654320988,0,0,0.04320987654320988,8.901234567901236,0)" xlink:href="#aN"/><use transform="matrix(0.04320987654320988,0,0,0.04320987654320988,12.314814814814817,0)" xlink:href="#bp"/><use transform="matrix(0.04320987654320988,0,0,0.04320987654320988,25.23456790123457,0)" xlink:href="#aP"/><use transform="matrix(0.04320987654320988,0,0,0.04320987654320988,33.876543209876544,0)" xlink:href="#bl"/><use transform="matrix(0.04320987654320988,0,0,0.04320987654320988,41.65432098765432,0)" xlink:href="#aR"/><use transform="matrix(0.04320987654320988,0,0,0.04320987654320988,45.97530864197531,0)" xlink:href="#bk"/><use transform="matrix(0.04320987654320988,0,0,0.04320987654320988,54.61728395061729,0)" xlink:href="#bp"/><use transform="matrix(0.04320987654320988,0,0,0.04320987654320988,67.53703703703704,0)" xlink:href="#bb"/></g><g id="an"><use transform="matrix(0.04320987654320988,0,0,0.04320987654320988,0,0)" xlink:href="#bj"/><use transform="matrix(0.04320987654320988,0,0,0.04320987654320988,10.370370370370372,0)" xlink:href="#aT"/></g><g id="ao"><use transform="matrix(0.04320987654320988,0,0,0.04320987654320988,0,0)" xlink:href="#bc"/><use transform="matrix(0.04320987654320988,0,0,0.04320987654320988,10.370370370370372,0)" xlink:href="#aR"/><use transform="matrix(0.04320987654320988,0,0,0.04320987654320988,14.691358024691363,0)" xlink:href="#aO"/><use transform="matrix(0.04320987654320988,0,0,0.04320987654320988,19.833333333333336,0)" xlink:href="#aN"/><use transform="matrix(0.04320987654320988,0,0,0.04320987654320988,23.246913580246915,0)" xlink:href="#aV"/><use transform="matrix(0.04320987654320988,0,0,0.04320987654320988,31.888888888888893,0)" xlink:href="#bw"/></g><g id="ap"><use transform="matrix(0.04320987654320988,0,0,0.04320987654320988,0,0)" xlink:href="#bi"/><use transform="matrix(0.04320987654320988,0,0,0.04320987654320988,5.1419753086419755,0)" xlink:href="#aX"/><use transform="matrix(0.04320987654320988,0,0,0.04320987654320988,9.462962962962964,0)" xlink:href="#aM"/><use transform="matrix(0.04320987654320988,0,0,0.04320987654320988,20.654320987654323,0)" xlink:href="#bo"/></g><g id="aq"><use transform="matrix(0.04320987654320988,0,0,0.04320987654320988,0,0)" xlink:href="#aW"/><use transform="matrix(0.04320987654320988,0,0,0.04320987654320988,11.19135802469136,0)" xlink:href="#bb"/><use transform="matrix(0.04320987654320988,0,0,0.04320987654320988,19.833333333333336,0)" xlink:href="#bh"/><use transform="matrix(0.04320987654320988,0,0,0.04320987654320988,28.47530864197531,0)" xlink:href="#bk"/><use transform="matrix(0.04320987654320988,0,0,0.04320987654320988,37.117283950617285,0)" xlink:href="#aR"/><use transform="matrix(0.04320987654320988,0,0,0.04320987654320988,41.43827160493827,0)" xlink:href="#aP"/><use transform="matrix(0.04320987654320988,0,0,0.04320987654320988,50.08024691358024,0)" xlink:href="#bh"/></g><g id="ar"><use transform="matrix(0.04320987654320988,0,0,0.04320987654320988,0,0)" xlink:href="#aM"/><use transform="matrix(0.04320987654320988,0,0,0.04320987654320988,11.19135802469136,0)" xlink:href="#aP"/><use transform="matrix(0.04320987654320988,0,0,0.04320987654320988,19.833333333333336,0)" xlink:href="#aZ"/><use transform="matrix(0.04320987654320988,0,0,0.04320987654320988,23.246913580246915,0)" xlink:href="#aP"/><use transform="matrix(0.04320987654320988,0,0,0.04320987654320988,31.888888888888893,0)" xlink:href="#aR"/><use transform="matrix(0.04320987654320988,0,0,0.04320987654320988,36.20987654320988,0)" xlink:href="#aP"/><use transform="matrix(0.04320987654320988,0,0,0.04320987654320988,44.851851851851855,0)" xlink:href="#bh"/></g><g id="as"><use transform="matrix(0.04320987654320988,0,0,0.04320987654320988,0,0)" xlink:href="#bg"/><use transform="matrix(0.04320987654320988,0,0,0.04320987654320988,11.19135802469136,0)" xlink:href="#bd"/><use transform="matrix(0.04320987654320988,0,0,0.04320987654320988,19.833333333333336,0)" xlink:href="#bl"/><use transform="matrix(0.04320987654320988,0,0,0.04320987654320988,27.611111111111114,0)" xlink:href="#aR"/><use transform="matrix(0.04320987654320988,0,0,0.04320987654320988,31.9320987654321,0)" xlink:href="#aS"/><use transform="matrix(0.04320987654320988,0,0,0.04320987654320988,40.574074074074076,0)" xlink:href="#bp"/><use transform="matrix(0.04320987654320988,0,0,0.04320987654320988,53.49382716049383,0)" xlink:href="#aP"/><use transform="matrix(0.04320987654320988,0,0,0.04320987654320988,62.1358024691358,0)" xlink:href="#aO"/></g><g id="at"><use transform="matrix(0.05,0,0,0.05,0,0)" xlink:href="#bB"/><use transform="matrix(0.05,0,0,0.05,12,0)" xlink:href="#aZ"/><use transform="matrix(0.05,0,0,0.05,15.949999999999998,0)" xlink:href="#aZ"/></g><g id="au"><use transform="matrix(0.05,0,0,0.05,0,0)" xlink:href="#bc"/><use transform="matrix(0.05,0,0,0.05,12,0)" xlink:href="#bd"/><use transform="matrix(0.05,0,0,0.05,22,0)" xlink:href="#be"/><use transform="matrix(0.05,0,0,0.05,32,0)" xlink:href="#aP"/><use transform="matrix(0.05,0,0,0.05,42,0)" xlink:href="#aV"/><use transform="matrix(0.05,0,0,0.05,52,0)" xlink:href="#aR"/><use transform="matrix(0.05,0,0,0.05,57,0)" xlink:href="#aN"/><use transform="matrix(0.05,0,0,0.05,60.95,0)" xlink:href="#aR"/><use transform="matrix(0.05,0,0,0.05,65.95,0)" xlink:href="#aT"/></g><g id="av"><use transform="matrix(0.05,0,0,0.05,0,0)" xlink:href="#bs"/><use transform="matrix(0.05,0,0,0.05,12,0)" xlink:href="#aP"/><use transform="matrix(0.05,0,0,0.05,22,0)" xlink:href="#aO"/><use transform="matrix(0.05,0,0,0.05,27.950000000000003,0)" xlink:href="#bp"/><use transform="matrix(0.05,0,0,0.05,42.9,0)" xlink:href="#aN"/><use transform="matrix(0.05,0,0,0.05,46.85,0)" xlink:href="#bl"/><use transform="matrix(0.05,0,0,0.05,55.85,0)" xlink:href="#bl"/><use transform="matrix(0.05,0,0,0.05,64.85,0)" xlink:href="#aN"/><use transform="matrix(0.05,0,0,0.05,68.8,0)" xlink:href="#aS"/><use transform="matrix(0.05,0,0,0.05,78.8,0)" xlink:href="#aV"/><use transform="matrix(0.05,0,0,0.05,88.8,0)" xlink:href="#bl"/></g><g id="aw"><use transform="matrix(0.05,0,0,0.05,0,0)" xlink:href="#bk"/><use transform="matrix(0.05,0,0,0.05,10,0)" xlink:href="#aV"/><use transform="matrix(0.05,0,0,0.05,20,0)" xlink:href="#bh"/></g><g id="ax"><use transform="matrix(0.05,0,0,0.05,0,0)" xlink:href="#bs"/><use transform="matrix(0.05,0,0,0.05,12,0)" xlink:href="#bk"/><use transform="matrix(0.05,0,0,0.05,22,0)" xlink:href="#aO"/><use transform="matrix(0.05,0,0,0.05,27.950000000000003,0)" xlink:href="#bk"/><use transform="matrix(0.05,0,0,0.05,37.95,0)" xlink:href="#bp"/><use transform="matrix(0.05,0,0,0.05,52.900000000000006,0)" xlink:href="#aP"/><use transform="matrix(0.05,0,0,0.05,62.900000000000006,0)" xlink:href="#aR"/><use transform="matrix(0.05,0,0,0.05,67.9,0)" xlink:href="#aP"/><use transform="matrix(0.05,0,0,0.05,77.9,0)" xlink:href="#aO"/><use transform="matrix(0.05,0,0,0.05,83.85000000000001,0)" xlink:href="#bl"/></g><g id="ay"><use transform="matrix(0.05,0,0,0.05,0,0)" xlink:href="#bc"/><use transform="matrix(0.05,0,0,0.05,12,0)" xlink:href="#bb"/><use transform="matrix(0.05,0,0,0.05,22,0)" xlink:href="#aP"/><use transform="matrix(0.05,0,0,0.05,32,0)" xlink:href="#aQ"/><use transform="matrix(0.05,0,0,0.05,41,0)" xlink:href="#aN"/><use transform="matrix(0.05,0,0,0.05,44.95,0)" xlink:href="#by"/><use transform="matrix(0.05,0,0,0.05,49.95,0)" xlink:href="#aN"/><use transform="matrix(0.05,0,0,0.05,53.900000000000006,0)" xlink:href="#aQ"/></g><g id="az"><use transform="matrix(0.05,0,0,0.05,0,0)" xlink:href="#aN"/><use transform="matrix(0.05,0,0,0.05,3.95,0)" xlink:href="#aV"/><use transform="matrix(0.05,0,0,0.05,13.949999999999998,0)" xlink:href="#by"/><use transform="matrix(0.05,0,0,0.05,18.95,0)" xlink:href="#aS"/><use transform="matrix(0.05,0,0,0.05,28.950000000000003,0)" xlink:href="#aO"/><use transform="matrix(0.05,0,0,0.05,34.9,0)" xlink:href="#bp"/><use transform="matrix(0.05,0,0,0.05,49.85,0)" xlink:href="#bk"/><use transform="matrix(0.05,0,0,0.05,59.85,0)" xlink:href="#aR"/><use transform="matrix(0.05,0,0,0.05,64.85,0)" xlink:href="#aN"/><use transform="matrix(0.05,0,0,0.05,68.8,0)" xlink:href="#aS"/><use transform="matrix(0.05,0,0,0.05,78.8,0)" xlink:href="#aV"/></g><g id="aA"><use transform="matrix(0.05,0,0,0.05,0,0)" xlink:href="#aO"/><use transform="matrix(0.05,0,0,0.05,5.95,0)" xlink:href="#aP"/><use transform="matrix(0.05,0,0,0.05,15.949999999999998,0)" xlink:href="#bk"/><use transform="matrix(0.05,0,0,0.05,25.950000000000003,0)" xlink:href="#bh"/></g><g id="aB"><use transform="matrix(0.05,0,0,0.05,0,0)" xlink:href="#bk"/><use transform="matrix(0.05,0,0,0.05,10,0)" xlink:href="#aV"/><use transform="matrix(0.05,0,0,0.05,20,0)" xlink:href="#bh"/></g><g id="aC"><use transform="matrix(0.05,0,0,0.05,0,0)" xlink:href="#bk"/><use transform="matrix(0.05,0,0,0.05,10,0)" xlink:href="#aQ"/><use transform="matrix(0.05,0,0,0.05,19,0)" xlink:href="#aQ"/><use transform="matrix(0.05,0,0,0.05,28,0)" xlink:href="#aP"/><use transform="matrix(0.05,0,0,0.05,38,0)" xlink:href="#bl"/><use transform="matrix(0.05,0,0,0.05,47,0)" xlink:href="#bl"/></g><g id="aD"><use transform="matrix(0.05,0,0,0.05,0,0)" xlink:href="#bb"/><use transform="matrix(0.05,0,0,0.05,10,0)" xlink:href="#aO"/><use transform="matrix(0.05,0,0,0.05,15.949999999999998,0)" xlink:href="#aN"/><use transform="matrix(0.05,0,0,0.05,19.9,0)" xlink:href="#br"/><use transform="matrix(0.05,0,0,0.05,28.899999999999995,0)" xlink:href="#aN"/><use transform="matrix(0.05,0,0,0.05,32.85,0)" xlink:href="#aZ"/><use transform="matrix(0.05,0,0,0.05,36.800000000000004,0)" xlink:href="#aP"/><use transform="matrix(0.05,0,0,0.05,46.800000000000004,0)" xlink:href="#bw"/><use transform="matrix(0.05,0,0,0.05,56.800000000000004,0)" xlink:href="#aP"/><use transform="matrix(0.05,0,0,0.05,66.80000000000001,0)" xlink:href="#bl"/></g><g id="aE"><use transform="matrix(0.05,0,0,0.05,0,0)" xlink:href="#bh"/><use transform="matrix(0.05,0,0,0.05,10,0)" xlink:href="#aP"/><use transform="matrix(0.05,0,0,0.05,20,0)" xlink:href="#aR"/><use transform="matrix(0.05,0,0,0.05,25,0)" xlink:href="#aP"/><use transform="matrix(0.05,0,0,0.05,35,0)" xlink:href="#aO"/><use transform="matrix(0.05,0,0,0.05,40.95,0)" xlink:href="#bp"/><use transform="matrix(0.05,0,0,0.05,55.900000000000006,0)" xlink:href="#aN"/><use transform="matrix(0.05,0,0,0.05,59.85,0)" xlink:href="#aV"/><use transform="matrix(0.05,0,0,0.05,69.85000000000001,0)" xlink:href="#aP"/><use transform="matrix(0.05,0,0,0.05,79.85000000000001,0)" xlink:href="#bh"/></g><g id="aF"><use transform="matrix(0.05,0,0,0.05,0,0)" xlink:href="#by"/><use transform="matrix(0.05,0,0,0.05,5,0)" xlink:href="#aO"/><use transform="matrix(0.05,0,0,0.05,10.95,0)" xlink:href="#aS"/><use transform="matrix(0.05,0,0,0.05,20.95,0)" xlink:href="#bp"/></g><path d="M153-248C145-148 188 4 80 4 36 3 13-21 6-62l32-5c4 25 16 42 43 43 27 0 39-20 39-49v-147H72v-28h81" id="bG"/><path d="M266 0h-40l-56-210L115 0H75L2-248h35L96-30l15-64 43-154h32l59 218 59-218h35" id="bH"/><g id="aG"><use transform="matrix(0.05,0,0,0.05,0,0)" xlink:href="#bG"/><use transform="matrix(0.05,0,0,0.05,9,0)" xlink:href="#bH"/><use transform="matrix(0.05,0,0,0.05,25.950000000000003,0)" xlink:href="#ba"/></g><g id="aH"><use transform="matrix(0.05,0,0,0.05,0,0)" xlink:href="#bb"/><use transform="matrix(0.05,0,0,0.05,10,0)" xlink:href="#bk"/><use transform="matrix(0.05,0,0,0.05,20,0)" xlink:href="#bl"/><use transform="matrix(0.05,0,0,0.05,29,0)" xlink:href="#bl"/><use transform="matrix(0.05,0,0,0.05,38,0)" xlink:href="#aP"/><use transform="matrix(0.05,0,0,0.05,48,0)" xlink:href="#bh"/></g><g id="aI"><use transform="matrix(0.05,0,0,0.05,0,0)" xlink:href="#br"/><use transform="matrix(0.05,0,0,0.05,9,0)" xlink:href="#aN"/><use transform="matrix(0.05,0,0,0.05,12.949999999999998,0)" xlink:href="#bk"/></g><g id="aJ"><use transform="matrix(0.05,0,0,0.05,0,0)" xlink:href="#bg"/><use transform="matrix(0.05,0,0,0.05,12.950000000000001,0)" xlink:href="#aS"/><use transform="matrix(0.05,0,0,0.05,22.950000000000003,0)" xlink:href="#bp"/><use transform="matrix(0.05,0,0,0.05,37.900000000000006,0)" xlink:href="#bp"/><use transform="matrix(0.05,0,0,0.05,52.85,0)" xlink:href="#aP"/><use transform="matrix(0.05,0,0,0.05,62.85,0)" xlink:href="#aO"/><use transform="matrix(0.05,0,0,0.05,68.80000000000001,0)" xlink:href="#aQ"/><use transform="matrix(0.05,0,0,0.05,77.80000000000001,0)" xlink:href="#aN"/><use transform="matrix(0.05,0,0,0.05,81.75000000000001,0)" xlink:href="#bk"/><use transform="matrix(0.05,0,0,0.05,91.75000000000001,0)" xlink:href="#aZ"/></g><g id="aK"><use transform="matrix(0.05,0,0,0.05,0,0)" xlink:href="#bs"/><use transform="matrix(0.05,0,0,0.05,12,0)" xlink:href="#aS"/><use transform="matrix(0.05,0,0,0.05,22,0)" xlink:href="#aO"/><use transform="matrix(0.05,0,0,0.05,27.950000000000003,0)" xlink:href="#aR"/><use transform="matrix(0.05,0,0,0.05,32.95,0)" xlink:href="#bk"/><use transform="matrix(0.05,0,0,0.05,42.95,0)" xlink:href="#aZ"/></g><g id="aL"><use transform="matrix(0.05,0,0,0.05,0,0)" xlink:href="#bB"/><use transform="matrix(0.05,0,0,0.05,12,0)" xlink:href="#bs"/><use transform="matrix(0.05,0,0,0.05,24,0)" xlink:href="#aX"/></g></defs></g></svg>