<svg xmlns="http://www.w3.org/2000/svg" xmlns:xlink="http://www.w3.org/1999/xlink" xmlns:lucid="lucid" width="2240" height="1320"><g transform="translate(-20 0)" lucid:page-tab-id="0_0"><path d="M560 564.37h280V840H560z" stroke="#000" stroke-width="2" fill="#fff"/><use xlink:href="#a" transform="matrix(1,0,0,1,565,569.3707482993198) translate(102.525 136.6)"/><path d="M560 564.37h280V840H560z" stroke="#000" stroke-width="2" fill="#fff"/><use xlink:href="#a" transform="matrix(1,0,0,1,565,569.3707482993198) translate(102.525 136.6)"/><path d="M1720 562.2h280v275.6h-280z" stroke="#000" stroke-width="2" fill="#fff"/><use xlink:href="#a" transform="matrix(1,0,0,1,1725,567.1853741496599) translate(102.525 136.6)"/><path d="M40 140h2200v1160H40z" stroke="#c92d39" stroke-width="2" fill="#fff"/><use xlink:href="#a" transform="matrix(1,0,0,1,45,145) translate(1062.525 578.6)"/><path d="M60 1060h200v200H60z" stroke="#0c7cba" stroke-width="2" fill="#fff"/><use xlink:href="#a" transform="matrix(1,0,0,1,65,1065) translate(62.525 98.60000000000001)"/><path d="M60 840h200v200H60z" stroke="#0c7cba" stroke-width="2" fill="#fff"/><use xlink:href="#a" transform="matrix(1,0,0,1,65,845) translate(62.525 98.60000000000001)"/><path d="M60 622.9h200V820H60z" stroke="#0c7cba" stroke-width="2" fill="#fff"/><use xlink:href="#a" transform="matrix(1,0,0,1,65,627.9138321995465) translate(62.525 97.60000000000001)"/><path d="M60 405.83h200V602.9H60z" stroke="#0c7cba" stroke-width="2" fill="#fff"/><use xlink:href="#a" transform="matrix(1,0,0,1,65,410.827664399093) translate(62.525 97.60000000000001)"/><path d="M60 178.54h200v197.1H60z" stroke="#0c7cba" stroke-width="2" fill="#fff"/><use xlink:href="#a" transform="matrix(1,0,0,1,65,183.54308390022675) translate(62.525 97.60000000000001)"/><path d="M80 444.37h160v120H80z" stroke="#000" stroke-width="2" fill="#fff"/><use xlink:href="#b" transform="matrix(1,0,0,1,85,449.37074829931976) translate(30.074999999999996 58.6)"/><path d="M80 217.1h160v120H80z" stroke="#000" stroke-width="2" fill="#fff"/><use xlink:href="#c" transform="matrix(1,0,0,1,85,222.0861678004535) translate(37.925 58.6)"/><path d="M80 661.46h160v120H80z" stroke="#000" stroke-width="2" fill="#fff"/><use xlink:href="#d" transform="matrix(1,0,0,1,85,666.4569160997733) translate(20.599999999999994 58.6)"/><use xlink:href="#e" transform="matrix(1,0,0,1,85,666.4569160997733) translate(81.5 58.6)"/><path d="M80 880h160v120H80z" stroke="#000" stroke-width="2" fill="#fff"/><use xlink:href="#d" transform="matrix(1,0,0,1,85,885) translate(20.599999999999994 58.6)"/><use xlink:href="#e" transform="matrix(1,0,0,1,85,885) translate(81.5 58.6)"/><path d="M80 1100h160v120H80z" stroke="#000" stroke-width="2" fill="#fff"/><use xlink:href="#d" transform="matrix(1,0,0,1,85,1105) translate(20.599999999999994 58.6)"/><use xlink:href="#e" transform="matrix(1,0,0,1,85,1105) translate(81.5 58.6)"/><path d="M560 564.37h280V840H560z" stroke="#000" stroke-width="2" fill="#fff"/><use xlink:href="#a" transform="matrix(1,0,0,1,565,569.3707482993198) translate(102.525 136.6)"/><path d="M628 590h144l48 110-48 110H628l-48-110z" stroke="#000" stroke-width="2" fill="#fff"/><use xlink:href="#f" transform="matrix(1,0,0,1,585,595) translate(40.5 108.60000000000001)"/><use xlink:href="#g" transform="matrix(1,0,0,1,585,595) translate(82.2 108.60000000000001)"/><use xlink:href="#h" transform="matrix(1,0,0,1,585,595) translate(160.5 108.60000000000001)"/><path d="M240 20h1840v80H240z" stroke="#000" stroke-width="2" fill="#fff"/><use xlink:href="#i" transform="matrix(1,0,0,1,245,25) translate(830.6 38.6)"/><use xlink:href="#j" transform="matrix(1,0,0,1,245,25) translate(880.5500000000001 38.6)"/><use xlink:href="#k" transform="matrix(1,0,0,1,245,25) translate(895.5500000000001 38.6)"/><use xlink:href="#l" transform="matrix(1,0,0,1,245,25) translate(923.5 38.6)"/><use xlink:href="#m" transform="matrix(1,0,0,1,245,25) translate(959.45 38.6)"/><path d="M1280 820c0 11.05-53.73 20-120 20-66.27 0-120-8.95-120-20V660c0-11.05 53.73-20 120-20 66.27 0 120 8.95 120 20z" stroke="#000" stroke-width="2" fill="#fff"/><path d="M1280 660c0 11.05-53.73 20-120 20-66.27 0-120-8.95-120-20" stroke="#000" stroke-width="2" fill="none"/><use xlink:href="#d" transform="matrix(1,0,0,1,1045,685) translate(7.974999999999994 67.8)"/><use xlink:href="#n" transform="matrix(1,0,0,1,1045,685) translate(68.875 67.8)"/><use xlink:href="#o" transform="matrix(1,0,0,1,1045,685) translate(163.725 67.8)"/><use xlink:href="#p" transform="matrix(1,0,0,1,1045,685) translate(102.525 89.4)"/><path d="M1520 641.46c0 11.04-53.73 20-120 20-66.27 0-120-8.96-120-20v-160c0-11.05 53.73-20 120-20 66.27 0 120 8.95 120 20z" stroke="#000" stroke-width="2" fill="#fff"/><path d="M1520 481.46c0 11.04-53.73 20-120 20-66.27 0-120-8.96-120-20" stroke="#000" stroke-width="2" fill="none"/><use xlink:href="#q" transform="matrix(1,0,0,1,1285,506.45691609977325) translate(60.9 78.60000000000001)"/><use xlink:href="#r" transform="matrix(1,0,0,1,1285,506.45691609977325) translate(103.80000000000001 78.60000000000001)"/><use xlink:href="#p" transform="matrix(1,0,0,1,1285,506.45691609977325) translate(144.15 78.60000000000001)"/><path d="M1040 1024c0 8.84-35.82 16-80 16s-80-7.16-80-16V896c0-8.84 35.82-16 80-16s80 7.16 80 16z" stroke="#000" stroke-width="2" fill="#fff"/><path d="M1040 896c0 8.84-35.82 16-80 16s-80-7.16-80-16" stroke="#000" stroke-width="2" fill="none"/><use xlink:href="#s" transform="matrix(1,0,0,1,885,917) translate(21.599999999999994 51.8)"/><use xlink:href="#t" transform="matrix(1,0,0,1,885,917) translate(53.55 73.4)"/><path d="M1680 404c0 8.84-35.82 16-80 16s-80-7.16-80-16V276c0-8.84 35.82-16 80-16s80 7.16 80 16z" stroke="#000" stroke-width="2" fill="#fff"/><path d="M1680 276c0 8.84-35.82 16-80 16s-80-7.16-80-16" stroke="#000" stroke-width="2" fill="none"/><use xlink:href="#s" transform="matrix(1,0,0,1,1525,297) translate(21.599999999999994 51.8)"/><use xlink:href="#t" transform="matrix(1,0,0,1,1525,297) translate(53.55 73.4)"/><path d="M1720 562.2h280v275.6h-280z" stroke="#000" stroke-width="2" fill="#fff"/><use xlink:href="#a" transform="matrix(1,0,0,1,1725,567.1853741496599) translate(102.525 136.6)"/><path d="M1788 592.2h144l48 110-48 110h-144l-48-110z" stroke="#000" stroke-width="2" fill="#fff"/><use xlink:href="#u" transform="matrix(1,0,0,1,1745,597.1853741496599) translate(41.02499999999999 108.60000000000001)"/><use xlink:href="#g" transform="matrix(1,0,0,1,1745,597.1853741496599) translate(81.67499999999998 108.60000000000001)"/><use xlink:href="#h" transform="matrix(1,0,0,1,1745,597.1853741496599) translate(159.97500000000002 108.60000000000001)"/><path d="M2080 562.2h160v120h-160z" stroke="#c92d39" stroke-width="2" fill="#fff"/><use xlink:href="#v" transform="matrix(1,0,0,1,2085,567.1853741496599) translate(23.074999999999996 47.8)"/><use xlink:href="#w" transform="matrix(1,0,0,1,2085,567.1853741496599) translate(76.025 47.8)"/><use xlink:href="#x" transform="matrix(1,0,0,1,2085,567.1853741496599) translate(51.55 69.4)"/><path d="M2080 740h160v120h-160z" stroke="#0c7cba" stroke-width="2" fill="#fff"/><use xlink:href="#d" transform="matrix(1,0,0,1,2085,745) translate(19.099999999999994 47.8)"/><use xlink:href="#w" transform="matrix(1,0,0,1,2085,745) translate(80 47.8)"/><use xlink:href="#x" transform="matrix(1,0,0,1,2085,745) translate(51.55 69.4)"/><path d="M2080 900h160v120h-160z" stroke="#000" stroke-width="2" fill="#fff"/><use xlink:href="#y" transform="matrix(1,0,0,1,2085,905) translate(23.77499999999999 47.8)"/><use xlink:href="#z" transform="matrix(1,0,0,1,2085,905) translate(87.675 47.8)"/><use xlink:href="#x" transform="matrix(1,0,0,1,2085,905) translate(51.55 69.4)"/><path d="M480 800h240v60H480z" stroke="#000" stroke-opacity="0" stroke-width="2" fill="#fff" fill-opacity="0"/><use xlink:href="#A" transform="matrix(1,0,0,1,485,805) translate(93.525 28.6)"/><path d="M560 800h240v60H560z" stroke="#000" stroke-opacity="0" stroke-width="2" fill="#fff" fill-opacity="0"/><use xlink:href="#B" transform="matrix(1,0,0,1,565,805) translate(88.55 28.6)"/><path d="M660 800h240v60H660z" stroke="#000" stroke-opacity="0" stroke-width="2" fill="#fff" fill-opacity="0"/><use xlink:href="#C" transform="matrix(1,0,0,1,665,805) translate(72.57499999999999 28.6)"/><path d="M1128 468c0 6.63-33.13 12-74 12s-74-5.37-74-12v-96c0-6.63 33.13-12 74-12s74 5.37 74 12z" stroke="#c92d39" stroke-width="2" fill="#fff"/><path d="M1128 372c0 6.63-33.13 12-74 12s-74-5.37-74-12" stroke="#c92d39" stroke-width="2" fill="none"/><use xlink:href="#D" transform="matrix(1,0,0,1,985,389) translate(13.124999999999993 35.8)"/><use xlink:href="#E" transform="matrix(1,0,0,1,985,389) translate(69.025 35.8)"/><use xlink:href="#F" transform="matrix(1,0,0,1,985,389) translate(56.05 57.4)"/><path d="M1000 1240h240v60h-240z" stroke="#000" stroke-opacity="0" stroke-width="2" fill="#fff" fill-opacity="0"/><use xlink:href="#G" transform="matrix(1,0,0,1,1005,1245) translate(1.074074074074062 30.333333333333336)"/><use xlink:href="#H" transform="matrix(1,0,0,1,1005,1245) translate(79.5185185185185 30.333333333333336)"/><use xlink:href="#I" transform="matrix(1,0,0,1,1005,1245) translate(162.33333333333331 30.333333333333336)"/><path d="M1059.44 958.65l2.84-.42 5.07-.97 4.97-1.17 4.86-1.38 4.77-1.55 4.66-1.74 4.56-1.92 4.44-2.08 4.33-2.28 4.22-2.44 4.1-2.6 3.97-2.78 3.84-2.93 3.7-3.1 3.6-3.23 3.43-3.38 3.28-3.54 3.14-3.66 3-3.8 2.83-3.92 2.67-4.04 2.5-4.17 2.34-4.3 2.17-4.4 2-4.5 1.8-4.62 1.62-4.72 1.44-4.83 1.23-4.93 1.05-5.03.8-4.8" stroke="#834187" stroke-width="2" fill="none"/><path d="M1044.23 959.76l13.9-5.66.67 9.24zM1159.77 844.23l3.6 14.56-9.25-.68z" stroke="#834187" stroke-width="2" fill="#834187"/><path d="M1162.4 620.7l.4-1.4.8-2.45.9-2.38.97-2.33 1.07-2.28 1.18-2.23 1.28-2.2 1.38-2.2 1.5-2.14 1.63-2.14 1.78-2.12 1.9-2.1 2.07-2.12 2.25-2.1 2.44-2.1 2.66-2.08 2.9-2.1 3.16-2.08 3.46-2.08 3.8-2.07 4.18-2.05 4.6-2.02 5.06-2 5.6-1.9 6.14-1.83 6.76-1.7 7.4-1.55 8.06-1.32 8.67-1.06 4.12-.32" stroke="#834187" stroke-width="2" fill="none"/><path d="M1160.42 635.8l-2.73-14.76 9.18 1.2zM1275.77 561.6l-14.06 5.24-.38-9.27z" stroke="#834187" stroke-width="2" fill="#834187"/><path d="M1401.4 442.03l.3-1.87.9-4.82 1.13-4.73 1.3-4.62 1.47-4.54 1.66-4.44 1.83-4.35 2-4.26 2.18-4.16 2.36-4.06 2.5-3.95 2.7-3.85 2.85-3.74 3-3.63 3.17-3.5 3.33-3.38 3.48-3.25 3.64-3.12 3.78-2.98 3.92-2.83 4.07-2.7 4.2-2.5 4.33-2.38 4.46-2.2 4.58-2.02 4.7-1.84 4.83-1.66 4.95-1.47 5.04-1.27 5.14-1.07 5.25-.87h.06" stroke="#834187" stroke-width="2" fill="none"/><path d="M1400.25 457.23l-3.53-14.58 9.24.7zM1515.77 344.88l-13.9 5.63-.65-9.24z" stroke="#834187" stroke-width="2" fill="#834187"/><path d="M1699.47 341l3.17.34 6.78 1 6.6 1.26 6.44 1.5 6.3 1.77 6.15 2 6.06 2.25 5.94 2.5 5.84 2.74 5.75 3 5.66 3.28 5.6 3.56 5.52 3.84 5.46 4.14 5.4 4.46 5.3 4.8 5.27 5.14 5.2 5.52 5.08 5.9 5 6.32 4.9 6.75 4.8 7.2 4.63 7.66 4.48 8.14 4.28 8.63 4.07 9.13 3.8 9.6 3.52 10.12 3.2 10.56 2.8 11 2.43 11.4 2 11.76 1.5 12.03 1.04 12.25v.14" stroke="#834187" stroke-width="2" fill="none"/><path d="M1684.23 340.18l14.5-3.85-.5 9.25zM1859.9 557.95l-5.08-14.1 9.27-.3z" stroke="#834187" stroke-width="2" fill="#834187"/><path d="M860.5 959.42l-9.06-.57-12.97-1.36-12.2-1.8-11.33-2.16-10.45-2.45-9.6-2.7-8.75-2.83-7.98-2.97-7.28-3.05-6.64-3.12-6.05-3.16-5.5-3.2-5.07-3.2-4.62-3.2-4.24-3.23-3.9-3.23-3.6-3.22-3.3-3.24-3.06-3.25-2.82-3.28-2.6-3.28-2.4-3.3-2.23-3.36-2.05-3.38-1.88-3.43-1.73-3.48-1.6-3.56-1.43-3.62-1.3-3.7-1.14-3.82-1-3.93-.87-4.05-.32-1.9" stroke="#834187" stroke-width="2" fill="none"/><path d="M875.76 959.9l-14.4 4.2.3-9.28zM700.27 844.22l5.8 13.83-9.23.78z" stroke="#834187" stroke-width="2" fill="#834187"/><path d="M2160 898v-18.5" stroke="#000" stroke-width="2" fill="none"/><path d="M2161 899h-2v-1.03h2z"/><path d="M2160 864.24l4.64 14.26h-9.28z" stroke="#000" stroke-width="2"/><path d="M2160 720.5v-18.8" stroke="#000" stroke-width="2" fill="none"/><path d="M2160 735.76l-4.64-14.26h9.28zM2160 686.42l4.64 14.27h-9.28z" stroke="#000" stroke-width="2"/><path d="M2065.9 635.25l-51.8 51.68" stroke="#000" stroke-width="2" fill="none"/><path d="M2076.7 624.47l-6.82 13.36-6.54-6.57zM2003.3 697.7l6.82-13.34 6.54 6.56z" stroke="#000" stroke-width="2"/><path d="M271.62 292.24l276.76 394.8" stroke="#834187" stroke-width="2" fill="none"/><path d="M262.86 279.74l11.98 9.02-7.6 5.32zM557.14 699.54l-11.98-9.03 7.6-5.3z" stroke="#834187" stroke-width="2" fill="#834187"/><path d="M276.4 514.6l267.2 177.35" stroke="#834187" stroke-width="2" fill="none"/><path d="M263.7 506.16l14.45 4.03-5.13 7.7zM556.3 700.4l-14.45-4.03 5.13-7.73z" stroke="#834187" stroke-width="2" fill="#834187"/><path d="M279.46 720.26l261.08-16.88" stroke="#834187" stroke-width="2" fill="none"/><path d="M264.23 721.25l13.94-5.55.6 9.25zM555.77 702.4l-13.94 5.54-.6-9.25z" stroke="#834187" stroke-width="2" fill="#834187"/><path d="M275.46 928.46l269.08-214.73" stroke="#834187" stroke-width="2" fill="none"/><path d="M263.53 937.98l8.26-12.52 5.77 7.25zM556.47 704.2l-8.26 12.53-5.77-7.25z" stroke="#834187" stroke-width="2" fill="#834187"/><path d="M271.1 1144.5l277.8-426.8" stroke="#834187" stroke-width="2" fill="none"/><path d="M262.77 1157.3l3.9-14.5 7.76 5.06zM557.23 704.9l-3.9 14.48-7.76-5.06z" stroke="#834187" stroke-width="2" fill="#834187"/><path d="M40 325.83h240v60H40z" stroke="#000" stroke-opacity="0" stroke-width="2" fill="#fff" fill-opacity="0"/><g><use xlink:href="#d" transform="matrix(1,0,0,1,45,330.8276643990539) translate(35.625 28.6)"/><use xlink:href="#J" transform="matrix(1,0,0,1,45,330.8276643990539) translate(96.525 28.6)"/><use xlink:href="#K" transform="matrix(1,0,0,1,45,330.8276643990539) translate(152.425 28.6)"/></g><path d="M40 551.66h240v60H40z" stroke="#000" stroke-opacity="0" stroke-width="2" fill="#fff" fill-opacity="0"/><g><use xlink:href="#d" transform="matrix(1,0,0,1,45,556.6553287981078) translate(35.625 28.6)"/><use xlink:href="#J" transform="matrix(1,0,0,1,45,556.6553287981078) translate(96.525 28.6)"/><use xlink:href="#K" transform="matrix(1,0,0,1,45,556.6553287981078) translate(152.425 28.6)"/></g><path d="M40 777.48h240v60H40z" stroke="#000" stroke-opacity="0" stroke-width="2" fill="#fff" fill-opacity="0"/><g><use xlink:href="#d" transform="matrix(1,0,0,1,45,782.4829931971617) translate(35.625 28.6)"/><use xlink:href="#J" transform="matrix(1,0,0,1,45,782.4829931971617) translate(96.525 28.6)"/><use xlink:href="#K" transform="matrix(1,0,0,1,45,782.4829931971617) translate(152.425 28.6)"/></g><path d="M40 1000h240v60H40z" stroke="#000" stroke-opacity="0" stroke-width="2" fill="#fff" fill-opacity="0"/><g><use xlink:href="#d" transform="matrix(1,0,0,1,45,1005) translate(35.625 28.6)"/><use xlink:href="#J" transform="matrix(1,0,0,1,45,1005) translate(96.525 28.6)"/><use xlink:href="#K" transform="matrix(1,0,0,1,45,1005) translate(152.425 28.6)"/></g><path d="M40 1222.52h240v60H40z" stroke="#000" stroke-opacity="0" stroke-width="2" fill="#fff" fill-opacity="0"/><g><use xlink:href="#d" transform="matrix(1,0,0,1,45,1227.5170068028383) translate(35.625 28.6)"/><use xlink:href="#J" transform="matrix(1,0,0,1,45,1227.5170068028383) translate(96.525 28.6)"/><use xlink:href="#K" transform="matrix(1,0,0,1,45,1227.5170068028383) translate(152.425 28.6)"/></g><path d="M1660 800h240v60h-240z" stroke="#000" stroke-opacity="0" stroke-width="2" fill="#fff" fill-opacity="0"/><g><use xlink:href="#A" transform="matrix(1,0,0,1,1665,805) translate(93.525 28.6)"/></g><path d="M1740 800h240v60h-240z" stroke="#000" stroke-opacity="0" stroke-width="2" fill="#fff" fill-opacity="0"/><g><use xlink:href="#B" transform="matrix(1,0,0,1,1745,805) translate(88.55 28.6)"/></g><path d="M1820 800h240v60h-240z" stroke="#000" stroke-opacity="0" stroke-width="2" fill="#fff" fill-opacity="0"/><g><use xlink:href="#C" transform="matrix(1,0,0,1,1825,805) translate(72.57499999999999 28.6)"/></g><path d="M1299.48 739.24l.64-.04 8.9-.93 8.3-1.23 7.65-1.46 7-1.65 6.4-1.78 5.78-1.9 5.26-1.95 4.78-2 4.34-2.06 3.94-2.06 3.6-2.08 3.26-2.1 3-2.08 2.75-2.1 2.52-2.08 2.3-2.1 2.14-2.1 1.97-2.1 1.83-2.12 1.67-2.13 1.55-2.16 1.43-2.16 1.32-2.2 1.22-2.22 1.1-2.27 1.03-2.3.92-2.37.83-2.42.7-2.35" stroke="#834187" stroke-width="2" fill="none"/><path d="M1284.23 739.87l14.07-5.22.38 9.27zM1399.58 665.67l2.74 14.74-9.2-1.2z" stroke="#834187" stroke-width="2" fill="#834187"/><defs><path d="M30-248c87 1 191-15 191 75 0 78-77 80-158 76V0H30v-248zm33 125c57 0 124 11 124-50 0-59-68-47-124-48v98" id="L"/><path d="M114-163C36-179 61-72 57 0H25l-1-190h30c1 12-1 29 2 39 6-27 23-49 58-41v29" id="M"/><path d="M100-194c62-1 85 37 85 99 1 63-27 99-86 99S16-35 15-95c0-66 28-99 85-99zM99-20c44 1 53-31 53-75 0-43-8-75-51-75s-53 32-53 75 10 74 51 75" id="N"/><path d="M96-169c-40 0-48 33-48 73s9 75 48 75c24 0 41-14 43-38l32 2c-6 37-31 61-74 61-59 0-76-41-82-99-10-93 101-131 147-64 4 7 5 14 7 22l-32 3c-4-21-16-35-41-35" id="O"/><path d="M100-194c63 0 86 42 84 106H49c0 40 14 67 53 68 26 1 43-12 49-29l28 8c-11 28-37 45-77 45C44 4 14-33 15-96c1-61 26-98 85-98zm52 81c6-60-76-77-97-28-3 7-6 17-6 28h103" id="P"/><path d="M135-143c-3-34-86-38-87 0 15 53 115 12 119 90S17 21 10-45l28-5c4 36 97 45 98 0-10-56-113-15-118-90-4-57 82-63 122-42 12 7 21 19 24 35" id="Q"/><g id="a"><use transform="matrix(0.05,0,0,0.05,0,0)" xlink:href="#L"/><use transform="matrix(0.05,0,0,0.05,12,0)" xlink:href="#M"/><use transform="matrix(0.05,0,0,0.05,17.95,0)" xlink:href="#N"/><use transform="matrix(0.05,0,0,0.05,27.950000000000003,0)" xlink:href="#O"/><use transform="matrix(0.05,0,0,0.05,36.95,0)" xlink:href="#P"/><use transform="matrix(0.05,0,0,0.05,46.95,0)" xlink:href="#Q"/><use transform="matrix(0.05,0,0,0.05,55.95,0)" xlink:href="#Q"/></g><path d="M197 0v-115H63V0H30v-248h33v105h134v-105h34V0h-34" id="R"/><path d="M179-190L93 31C79 59 56 82 12 73V49c39 6 53-20 64-50L1-190h34L92-34l54-156h33" id="S"/><path d="M115-194c55 1 70 41 70 98S169 2 115 4C84 4 66-9 55-30l1 105H24l-1-265h31l2 30c10-21 28-34 59-34zm-8 174c40 0 45-34 45-75s-6-73-45-74c-42 0-51 32-51 76 0 43 10 73 51 73" id="T"/><path d="M141-36C126-15 110 5 73 4 37 3 15-17 15-53c-1-64 63-63 125-63 3-35-9-54-41-54-24 1-41 7-42 31l-33-3c5-37 33-52 76-52 45 0 72 20 72 64v82c-1 20 7 32 28 27v20c-31 9-61-2-59-35zM48-53c0 20 12 33 32 33 41-3 63-29 60-74-43 2-92-5-92 41" id="U"/><path d="M24 0v-261h32V0H24" id="V"/><g id="b"><use transform="matrix(0.05,0,0,0.05,0,0)" xlink:href="#R"/><use transform="matrix(0.05,0,0,0.05,12.950000000000001,0)" xlink:href="#S"/><use transform="matrix(0.05,0,0,0.05,21.950000000000003,0)" xlink:href="#T"/><use transform="matrix(0.05,0,0,0.05,31.950000000000003,0)" xlink:href="#P"/><use transform="matrix(0.05,0,0,0.05,41.95,0)" xlink:href="#M"/><use transform="matrix(0.05,0,0,0.05,47.900000000000006,0)" xlink:href="#Q"/><use transform="matrix(0.05,0,0,0.05,56.900000000000006,0)" xlink:href="#O"/><use transform="matrix(0.05,0,0,0.05,65.9,0)" xlink:href="#U"/><use transform="matrix(0.05,0,0,0.05,75.9,0)" xlink:href="#V"/><use transform="matrix(0.05,0,0,0.05,79.85000000000001,0)" xlink:href="#P"/></g><path d="M127-220V0H93v-220H8v-28h204v28h-85" id="W"/><path d="M84 4C-5 8 30-112 23-190h32v120c0 31 7 50 39 49 72-2 45-101 50-169h31l1 190h-30c-1-10 1-25-2-33-11 22-28 36-60 37" id="X"/><g id="c"><use transform="matrix(0.05,0,0,0.05,0,0)" xlink:href="#W"/><use transform="matrix(0.05,0,0,0.05,10.3,0)" xlink:href="#M"/><use transform="matrix(0.05,0,0,0.05,16.25,0)" xlink:href="#M"/><use transform="matrix(0.05,0,0,0.05,22.2,0)" xlink:href="#X"/><use transform="matrix(0.05,0,0,0.05,32.2,0)" xlink:href="#Q"/><use transform="matrix(0.05,0,0,0.05,41.2,0)" xlink:href="#O"/><use transform="matrix(0.05,0,0,0.05,50.2,0)" xlink:href="#U"/><use transform="matrix(0.05,0,0,0.05,60.2,0)" xlink:href="#V"/><use transform="matrix(0.05,0,0,0.05,64.15,0)" xlink:href="#P"/></g><path d="M24-231v-30h32v30H24zM-9 49c24 4 33-6 33-30v-209h32V24c2 40-23 58-65 49V49" id="Y"/><path d="M59-47c-2 24 18 29 38 22v24C64 9 27 4 27-40v-127H5v-23h24l9-43h21v43h35v23H59v120" id="Z"/><g id="d"><use transform="matrix(0.05,0,0,0.05,0,0)" xlink:href="#L"/><use transform="matrix(0.05,0,0,0.05,12,0)" xlink:href="#M"/><use transform="matrix(0.05,0,0,0.05,17.95,0)" xlink:href="#N"/><use transform="matrix(0.05,0,0,0.05,27.950000000000003,0)" xlink:href="#Y"/><use transform="matrix(0.05,0,0,0.05,31.899999999999995,0)" xlink:href="#P"/><use transform="matrix(0.05,0,0,0.05,41.9,0)" xlink:href="#O"/><use transform="matrix(0.05,0,0,0.05,50.9,0)" xlink:href="#Z"/></g><path d="M190 0L58-211 59 0H30v-248h39L202-35l-2-213h31V0h-41" id="aa"/><path d="M210-169c-67 3-38 105-44 169h-31v-121c0-29-5-50-35-48C34-165 62-65 56 0H25l-1-190h30c1 10-1 24 2 32 10-44 99-50 107 0 11-21 27-35 58-36 85-2 47 119 55 194h-31v-121c0-29-5-49-35-48" id="ab"/><g id="e"><use transform="matrix(0.05,0,0,0.05,0,0)" xlink:href="#aa"/><use transform="matrix(0.05,0,0,0.05,12.950000000000001,0)" xlink:href="#U"/><use transform="matrix(0.05,0,0,0.05,22.950000000000003,0)" xlink:href="#ab"/><use transform="matrix(0.05,0,0,0.05,37.900000000000006,0)" xlink:href="#P"/></g><path d="M109-170H84l-4-78h32zm-65 0H19l-4-78h33" id="ac"/><path d="M160-131c35 5 61 23 61 61C221 17 115-2 30 0v-248c76 3 177-17 177 60 0 33-19 50-47 57zm-97-11c50-1 110 9 110-42 0-47-63-36-110-37v79zm0 115c55-2 124 14 124-45 0-56-70-42-124-44v89" id="ad"/><path d="M30 0v-248h187v28H63v79h144v27H63v87h162V0H30" id="ae"/><g id="f"><use transform="matrix(0.05,0,0,0.05,0,0)" xlink:href="#ac"/><use transform="matrix(0.05,0,0,0.05,6.3500000000000005,0)" xlink:href="#ad"/><use transform="matrix(0.05,0,0,0.05,18.35,0)" xlink:href="#ae"/><use transform="matrix(0.05,0,0,0.05,30.35,0)" xlink:href="#ac"/></g><path d="M143 4C61 4 22-44 18-125c-5-107 100-154 193-111 17 8 29 25 37 43l-32 9c-13-25-37-40-76-40-61 0-88 39-88 99 0 61 29 100 91 101 35 0 62-11 79-27v-45h-74v-28h105v86C228-13 192 4 143 4" id="af"/><path d="M106-169C34-169 62-67 57 0H25v-261h32l-1 103c12-21 28-36 61-36 89 0 53 116 60 194h-32v-121c2-32-8-49-39-48" id="ag"/><path d="M140-251c81 0 123 46 123 126C263-53 228-8 163 1c7 30 30 48 69 40v23c-55 16-95-15-103-61C56-3 17-48 17-125c0-80 42-126 123-126zm0 227c63 0 89-41 89-101s-29-99-89-99c-61 0-89 39-89 99S79-25 140-24" id="ah"/><path d="M30 0v-248h33v221h125V0H30" id="ai"/><g id="g"><use transform="matrix(0.05,0,0,0.05,0,0)" xlink:href="#af"/><use transform="matrix(0.05,0,0,0.05,14,0)" xlink:href="#M"/><use transform="matrix(0.05,0,0,0.05,19.95,0)" xlink:href="#U"/><use transform="matrix(0.05,0,0,0.05,29.950000000000003,0)" xlink:href="#T"/><use transform="matrix(0.05,0,0,0.05,39.95,0)" xlink:href="#ag"/><use transform="matrix(0.05,0,0,0.05,49.95,0)" xlink:href="#ah"/><use transform="matrix(0.05,0,0,0.05,63.95,0)" xlink:href="#ai"/></g><path d="M205 0l-28-72H64L36 0H1l101-248h38L239 0h-34zm-38-99l-47-123c-12 45-31 82-46 123h93" id="aj"/><path d="M33 0v-248h34V0H33" id="ak"/><g id="h"><use transform="matrix(0.05,0,0,0.05,0,0)" xlink:href="#aj"/><use transform="matrix(0.05,0,0,0.05,12,0)" xlink:href="#L"/><use transform="matrix(0.05,0,0,0.05,24,0)" xlink:href="#ak"/></g><g id="i"><use transform="matrix(0.05,0,0,0.05,0,0)" xlink:href="#ai"/><use transform="matrix(0.05,0,0,0.05,10,0)" xlink:href="#U"/><use transform="matrix(0.05,0,0,0.05,20,0)" xlink:href="#S"/><use transform="matrix(0.05,0,0,0.05,29,0)" xlink:href="#P"/><use transform="matrix(0.05,0,0,0.05,39,0)" xlink:href="#M"/></g><path d="M64 0c3-98 48-159 88-221H18v-27h164v26C143-157 98-101 97 0H64" id="al"/><use transform="matrix(0.05,0,0,0.05,0,0)" xlink:href="#al" id="j"/><g id="k"><use transform="matrix(0.05,0,0,0.05,0,0)" xlink:href="#aa"/><use transform="matrix(0.05,0,0,0.05,12.950000000000001,0)" xlink:href="#N"/></g><path d="M63-220v92h138v28H63V0H30v-248h175v28H63" id="am"/><path d="M117-194c89-4 53 116 60 194h-32v-121c0-31-8-49-39-48C34-167 62-67 57 0H25l-1-190h30c1 10-1 24 2 32 11-22 29-35 61-36" id="an"/><g id="l"><use transform="matrix(0.05,0,0,0.05,0,0)" xlink:href="#am"/><use transform="matrix(0.05,0,0,0.05,10.950000000000001,0)" xlink:href="#X"/><use transform="matrix(0.05,0,0,0.05,20.950000000000003,0)" xlink:href="#an"/></g><path d="M209 0H11v-25l151-195H24v-28h176v25L50-27h159V0" id="ao"/><g id="m"><use transform="matrix(0.05,0,0,0.05,0,0)" xlink:href="#ao"/><use transform="matrix(0.05,0,0,0.05,10.950000000000001,0)" xlink:href="#N"/><use transform="matrix(0.05,0,0,0.05,20.950000000000003,0)" xlink:href="#an"/><use transform="matrix(0.05,0,0,0.05,30.950000000000003,0)" xlink:href="#P"/></g><path d="M101-234c-31-9-42 10-38 44h38v23H63V0H32v-167H5v-23h27c-7-52 17-82 69-68v24" id="ap"/><path d="M24-231v-30h32v30H24zM24 0v-190h32V0H24" id="aq"/><g id="n"><use transform="matrix(0.05,0,0,0.05,0,0)" xlink:href="#ak"/><use transform="matrix(0.05,0,0,0.05,5,0)" xlink:href="#an"/><use transform="matrix(0.05,0,0,0.05,15,0)" xlink:href="#ap"/><use transform="matrix(0.05,0,0,0.05,20,0)" xlink:href="#N"/><use transform="matrix(0.05,0,0,0.05,30,0)" xlink:href="#M"/><use transform="matrix(0.05,0,0,0.05,35.95,0)" xlink:href="#ab"/><use transform="matrix(0.05,0,0,0.05,50.900000000000006,0)" xlink:href="#U"/><use transform="matrix(0.05,0,0,0.05,60.900000000000006,0)" xlink:href="#Z"/><use transform="matrix(0.05,0,0,0.05,65.9,0)" xlink:href="#aq"/><use transform="matrix(0.05,0,0,0.05,69.85000000000001,0)" xlink:href="#N"/><use transform="matrix(0.05,0,0,0.05,79.85000000000001,0)" xlink:href="#an"/></g><path d="M185-189c-5-48-123-54-124 2 14 75 158 14 163 119 3 78-121 87-175 55-17-10-28-26-33-46l33-7c5 56 141 63 141-1 0-78-155-14-162-118-5-82 145-84 179-34 5 7 8 16 11 25" id="ar"/><g id="o"><use transform="matrix(0.05,0,0,0.05,0,0)" xlink:href="#aa"/><use transform="matrix(0.05,0,0,0.05,12.950000000000001,0)" xlink:href="#N"/><use transform="matrix(0.05,0,0,0.05,22.950000000000003,0)" xlink:href="#ar"/><use transform="matrix(0.05,0,0,0.05,34.95,0)" xlink:href="#ah"/><use transform="matrix(0.05,0,0,0.05,48.95,0)" xlink:href="#ai"/></g><path d="M30-248c118-7 216 8 213 122C240-48 200 0 122 0H30v-248zM63-27c89 8 146-16 146-99s-60-101-146-95v194" id="as"/><g id="p"><use transform="matrix(0.05,0,0,0.05,0,0)" xlink:href="#as"/><use transform="matrix(0.05,0,0,0.05,12.950000000000001,0)" xlink:href="#ad"/></g><path d="M232-93c-1 65-40 97-104 97C67 4 28-28 28-90v-158h33c8 89-33 224 67 224 102 0 64-133 71-224h33v155" id="at"/><g id="q"><use transform="matrix(0.05,0,0,0.05,0,0)" xlink:href="#at"/><use transform="matrix(0.05,0,0,0.05,12.950000000000001,0)" xlink:href="#Q"/><use transform="matrix(0.05,0,0,0.05,21.950000000000003,0)" xlink:href="#P"/><use transform="matrix(0.05,0,0,0.05,31.950000000000003,0)" xlink:href="#M"/></g><g id="r"><use transform="matrix(0.05,0,0,0.05,0,0)" xlink:href="#ar"/><use transform="matrix(0.05,0,0,0.05,12,0)" xlink:href="#ah"/><use transform="matrix(0.05,0,0,0.05,26,0)" xlink:href="#ai"/></g><path d="M212-179c-10-28-35-45-73-45-59 0-87 40-87 99 0 60 29 101 89 101 43 0 62-24 78-52l27 14C228-24 195 4 139 4 59 4 22-46 18-125c-6-104 99-153 187-111 19 9 31 26 39 46" id="au"/><path d="M177-190C167-65 218 103 67 71c-23-6-38-20-44-43l32-5c15 47 100 32 89-28v-30C133-14 115 1 83 1 29 1 15-40 15-95c0-56 16-97 71-98 29-1 48 16 59 35 1-10 0-23 2-32h30zM94-22c36 0 50-32 50-73 0-42-14-75-50-75-39 0-46 34-46 75s6 73 46 73" id="av"/><g id="s"><use transform="matrix(0.05,0,0,0.05,0,0)" xlink:href="#au"/><use transform="matrix(0.05,0,0,0.05,12.950000000000001,0)" xlink:href="#N"/><use transform="matrix(0.05,0,0,0.05,22.950000000000003,0)" xlink:href="#an"/><use transform="matrix(0.05,0,0,0.05,32.95,0)" xlink:href="#ap"/><use transform="matrix(0.05,0,0,0.05,37.95,0)" xlink:href="#aq"/><use transform="matrix(0.05,0,0,0.05,41.900000000000006,0)" xlink:href="#av"/><use transform="matrix(0.05,0,0,0.05,51.900000000000006,0)" xlink:href="#X"/><use transform="matrix(0.05,0,0,0.05,61.900000000000006,0)" xlink:href="#M"/><use transform="matrix(0.05,0,0,0.05,67.85000000000001,0)" xlink:href="#U"/><use transform="matrix(0.05,0,0,0.05,77.85000000000001,0)" xlink:href="#Z"/><use transform="matrix(0.05,0,0,0.05,82.85000000000001,0)" xlink:href="#aq"/><use transform="matrix(0.05,0,0,0.05,86.80000000000001,0)" xlink:href="#N"/><use transform="matrix(0.05,0,0,0.05,96.80000000000001,0)" xlink:href="#an"/></g><path d="M115-194c53 0 69 39 70 98 0 66-23 100-70 100C84 3 66-7 56-30L54 0H23l1-261h32v101c10-23 28-34 59-34zm-8 174c40 0 45-34 45-75 0-40-5-75-45-74-42 0-51 32-51 76 0 43 10 73 51 73" id="aw"/><g id="t"><use transform="matrix(0.05,0,0,0.05,0,0)" xlink:href="#W"/><use transform="matrix(0.05,0,0,0.05,8.950000000000001,0)" xlink:href="#U"/><use transform="matrix(0.05,0,0,0.05,18.950000000000003,0)" xlink:href="#aw"/><use transform="matrix(0.05,0,0,0.05,28.950000000000003,0)" xlink:href="#V"/><use transform="matrix(0.05,0,0,0.05,32.900000000000006,0)" xlink:href="#P"/></g><g id="u"><use transform="matrix(0.05,0,0,0.05,0,0)" xlink:href="#ac"/><use transform="matrix(0.05,0,0,0.05,6.3500000000000005,0)" xlink:href="#am"/><use transform="matrix(0.05,0,0,0.05,17.3,0)" xlink:href="#ae"/><use transform="matrix(0.05,0,0,0.05,29.3,0)" xlink:href="#ac"/></g><g id="v"><use transform="matrix(0.05,0,0,0.05,0,0)" xlink:href="#ar"/><use transform="matrix(0.05,0,0,0.05,12,0)" xlink:href="#X"/><use transform="matrix(0.05,0,0,0.05,22,0)" xlink:href="#T"/><use transform="matrix(0.05,0,0,0.05,32,0)" xlink:href="#P"/><use transform="matrix(0.05,0,0,0.05,42,0)" xlink:href="#M"/></g><path d="M85-194c31 0 48 13 60 33l-1-100h32l1 261h-30c-2-10 0-23-3-31C134-8 116 4 85 4 32 4 16-35 15-94c0-66 23-100 70-100zm9 24c-40 0-46 34-46 75 0 40 6 74 45 74 42 0 51-32 51-76 0-42-9-74-50-73" id="ax"/><g id="w"><use transform="matrix(0.05,0,0,0.05,0,0)" xlink:href="#aj"/><use transform="matrix(0.05,0,0,0.05,12,0)" xlink:href="#ax"/><use transform="matrix(0.05,0,0,0.05,22,0)" xlink:href="#ab"/><use transform="matrix(0.05,0,0,0.05,36.95,0)" xlink:href="#aq"/><use transform="matrix(0.05,0,0,0.05,40.900000000000006,0)" xlink:href="#an"/></g><g id="x"><use transform="matrix(0.05,0,0,0.05,0,0)" xlink:href="#L"/><use transform="matrix(0.05,0,0,0.05,12,0)" xlink:href="#N"/><use transform="matrix(0.05,0,0,0.05,22,0)" xlink:href="#M"/><use transform="matrix(0.05,0,0,0.05,27.950000000000003,0)" xlink:href="#Z"/><use transform="matrix(0.05,0,0,0.05,32.95,0)" xlink:href="#U"/><use transform="matrix(0.05,0,0,0.05,42.95,0)" xlink:href="#V"/></g><g id="y"><use transform="matrix(0.05,0,0,0.05,0,0)" xlink:href="#L"/><use transform="matrix(0.05,0,0,0.05,12,0)" xlink:href="#U"/><use transform="matrix(0.05,0,0,0.05,22,0)" xlink:href="#M"/><use transform="matrix(0.05,0,0,0.05,27.950000000000003,0)" xlink:href="#Z"/><use transform="matrix(0.05,0,0,0.05,32.95,0)" xlink:href="#an"/><use transform="matrix(0.05,0,0,0.05,42.95,0)" xlink:href="#P"/><use transform="matrix(0.05,0,0,0.05,52.95,0)" xlink:href="#M"/></g><path d="M137 0h-34L2-248h35l83 218 83-218h36" id="ay"/><path d="M206 0h-36l-40-164L89 0H53L-1-190h32L70-26l43-164h34l41 164 42-164h31" id="az"/><g id="z"><use transform="matrix(0.05,0,0,0.05,0,0)" xlink:href="#ay"/><use transform="matrix(0.05,0,0,0.05,11.65,0)" xlink:href="#aq"/><use transform="matrix(0.05,0,0,0.05,15.600000000000001,0)" xlink:href="#P"/><use transform="matrix(0.05,0,0,0.05,25.6,0)" xlink:href="#az"/></g><g id="A"><use transform="matrix(0.05,0,0,0.05,0,0)" xlink:href="#aa"/><use transform="matrix(0.05,0,0,0.05,12.950000000000001,0)" xlink:href="#N"/><use transform="matrix(0.05,0,0,0.05,22.950000000000003,0)" xlink:href="#ax"/><use transform="matrix(0.05,0,0,0.05,32.95,0)" xlink:href="#P"/></g><g id="B"><use transform="matrix(0.05,0,0,0.05,0,0)" xlink:href="#am"/><use transform="matrix(0.05,0,0,0.05,10.950000000000001,0)" xlink:href="#U"/><use transform="matrix(0.05,0,0,0.05,20.950000000000003,0)" xlink:href="#Q"/><use transform="matrix(0.05,0,0,0.05,29.950000000000003,0)" xlink:href="#Z"/><use transform="matrix(0.05,0,0,0.05,34.95,0)" xlink:href="#aq"/><use transform="matrix(0.05,0,0,0.05,38.900000000000006,0)" xlink:href="#ap"/><use transform="matrix(0.05,0,0,0.05,43.900000000000006,0)" xlink:href="#S"/></g><g id="C"><use transform="matrix(0.05,0,0,0.05,0,0)" xlink:href="#W"/><use transform="matrix(0.05,0,0,0.05,9.950000000000001,0)" xlink:href="#S"/><use transform="matrix(0.05,0,0,0.05,18.950000000000003,0)" xlink:href="#T"/><use transform="matrix(0.05,0,0,0.05,28.950000000000003,0)" xlink:href="#P"/><use transform="matrix(0.05,0,0,0.05,38.95,0)" xlink:href="#ar"/><use transform="matrix(0.05,0,0,0.05,50.95,0)" xlink:href="#O"/><use transform="matrix(0.05,0,0,0.05,59.95,0)" xlink:href="#M"/><use transform="matrix(0.05,0,0,0.05,65.9,0)" xlink:href="#aq"/><use transform="matrix(0.05,0,0,0.05,69.85000000000001,0)" xlink:href="#T"/><use transform="matrix(0.05,0,0,0.05,79.85000000000001,0)" xlink:href="#Z"/></g><path fill="#c92d39" d="M169-182c-1-43-94-46-97-3 18 66 151 10 154 114 3 95-165 93-204 36-6-8-10-19-12-30l50-8c3 46 112 56 116 5-17-69-150-10-154-114-4-87 153-88 188-35 5 8 8 18 10 28" id="aA"/><path fill="#c92d39" d="M85 4C-2 5 27-109 22-190h50c7 57-23 150 33 157 60-5 35-97 40-157h50l1 190h-47c-2-12 1-28-3-38-12 25-28 42-61 42" id="aB"/><path fill="#c92d39" d="M135-194c53 0 70 44 70 98 0 56-19 98-73 100-31 1-45-17-59-34 3 33 2 69 2 105H25l-1-265h48c2 10 0 23 3 31 11-24 29-35 60-35zM114-30c33 0 39-31 40-66 0-38-9-64-40-64-56 0-55 130 0 130" id="aC"/><path fill="#c92d39" d="M185-48c-13 30-37 53-82 52C43 2 14-33 14-96s30-98 90-98c62 0 83 45 84 108H66c0 31 8 55 39 56 18 0 30-7 34-22zm-45-69c5-46-57-63-70-21-2 6-4 13-4 21h74" id="aD"/><path fill="#c92d39" d="M135-150c-39-12-60 13-60 57V0H25l-1-190h47c2 13-1 29 3 40 6-28 27-53 61-41v41" id="aE"/><g id="D"><use transform="matrix(0.05,0,0,0.05,0,0)" xlink:href="#aA"/><use transform="matrix(0.05,0,0,0.05,12,0)" xlink:href="#aB"/><use transform="matrix(0.05,0,0,0.05,22.950000000000003,0)" xlink:href="#aC"/><use transform="matrix(0.05,0,0,0.05,33.900000000000006,0)" xlink:href="#aD"/><use transform="matrix(0.05,0,0,0.05,43.900000000000006,0)" xlink:href="#aE"/></g><path fill="#c92d39" d="M199 0l-22-63H83L61 0H9l90-248h61L250 0h-51zm-33-102l-36-108c-10 38-24 72-36 108h72" id="aF"/><path fill="#c92d39" d="M88-194c31-1 46 15 58 34l-1-101h50l1 261h-48c-2-10 0-23-3-31C134-8 116 4 84 4 32 4 16-41 15-95c0-56 19-97 73-99zm17 164c33 0 40-30 41-66 1-37-9-64-41-64s-38 30-39 65c0 43 13 65 39 65" id="aG"/><path fill="#c92d39" d="M220-157c-53 9-28 100-34 157h-49v-107c1-27-5-49-29-50C55-147 81-57 75 0H25l-1-190h47c2 12-1 28 3 38 10-53 101-56 108 0 13-22 24-43 59-42 82 1 51 116 57 194h-49v-107c-1-25-5-48-29-50" id="aH"/><path fill="#c92d39" d="M25-224v-37h50v37H25zM25 0v-190h50V0H25" id="aI"/><path fill="#c92d39" d="M135-194c87-1 58 113 63 194h-50c-7-57 23-157-34-157-59 0-34 97-39 157H25l-1-190h47c2 12-1 28 3 38 12-26 28-41 61-42" id="aJ"/><g id="E"><use transform="matrix(0.05,0,0,0.05,0,0)" xlink:href="#aF"/><use transform="matrix(0.05,0,0,0.05,12.950000000000001,0)" xlink:href="#aG"/><use transform="matrix(0.05,0,0,0.05,23.900000000000002,0)" xlink:href="#aH"/><use transform="matrix(0.05,0,0,0.05,39.900000000000006,0)" xlink:href="#aI"/><use transform="matrix(0.05,0,0,0.05,44.900000000000006,0)" xlink:href="#aJ"/></g><path fill="#c92d39" d="M24-248c120-7 223 5 221 122C244-46 201 0 124 0H24v-248zM76-40c74 7 117-18 117-86 0-67-45-88-117-82v168" id="aK"/><path fill="#c92d39" d="M182-130c37 4 62 22 62 59C244 23 116-4 24 0v-248c84 5 203-23 205 63 0 31-19 50-47 55zM76-148c40-3 101 13 101-30 0-44-60-28-101-31v61zm0 110c48-3 116 14 116-37 0-48-69-32-116-35v72" id="aL"/><g id="F"><use transform="matrix(0.05,0,0,0.05,0,0)" xlink:href="#aK"/><use transform="matrix(0.05,0,0,0.05,12.950000000000001,0)" xlink:href="#aL"/></g><path fill="#c92d39" d="M185-189c-5-48-123-54-124 2 14 75 158 14 163 119 3 78-121 87-175 55-17-10-28-26-33-46l33-7c5 56 141 63 141-1 0-78-155-14-162-118-5-82 145-84 179-34 5 7 8 16 11 25" id="aM"/><path fill="#c92d39" d="M84 4C-5 8 30-112 23-190h32v120c0 31 7 50 39 49 72-2 45-101 50-169h31l1 190h-30c-1-10 1-25-2-33-11 22-28 36-60 37" id="aN"/><path fill="#c92d39" d="M115-194c55 1 70 41 70 98S169 2 115 4C84 4 66-9 55-30l1 105H24l-1-265h31l2 30c10-21 28-34 59-34zm-8 174c40 0 45-34 45-75s-6-73-45-74c-42 0-51 32-51 76 0 43 10 73 51 73" id="aO"/><path fill="#c92d39" d="M100-194c63 0 86 42 84 106H49c0 40 14 67 53 68 26 1 43-12 49-29l28 8c-11 28-37 45-77 45C44 4 14-33 15-96c1-61 26-98 85-98zm52 81c6-60-76-77-97-28-3 7-6 17-6 28h103" id="aP"/><path fill="#c92d39" d="M114-163C36-179 61-72 57 0H25l-1-190h30c1 12-1 29 2 39 6-27 23-49 58-41v29" id="aQ"/><g id="G"><use transform="matrix(0.07407407407407408,0,0,0.07407407407407408,0,0)" xlink:href="#aM"/><use transform="matrix(0.07407407407407408,0,0,0.07407407407407408,17.77777777777778,0)" xlink:href="#aN"/><use transform="matrix(0.07407407407407408,0,0,0.07407407407407408,32.592592592592595,0)" xlink:href="#aO"/><use transform="matrix(0.07407407407407408,0,0,0.07407407407407408,47.40740740740741,0)" xlink:href="#aP"/><use transform="matrix(0.07407407407407408,0,0,0.07407407407407408,62.22222222222223,0)" xlink:href="#aQ"/></g><path fill="#c92d39" d="M205 0l-28-72H64L36 0H1l101-248h38L239 0h-34zm-38-99l-47-123c-12 45-31 82-46 123h93" id="aR"/><path fill="#c92d39" d="M85-194c31 0 48 13 60 33l-1-100h32l1 261h-30c-2-10 0-23-3-31C134-8 116 4 85 4 32 4 16-35 15-94c0-66 23-100 70-100zm9 24c-40 0-46 34-46 75 0 40 6 74 45 74 42 0 51-32 51-76 0-42-9-74-50-73" id="aS"/><path fill="#c92d39" d="M210-169c-67 3-38 105-44 169h-31v-121c0-29-5-50-35-48C34-165 62-65 56 0H25l-1-190h30c1 10-1 24 2 32 10-44 99-50 107 0 11-21 27-35 58-36 85-2 47 119 55 194h-31v-121c0-29-5-49-35-48" id="aT"/><path fill="#c92d39" d="M24-231v-30h32v30H24zM24 0v-190h32V0H24" id="aU"/><path fill="#c92d39" d="M117-194c89-4 53 116 60 194h-32v-121c0-31-8-49-39-48C34-167 62-67 57 0H25l-1-190h30c1 10-1 24 2 32 11-22 29-35 61-36" id="aV"/><g id="H"><use transform="matrix(0.07407407407407408,0,0,0.07407407407407408,0,0)" xlink:href="#aR"/><use transform="matrix(0.07407407407407408,0,0,0.07407407407407408,17.77777777777778,0)" xlink:href="#aS"/><use transform="matrix(0.07407407407407408,0,0,0.07407407407407408,32.592592592592595,0)" xlink:href="#aT"/><use transform="matrix(0.07407407407407408,0,0,0.07407407407407408,54.74074074074075,0)" xlink:href="#aU"/><use transform="matrix(0.07407407407407408,0,0,0.07407407407407408,60.5925925925926,0)" xlink:href="#aV"/></g><path fill="#c92d39" d="M30 0v-248h33v221h125V0H30" id="aW"/><path fill="#c92d39" d="M141-36C126-15 110 5 73 4 37 3 15-17 15-53c-1-64 63-63 125-63 3-35-9-54-41-54-24 1-41 7-42 31l-33-3c5-37 33-52 76-52 45 0 72 20 72 64v82c-1 20 7 32 28 27v20c-31 9-61-2-59-35zM48-53c0 20 12 33 32 33 41-3 63-29 60-74-43 2-92-5-92 41" id="aX"/><path fill="#c92d39" d="M179-190L93 31C79 59 56 82 12 73V49c39 6 53-20 64-50L1-190h34L92-34l54-156h33" id="aY"/><g id="I"><use transform="matrix(0.07407407407407408,0,0,0.07407407407407408,0,0)" xlink:href="#aW"/><use transform="matrix(0.07407407407407408,0,0,0.07407407407407408,14.814814814814817,0)" xlink:href="#aX"/><use transform="matrix(0.07407407407407408,0,0,0.07407407407407408,29.629629629629633,0)" xlink:href="#aY"/><use transform="matrix(0.07407407407407408,0,0,0.07407407407407408,42.96296296296297,0)" xlink:href="#aP"/><use transform="matrix(0.07407407407407408,0,0,0.07407407407407408,57.777777777777786,0)" xlink:href="#aQ"/></g><g id="J"><use transform="matrix(0.05,0,0,0.05,0,0)" xlink:href="#aj"/><use transform="matrix(0.05,0,0,0.05,12,0)" xlink:href="#ax"/><use transform="matrix(0.05,0,0,0.05,22,0)" xlink:href="#ab"/><use transform="matrix(0.05,0,0,0.05,36.95,0)" xlink:href="#aq"/><use transform="matrix(0.05,0,0,0.05,40.900000000000006,0)" xlink:href="#an"/></g><g id="K"><use transform="matrix(0.05,0,0,0.05,0,0)" xlink:href="#ae"/><use transform="matrix(0.05,0,0,0.05,12,0)" xlink:href="#an"/><use transform="matrix(0.05,0,0,0.05,22,0)" xlink:href="#Z"/><use transform="matrix(0.05,0,0,0.05,27,0)" xlink:href="#M"/><use transform="matrix(0.05,0,0,0.05,32.95,0)" xlink:href="#S"/></g></defs></g></svg>