<svg xmlns="http://www.w3.org/2000/svg" xmlns:xlink="http://www.w3.org/1999/xlink" xmlns:lucid="lucid" width="1600" height="866"><g transform="translate(-9.43396226415092 -9.43396226415095)" lucid:page-tab-id="0_0"><path d="M0 0h1618.87v1250.94H0z" fill="#fff"/><path d="M29.43 29.43h224v376h-224z" fill="#fff"/><path d="M29.43 123.43h224v47h-224zM29.43 217.43h224v47h-224zM29.43 311.43h224v47h-224z" fill="#e6e6e6"/><path d="M29.43 29.43h224v47h-224z" fill="#ccc"/><path d="M29.43 29.43h224v376h-224zM29.43 76.43h224M89.43 76.43v329M171.43 76.43v329" stroke="#000" stroke-width="2" fill="none"/><use xlink:href="#a" transform="matrix(1,0,0,1,39.43396226415092,29.43396226415095) translate(25.669753086419746 17.277777777777775)"/><use xlink:href="#b" transform="matrix(1,0,0,1,39.43396226415092,29.43396226415095) translate(47.188271604938265 17.277777777777775)"/><use xlink:href="#c" transform="matrix(1,0,0,1,39.43396226415092,29.43396226415095) translate(90.35493827160494 17.277777777777775)"/><use xlink:href="#d" transform="matrix(1,0,0,1,39.43396226415092,29.43396226415095) translate(144.75617283950618 17.277777777777775)"/><use xlink:href="#e" transform="matrix(1,0,0,1,39.43396226415092,29.43396226415095) translate(70.52160493827161 35.94444444444444)"/><use xlink:href="#f" transform="matrix(1,0,0,1,34.43396226415092,78.93396226415095) translate(12.922839506172838 14.777777777777775)"/><use xlink:href="#g" transform="matrix(1,0,0,1,34.43396226415092,78.93396226415095) translate(11.66975308641975 33.44444444444444)"/><use xlink:href="#h" transform="matrix(1,0,0,1,94.43396226415092,78.93396226415095) translate(8.38888888888889 14.777777777777775)"/><use xlink:href="#i" transform="matrix(1,0,0,1,94.43396226415092,78.93396226415095) translate(25.62962962962963 33.44444444444444)"/><use xlink:href="#j" transform="matrix(1,0,0,1,176.43396226415092,78.93396226415095) translate(-2.0895061728395063 24.11111111111111)"/><use xlink:href="#f" transform="matrix(1,0,0,1,34.43396226415092,125.93396226415095) translate(12.922839506172838 14.777777777777775)"/><use xlink:href="#g" transform="matrix(1,0,0,1,34.43396226415092,125.93396226415095) translate(11.66975308641975 33.44444444444444)"/><use xlink:href="#h" transform="matrix(1,0,0,1,94.43396226415092,125.93396226415095) translate(8.38888888888889 14.777777777777775)"/><use xlink:href="#k" transform="matrix(1,0,0,1,94.43396226415092,125.93396226415095) translate(26.925925925925924 33.44444444444444)"/><use xlink:href="#l" transform="matrix(1,0,0,1,176.43396226415092,125.93396226415095) translate(0.6759259259259238 24.11111111111111)"/><use xlink:href="#m" transform="matrix(1,0,0,1,176.43396226415092,125.93396226415095) translate(45.52777777777778 24.11111111111111)"/><use xlink:href="#f" transform="matrix(1,0,0,1,34.43396226415092,172.93396226415095) translate(12.922839506172838 14.777777777777775)"/><use xlink:href="#g" transform="matrix(1,0,0,1,34.43396226415092,172.93396226415095) translate(11.66975308641975 33.44444444444444)"/><use xlink:href="#n" transform="matrix(1,0,0,1,94.43396226415092,172.93396226415095) translate(6.638888888888889 14.777777777777775)"/><use xlink:href="#i" transform="matrix(1,0,0,1,94.43396226415092,172.93396226415095) translate(25.62962962962963 33.44444444444444)"/><use xlink:href="#j" transform="matrix(1,0,0,1,176.43396226415092,172.93396226415095) translate(-2.0895061728395063 24.11111111111111)"/><use xlink:href="#f" transform="matrix(1,0,0,1,34.43396226415092,219.93396226415095) translate(12.922839506172838 14.777777777777775)"/><use xlink:href="#g" transform="matrix(1,0,0,1,34.43396226415092,219.93396226415095) translate(11.66975308641975 33.44444444444444)"/><use xlink:href="#n" transform="matrix(1,0,0,1,94.43396226415092,219.93396226415095) translate(6.638888888888889 14.777777777777775)"/><use xlink:href="#k" transform="matrix(1,0,0,1,94.43396226415092,219.93396226415095) translate(26.925925925925924 33.44444444444444)"/><use xlink:href="#l" transform="matrix(1,0,0,1,176.43396226415092,219.93396226415095) translate(0.6759259259259238 24.11111111111111)"/><use xlink:href="#m" transform="matrix(1,0,0,1,176.43396226415092,219.93396226415095) translate(45.52777777777778 24.11111111111111)"/><use xlink:href="#o" transform="matrix(1,0,0,1,34.43396226415092,266.933962264151) translate(-3.0000000000000036 24.11111111111111)"/><use xlink:href="#p" transform="matrix(1,0,0,1,94.43396226415092,266.933962264151) translate(9.253086419753085 14.777777777777775)"/><use xlink:href="#i" transform="matrix(1,0,0,1,94.43396226415092,266.933962264151) translate(25.62962962962963 33.44444444444444)"/><use xlink:href="#j" transform="matrix(1,0,0,1,176.43396226415092,266.933962264151) translate(-2.0895061728395063 24.11111111111111)"/><use xlink:href="#o" transform="matrix(1,0,0,1,34.43396226415092,313.933962264151) translate(-3.0000000000000036 24.11111111111111)"/><use xlink:href="#p" transform="matrix(1,0,0,1,94.43396226415092,313.933962264151) translate(9.253086419753085 14.777777777777775)"/><use xlink:href="#k" transform="matrix(1,0,0,1,94.43396226415092,313.933962264151) translate(26.925925925925924 33.44444444444444)"/><use xlink:href="#l" transform="matrix(1,0,0,1,176.43396226415092,313.933962264151) translate(0.6759259259259238 24.11111111111111)"/><use xlink:href="#m" transform="matrix(1,0,0,1,176.43396226415092,313.933962264151) translate(45.52777777777778 24.11111111111111)"/><use xlink:href="#q" transform="matrix(1,0,0,1,34.43396226415092,360.933962264151) translate(11.604938271604937 24.11111111111111)"/><use xlink:href="#r" transform="matrix(1,0,0,1,94.43396226415092,360.933962264151) translate(2.361111111111107 14.777777777777775)"/><use xlink:href="#s" transform="matrix(1,0,0,1,94.43396226415092,360.933962264151) translate(22.648148148148145 33.44444444444444)"/><use xlink:href="#t" transform="matrix(1,0,0,1,176.43396226415092,360.933962264151) translate(15.734567901234566 24.11111111111111)"/><path d="M233.43 563.43c0 7.74-26.86 14-60 14-33.13 0-60-6.26-60-14v-112c0-7.73 26.87-14 60-14 33.14 0 60 6.27 60 14z" stroke="#000" stroke-width="2" fill="#fff"/><path d="M233.43 451.43c0 7.74-26.86 14-60 14-33.13 0-60-6.26-60-14" stroke="#000" stroke-width="2" fill="none"/><use xlink:href="#u" transform="matrix(1,0,0,1,118.43396226415095,470.433962264151) translate(22.5 43.8)"/><use xlink:href="#v" transform="matrix(1,0,0,1,118.43396226415095,470.433962264151) translate(14.574999999999996 65.4)"/><use xlink:href="#w" transform="matrix(1,0,0,1,118.43396226415095,470.433962264151) translate(64.525 65.4)"/><path d="M289.43 109.43h224v746h-224z" fill="#fff"/><path d="M289.43 196.43h224v47h-224zM289.43 290.43h224v47h-224zM289.43 384.43h224v103h-224zM289.43 534.43h224v85h-224zM289.43 666.43h224v47h-224zM289.43 760.43h224v29h-224z" fill="#e6e6e6"/><path d="M289.43 109.43h224v40h-224z" fill="#ccc"/><path d="M289.43 109.43h224v746h-224zM289.43 149.43h224M349.43 149.43v706M431.43 149.43v706" stroke="#000" stroke-width="2" fill="none"/><use xlink:href="#x" transform="matrix(1,0,0,1,299.4339622641509,109.43396226415086) translate(40.27469135802469 23.11111111111111)"/><use xlink:href="#e" transform="matrix(1,0,0,1,299.4339622641509,109.43396226415086) translate(100.76851851851852 23.11111111111111)"/><use xlink:href="#y" transform="matrix(1,0,0,1,294.4339622641509,151.93396226415086) translate(6.873456790123456 14.777777777777775)"/><use xlink:href="#z" transform="matrix(1,0,0,1,294.4339622641509,151.93396226415086) translate(37.98456790123457 14.777777777777775)"/><use xlink:href="#A" transform="matrix(1,0,0,1,294.4339622641509,151.93396226415086) translate(-1.3580246913580254 33.44444444444444)"/><use xlink:href="#B" transform="matrix(1,0,0,1,354.4339622641509,151.93396226415086) translate(7.913580246913579 14.777777777777775)"/><use xlink:href="#s" transform="matrix(1,0,0,1,354.4339622641509,151.93396226415086) translate(22.648148148148145 33.44444444444444)"/><use xlink:href="#t" transform="matrix(1,0,0,1,436.4339622641509,151.93396226415086) translate(15.734567901234566 24.11111111111111)"/><use xlink:href="#f" transform="matrix(1,0,0,1,294.4339622641509,198.93396226415086) translate(12.922839506172838 14.777777777777775)"/><use xlink:href="#g" transform="matrix(1,0,0,1,294.4339622641509,198.93396226415086) translate(11.66975308641975 33.44444444444444)"/><use xlink:href="#C" transform="matrix(1,0,0,1,354.4339622641509,198.93396226415086) translate(16.188271604938272 14.777777777777775)"/><use xlink:href="#D" transform="matrix(1,0,0,1,354.4339622641509,198.93396226415086) translate(15.302469135802468 33.44444444444444)"/><use xlink:href="#t" transform="matrix(1,0,0,1,436.4339622641509,198.93396226415086) translate(15.734567901234566 24.11111111111111)"/><use xlink:href="#o" transform="matrix(1,0,0,1,294.4339622641509,245.93396226415086) translate(-3.0000000000000036 24.11111111111111)"/><use xlink:href="#C" transform="matrix(1,0,0,1,354.4339622641509,245.93396226415086) translate(16.188271604938272 14.777777777777775)"/><use xlink:href="#E" transform="matrix(1,0,0,1,354.4339622641509,245.93396226415086) translate(3.6790123456790127 33.44444444444444)"/><use xlink:href="#F" transform="matrix(1,0,0,1,354.4339622641509,245.93396226415086) translate(49.39506172839506 33.44444444444444)"/><use xlink:href="#t" transform="matrix(1,0,0,1,436.4339622641509,245.93396226415086) translate(15.734567901234566 24.11111111111111)"/><use xlink:href="#o" transform="matrix(1,0,0,1,294.4339622641509,292.93396226415086) translate(-3.0000000000000036 24.11111111111111)"/><use xlink:href="#C" transform="matrix(1,0,0,1,354.4339622641509,292.93396226415086) translate(16.188271604938272 14.777777777777775)"/><use xlink:href="#E" transform="matrix(1,0,0,1,354.4339622641509,292.93396226415086) translate(3.6790123456790127 33.44444444444444)"/><use xlink:href="#G" transform="matrix(1,0,0,1,354.4339622641509,292.93396226415086) translate(49.39506172839506 33.44444444444444)"/><use xlink:href="#t" transform="matrix(1,0,0,1,436.4339622641509,292.93396226415086) translate(15.734567901234566 24.11111111111111)"/><use xlink:href="#o" transform="matrix(1,0,0,1,294.4339622641509,339.93396226415086) translate(-3.0000000000000036 24.11111111111111)"/><use xlink:href="#C" transform="matrix(1,0,0,1,354.4339622641509,339.93396226415086) translate(16.188271604938272 14.777777777777775)"/><use xlink:href="#E" transform="matrix(1,0,0,1,354.4339622641509,339.93396226415086) translate(3.6790123456790127 33.44444444444444)"/><use xlink:href="#H" transform="matrix(1,0,0,1,354.4339622641509,339.93396226415086) translate(49.39506172839506 33.44444444444444)"/><use xlink:href="#t" transform="matrix(1,0,0,1,436.4339622641509,339.93396226415086) translate(15.734567901234566 24.11111111111111)"/><use xlink:href="#I" transform="matrix(1,0,0,1,294.4339622641509,386.93396226415086) translate(1.7314814814814774 24.111111111111104)"/><use xlink:href="#J" transform="matrix(1,0,0,1,294.4339622641509,386.93396226415086) translate(19.814814814814813 42.77777777777777)"/><use xlink:href="#K" transform="matrix(1,0,0,1,294.4339622641509,386.93396226415086) translate(6.4413580246913575 61.44444444444444)"/><use xlink:href="#L" transform="matrix(1,0,0,1,294.4339622641509,386.93396226415086) translate(9.03395061728395 80.11111111111111)"/><use xlink:href="#M" transform="matrix(1,0,0,1,354.4339622641509,386.93396226415086) translate(7.503086419753085 14.777777777777768)"/><use xlink:href="#N" transform="matrix(1,0,0,1,354.4339622641509,386.93396226415086) translate(-1.095679012345684 33.44444444444444)"/><use xlink:href="#O" transform="matrix(1,0,0,1,354.4339622641509,386.93396226415086) translate(28.891975308641975 52.111111111111114)"/><use xlink:href="#P" transform="matrix(1,0,0,1,354.4339622641509,386.93396226415086) translate(6.638888888888886 70.77777777777779)"/><use xlink:href="#s" transform="matrix(1,0,0,1,354.4339622641509,386.93396226415086) translate(22.648148148148145 89.44444444444444)"/><use xlink:href="#t" transform="matrix(1,0,0,1,436.4339622641509,386.93396226415086) translate(15.734567901234566 52.111111111111114)"/><use xlink:href="#f" transform="matrix(1,0,0,1,294.4339622641509,489.93396226415086) translate(12.922839506172838 14.777777777777775)"/><use xlink:href="#g" transform="matrix(1,0,0,1,294.4339622641509,489.93396226415086) translate(11.66975308641975 33.44444444444444)"/><use xlink:href="#Q" transform="matrix(1,0,0,1,354.4339622641509,489.93396226415086) translate(1.4320987654320945 14.777777777777775)"/><use xlink:href="#R" transform="matrix(1,0,0,1,354.4339622641509,489.93396226415086) translate(-1.981481481481481 33.44444444444444)"/><use xlink:href="#S" transform="matrix(1,0,0,1,436.4339622641509,489.93396226415086) translate(13.12037037037037 24.11111111111111)"/><use xlink:href="#f" transform="matrix(1,0,0,1,294.4339622641509,536.9339622641509) translate(12.922839506172838 33.77777777777777)"/><use xlink:href="#g" transform="matrix(1,0,0,1,294.4339622641509,536.9339622641509) translate(11.66975308641975 52.44444444444444)"/><use xlink:href="#T" transform="matrix(1,0,0,1,354.4339622641509,536.9339622641509) translate(5.342592592592592 15.111111111111104)"/><use xlink:href="#U" transform="matrix(1,0,0,1,354.4339622641509,536.9339622641509) translate(14.891975308641975 33.77777777777777)"/><use xlink:href="#V" transform="matrix(1,0,0,1,354.4339622641509,536.9339622641509) translate(4.262345679012341 52.44444444444444)"/><use xlink:href="#W" transform="matrix(1,0,0,1,354.4339622641509,536.9339622641509) translate(-7.058641975308646 71.11111111111111)"/><use xlink:href="#l" transform="matrix(1,0,0,1,436.4339622641509,536.9339622641509) translate(11.413580246913579 24.444444444444443)"/><use xlink:href="#X" transform="matrix(1,0,0,1,436.4339622641509,536.9339622641509) translate(56.26543209876543 24.444444444444443)"/><use xlink:href="#Y" transform="matrix(1,0,0,1,436.4339622641509,536.9339622641509) translate(8.799382716049383 43.111111111111114)"/><use xlink:href="#X" transform="matrix(1,0,0,1,436.4339622641509,536.9339622641509) translate(58.87962962962963 43.111111111111114)"/><use xlink:href="#Z" transform="matrix(1,0,0,1,436.4339622641509,536.9339622641509) translate(17.441358024691358 61.777777777777786)"/><use xlink:href="#f" transform="matrix(1,0,0,1,294.4339622641509,621.9339622641509) translate(12.922839506172838 14.777777777777775)"/><use xlink:href="#g" transform="matrix(1,0,0,1,294.4339622641509,621.9339622641509) translate(11.66975308641975 33.44444444444444)"/><use xlink:href="#aa" transform="matrix(1,0,0,1,354.4339622641509,621.9339622641509) translate(4.521604938271604 24.11111111111111)"/><use xlink:href="#S" transform="matrix(1,0,0,1,436.4339622641509,621.9339622641509) translate(13.12037037037037 24.11111111111111)"/><use xlink:href="#ab" transform="matrix(1,0,0,1,294.4339622641509,668.9339622641509) translate(-1.7469135802469147 14.777777777777775)"/><use xlink:href="#ac" transform="matrix(1,0,0,1,294.4339622641509,668.9339622641509) translate(8.601851851851851 33.44444444444444)"/><use xlink:href="#ad" transform="matrix(1,0,0,1,354.4339622641509,668.9339622641509) translate(21.762345679012345 24.11111111111111)"/><use xlink:href="#ae" transform="matrix(1,0,0,1,436.4339622641509,668.9339622641509) translate(7.503086419753085 24.11111111111111)"/><use xlink:href="#ab" transform="matrix(1,0,0,1,294.4339622641509,715.9339622641509) translate(-1.7469135802469147 14.777777777777775)"/><use xlink:href="#af" transform="matrix(1,0,0,1,294.4339622641509,715.9339622641509) translate(11.62654320987654 33.44444444444444)"/><use xlink:href="#ag" transform="matrix(1,0,0,1,354.4339622641509,715.9339622641509) translate(22.17283950617284 14.777777777777775)"/><use xlink:href="#ah" transform="matrix(1,0,0,1,354.4339622641509,715.9339622641509) translate(2.361111111111107 33.44444444444444)"/><use xlink:href="#ae" transform="matrix(1,0,0,1,436.4339622641509,715.9339622641509) translate(7.503086419753085 24.11111111111111)"/><use xlink:href="#o" transform="matrix(1,0,0,1,294.4339622641509,762.9339622641509) translate(-3.0000000000000036 15.11111111111111)"/><use xlink:href="#ai" transform="matrix(1,0,0,1,354.4339622641509,762.9339622641509) translate(13.12037037037037 15.11111111111111)"/><use xlink:href="#aj" transform="matrix(1,0,0,1,436.4339622641509,762.9339622641509) translate(22.604938271604937 15.11111111111111)"/><use xlink:href="#q" transform="matrix(1,0,0,1,294.4339622641509,791.9339622641509) translate(11.604938271604937 33.611111111111114)"/><use xlink:href="#ak" transform="matrix(1,0,0,1,354.4339622641509,791.9339622641509) translate(6.638888888888886 14.944444444444443)"/><use xlink:href="#al" transform="matrix(1,0,0,1,354.4339622641509,791.9339622641509) translate(4.111111111111107 33.611111111111114)"/><use xlink:href="#am" transform="matrix(1,0,0,1,354.4339622641509,791.9339622641509) translate(35.135802469135804 33.611111111111114)"/><use xlink:href="#an" transform="matrix(1,0,0,1,354.4339622641509,791.9339622641509) translate(14.438271604938269 52.277777777777786)"/><use xlink:href="#t" transform="matrix(1,0,0,1,436.4339622641509,791.9339622641509) translate(15.734567901234566 33.611111111111114)"/><path d="M569.43 469.43h200v113h-200z" fill="#fff"/><path d="M569.43 469.43h200v47h-200z" fill="#ccc"/><path d="M569.43 469.43h200v113h-200zM569.43 516.43h200M629.43 516.43v66M699.43 516.43v66" stroke="#000" stroke-width="2" fill="none"/><use xlink:href="#ao" transform="matrix(1,0,0,1,579.433962264151,469.433962264151) translate(11.012345679012356 17.277777777777775)"/><use xlink:href="#ap" transform="matrix(1,0,0,1,579.433962264151,469.433962264151) translate(66.23456790123458 17.277777777777775)"/><use xlink:href="#aq" transform="matrix(1,0,0,1,579.433962264151,469.433962264151) translate(104.21604938271605 17.277777777777775)"/><use xlink:href="#ar" transform="matrix(1,0,0,1,579.433962264151,469.433962264151) translate(24.01851851851852 35.94444444444444)"/><use xlink:href="#f" transform="matrix(1,0,0,1,574.433962264151,518.933962264151) translate(12.922839506172838 24.277777777777775)"/><use xlink:href="#g" transform="matrix(1,0,0,1,574.433962264151,518.933962264151) translate(11.66975308641975 42.94444444444444)"/><use xlink:href="#as" transform="matrix(1,0,0,1,634.433962264151,518.933962264151) translate(11.441358024691358 14.944444444444443)"/><use xlink:href="#at" transform="matrix(1,0,0,1,634.433962264151,518.933962264151) translate(9.712962962962962 33.611111111111114)"/><use xlink:href="#au" transform="matrix(1,0,0,1,634.433962264151,518.933962264151) translate(18.787037037037038 52.277777777777786)"/><use xlink:href="#av" transform="matrix(1,0,0,1,704.433962264151,518.933962264151) translate(2.4104938271604937 33.611111111111114)"/><path d="M825.43 389.43h200v69h-200z" fill="#fff"/><path d="M825.43 389.43h200v40h-200z" fill="#ccc"/><path d="M825.43 389.43h200v69h-200zM825.43 429.43h200M925.43 429.43v29" stroke="#000" stroke-width="2" fill="none"/><use xlink:href="#aw" transform="matrix(1,0,0,1,835.4339622641509,389.433962264151) translate(27.842592592592588 23.11111111111111)"/><use xlink:href="#ax" transform="matrix(1,0,0,1,835.4339622641509,389.433962264151) translate(83.15123456790124 23.11111111111111)"/><use xlink:href="#ay" transform="matrix(1,0,0,1,830.4339622641509,431.933962264151) translate(26.441358024691358 15.11111111111111)"/><use xlink:href="#az" transform="matrix(1,0,0,1,930.4339622641509,431.933962264151) translate(40.67901234567901 15.11111111111111)"/><path d="M825.43 478.47h200v76h-200z" fill="#fff"/><path d="M825.43 478.47h200v47h-200z" fill="#ccc"/><path d="M825.43 478.47h200v76h-200zM825.43 525.47h200M925.43 525.47v29" stroke="#000" stroke-width="2" fill="none"/><use xlink:href="#aw" transform="matrix(1,0,0,1,835.4339622641509,478.47396226415094) translate(31.320987654320987 17.277777777777775)"/><use xlink:href="#aA" transform="matrix(1,0,0,1,835.4339622641509,478.47396226415094) translate(86.62962962962963 17.277777777777775)"/><use xlink:href="#aB" transform="matrix(1,0,0,1,835.4339622641509,478.47396226415094) translate(60.22839506172839 35.94444444444444)"/><use xlink:href="#ay" transform="matrix(1,0,0,1,830.4339622641509,527.9739622641509) translate(26.441358024691358 15.11111111111111)"/><use xlink:href="#aC" transform="matrix(1,0,0,1,930.4339622641509,527.9739622641509) translate(40.67901234567901 15.11111111111111)"/><path d="M825.43 574.4h200v69h-200z" fill="#fff"/><path d="M825.43 574.4h200v40h-200z" fill="#ccc"/><path d="M825.43 574.4h200v69h-200zM825.43 614.4h200M925.43 614.4v29" stroke="#000" stroke-width="2" fill="none"/><g><use xlink:href="#aD" transform="matrix(1,0,0,1,835.4339622641509,574.393962264151) translate(52.47222222222222 23.11111111111111)"/><use xlink:href="#aE" transform="matrix(1,0,0,1,835.4339622641509,574.393962264151) translate(94.73148148148148 23.11111111111111)"/></g><g><use xlink:href="#ay" transform="matrix(1,0,0,1,830.4339622641509,616.893962264151) translate(26.441358024691358 15.11111111111111)"/></g><g><use xlink:href="#aF" transform="matrix(1,0,0,1,930.4339622641509,616.893962264151) translate(40.67901234567901 15.11111111111111)"/></g><path d="M533.43 689.93h7.5V517.6h8.68" stroke="#000" stroke-width="2" fill="none"/><path d="M533.43 699.93v-20M513.43 689.93h20M568 527.6l-20-10 20-10M568 517.6h-20" stroke="#000" stroke-width="2" fill="#fff"/><path d="M790.43 492.6h7v-66.08h8.18" stroke="#000" stroke-width="2" fill="none"/><path d="M790.43 502.6v-20M770.43 492.6h20M824 436.52l-20-10 20-10M824 426.52h-20" stroke="#000" stroke-width="2" fill="#fff"/><path d="M790.43 492.6h7v31.74h8.18" stroke="#000" stroke-width="2" fill="none"/><path d="M790.43 502.6v-20M770.43 492.6h20M824 534.34l-20-10 20-10M824 524.34h-20" stroke="#000" stroke-width="2" fill="#fff"/><path d="M790.43 492.6h7v120.3h8.18" stroke="#000" stroke-width="2" fill="none"/><path d="M790.43 502.6v-20M770.43 492.6h20M824 622.9l-20-10 20-10M824 612.9h-20" stroke="#000" stroke-width="2" fill="#fff"/><path d="M51.88 426.43v81H93.6" stroke="#000" stroke-width="2" fill="none"/><path d="M41.88 426.43h20M51.88 406.43v20M112 517.43l-20-10 20-10M112 507.43H92" stroke="#000" stroke-width="2" fill="#fff"/><path d="M235.43 507.43h34.5" stroke="#000" stroke-width="2" fill="none"/><path d="M235.46 508.43h-1.03v-2h1.03z"/><path d="M285.2 507.43l-14.27 4.64v-9.27z" stroke="#000" stroke-width="2"/><path d="M1109.43 389.4h228v254h-228z" stroke="#000" stroke-width="2" fill="#fff"/><g><use xlink:href="#aG" transform="matrix(1,0,0,1,1114.433962264151,394.393962264151) translate(49.099999999999994 114.80000000000001)"/><use xlink:href="#aH" transform="matrix(1,0,0,1,1114.433962264151,394.393962264151) translate(126 114.80000000000001)"/><use xlink:href="#aI" transform="matrix(1,0,0,1,1114.433962264151,394.393962264151) translate(51.099999999999994 136.4)"/></g><path d="M1089.93 516.4h-22.5V409.3h-22.5" stroke="#000" stroke-width="2" fill="none"/><path d="M1105.2 516.4l-14.27 4.63v-9.27zM1029.67 409.3l14.27-4.65v9.27z" stroke="#000" stroke-width="2"/><path d="M1107.43 516.4h-40v78h-22.5" stroke="#000" stroke-width="2" fill="none"/><path d="M1108.43 517.4h-1.02v-2h1.03z"/><path d="M1029.67 594.4l14.27-4.64v9.27z" stroke="#000" stroke-width="2"/><path d="M1107.43 516.4h-62.5" stroke="#000" stroke-width="2" fill="none"/><path d="M1108.43 517.4h-1.02v-2h1.03z"/><path d="M1029.67 516.4l14.27-4.64v9.27z" stroke="#000" stroke-width="2"/><path d="M1409.43 389.43h180V643.5h-180z" fill="none"/><path d="M1409.43 643.5c8.77 0 15.88-7.1 15.88-15.87v-95.28c0-8.77 7.12-15.88 15.9-15.88-8.78 0-15.9-7.1-15.9-15.88v-95.3c0-8.76-7.1-15.87-15.87-15.87" stroke="#000" stroke-width="2" fill="none"/><g><use xlink:href="#aJ" transform="matrix(1,0,0,1,1462.073962264151,394.4339622641509) translate(0 50.50000000000001)"/><use xlink:href="#aK" transform="matrix(1,0,0,1,1462.073962264151,394.4339622641509) translate(0 72.10000000000001)"/><use xlink:href="#aL" transform="matrix(1,0,0,1,1462.073962264151,394.4339622641509) translate(0 93.70000000000002)"/><use xlink:href="#aM" transform="matrix(1,0,0,1,1462.073962264151,394.4339622641509) translate(0 115.30000000000003)"/><use xlink:href="#aN" transform="matrix(1,0,0,1,1462.073962264151,394.4339622641509) translate(51.900000000000006 115.30000000000003)"/><use xlink:href="#aO" transform="matrix(1,0,0,1,1462.073962264151,394.4339622641509) translate(0 136.9)"/><use xlink:href="#aP" transform="matrix(1,0,0,1,1462.073962264151,394.4339622641509) translate(40.9 136.9)"/><use xlink:href="#aQ" transform="matrix(1,0,0,1,1462.073962264151,394.4339622641509) translate(0 158.50000000000003)"/><use xlink:href="#aR" transform="matrix(1,0,0,1,1462.073962264151,394.4339622641509) translate(61 158.50000000000003)"/><use xlink:href="#aS" transform="matrix(1,0,0,1,1462.073962264151,394.4339622641509) translate(0 180.1)"/><use xlink:href="#aT" transform="matrix(1,0,0,1,1462.073962264151,394.4339622641509) translate(24 180.1)"/><use xlink:href="#aU" transform="matrix(1,0,0,1,1462.073962264151,394.4339622641509) translate(91.95 180.1)"/><use xlink:href="#aV" transform="matrix(1,0,0,1,1462.073962264151,394.4339622641509) translate(0 201.70000000000002)"/></g><path d="M825.43 663.3h200v69h-200z" fill="#fff"/><path d="M825.43 663.3h200v40h-200z" fill="#ccc"/><path d="M825.43 663.3h200v69h-200zM825.43 703.3h200M925.43 703.3v29" stroke="#000" stroke-width="2" fill="none"/><g><use xlink:href="#aW" transform="matrix(1,0,0,1,835.4339622641509,663.3139622641511) translate(51.58641975308642 23.11111111111111)"/><use xlink:href="#aX" transform="matrix(1,0,0,1,835.4339622641509,663.3139622641511) translate(94.75308641975309 23.11111111111111)"/></g><g><use xlink:href="#ay" transform="matrix(1,0,0,1,830.4339622641509,705.8139622641511) translate(26.441358024691358 15.11111111111111)"/></g><g><use xlink:href="#aY" transform="matrix(1,0,0,1,930.4339622641509,705.8139622641511) translate(36.141975308641975 15.11111111111111)"/></g><path d="M790.43 492.6h7v209.3h8.18" stroke="#000" stroke-width="2" fill="none"/><path d="M790.43 502.6v-20M770.43 492.6h20M824 711.9l-20-10 20-10M824 701.9h-20" stroke="#000" stroke-width="2" fill="#fff"/><path d="M1107.43 516.4h-40v166.77h-22.5" stroke="#000" stroke-width="2" fill="none"/><path d="M1108.43 517.4h-1.02v-2h1.03z"/><path d="M1029.67 683.17l14.27-4.64v9.27z" stroke="#000" stroke-width="2"/><defs><path d="M205 0l-28-72H64L36 0H1l101-248h38L239 0h-34zm-38-99l-47-123c-12 45-31 82-46 123h93" id="aZ"/><path d="M24 0v-261h32V0H24" id="ba"/><g id="a"><use transform="matrix(0.04320987654320988,0,0,0.04320987654320988,0,0)" xlink:href="#aZ"/><use transform="matrix(0.04320987654320988,0,0,0.04320987654320988,10.370370370370372,0)" xlink:href="#ba"/><use transform="matrix(0.04320987654320988,0,0,0.04320987654320988,13.783950617283953,0)" xlink:href="#ba"/></g><path d="M30 0v-248h187v28H63v79h144v27H63v87h162V0H30" id="bb"/><path d="M117-194c89-4 53 116 60 194h-32v-121c0-31-8-49-39-48C34-167 62-67 57 0H25l-1-190h30c1 10-1 24 2 32 11-22 29-35 61-36" id="bc"/><path d="M59-47c-2 24 18 29 38 22v24C64 9 27 4 27-40v-127H5v-23h24l9-43h21v43h35v23H59v120" id="bd"/><path d="M24-231v-30h32v30H24zM24 0v-190h32V0H24" id="be"/><path d="M179-190L93 31C79 59 56 82 12 73V49c39 6 53-20 64-50L1-190h34L92-34l54-156h33" id="bf"/><g id="b"><use transform="matrix(0.04320987654320988,0,0,0.04320987654320988,0,0)" xlink:href="#bb"/><use transform="matrix(0.04320987654320988,0,0,0.04320987654320988,10.370370370370372,0)" xlink:href="#bc"/><use transform="matrix(0.04320987654320988,0,0,0.04320987654320988,19.01234567901235,0)" xlink:href="#bd"/><use transform="matrix(0.04320987654320988,0,0,0.04320987654320988,23.333333333333336,0)" xlink:href="#be"/><use transform="matrix(0.04320987654320988,0,0,0.04320987654320988,26.746913580246915,0)" xlink:href="#bd"/><use transform="matrix(0.04320987654320988,0,0,0.04320987654320988,31.067901234567906,0)" xlink:href="#bf"/></g><path d="M185-189c-5-48-123-54-124 2 14 75 158 14 163 119 3 78-121 87-175 55-17-10-28-26-33-46l33-7c5 56 141 63 141-1 0-78-155-14-162-118-5-82 145-84 179-34 5 7 8 16 11 25" id="bg"/><path d="M106-169C34-169 62-67 57 0H25v-261h32l-1 103c12-21 28-36 61-36 89 0 53 116 60 194h-32v-121c2-32-8-49-39-48" id="bh"/><path d="M141-36C126-15 110 5 73 4 37 3 15-17 15-53c-1-64 63-63 125-63 3-35-9-54-41-54-24 1-41 7-42 31l-33-3c5-37 33-52 76-52 45 0 72 20 72 64v82c-1 20 7 32 28 27v20c-31 9-61-2-59-35zM48-53c0 20 12 33 32 33 41-3 63-29 60-74-43 2-92-5-92 41" id="bi"/><path d="M114-163C36-179 61-72 57 0H25l-1-190h30c1 12-1 29 2 39 6-27 23-49 58-41v29" id="bj"/><path d="M100-194c63 0 86 42 84 106H49c0 40 14 67 53 68 26 1 43-12 49-29l28 8c-11 28-37 45-77 45C44 4 14-33 15-96c1-61 26-98 85-98zm52 81c6-60-76-77-97-28-3 7-6 17-6 28h103" id="bk"/><path d="M85-194c31 0 48 13 60 33l-1-100h32l1 261h-30c-2-10 0-23-3-31C134-8 116 4 85 4 32 4 16-35 15-94c0-66 23-100 70-100zm9 24c-40 0-46 34-46 75 0 40 6 74 45 74 42 0 51-32 51-76 0-42-9-74-50-73" id="bl"/><g id="c"><use transform="matrix(0.04320987654320988,0,0,0.04320987654320988,0,0)" xlink:href="#bg"/><use transform="matrix(0.04320987654320988,0,0,0.04320987654320988,10.370370370370372,0)" xlink:href="#bh"/><use transform="matrix(0.04320987654320988,0,0,0.04320987654320988,19.01234567901235,0)" xlink:href="#bi"/><use transform="matrix(0.04320987654320988,0,0,0.04320987654320988,27.654320987654323,0)" xlink:href="#bj"/><use transform="matrix(0.04320987654320988,0,0,0.04320987654320988,32.7962962962963,0)" xlink:href="#bk"/><use transform="matrix(0.04320987654320988,0,0,0.04320987654320988,41.43827160493827,0)" xlink:href="#bl"/></g><path d="M63-220v92h138v28H63V0H30v-248h175v28H63" id="bm"/><g id="d"><use transform="matrix(0.04320987654320988,0,0,0.04320987654320988,0,0)" xlink:href="#bm"/><use transform="matrix(0.04320987654320988,0,0,0.04320987654320988,9.462962962962964,0)" xlink:href="#be"/><use transform="matrix(0.04320987654320988,0,0,0.04320987654320988,12.876543209876544,0)" xlink:href="#bk"/><use transform="matrix(0.04320987654320988,0,0,0.04320987654320988,21.51851851851852,0)" xlink:href="#ba"/><use transform="matrix(0.04320987654320988,0,0,0.04320987654320988,24.9320987654321,0)" xlink:href="#bl"/></g><path d="M127-220V0H93v-220H8v-28h204v28h-85" id="bn"/><path d="M210-169c-67 3-38 105-44 169h-31v-121c0-29-5-50-35-48C34-165 62-65 56 0H25l-1-190h30c1 10-1 24 2 32 10-44 99-50 107 0 11-21 27-35 58-36 85-2 47 119 55 194h-31v-121c0-29-5-49-35-48" id="bo"/><path d="M115-194c55 1 70 41 70 98S169 2 115 4C84 4 66-9 55-30l1 105H24l-1-265h31l2 30c10-21 28-34 59-34zm-8 174c40 0 45-34 45-75s-6-73-45-74c-42 0-51 32-51 76 0 43 10 73 51 73" id="bp"/><g id="e"><use transform="matrix(0.04320987654320988,0,0,0.04320987654320988,0,0)" xlink:href="#bn"/><use transform="matrix(0.04320987654320988,0,0,0.04320987654320988,7.734567901234567,0)" xlink:href="#bk"/><use transform="matrix(0.04320987654320988,0,0,0.04320987654320988,16.376543209876544,0)" xlink:href="#bo"/><use transform="matrix(0.04320987654320988,0,0,0.04320987654320988,29.296296296296298,0)" xlink:href="#bp"/><use transform="matrix(0.04320987654320988,0,0,0.04320987654320988,37.93827160493827,0)" xlink:href="#ba"/><use transform="matrix(0.04320987654320988,0,0,0.04320987654320988,41.351851851851855,0)" xlink:href="#bi"/><use transform="matrix(0.04320987654320988,0,0,0.04320987654320988,49.99382716049383,0)" xlink:href="#bd"/><use transform="matrix(0.04320987654320988,0,0,0.04320987654320988,54.314814814814824,0)" xlink:href="#bk"/></g><path d="M190 0L58-211 59 0H30v-248h39L202-35l-2-213h31V0h-41" id="bq"/><path d="M100-194c62-1 85 37 85 99 1 63-27 99-86 99S16-35 15-95c0-66 28-99 85-99zM99-20c44 1 53-31 53-75 0-43-8-75-51-75s-53 32-53 75 10 74 51 75" id="br"/><g id="f"><use transform="matrix(0.04320987654320988,0,0,0.04320987654320988,0,0)" xlink:href="#bq"/><use transform="matrix(0.04320987654320988,0,0,0.04320987654320988,11.19135802469136,0)" xlink:href="#br"/><use transform="matrix(0.04320987654320988,0,0,0.04320987654320988,19.833333333333336,0)" xlink:href="#bd"/></g><path d="M84 4C-5 8 30-112 23-190h32v120c0 31 7 50 39 49 72-2 45-101 50-169h31l1 190h-30c-1-10 1-25-2-33-11 22-28 36-60 37" id="bs"/><g id="g"><use transform="matrix(0.04320987654320988,0,0,0.04320987654320988,0,0)" xlink:href="#bq"/><use transform="matrix(0.04320987654320988,0,0,0.04320987654320988,11.19135802469136,0)" xlink:href="#bs"/><use transform="matrix(0.04320987654320988,0,0,0.04320987654320988,19.833333333333336,0)" xlink:href="#ba"/><use transform="matrix(0.04320987654320988,0,0,0.04320987654320988,23.246913580246915,0)" xlink:href="#ba"/></g><path d="M212-179c-10-28-35-45-73-45-59 0-87 40-87 99 0 60 29 101 89 101 43 0 62-24 78-52l27 14C228-24 195 4 139 4 59 4 22-46 18-125c-6-104 99-153 187-111 19 9 31 26 39 46" id="bt"/><g id="h"><use transform="matrix(0.04320987654320988,0,0,0.04320987654320988,0,0)" xlink:href="#bt"/><use transform="matrix(0.04320987654320988,0,0,0.04320987654320988,11.19135802469136,0)" xlink:href="#bj"/><use transform="matrix(0.04320987654320988,0,0,0.04320987654320988,16.333333333333336,0)" xlink:href="#bk"/><use transform="matrix(0.04320987654320988,0,0,0.04320987654320988,24.97530864197531,0)" xlink:href="#bi"/><use transform="matrix(0.04320987654320988,0,0,0.04320987654320988,33.617283950617285,0)" xlink:href="#bd"/><use transform="matrix(0.04320987654320988,0,0,0.04320987654320988,37.93827160493827,0)" xlink:href="#bk"/><use transform="matrix(0.04320987654320988,0,0,0.04320987654320988,46.58024691358024,0)" xlink:href="#bl"/></g><path d="M140-251c81 0 123 46 123 126C263-46 219 4 140 4 59 4 17-45 17-125s42-126 123-126zm0 227c63 0 89-41 89-101s-29-99-89-99c-61 0-89 39-89 99S79-25 140-24" id="bu"/><g id="i"><use transform="matrix(0.04320987654320988,0,0,0.04320987654320988,0,0)" xlink:href="#bu"/><use transform="matrix(0.04320987654320988,0,0,0.04320987654320988,12.098765432098766,0)" xlink:href="#bc"/></g><path d="M135-143c-3-34-86-38-87 0 15 53 115 12 119 90S17 21 10-45l28-5c4 36 97 45 98 0-10-56-113-15-118-90-4-57 82-63 122-42 12 7 21 19 24 35" id="bv"/><g id="j"><use transform="matrix(0.04320987654320988,0,0,0.04320987654320988,0,0)" xlink:href="#bn"/><use transform="matrix(0.04320987654320988,0,0,0.04320987654320988,8.901234567901236,0)" xlink:href="#be"/><use transform="matrix(0.04320987654320988,0,0,0.04320987654320988,12.314814814814817,0)" xlink:href="#bo"/><use transform="matrix(0.04320987654320988,0,0,0.04320987654320988,25.23456790123457,0)" xlink:href="#bk"/><use transform="matrix(0.04320987654320988,0,0,0.04320987654320988,33.876543209876544,0)" xlink:href="#bv"/><use transform="matrix(0.04320987654320988,0,0,0.04320987654320988,41.65432098765432,0)" xlink:href="#bd"/><use transform="matrix(0.04320987654320988,0,0,0.04320987654320988,45.97530864197531,0)" xlink:href="#bi"/><use transform="matrix(0.04320987654320988,0,0,0.04320987654320988,54.61728395061729,0)" xlink:href="#bo"/><use transform="matrix(0.04320987654320988,0,0,0.04320987654320988,67.53703703703704,0)" xlink:href="#bp"/></g><path d="M160-131c35 5 61 23 61 61C221 17 115-2 30 0v-248c76 3 177-17 177 60 0 33-19 50-47 57zm-97-11c50-1 110 9 110-42 0-47-63-36-110-37v79zm0 115c55-2 124 14 124-45 0-56-70-42-124-44v89" id="bw"/><g id="k"><use transform="matrix(0.04320987654320988,0,0,0.04320987654320988,0,0)" xlink:href="#bw"/><use transform="matrix(0.04320987654320988,0,0,0.04320987654320988,10.370370370370372,0)" xlink:href="#bf"/></g><path d="M177-190C167-65 218 103 67 71c-23-6-38-20-44-43l32-5c15 47 100 32 89-28v-30C133-14 115 1 83 1 29 1 15-40 15-95c0-56 16-97 71-98 29-1 48 16 59 35 1-10 0-23 2-32h30zM94-22c36 0 50-32 50-73 0-42-14-75-50-75-39 0-46 34-46 75s6 73 46 73" id="bx"/><g id="l"><use transform="matrix(0.04320987654320988,0,0,0.04320987654320988,0,0)" xlink:href="#bg"/><use transform="matrix(0.04320987654320988,0,0,0.04320987654320988,10.370370370370372,0)" xlink:href="#bd"/><use transform="matrix(0.04320987654320988,0,0,0.04320987654320988,14.691358024691363,0)" xlink:href="#bj"/><use transform="matrix(0.04320987654320988,0,0,0.04320987654320988,19.833333333333336,0)" xlink:href="#be"/><use transform="matrix(0.04320987654320988,0,0,0.04320987654320988,23.246913580246915,0)" xlink:href="#bc"/><use transform="matrix(0.04320987654320988,0,0,0.04320987654320988,31.888888888888893,0)" xlink:href="#bx"/></g><path d="M87 75C49 33 22-17 22-94c0-76 28-126 65-167h31c-38 41-64 92-64 168S80 34 118 75H87" id="by"/><path d="M33 0v-248h34V0H33" id="bz"/><path d="M30-248c118-7 216 8 213 122C240-48 200 0 122 0H30v-248zM63-27c89 8 146-16 146-99s-60-101-146-95v194" id="bA"/><path d="M33-261c38 41 65 92 65 168S71 34 33 75H2C39 34 66-17 66-93S39-220 2-261h31" id="bB"/><g id="m"><use transform="matrix(0.04320987654320988,0,0,0.04320987654320988,0,0)" xlink:href="#by"/><use transform="matrix(0.04320987654320988,0,0,0.04320987654320988,5.1419753086419755,0)" xlink:href="#bz"/><use transform="matrix(0.04320987654320988,0,0,0.04320987654320988,9.462962962962964,0)" xlink:href="#bA"/><use transform="matrix(0.04320987654320988,0,0,0.04320987654320988,20.654320987654323,0)" xlink:href="#bB"/></g><path d="M232-93c-1 65-40 97-104 97C67 4 28-28 28-90v-158h33c8 89-33 224 67 224 102 0 64-133 71-224h33v155" id="bC"/><g id="n"><use transform="matrix(0.04320987654320988,0,0,0.04320987654320988,0,0)" xlink:href="#bC"/><use transform="matrix(0.04320987654320988,0,0,0.04320987654320988,11.19135802469136,0)" xlink:href="#bp"/><use transform="matrix(0.04320987654320988,0,0,0.04320987654320988,19.833333333333336,0)" xlink:href="#bl"/><use transform="matrix(0.04320987654320988,0,0,0.04320987654320988,28.47530864197531,0)" xlink:href="#bi"/><use transform="matrix(0.04320987654320988,0,0,0.04320987654320988,37.117283950617285,0)" xlink:href="#bd"/><use transform="matrix(0.04320987654320988,0,0,0.04320987654320988,41.43827160493827,0)" xlink:href="#bk"/><use transform="matrix(0.04320987654320988,0,0,0.04320987654320988,50.08024691358024,0)" xlink:href="#bl"/></g><path d="M115-194c53 0 69 39 70 98 0 66-23 100-70 100C84 3 66-7 56-30L54 0H23l1-261h32v101c10-23 28-34 59-34zm-8 174c40 0 45-34 45-75 0-40-5-75-45-74-42 0-51 32-51 76 0 43 10 73 51 73" id="bD"/><g id="o"><use transform="matrix(0.04320987654320988,0,0,0.04320987654320988,0,0)" xlink:href="#bq"/><use transform="matrix(0.04320987654320988,0,0,0.04320987654320988,11.19135802469136,0)" xlink:href="#bs"/><use transform="matrix(0.04320987654320988,0,0,0.04320987654320988,19.833333333333336,0)" xlink:href="#ba"/><use transform="matrix(0.04320987654320988,0,0,0.04320987654320988,23.246913580246915,0)" xlink:href="#ba"/><use transform="matrix(0.04320987654320988,0,0,0.04320987654320988,26.6604938271605,0)" xlink:href="#bi"/><use transform="matrix(0.04320987654320988,0,0,0.04320987654320988,35.302469135802475,0)" xlink:href="#bD"/><use transform="matrix(0.04320987654320988,0,0,0.04320987654320988,43.94444444444445,0)" xlink:href="#ba"/><use transform="matrix(0.04320987654320988,0,0,0.04320987654320988,47.35802469135803,0)" xlink:href="#bk"/></g><g id="p"><use transform="matrix(0.04320987654320988,0,0,0.04320987654320988,0,0)" xlink:href="#bA"/><use transform="matrix(0.04320987654320988,0,0,0.04320987654320988,11.19135802469136,0)" xlink:href="#bk"/><use transform="matrix(0.04320987654320988,0,0,0.04320987654320988,19.833333333333336,0)" xlink:href="#ba"/><use transform="matrix(0.04320987654320988,0,0,0.04320987654320988,23.246913580246915,0)" xlink:href="#bk"/><use transform="matrix(0.04320987654320988,0,0,0.04320987654320988,31.888888888888893,0)" xlink:href="#bd"/><use transform="matrix(0.04320987654320988,0,0,0.04320987654320988,36.20987654320988,0)" xlink:href="#bk"/><use transform="matrix(0.04320987654320988,0,0,0.04320987654320988,44.851851851851855,0)" xlink:href="#bl"/></g><path d="M194 0L95-120 63-95V0H30v-248h33v124l119-124h40L117-140 236 0h-42" id="bE"/><g id="q"><use transform="matrix(0.04320987654320988,0,0,0.04320987654320988,0,0)" xlink:href="#bE"/><use transform="matrix(0.04320987654320988,0,0,0.04320987654320988,10.370370370370372,0)" xlink:href="#bk"/><use transform="matrix(0.04320987654320988,0,0,0.04320987654320988,19.01234567901235,0)" xlink:href="#bf"/></g><g id="r"><use transform="matrix(0.04320987654320988,0,0,0.04320987654320988,0,0)" xlink:href="#bt"/><use transform="matrix(0.04320987654320988,0,0,0.04320987654320988,11.19135802469136,0)" xlink:href="#bs"/><use transform="matrix(0.04320987654320988,0,0,0.04320987654320988,19.833333333333336,0)" xlink:href="#bv"/><use transform="matrix(0.04320987654320988,0,0,0.04320987654320988,27.611111111111114,0)" xlink:href="#bd"/><use transform="matrix(0.04320987654320988,0,0,0.04320987654320988,31.9320987654321,0)" xlink:href="#br"/><use transform="matrix(0.04320987654320988,0,0,0.04320987654320988,40.574074074074076,0)" xlink:href="#bo"/><use transform="matrix(0.04320987654320988,0,0,0.04320987654320988,53.49382716049383,0)" xlink:href="#bk"/><use transform="matrix(0.04320987654320988,0,0,0.04320987654320988,62.1358024691358,0)" xlink:href="#bj"/></g><g id="s"><use transform="matrix(0.04320987654320988,0,0,0.04320987654320988,0,0)" xlink:href="#bC"/><use transform="matrix(0.04320987654320988,0,0,0.04320987654320988,11.19135802469136,0)" xlink:href="#bz"/><use transform="matrix(0.04320987654320988,0,0,0.04320987654320988,15.512345679012347,0)" xlink:href="#bA"/></g><g id="t"><use transform="matrix(0.04320987654320988,0,0,0.04320987654320988,0,0)" xlink:href="#bg"/><use transform="matrix(0.04320987654320988,0,0,0.04320987654320988,10.370370370370372,0)" xlink:href="#bd"/><use transform="matrix(0.04320987654320988,0,0,0.04320987654320988,14.691358024691363,0)" xlink:href="#bj"/><use transform="matrix(0.04320987654320988,0,0,0.04320987654320988,19.833333333333336,0)" xlink:href="#be"/><use transform="matrix(0.04320987654320988,0,0,0.04320987654320988,23.246913580246915,0)" xlink:href="#bc"/><use transform="matrix(0.04320987654320988,0,0,0.04320987654320988,31.888888888888893,0)" xlink:href="#bx"/></g><path d="M96-169c-40 0-48 33-48 73s9 75 48 75c24 0 41-14 43-38l32 2c-6 37-31 61-74 61-59 0-76-41-82-99-10-93 101-131 147-64 4 7 5 14 7 22l-32 3c-4-21-16-35-41-35" id="bF"/><g id="u"><use transform="matrix(0.05,0,0,0.05,0,0)" xlink:href="#aZ"/><use transform="matrix(0.05,0,0,0.05,12,0)" xlink:href="#bF"/><use transform="matrix(0.05,0,0,0.05,21,0)" xlink:href="#bF"/><use transform="matrix(0.05,0,0,0.05,30,0)" xlink:href="#br"/><use transform="matrix(0.05,0,0,0.05,40,0)" xlink:href="#bs"/><use transform="matrix(0.05,0,0,0.05,50,0)" xlink:href="#bc"/><use transform="matrix(0.05,0,0,0.05,60,0)" xlink:href="#bd"/></g><g id="v"><use transform="matrix(0.05,0,0,0.05,0,0)" xlink:href="#bb"/><use transform="matrix(0.05,0,0,0.05,12,0)" xlink:href="#bc"/><use transform="matrix(0.05,0,0,0.05,22,0)" xlink:href="#bd"/><use transform="matrix(0.05,0,0,0.05,27,0)" xlink:href="#be"/><use transform="matrix(0.05,0,0,0.05,30.950000000000003,0)" xlink:href="#bd"/><use transform="matrix(0.05,0,0,0.05,35.95,0)" xlink:href="#bf"/></g><g id="w"><use transform="matrix(0.05,0,0,0.05,0,0)" xlink:href="#bC"/><use transform="matrix(0.05,0,0,0.05,12.950000000000001,0)" xlink:href="#bz"/><use transform="matrix(0.05,0,0,0.05,17.950000000000003,0)" xlink:href="#bA"/></g><g id="x"><use transform="matrix(0.04320987654320988,0,0,0.04320987654320988,0,0)" xlink:href="#aZ"/><use transform="matrix(0.04320987654320988,0,0,0.04320987654320988,10.370370370370372,0)" xlink:href="#bF"/><use transform="matrix(0.04320987654320988,0,0,0.04320987654320988,18.148148148148152,0)" xlink:href="#bF"/><use transform="matrix(0.04320987654320988,0,0,0.04320987654320988,25.925925925925927,0)" xlink:href="#br"/><use transform="matrix(0.04320987654320988,0,0,0.04320987654320988,34.567901234567906,0)" xlink:href="#bs"/><use transform="matrix(0.04320987654320988,0,0,0.04320987654320988,43.20987654320988,0)" xlink:href="#bc"/><use transform="matrix(0.04320987654320988,0,0,0.04320987654320988,51.851851851851855,0)" xlink:href="#bd"/></g><g id="y"><use transform="matrix(0.04320987654320988,0,0,0.04320987654320988,0,0)" xlink:href="#bE"/><use transform="matrix(0.04320987654320988,0,0,0.04320987654320988,10.370370370370372,0)" xlink:href="#bk"/><use transform="matrix(0.04320987654320988,0,0,0.04320987654320988,19.01234567901235,0)" xlink:href="#bf"/></g><path d="M16-82v-28h88v28H16" id="bG"/><use transform="matrix(0.04320987654320988,0,0,0.04320987654320988,0,0)" xlink:href="#bG" id="z"/><g id="A"><use transform="matrix(0.04320987654320988,0,0,0.04320987654320988,0,0)" xlink:href="#aZ"/><use transform="matrix(0.04320987654320988,0,0,0.04320987654320988,10.370370370370372,0)" xlink:href="#bs"/><use transform="matrix(0.04320987654320988,0,0,0.04320987654320988,19.01234567901235,0)" xlink:href="#bd"/><use transform="matrix(0.04320987654320988,0,0,0.04320987654320988,23.333333333333336,0)" xlink:href="#br"/><use transform="matrix(0.04320987654320988,0,0,0.04320987654320988,31.97530864197531,0)" xlink:href="#bz"/><use transform="matrix(0.04320987654320988,0,0,0.04320987654320988,36.2962962962963,0)" xlink:href="#bc"/><use transform="matrix(0.04320987654320988,0,0,0.04320987654320988,44.93827160493828,0)" xlink:href="#bF"/></g><g id="B"><use transform="matrix(0.04320987654320988,0,0,0.04320987654320988,0,0)" xlink:href="#aZ"/><use transform="matrix(0.04320987654320988,0,0,0.04320987654320988,10.370370370370372,0)" xlink:href="#bF"/><use transform="matrix(0.04320987654320988,0,0,0.04320987654320988,18.148148148148152,0)" xlink:href="#bF"/><use transform="matrix(0.04320987654320988,0,0,0.04320987654320988,25.925925925925927,0)" xlink:href="#br"/><use transform="matrix(0.04320987654320988,0,0,0.04320987654320988,34.567901234567906,0)" xlink:href="#bs"/><use transform="matrix(0.04320987654320988,0,0,0.04320987654320988,43.20987654320988,0)" xlink:href="#bc"/><use transform="matrix(0.04320987654320988,0,0,0.04320987654320988,51.851851851851855,0)" xlink:href="#bd"/></g><g id="C"><use transform="matrix(0.04320987654320988,0,0,0.04320987654320988,0,0)" xlink:href="#bt"/><use transform="matrix(0.04320987654320988,0,0,0.04320987654320988,11.19135802469136,0)" xlink:href="#ba"/><use transform="matrix(0.04320987654320988,0,0,0.04320987654320988,14.60493827160494,0)" xlink:href="#be"/><use transform="matrix(0.04320987654320988,0,0,0.04320987654320988,18.01851851851852,0)" xlink:href="#bk"/><use transform="matrix(0.04320987654320988,0,0,0.04320987654320988,26.66049382716049,0)" xlink:href="#bc"/><use transform="matrix(0.04320987654320988,0,0,0.04320987654320988,35.30246913580247,0)" xlink:href="#bd"/></g><g id="D"><use transform="matrix(0.04320987654320988,0,0,0.04320987654320988,0,0)" xlink:href="#bq"/><use transform="matrix(0.04320987654320988,0,0,0.04320987654320988,11.19135802469136,0)" xlink:href="#bi"/><use transform="matrix(0.04320987654320988,0,0,0.04320987654320988,19.833333333333336,0)" xlink:href="#bo"/><use transform="matrix(0.04320987654320988,0,0,0.04320987654320988,32.75308641975309,0)" xlink:href="#bk"/></g><g id="E"><use transform="matrix(0.04320987654320988,0,0,0.04320987654320988,0,0)" xlink:href="#bq"/><use transform="matrix(0.04320987654320988,0,0,0.04320987654320988,11.19135802469136,0)" xlink:href="#bi"/><use transform="matrix(0.04320987654320988,0,0,0.04320987654320988,19.833333333333336,0)" xlink:href="#bo"/><use transform="matrix(0.04320987654320988,0,0,0.04320987654320988,32.75308641975309,0)" xlink:href="#bk"/></g><path d="M101-251c82-7 93 87 43 132L82-64C71-53 59-42 53-27h129V0H18c2-99 128-94 128-182 0-28-16-43-45-43s-46 15-49 41l-32-3c6-41 34-60 81-64" id="bH"/><g id="F"><use transform="matrix(0.04320987654320988,0,0,0.04320987654320988,0,0)" xlink:href="#by"/><use transform="matrix(0.04320987654320988,0,0,0.04320987654320988,5.1419753086419755,0)" xlink:href="#bH"/><use transform="matrix(0.04320987654320988,0,0,0.04320987654320988,13.783950617283953,0)" xlink:href="#bB"/></g><path d="M126-127c33 6 58 20 58 59 0 88-139 92-164 29-3-8-5-16-6-25l32-3c6 27 21 44 54 44 32 0 52-15 52-46 0-38-36-46-79-43v-28c39 1 72-4 72-42 0-27-17-43-46-43-28 0-47 15-49 41l-32-3c6-42 35-63 81-64 48-1 79 21 79 65 0 36-21 52-52 59" id="bI"/><g id="G"><use transform="matrix(0.04320987654320988,0,0,0.04320987654320988,0,0)" xlink:href="#by"/><use transform="matrix(0.04320987654320988,0,0,0.04320987654320988,5.1419753086419755,0)" xlink:href="#bI"/><use transform="matrix(0.04320987654320988,0,0,0.04320987654320988,13.783950617283953,0)" xlink:href="#bB"/></g><path d="M155-56V0h-30v-56H8v-25l114-167h33v167h35v25h-35zm-30-156c-27 46-58 90-88 131h88v-131" id="bJ"/><g id="H"><use transform="matrix(0.04320987654320988,0,0,0.04320987654320988,0,0)" xlink:href="#by"/><use transform="matrix(0.04320987654320988,0,0,0.04320987654320988,5.1419753086419755,0)" xlink:href="#bJ"/><use transform="matrix(0.04320987654320988,0,0,0.04320987654320988,13.783950617283953,0)" xlink:href="#bB"/></g><path d="M101-234c-31-9-42 10-38 44h38v23H63V0H32v-167H5v-23h27c-7-52 17-82 69-68v24" id="bK"/><g id="I"><use transform="matrix(0.04320987654320988,0,0,0.04320987654320988,0,0)" xlink:href="#aZ"/><use transform="matrix(0.04320987654320988,0,0,0.04320987654320988,10.370370370370372,0)" xlink:href="#bs"/><use transform="matrix(0.04320987654320988,0,0,0.04320987654320988,19.01234567901235,0)" xlink:href="#bd"/><use transform="matrix(0.04320987654320988,0,0,0.04320987654320988,23.333333333333336,0)" xlink:href="#br"/><use transform="matrix(0.04320987654320988,0,0,0.04320987654320988,31.97530864197531,0)" xlink:href="#bK"/><use transform="matrix(0.04320987654320988,0,0,0.04320987654320988,36.2962962962963,0)" xlink:href="#be"/><use transform="matrix(0.04320987654320988,0,0,0.04320987654320988,39.70987654320988,0)" xlink:href="#ba"/><use transform="matrix(0.04320987654320988,0,0,0.04320987654320988,43.12345679012346,0)" xlink:href="#ba"/></g><path d="M234-2c-28 10-62 0-77-18C117 19 8 12 13-65c3-43 29-61 60-76-25-40-17-114 47-108 35 3 59 15 59 50 0 44-40 53-71 69 14 26 32 50 51 72 14-21 24-43 30-72l26 8c-9 33-21 57-38 82 13 13 33 22 57 15v23zM97-151c25-10 52-18 56-48-1-18-13-29-33-29-42 0-39 50-23 77zM42-66c-3 51 71 58 98 28-20-24-41-51-56-80-23 10-40 24-42 52" id="bL"/><use transform="matrix(0.04320987654320988,0,0,0.04320987654320988,0,0)" xlink:href="#bL" id="J"/><path d="M233-177c-1 41-23 64-60 70L243 0h-38l-65-103H63V0H30v-248c88 3 205-21 203 71zM63-129c60-2 137 13 137-47 0-61-80-42-137-45v92" id="bM"/><g id="K"><use transform="matrix(0.04320987654320988,0,0,0.04320987654320988,0,0)" xlink:href="#bM"/><use transform="matrix(0.04320987654320988,0,0,0.04320987654320988,11.19135802469136,0)" xlink:href="#bk"/><use transform="matrix(0.04320987654320988,0,0,0.04320987654320988,19.833333333333336,0)" xlink:href="#bi"/><use transform="matrix(0.04320987654320988,0,0,0.04320987654320988,28.47530864197531,0)" xlink:href="#bl"/></g><g id="L"><use transform="matrix(0.04320987654320988,0,0,0.04320987654320988,0,0)" xlink:href="#bu"/><use transform="matrix(0.04320987654320988,0,0,0.04320987654320988,12.098765432098766,0)" xlink:href="#bc"/><use transform="matrix(0.04320987654320988,0,0,0.04320987654320988,20.74074074074074,0)" xlink:href="#ba"/><use transform="matrix(0.04320987654320988,0,0,0.04320987654320988,24.154320987654323,0)" xlink:href="#bf"/></g><g id="M"><use transform="matrix(0.04320987654320988,0,0,0.04320987654320988,0,0)" xlink:href="#aZ"/><use transform="matrix(0.04320987654320988,0,0,0.04320987654320988,10.370370370370372,0)" xlink:href="#bl"/><use transform="matrix(0.04320987654320988,0,0,0.04320987654320988,19.01234567901235,0)" xlink:href="#bl"/><use transform="matrix(0.04320987654320988,0,0,0.04320987654320988,27.654320987654323,0)" xlink:href="#bj"/><use transform="matrix(0.04320987654320988,0,0,0.04320987654320988,32.7962962962963,0)" xlink:href="#bk"/><use transform="matrix(0.04320987654320988,0,0,0.04320987654320988,41.43827160493827,0)" xlink:href="#bv"/><use transform="matrix(0.04320987654320988,0,0,0.04320987654320988,49.21604938271606,0)" xlink:href="#bv"/></g><g id="N"><use transform="matrix(0.04320987654320988,0,0,0.04320987654320988,0,0)" xlink:href="#bt"/><use transform="matrix(0.04320987654320988,0,0,0.04320987654320988,11.19135802469136,0)" xlink:href="#br"/><use transform="matrix(0.04320987654320988,0,0,0.04320987654320988,19.833333333333336,0)" xlink:href="#bo"/><use transform="matrix(0.04320987654320988,0,0,0.04320987654320988,32.75308641975309,0)" xlink:href="#bp"/><use transform="matrix(0.04320987654320988,0,0,0.04320987654320988,41.39506172839506,0)" xlink:href="#br"/><use transform="matrix(0.04320987654320988,0,0,0.04320987654320988,50.037037037037045,0)" xlink:href="#bv"/><use transform="matrix(0.04320987654320988,0,0,0.04320987654320988,57.814814814814824,0)" xlink:href="#be"/><use transform="matrix(0.04320987654320988,0,0,0.04320987654320988,61.2283950617284,0)" xlink:href="#bd"/><use transform="matrix(0.04320987654320988,0,0,0.04320987654320988,65.5493827160494,0)" xlink:href="#bk"/></g><path d="M18-27v-27l151-64-151-65v-27l175 74v36" id="bN"/><g id="O"><use transform="matrix(0.04320987654320988,0,0,0.04320987654320988,0,0)" xlink:href="#bG"/><use transform="matrix(0.04320987654320988,0,0,0.04320987654320988,5.1419753086419755,0)" xlink:href="#bN"/></g><path d="M30 0v-248h33v221h125V0H30" id="bO"/><g id="P"><use transform="matrix(0.04320987654320988,0,0,0.04320987654320988,0,0)" xlink:href="#bO"/><use transform="matrix(0.04320987654320988,0,0,0.04320987654320988,8.641975308641976,0)" xlink:href="#br"/><use transform="matrix(0.04320987654320988,0,0,0.04320987654320988,17.283950617283953,0)" xlink:href="#bF"/><use transform="matrix(0.04320987654320988,0,0,0.04320987654320988,25.06172839506173,0)" xlink:href="#bi"/><use transform="matrix(0.04320987654320988,0,0,0.04320987654320988,33.70370370370371,0)" xlink:href="#bd"/><use transform="matrix(0.04320987654320988,0,0,0.04320987654320988,38.0246913580247,0)" xlink:href="#be"/><use transform="matrix(0.04320987654320988,0,0,0.04320987654320988,41.43827160493828,0)" xlink:href="#br"/><use transform="matrix(0.04320987654320988,0,0,0.04320987654320988,50.080246913580254,0)" xlink:href="#bc"/></g><g id="Q"><use transform="matrix(0.04320987654320988,0,0,0.04320987654320988,0,0)" xlink:href="#bO"/><use transform="matrix(0.04320987654320988,0,0,0.04320987654320988,8.641975308641976,0)" xlink:href="#bi"/><use transform="matrix(0.04320987654320988,0,0,0.04320987654320988,17.283950617283953,0)" xlink:href="#bc"/><use transform="matrix(0.04320987654320988,0,0,0.04320987654320988,25.925925925925927,0)" xlink:href="#bx"/><use transform="matrix(0.04320987654320988,0,0,0.04320987654320988,34.567901234567906,0)" xlink:href="#bs"/><use transform="matrix(0.04320987654320988,0,0,0.04320987654320988,43.20987654320988,0)" xlink:href="#bi"/><use transform="matrix(0.04320987654320988,0,0,0.04320987654320988,51.851851851851855,0)" xlink:href="#bx"/><use transform="matrix(0.04320987654320988,0,0,0.04320987654320988,60.49382716049384,0)" xlink:href="#bk"/></g><path d="M30-248c87 1 191-15 191 75 0 78-77 80-158 76V0H30v-248zm33 125c57 0 124 11 124-50 0-59-68-47-124-48v98" id="bP"/><g id="R"><use transform="matrix(0.04320987654320988,0,0,0.04320987654320988,0,0)" xlink:href="#bP"/><use transform="matrix(0.04320987654320988,0,0,0.04320987654320988,10.370370370370372,0)" xlink:href="#bj"/><use transform="matrix(0.04320987654320988,0,0,0.04320987654320988,15.512345679012347,0)" xlink:href="#bk"/><use transform="matrix(0.04320987654320988,0,0,0.04320987654320988,24.154320987654323,0)" xlink:href="#bK"/><use transform="matrix(0.04320987654320988,0,0,0.04320987654320988,28.47530864197531,0)" xlink:href="#bk"/><use transform="matrix(0.04320987654320988,0,0,0.04320987654320988,37.117283950617285,0)" xlink:href="#bj"/><use transform="matrix(0.04320987654320988,0,0,0.04320987654320988,42.25925925925926,0)" xlink:href="#bk"/><use transform="matrix(0.04320987654320988,0,0,0.04320987654320988,50.90123456790123,0)" xlink:href="#bc"/><use transform="matrix(0.04320987654320988,0,0,0.04320987654320988,59.54320987654321,0)" xlink:href="#bF"/><use transform="matrix(0.04320987654320988,0,0,0.04320987654320988,67.32098765432099,0)" xlink:href="#bk"/></g><g id="S"><use transform="matrix(0.04320987654320988,0,0,0.04320987654320988,0,0)" xlink:href="#bu"/><use transform="matrix(0.04320987654320988,0,0,0.04320987654320988,12.098765432098766,0)" xlink:href="#bp"/><use transform="matrix(0.04320987654320988,0,0,0.04320987654320988,20.74074074074074,0)" xlink:href="#bd"/><use transform="matrix(0.04320987654320988,0,0,0.04320987654320988,25.061728395061728,0)" xlink:href="#be"/><use transform="matrix(0.04320987654320988,0,0,0.04320987654320988,28.47530864197531,0)" xlink:href="#br"/><use transform="matrix(0.04320987654320988,0,0,0.04320987654320988,37.117283950617285,0)" xlink:href="#bc"/></g><g id="T"><use transform="matrix(0.04320987654320988,0,0,0.04320987654320988,0,0)" xlink:href="#bP"/><use transform="matrix(0.04320987654320988,0,0,0.04320987654320988,10.370370370370372,0)" xlink:href="#bi"/><use transform="matrix(0.04320987654320988,0,0,0.04320987654320988,19.01234567901235,0)" xlink:href="#bf"/><use transform="matrix(0.04320987654320988,0,0,0.04320987654320988,26.790123456790127,0)" xlink:href="#bo"/><use transform="matrix(0.04320987654320988,0,0,0.04320987654320988,39.70987654320988,0)" xlink:href="#bk"/><use transform="matrix(0.04320987654320988,0,0,0.04320987654320988,48.351851851851855,0)" xlink:href="#bc"/><use transform="matrix(0.04320987654320988,0,0,0.04320987654320988,56.99382716049384,0)" xlink:href="#bd"/></g><g id="U"><use transform="matrix(0.04320987654320988,0,0,0.04320987654320988,0,0)" xlink:href="#bn"/><use transform="matrix(0.04320987654320988,0,0,0.04320987654320988,7.734567901234567,0)" xlink:href="#bk"/><use transform="matrix(0.04320987654320988,0,0,0.04320987654320988,16.376543209876544,0)" xlink:href="#bj"/><use transform="matrix(0.04320987654320988,0,0,0.04320987654320988,21.51851851851852,0)" xlink:href="#bo"/><use transform="matrix(0.04320987654320988,0,0,0.04320987654320988,34.43827160493827,0)" xlink:href="#bv"/></g><path d="M206 0h-36l-40-164L89 0H53L-1-190h32L70-26l43-164h34l41 164 42-164h31" id="bQ"/><g id="V"><use transform="matrix(0.04320987654320988,0,0,0.04320987654320988,0,0)" xlink:href="#by"/><use transform="matrix(0.04320987654320988,0,0,0.04320987654320988,5.1419753086419755,0)" xlink:href="#aZ"/><use transform="matrix(0.04320987654320988,0,0,0.04320987654320988,15.209876543209878,0)" xlink:href="#bQ"/><use transform="matrix(0.04320987654320988,0,0,0.04320987654320988,26.401234567901238,0)" xlink:href="#bi"/><use transform="matrix(0.04320987654320988,0,0,0.04320987654320988,35.043209876543216,0)" xlink:href="#be"/><use transform="matrix(0.04320987654320988,0,0,0.04320987654320988,38.4567901234568,0)" xlink:href="#bd"/><use transform="matrix(0.04320987654320988,0,0,0.04320987654320988,42.777777777777786,0)" xlink:href="#be"/><use transform="matrix(0.04320987654320988,0,0,0.04320987654320988,46.191358024691375,0)" xlink:href="#bc"/><use transform="matrix(0.04320987654320988,0,0,0.04320987654320988,54.833333333333336,0)" xlink:href="#bx"/></g><g id="W"><use transform="matrix(0.04320987654320988,0,0,0.04320987654320988,0,0)" xlink:href="#bt"/><use transform="matrix(0.04320987654320988,0,0,0.04320987654320988,11.19135802469136,0)" xlink:href="#ba"/><use transform="matrix(0.04320987654320988,0,0,0.04320987654320988,14.60493827160494,0)" xlink:href="#bi"/><use transform="matrix(0.04320987654320988,0,0,0.04320987654320988,23.246913580246915,0)" xlink:href="#bj"/><use transform="matrix(0.04320987654320988,0,0,0.04320987654320988,28.388888888888893,0)" xlink:href="#be"/><use transform="matrix(0.04320987654320988,0,0,0.04320987654320988,31.80246913580248,0)" xlink:href="#bK"/><use transform="matrix(0.04320987654320988,0,0,0.04320987654320988,36.12345679012346,0)" xlink:href="#be"/><use transform="matrix(0.04320987654320988,0,0,0.04320987654320988,39.537037037037045,0)" xlink:href="#bF"/><use transform="matrix(0.04320987654320988,0,0,0.04320987654320988,47.31481481481482,0)" xlink:href="#bi"/><use transform="matrix(0.04320987654320988,0,0,0.04320987654320988,55.9567901234568,0)" xlink:href="#bd"/><use transform="matrix(0.04320987654320988,0,0,0.04320987654320988,60.277777777777786,0)" xlink:href="#be"/><use transform="matrix(0.04320987654320988,0,0,0.04320987654320988,63.69135802469137,0)" xlink:href="#br"/><use transform="matrix(0.04320987654320988,0,0,0.04320987654320988,72.33333333333334,0)" xlink:href="#bc"/><use transform="matrix(0.04320987654320988,0,0,0.04320987654320988,80.97530864197532,0)" xlink:href="#bB"/></g><path d="M0 4l72-265h28L28 4H0" id="bR"/><use transform="matrix(0.04320987654320988,0,0,0.04320987654320988,0,0)" xlink:href="#bR" id="X"/><g id="Y"><use transform="matrix(0.04320987654320988,0,0,0.04320987654320988,0,0)" xlink:href="#bu"/><use transform="matrix(0.04320987654320988,0,0,0.04320987654320988,12.098765432098766,0)" xlink:href="#bp"/><use transform="matrix(0.04320987654320988,0,0,0.04320987654320988,20.74074074074074,0)" xlink:href="#bd"/><use transform="matrix(0.04320987654320988,0,0,0.04320987654320988,25.061728395061728,0)" xlink:href="#be"/><use transform="matrix(0.04320987654320988,0,0,0.04320987654320988,28.47530864197531,0)" xlink:href="#br"/><use transform="matrix(0.04320987654320988,0,0,0.04320987654320988,37.117283950617285,0)" xlink:href="#bc"/></g><g id="Z"><use transform="matrix(0.04320987654320988,0,0,0.04320987654320988,0,0)" xlink:href="#bt"/><use transform="matrix(0.04320987654320988,0,0,0.04320987654320988,11.19135802469136,0)" xlink:href="#br"/><use transform="matrix(0.04320987654320988,0,0,0.04320987654320988,19.833333333333336,0)" xlink:href="#bl"/><use transform="matrix(0.04320987654320988,0,0,0.04320987654320988,28.47530864197531,0)" xlink:href="#bk"/></g><g id="aa"><use transform="matrix(0.04320987654320988,0,0,0.04320987654320988,0,0)" xlink:href="#bt"/><use transform="matrix(0.04320987654320988,0,0,0.04320987654320988,11.19135802469136,0)" xlink:href="#bs"/><use transform="matrix(0.04320987654320988,0,0,0.04320987654320988,19.833333333333336,0)" xlink:href="#bj"/><use transform="matrix(0.04320987654320988,0,0,0.04320987654320988,24.97530864197531,0)" xlink:href="#bj"/><use transform="matrix(0.04320987654320988,0,0,0.04320987654320988,30.11728395061729,0)" xlink:href="#bk"/><use transform="matrix(0.04320987654320988,0,0,0.04320987654320988,38.75925925925926,0)" xlink:href="#bc"/><use transform="matrix(0.04320987654320988,0,0,0.04320987654320988,47.40123456790123,0)" xlink:href="#bF"/><use transform="matrix(0.04320987654320988,0,0,0.04320987654320988,55.179012345679006,0)" xlink:href="#bf"/></g><path d="M33-154v-36h34v36H33zM33 0v-36h34V0H33" id="bS"/><g id="ab"><use transform="matrix(0.04320987654320988,0,0,0.04320987654320988,0,0)" xlink:href="#bA"/><use transform="matrix(0.04320987654320988,0,0,0.04320987654320988,11.19135802469136,0)" xlink:href="#bk"/><use transform="matrix(0.04320987654320988,0,0,0.04320987654320988,19.833333333333336,0)" xlink:href="#bK"/><use transform="matrix(0.04320987654320988,0,0,0.04320987654320988,24.154320987654323,0)" xlink:href="#bi"/><use transform="matrix(0.04320987654320988,0,0,0.04320987654320988,32.7962962962963,0)" xlink:href="#bs"/><use transform="matrix(0.04320987654320988,0,0,0.04320987654320988,41.43827160493827,0)" xlink:href="#ba"/><use transform="matrix(0.04320987654320988,0,0,0.04320987654320988,44.851851851851855,0)" xlink:href="#bd"/><use transform="matrix(0.04320987654320988,0,0,0.04320987654320988,49.17283950617284,0)" xlink:href="#bS"/></g><g id="ac"><use transform="matrix(0.04320987654320988,0,0,0.04320987654320988,0,0)" xlink:href="#bK"/><use transform="matrix(0.04320987654320988,0,0,0.04320987654320988,4.320987654320988,0)" xlink:href="#bi"/><use transform="matrix(0.04320987654320988,0,0,0.04320987654320988,12.962962962962964,0)" xlink:href="#ba"/><use transform="matrix(0.04320987654320988,0,0,0.04320987654320988,16.376543209876544,0)" xlink:href="#bv"/><use transform="matrix(0.04320987654320988,0,0,0.04320987654320988,24.154320987654323,0)" xlink:href="#bk"/></g><g id="ad"><use transform="matrix(0.04320987654320988,0,0,0.04320987654320988,0,0)" xlink:href="#bO"/><use transform="matrix(0.04320987654320988,0,0,0.04320987654320988,8.641975308641976,0)" xlink:href="#bm"/><use transform="matrix(0.04320987654320988,0,0,0.04320987654320988,18.10493827160494,0)" xlink:href="#bg"/></g><g id="ae"><use transform="matrix(0.04320987654320988,0,0,0.04320987654320988,0,0)" xlink:href="#bw"/><use transform="matrix(0.04320987654320988,0,0,0.04320987654320988,10.370370370370372,0)" xlink:href="#br"/><use transform="matrix(0.04320987654320988,0,0,0.04320987654320988,19.01234567901235,0)" xlink:href="#br"/><use transform="matrix(0.04320987654320988,0,0,0.04320987654320988,27.654320987654323,0)" xlink:href="#ba"/><use transform="matrix(0.04320987654320988,0,0,0.04320987654320988,31.067901234567906,0)" xlink:href="#bk"/><use transform="matrix(0.04320987654320988,0,0,0.04320987654320988,39.70987654320988,0)" xlink:href="#bi"/><use transform="matrix(0.04320987654320988,0,0,0.04320987654320988,48.351851851851855,0)" xlink:href="#bc"/></g><g id="af"><use transform="matrix(0.04320987654320988,0,0,0.04320987654320988,0,0)" xlink:href="#bd"/><use transform="matrix(0.04320987654320988,0,0,0.04320987654320988,4.320987654320988,0)" xlink:href="#bj"/><use transform="matrix(0.04320987654320988,0,0,0.04320987654320988,9.462962962962964,0)" xlink:href="#bs"/><use transform="matrix(0.04320987654320988,0,0,0.04320987654320988,18.10493827160494,0)" xlink:href="#bk"/></g><g id="ag"><use transform="matrix(0.04320987654320988,0,0,0.04320987654320988,0,0)" xlink:href="#bb"/><use transform="matrix(0.04320987654320988,0,0,0.04320987654320988,10.370370370370372,0)" xlink:href="#bc"/><use transform="matrix(0.04320987654320988,0,0,0.04320987654320988,19.01234567901235,0)" xlink:href="#bl"/></g><g id="ah"><use transform="matrix(0.04320987654320988,0,0,0.04320987654320988,0,0)" xlink:href="#bt"/><use transform="matrix(0.04320987654320988,0,0,0.04320987654320988,11.19135802469136,0)" xlink:href="#bs"/><use transform="matrix(0.04320987654320988,0,0,0.04320987654320988,19.833333333333336,0)" xlink:href="#bv"/><use transform="matrix(0.04320987654320988,0,0,0.04320987654320988,27.611111111111114,0)" xlink:href="#bd"/><use transform="matrix(0.04320987654320988,0,0,0.04320987654320988,31.9320987654321,0)" xlink:href="#br"/><use transform="matrix(0.04320987654320988,0,0,0.04320987654320988,40.574074074074076,0)" xlink:href="#bo"/><use transform="matrix(0.04320987654320988,0,0,0.04320987654320988,53.49382716049383,0)" xlink:href="#bk"/><use transform="matrix(0.04320987654320988,0,0,0.04320987654320988,62.1358024691358,0)" xlink:href="#bj"/></g><g id="ai"><use transform="matrix(0.04320987654320988,0,0,0.04320987654320988,0,0)" xlink:href="#bP"/><use transform="matrix(0.04320987654320988,0,0,0.04320987654320988,10.370370370370372,0)" xlink:href="#bi"/><use transform="matrix(0.04320987654320988,0,0,0.04320987654320988,19.01234567901235,0)" xlink:href="#bj"/><use transform="matrix(0.04320987654320988,0,0,0.04320987654320988,24.154320987654323,0)" xlink:href="#bk"/><use transform="matrix(0.04320987654320988,0,0,0.04320987654320988,32.7962962962963,0)" xlink:href="#bc"/><use transform="matrix(0.04320987654320988,0,0,0.04320987654320988,41.43827160493827,0)" xlink:href="#bd"/></g><g id="aj"><use transform="matrix(0.04320987654320988,0,0,0.04320987654320988,0,0)" xlink:href="#aZ"/><use transform="matrix(0.04320987654320988,0,0,0.04320987654320988,10.370370370370372,0)" xlink:href="#bc"/><use transform="matrix(0.04320987654320988,0,0,0.04320987654320988,19.01234567901235,0)" xlink:href="#bf"/></g><g id="ak"><use transform="matrix(0.04320987654320988,0,0,0.04320987654320988,0,0)" xlink:href="#bO"/><use transform="matrix(0.04320987654320988,0,0,0.04320987654320988,8.641975308641976,0)" xlink:href="#br"/><use transform="matrix(0.04320987654320988,0,0,0.04320987654320988,17.283950617283953,0)" xlink:href="#bF"/><use transform="matrix(0.04320987654320988,0,0,0.04320987654320988,25.06172839506173,0)" xlink:href="#bi"/><use transform="matrix(0.04320987654320988,0,0,0.04320987654320988,33.70370370370371,0)" xlink:href="#bd"/><use transform="matrix(0.04320987654320988,0,0,0.04320987654320988,38.0246913580247,0)" xlink:href="#be"/><use transform="matrix(0.04320987654320988,0,0,0.04320987654320988,41.43827160493828,0)" xlink:href="#br"/><use transform="matrix(0.04320987654320988,0,0,0.04320987654320988,50.080246913580254,0)" xlink:href="#bc"/></g><g id="al"><use transform="matrix(0.04320987654320988,0,0,0.04320987654320988,0,0)" xlink:href="#bC"/><use transform="matrix(0.04320987654320988,0,0,0.04320987654320988,11.19135802469136,0)" xlink:href="#bz"/><use transform="matrix(0.04320987654320988,0,0,0.04320987654320988,15.512345679012347,0)" xlink:href="#bA"/></g><path d="M197 0v-115H63V0H30v-248h33v105h134v-105h34V0h-34" id="bT"/><g id="am"><use transform="matrix(0.04320987654320988,0,0,0.04320987654320988,0,0)" xlink:href="#by"/><use transform="matrix(0.04320987654320988,0,0,0.04320987654320988,5.1419753086419755,0)" xlink:href="#bT"/><use transform="matrix(0.04320987654320988,0,0,0.04320987654320988,16.333333333333336,0)" xlink:href="#bi"/><use transform="matrix(0.04320987654320988,0,0,0.04320987654320988,24.97530864197531,0)" xlink:href="#bv"/></g><path d="M240 0l2-218c-23 76-54 145-80 218h-23L58-218 59 0H30v-248h44l77 211c21-75 51-140 76-211h43V0h-30" id="bU"/><g id="an"><use transform="matrix(0.04320987654320988,0,0,0.04320987654320988,0,0)" xlink:href="#bU"/><use transform="matrix(0.04320987654320988,0,0,0.04320987654320988,12.919753086419755,0)" xlink:href="#bi"/><use transform="matrix(0.04320987654320988,0,0,0.04320987654320988,21.56172839506173,0)" xlink:href="#bc"/><use transform="matrix(0.04320987654320988,0,0,0.04320987654320988,30.203703703703713,0)" xlink:href="#bf"/><use transform="matrix(0.04320987654320988,0,0,0.04320987654320988,37.98148148148149,0)" xlink:href="#bB"/></g><g id="ao"><use transform="matrix(0.04320987654320988,0,0,0.04320987654320988,0,0)" xlink:href="#bP"/><use transform="matrix(0.04320987654320988,0,0,0.04320987654320988,10.370370370370372,0)" xlink:href="#bi"/><use transform="matrix(0.04320987654320988,0,0,0.04320987654320988,19.01234567901235,0)" xlink:href="#bj"/><use transform="matrix(0.04320987654320988,0,0,0.04320987654320988,24.154320987654323,0)" xlink:href="#bd"/><use transform="matrix(0.04320987654320988,0,0,0.04320987654320988,28.47530864197531,0)" xlink:href="#bc"/><use transform="matrix(0.04320987654320988,0,0,0.04320987654320988,37.117283950617285,0)" xlink:href="#bk"/><use transform="matrix(0.04320987654320988,0,0,0.04320987654320988,45.75925925925927,0)" xlink:href="#bj"/></g><g id="ap"><use transform="matrix(0.04320987654320988,0,0,0.04320987654320988,0,0)" xlink:href="#bn"/><use transform="matrix(0.04320987654320988,0,0,0.04320987654320988,8.598765432098766,0)" xlink:href="#bf"/><use transform="matrix(0.04320987654320988,0,0,0.04320987654320988,16.376543209876544,0)" xlink:href="#bp"/><use transform="matrix(0.04320987654320988,0,0,0.04320987654320988,25.018518518518523,0)" xlink:href="#bk"/></g><g id="aq"><use transform="matrix(0.04320987654320988,0,0,0.04320987654320988,0,0)" xlink:href="#bg"/><use transform="matrix(0.04320987654320988,0,0,0.04320987654320988,10.370370370370372,0)" xlink:href="#bs"/><use transform="matrix(0.04320987654320988,0,0,0.04320987654320988,19.01234567901235,0)" xlink:href="#bD"/><use transform="matrix(0.04320987654320988,0,0,0.04320987654320988,27.654320987654323,0)" xlink:href="#bk"/><use transform="matrix(0.04320987654320988,0,0,0.04320987654320988,36.2962962962963,0)" xlink:href="#bc"/><use transform="matrix(0.04320987654320988,0,0,0.04320987654320988,44.93827160493828,0)" xlink:href="#bd"/><use transform="matrix(0.04320987654320988,0,0,0.04320987654320988,49.25925925925925,0)" xlink:href="#be"/><use transform="matrix(0.04320987654320988,0,0,0.04320987654320988,52.67283950617284,0)" xlink:href="#bd"/><use transform="matrix(0.04320987654320988,0,0,0.04320987654320988,56.99382716049384,0)" xlink:href="#bf"/></g><g id="ar"><use transform="matrix(0.04320987654320988,0,0,0.04320987654320988,0,0)" xlink:href="#by"/><use transform="matrix(0.04320987654320988,0,0,0.04320987654320988,5.1419753086419755,0)" xlink:href="#bM"/><use transform="matrix(0.04320987654320988,0,0,0.04320987654320988,16.333333333333336,0)" xlink:href="#bk"/><use transform="matrix(0.04320987654320988,0,0,0.04320987654320988,24.97530864197531,0)" xlink:href="#bF"/><use transform="matrix(0.04320987654320988,0,0,0.04320987654320988,32.75308641975309,0)" xlink:href="#br"/><use transform="matrix(0.04320987654320988,0,0,0.04320987654320988,41.39506172839506,0)" xlink:href="#bo"/><use transform="matrix(0.04320987654320988,0,0,0.04320987654320988,54.314814814814824,0)" xlink:href="#bo"/><use transform="matrix(0.04320987654320988,0,0,0.04320987654320988,67.23456790123457,0)" xlink:href="#bk"/><use transform="matrix(0.04320987654320988,0,0,0.04320987654320988,75.87654320987654,0)" xlink:href="#bc"/><use transform="matrix(0.04320987654320988,0,0,0.04320987654320988,84.51851851851852,0)" xlink:href="#bl"/><use transform="matrix(0.04320987654320988,0,0,0.04320987654320988,93.16049382716048,0)" xlink:href="#bi"/><use transform="matrix(0.04320987654320988,0,0,0.04320987654320988,101.80246913580245,0)" xlink:href="#bd"/><use transform="matrix(0.04320987654320988,0,0,0.04320987654320988,106.12345679012344,0)" xlink:href="#be"/><use transform="matrix(0.04320987654320988,0,0,0.04320987654320988,109.53703703703702,0)" xlink:href="#br"/><use transform="matrix(0.04320987654320988,0,0,0.04320987654320988,118.179012345679,0)" xlink:href="#bc"/><use transform="matrix(0.04320987654320988,0,0,0.04320987654320988,126.82098765432099,0)" xlink:href="#bB"/></g><g id="as"><use transform="matrix(0.04320987654320988,0,0,0.04320987654320988,0,0)" xlink:href="#bt"/><use transform="matrix(0.04320987654320988,0,0,0.04320987654320988,11.19135802469136,0)" xlink:href="#br"/><use transform="matrix(0.04320987654320988,0,0,0.04320987654320988,19.833333333333336,0)" xlink:href="#bl"/><use transform="matrix(0.04320987654320988,0,0,0.04320987654320988,28.47530864197531,0)" xlink:href="#bk"/></g><g id="at"><use transform="matrix(0.04320987654320988,0,0,0.04320987654320988,0,0)" xlink:href="#by"/><use transform="matrix(0.04320987654320988,0,0,0.04320987654320988,5.1419753086419755,0)" xlink:href="#bw"/><use transform="matrix(0.04320987654320988,0,0,0.04320987654320988,15.512345679012347,0)" xlink:href="#bi"/><use transform="matrix(0.04320987654320988,0,0,0.04320987654320988,24.154320987654323,0)" xlink:href="#bv"/><use transform="matrix(0.04320987654320988,0,0,0.04320987654320988,31.9320987654321,0)" xlink:href="#bk"/></g><path d="M27 0v-27h64v-190l-56 39v-29l58-41h29v221h61V0H27" id="bV"/><path d="M101-251c68 0 85 55 85 127S166 4 100 4C33 4 14-52 14-124c0-73 17-127 87-127zm-1 229c47 0 54-49 54-102s-4-102-53-102c-51 0-55 48-55 102 0 53 5 102 54 102" id="bW"/><g id="au"><use transform="matrix(0.04320987654320988,0,0,0.04320987654320988,0,0)" xlink:href="#bV"/><use transform="matrix(0.04320987654320988,0,0,0.04320987654320988,8.641975308641976,0)" xlink:href="#bW"/><use transform="matrix(0.04320987654320988,0,0,0.04320987654320988,17.283950617283953,0)" xlink:href="#bB"/></g><g id="av"><use transform="matrix(0.04320987654320988,0,0,0.04320987654320988,0,0)" xlink:href="#bq"/><use transform="matrix(0.04320987654320988,0,0,0.04320987654320988,11.19135802469136,0)" xlink:href="#bs"/><use transform="matrix(0.04320987654320988,0,0,0.04320987654320988,19.833333333333336,0)" xlink:href="#bo"/><use transform="matrix(0.04320987654320988,0,0,0.04320987654320988,32.75308641975309,0)" xlink:href="#bD"/><use transform="matrix(0.04320987654320988,0,0,0.04320987654320988,41.39506172839506,0)" xlink:href="#bk"/><use transform="matrix(0.04320987654320988,0,0,0.04320987654320988,50.037037037037045,0)" xlink:href="#bj"/></g><path d="M108 0H70L1-190h34L89-25l56-165h34" id="bX"/><g id="aw"><use transform="matrix(0.04320987654320988,0,0,0.04320987654320988,0,0)" xlink:href="#bO"/><use transform="matrix(0.04320987654320988,0,0,0.04320987654320988,8.641975308641976,0)" xlink:href="#bk"/><use transform="matrix(0.04320987654320988,0,0,0.04320987654320988,17.283950617283953,0)" xlink:href="#bc"/><use transform="matrix(0.04320987654320988,0,0,0.04320987654320988,25.925925925925927,0)" xlink:href="#br"/><use transform="matrix(0.04320987654320988,0,0,0.04320987654320988,34.567901234567906,0)" xlink:href="#bX"/><use transform="matrix(0.04320987654320988,0,0,0.04320987654320988,42.345679012345684,0)" xlink:href="#br"/></g><g id="ax"><use transform="matrix(0.04320987654320988,0,0,0.04320987654320988,0,0)" xlink:href="#bt"/><use transform="matrix(0.04320987654320988,0,0,0.04320987654320988,11.19135802469136,0)" xlink:href="#br"/><use transform="matrix(0.04320987654320988,0,0,0.04320987654320988,19.833333333333336,0)" xlink:href="#bj"/><use transform="matrix(0.04320987654320988,0,0,0.04320987654320988,24.97530864197531,0)" xlink:href="#bp"/><use transform="matrix(0.04320987654320988,0,0,0.04320987654320988,33.617283950617285,0)" xlink:href="#br"/><use transform="matrix(0.04320987654320988,0,0,0.04320987654320988,42.25925925925926,0)" xlink:href="#bj"/><use transform="matrix(0.04320987654320988,0,0,0.04320987654320988,47.40123456790123,0)" xlink:href="#bi"/><use transform="matrix(0.04320987654320988,0,0,0.04320987654320988,56.04320987654321,0)" xlink:href="#bd"/><use transform="matrix(0.04320987654320988,0,0,0.04320987654320988,60.364197530864196,0)" xlink:href="#bk"/></g><g id="ay"><use transform="matrix(0.04320987654320988,0,0,0.04320987654320988,0,0)" xlink:href="#bt"/><use transform="matrix(0.04320987654320988,0,0,0.04320987654320988,11.19135802469136,0)" xlink:href="#br"/><use transform="matrix(0.04320987654320988,0,0,0.04320987654320988,19.833333333333336,0)" xlink:href="#bl"/><use transform="matrix(0.04320987654320988,0,0,0.04320987654320988,28.47530864197531,0)" xlink:href="#bk"/></g><use transform="matrix(0.04320987654320988,0,0,0.04320987654320988,0,0)" xlink:href="#bV" id="az"/><g id="aA"><use transform="matrix(0.04320987654320988,0,0,0.04320987654320988,0,0)" xlink:href="#bm"/><use transform="matrix(0.04320987654320988,0,0,0.04320987654320988,9.462962962962964,0)" xlink:href="#be"/><use transform="matrix(0.04320987654320988,0,0,0.04320987654320988,12.876543209876544,0)" xlink:href="#bc"/><use transform="matrix(0.04320987654320988,0,0,0.04320987654320988,21.51851851851852,0)" xlink:href="#bi"/><use transform="matrix(0.04320987654320988,0,0,0.04320987654320988,30.160493827160494,0)" xlink:href="#bc"/><use transform="matrix(0.04320987654320988,0,0,0.04320987654320988,38.80246913580247,0)" xlink:href="#bF"/><use transform="matrix(0.04320987654320988,0,0,0.04320987654320988,46.58024691358024,0)" xlink:href="#be"/><use transform="matrix(0.04320987654320988,0,0,0.04320987654320988,49.99382716049383,0)" xlink:href="#bi"/><use transform="matrix(0.04320987654320988,0,0,0.04320987654320988,58.63580246913581,0)" xlink:href="#ba"/></g><g id="aB"><use transform="matrix(0.04320987654320988,0,0,0.04320987654320988,0,0)" xlink:href="#bg"/><use transform="matrix(0.04320987654320988,0,0,0.04320987654320988,10.370370370370372,0)" xlink:href="#bk"/><use transform="matrix(0.04320987654320988,0,0,0.04320987654320988,19.01234567901235,0)" xlink:href="#bj"/><use transform="matrix(0.04320987654320988,0,0,0.04320987654320988,24.154320987654323,0)" xlink:href="#bX"/><use transform="matrix(0.04320987654320988,0,0,0.04320987654320988,31.9320987654321,0)" xlink:href="#be"/><use transform="matrix(0.04320987654320988,0,0,0.04320987654320988,35.345679012345684,0)" xlink:href="#bF"/><use transform="matrix(0.04320987654320988,0,0,0.04320987654320988,43.12345679012346,0)" xlink:href="#bk"/><use transform="matrix(0.04320987654320988,0,0,0.04320987654320988,51.76543209876544,0)" xlink:href="#bv"/></g><use transform="matrix(0.04320987654320988,0,0,0.04320987654320988,0,0)" xlink:href="#bH" id="aC"/><path d="M141 0L90-78 38 0H4l68-98-65-92h35l48 74 47-74h35l-64 92 68 98h-35" id="bY"/><g id="aD"><use transform="matrix(0.04320987654320988,0,0,0.04320987654320988,0,0)" xlink:href="#bm"/><use transform="matrix(0.04320987654320988,0,0,0.04320987654320988,9.462962962962964,0)" xlink:href="#be"/><use transform="matrix(0.04320987654320988,0,0,0.04320987654320988,12.876543209876544,0)" xlink:href="#bY"/><use transform="matrix(0.04320987654320988,0,0,0.04320987654320988,20.654320987654323,0)" xlink:href="#bk"/><use transform="matrix(0.04320987654320988,0,0,0.04320987654320988,29.296296296296298,0)" xlink:href="#bl"/></g><g id="aE"><use transform="matrix(0.04320987654320988,0,0,0.04320987654320988,0,0)" xlink:href="#bM"/><use transform="matrix(0.04320987654320988,0,0,0.04320987654320988,11.19135802469136,0)" xlink:href="#bi"/><use transform="matrix(0.04320987654320988,0,0,0.04320987654320988,19.833333333333336,0)" xlink:href="#bd"/><use transform="matrix(0.04320987654320988,0,0,0.04320987654320988,24.154320987654323,0)" xlink:href="#bk"/></g><use transform="matrix(0.04320987654320988,0,0,0.04320987654320988,0,0)" xlink:href="#bI" id="aF"/><g id="aG"><use transform="matrix(0.05,0,0,0.05,0,0)" xlink:href="#bP"/><use transform="matrix(0.05,0,0,0.05,12,0)" xlink:href="#bk"/><use transform="matrix(0.05,0,0,0.05,22,0)" xlink:href="#bj"/><use transform="matrix(0.05,0,0,0.05,27.950000000000003,0)" xlink:href="#bd"/><use transform="matrix(0.05,0,0,0.05,32.95,0)" xlink:href="#be"/><use transform="matrix(0.05,0,0,0.05,36.900000000000006,0)" xlink:href="#bc"/><use transform="matrix(0.05,0,0,0.05,46.900000000000006,0)" xlink:href="#bk"/><use transform="matrix(0.05,0,0,0.05,56.900000000000006,0)" xlink:href="#bc"/><use transform="matrix(0.05,0,0,0.05,66.9,0)" xlink:href="#bd"/></g><g id="aH"><use transform="matrix(0.05,0,0,0.05,0,0)" xlink:href="#bn"/><use transform="matrix(0.05,0,0,0.05,8.950000000000001,0)" xlink:href="#bi"/><use transform="matrix(0.05,0,0,0.05,18.950000000000003,0)" xlink:href="#bD"/><use transform="matrix(0.05,0,0,0.05,28.950000000000003,0)" xlink:href="#ba"/><use transform="matrix(0.05,0,0,0.05,32.900000000000006,0)" xlink:href="#bk"/></g><g id="aI"><use transform="matrix(0.05,0,0,0.05,0,0)" xlink:href="#bt"/><use transform="matrix(0.05,0,0,0.05,12.950000000000001,0)" xlink:href="#br"/><use transform="matrix(0.05,0,0,0.05,22.950000000000003,0)" xlink:href="#bc"/><use transform="matrix(0.05,0,0,0.05,32.95,0)" xlink:href="#bK"/><use transform="matrix(0.05,0,0,0.05,37.95,0)" xlink:href="#be"/><use transform="matrix(0.05,0,0,0.05,41.900000000000006,0)" xlink:href="#bx"/><use transform="matrix(0.05,0,0,0.05,51.900000000000006,0)" xlink:href="#bs"/><use transform="matrix(0.05,0,0,0.05,61.900000000000006,0)" xlink:href="#bj"/><use transform="matrix(0.05,0,0,0.05,67.85000000000001,0)" xlink:href="#bi"/><use transform="matrix(0.05,0,0,0.05,77.85000000000001,0)" xlink:href="#bd"/><use transform="matrix(0.05,0,0,0.05,82.85000000000001,0)" xlink:href="#be"/><use transform="matrix(0.05,0,0,0.05,86.80000000000001,0)" xlink:href="#br"/><use transform="matrix(0.05,0,0,0.05,96.80000000000001,0)" xlink:href="#bc"/><use transform="matrix(0.05,0,0,0.05,106.80000000000001,0)" xlink:href="#bv"/></g><g id="aJ"><use transform="matrix(0.05,0,0,0.05,0,0)" xlink:href="#bP"/><use transform="matrix(0.05,0,0,0.05,12,0)" xlink:href="#bk"/><use transform="matrix(0.05,0,0,0.05,22,0)" xlink:href="#bj"/><use transform="matrix(0.05,0,0,0.05,27.950000000000003,0)" xlink:href="#bo"/><use transform="matrix(0.05,0,0,0.05,42.9,0)" xlink:href="#be"/><use transform="matrix(0.05,0,0,0.05,46.85,0)" xlink:href="#bv"/><use transform="matrix(0.05,0,0,0.05,55.85,0)" xlink:href="#bv"/><use transform="matrix(0.05,0,0,0.05,64.85,0)" xlink:href="#be"/><use transform="matrix(0.05,0,0,0.05,68.8,0)" xlink:href="#br"/><use transform="matrix(0.05,0,0,0.05,78.8,0)" xlink:href="#bc"/></g><g id="aK"><use transform="matrix(0.05,0,0,0.05,0,0)" xlink:href="#bK"/><use transform="matrix(0.05,0,0,0.05,5,0)" xlink:href="#ba"/><use transform="matrix(0.05,0,0,0.05,8.95,0)" xlink:href="#br"/><use transform="matrix(0.05,0,0,0.05,18.95,0)" xlink:href="#bQ"/></g><g id="aL"><use transform="matrix(0.05,0,0,0.05,0,0)" xlink:href="#bF"/><use transform="matrix(0.05,0,0,0.05,9,0)" xlink:href="#br"/><use transform="matrix(0.05,0,0,0.05,19,0)" xlink:href="#br"/><use transform="matrix(0.05,0,0,0.05,29,0)" xlink:href="#bj"/><use transform="matrix(0.05,0,0,0.05,34.95,0)" xlink:href="#bl"/><use transform="matrix(0.05,0,0,0.05,44.95,0)" xlink:href="#be"/><use transform="matrix(0.05,0,0,0.05,48.900000000000006,0)" xlink:href="#bc"/><use transform="matrix(0.05,0,0,0.05,58.900000000000006,0)" xlink:href="#bi"/><use transform="matrix(0.05,0,0,0.05,68.9,0)" xlink:href="#bd"/><use transform="matrix(0.05,0,0,0.05,73.9,0)" xlink:href="#be"/><use transform="matrix(0.05,0,0,0.05,77.85000000000001,0)" xlink:href="#br"/><use transform="matrix(0.05,0,0,0.05,87.85000000000001,0)" xlink:href="#bc"/></g><g id="aM"><use transform="matrix(0.05,0,0,0.05,0,0)" xlink:href="#bQ"/><use transform="matrix(0.05,0,0,0.05,12.950000000000001,0)" xlink:href="#br"/><use transform="matrix(0.05,0,0,0.05,22.950000000000003,0)" xlink:href="#bs"/><use transform="matrix(0.05,0,0,0.05,32.95,0)" xlink:href="#ba"/><use transform="matrix(0.05,0,0,0.05,36.900000000000006,0)" xlink:href="#bl"/></g><g id="aN"><use transform="matrix(0.05,0,0,0.05,0,0)" xlink:href="#br"/><use transform="matrix(0.05,0,0,0.05,10,0)" xlink:href="#bF"/><use transform="matrix(0.05,0,0,0.05,19,0)" xlink:href="#bF"/><use transform="matrix(0.05,0,0,0.05,28,0)" xlink:href="#bs"/><use transform="matrix(0.05,0,0,0.05,38,0)" xlink:href="#bj"/></g><g id="aO"><use transform="matrix(0.05,0,0,0.05,0,0)" xlink:href="#bK"/><use transform="matrix(0.05,0,0,0.05,5,0)" xlink:href="#bj"/><use transform="matrix(0.05,0,0,0.05,10.95,0)" xlink:href="#br"/><use transform="matrix(0.05,0,0,0.05,20.95,0)" xlink:href="#bo"/></g><g id="aP"><use transform="matrix(0.05,0,0,0.05,0,0)" xlink:href="#bk"/><use transform="matrix(0.05,0,0,0.05,10,0)" xlink:href="#bY"/><use transform="matrix(0.05,0,0,0.05,19,0)" xlink:href="#bd"/><use transform="matrix(0.05,0,0,0.05,24,0)" xlink:href="#bk"/><use transform="matrix(0.05,0,0,0.05,34,0)" xlink:href="#bj"/><use transform="matrix(0.05,0,0,0.05,39.95,0)" xlink:href="#be"/><use transform="matrix(0.05,0,0,0.05,43.900000000000006,0)" xlink:href="#br"/><use transform="matrix(0.05,0,0,0.05,53.900000000000006,0)" xlink:href="#bj"/></g><g id="aQ"><use transform="matrix(0.05,0,0,0.05,0,0)" xlink:href="#bi"/><use transform="matrix(0.05,0,0,0.05,10,0)" xlink:href="#bF"/><use transform="matrix(0.05,0,0,0.05,19,0)" xlink:href="#bF"/><use transform="matrix(0.05,0,0,0.05,28,0)" xlink:href="#bk"/><use transform="matrix(0.05,0,0,0.05,38,0)" xlink:href="#bv"/><use transform="matrix(0.05,0,0,0.05,47,0)" xlink:href="#bv"/></g><g id="aR"><use transform="matrix(0.05,0,0,0.05,0,0)" xlink:href="#bp"/><use transform="matrix(0.05,0,0,0.05,10,0)" xlink:href="#br"/><use transform="matrix(0.05,0,0,0.05,20,0)" xlink:href="#be"/><use transform="matrix(0.05,0,0,0.05,23.95,0)" xlink:href="#bc"/><use transform="matrix(0.05,0,0,0.05,33.95,0)" xlink:href="#bd"/><use transform="matrix(0.05,0,0,0.05,38.95,0)" xlink:href="#bv"/></g><g id="aS"><use transform="matrix(0.05,0,0,0.05,0,0)" xlink:href="#bi"/><use transform="matrix(0.05,0,0,0.05,10,0)" xlink:href="#bv"/></g><g id="aT"><use transform="matrix(0.05,0,0,0.05,0,0)" xlink:href="#bl"/><use transform="matrix(0.05,0,0,0.05,10,0)" xlink:href="#be"/><use transform="matrix(0.05,0,0,0.05,13.949999999999998,0)" xlink:href="#bF"/><use transform="matrix(0.05,0,0,0.05,22.95,0)" xlink:href="#bd"/><use transform="matrix(0.05,0,0,0.05,27.950000000000003,0)" xlink:href="#bi"/><use transform="matrix(0.05,0,0,0.05,37.95,0)" xlink:href="#bd"/><use transform="matrix(0.05,0,0,0.05,42.95,0)" xlink:href="#bk"/><use transform="matrix(0.05,0,0,0.05,52.95,0)" xlink:href="#bl"/></g><g id="aU"><use transform="matrix(0.05,0,0,0.05,0,0)" xlink:href="#bD"/><use transform="matrix(0.05,0,0,0.05,10,0)" xlink:href="#bf"/></g><path d="M33 0v-38h34V0H33" id="bZ"/><g id="aV"><use transform="matrix(0.05,0,0,0.05,0,0)" xlink:href="#bD"/><use transform="matrix(0.05,0,0,0.05,10,0)" xlink:href="#bs"/><use transform="matrix(0.05,0,0,0.05,20,0)" xlink:href="#bv"/><use transform="matrix(0.05,0,0,0.05,29,0)" xlink:href="#be"/><use transform="matrix(0.05,0,0,0.05,32.95,0)" xlink:href="#bc"/><use transform="matrix(0.05,0,0,0.05,42.95,0)" xlink:href="#bk"/><use transform="matrix(0.05,0,0,0.05,52.95,0)" xlink:href="#bv"/><use transform="matrix(0.05,0,0,0.05,61.95,0)" xlink:href="#bv"/><use transform="matrix(0.05,0,0,0.05,70.95,0)" xlink:href="#bZ"/></g><g id="aW"><use transform="matrix(0.04320987654320988,0,0,0.04320987654320988,0,0)" xlink:href="#bu"/><use transform="matrix(0.04320987654320988,0,0,0.04320987654320988,12.098765432098766,0)" xlink:href="#bd"/><use transform="matrix(0.04320987654320988,0,0,0.04320987654320988,16.419753086419753,0)" xlink:href="#bh"/><use transform="matrix(0.04320987654320988,0,0,0.04320987654320988,25.061728395061728,0)" xlink:href="#bk"/><use transform="matrix(0.04320987654320988,0,0,0.04320987654320988,33.7037037037037,0)" xlink:href="#bj"/></g><g id="aX"><use transform="matrix(0.04320987654320988,0,0,0.04320987654320988,0,0)" xlink:href="#bn"/><use transform="matrix(0.04320987654320988,0,0,0.04320987654320988,8.598765432098766,0)" xlink:href="#bf"/><use transform="matrix(0.04320987654320988,0,0,0.04320987654320988,16.376543209876544,0)" xlink:href="#bp"/><use transform="matrix(0.04320987654320988,0,0,0.04320987654320988,25.018518518518523,0)" xlink:href="#bk"/></g><path d="M118-107v75H92v-75H18v-26h74v-75h26v75h74v26h-74" id="ca"/><g id="aY"><use transform="matrix(0.04320987654320988,0,0,0.04320987654320988,0,0)" xlink:href="#bJ"/><use transform="matrix(0.04320987654320988,0,0,0.04320987654320988,8.641975308641976,0)" xlink:href="#ca"/></g></defs></g></svg>