<svg xmlns="http://www.w3.org/2000/svg" xmlns:xlink="http://www.w3.org/1999/xlink" xmlns:lucid="lucid" width="1000" height="852"><g transform="translate(-0.04938271604936517 -0.049382716049393593)" lucid:page-tab-id="0_0"><path d="M240.05 20.05h200v304h-200z" fill="#fff"/><path d="M240.05 107.05h200v47h-200zM240.05 201.05h200v47h-200zM240.05 295.05h200v29h-200z" fill="#e6e6e6"/><path d="M240.05 20.05h200v40h-200z" fill="#ccc"/><path d="M240.05 20.05h200v304h-200zM240.05 60.05h200M340.05 60.05v264" stroke="#000" stroke-width="2" fill="none"/><use xlink:href="#a" transform="matrix(1,0,0,1,250.04938271604937,20.049382716049394) translate(48.60493827160494 23.11111111111111)"/><use xlink:href="#b" transform="matrix(1,0,0,1,250.04938271604937,20.049382716049394) translate(92.54938271604938 23.11111111111111)"/><use xlink:href="#c" transform="matrix(1,0,0,1,245.04938271604937,62.549382716049394) translate(0.14814814814814525 24.11111111111111)"/><use xlink:href="#d" transform="matrix(1,0,0,1,245.04938271604937,62.549382716049394) translate(63.148148148148145 24.11111111111111)"/><use xlink:href="#e" transform="matrix(1,0,0,1,345.04938271604937,62.549382716049394) translate(10.475308641975303 14.777777777777775)"/><use xlink:href="#f" transform="matrix(1,0,0,1,345.04938271604937,62.549382716049394) translate(43.2716049382716 14.777777777777775)"/><use xlink:href="#g" transform="matrix(1,0,0,1,345.04938271604937,62.549382716049394) translate(26.009259259259256 33.44444444444444)"/><use xlink:href="#h" transform="matrix(1,0,0,1,245.04938271604937,109.5493827160494) translate(1.401234567901227 24.11111111111111)"/><use xlink:href="#d" transform="matrix(1,0,0,1,245.04938271604937,109.5493827160494) translate(61.895061728395056 24.11111111111111)"/><use xlink:href="#e" transform="matrix(1,0,0,1,345.04938271604937,109.5493827160494) translate(10.475308641975303 14.777777777777775)"/><use xlink:href="#f" transform="matrix(1,0,0,1,345.04938271604937,109.5493827160494) translate(43.2716049382716 14.777777777777775)"/><use xlink:href="#g" transform="matrix(1,0,0,1,345.04938271604937,109.5493827160494) translate(26.009259259259256 33.44444444444444)"/><use xlink:href="#i" transform="matrix(1,0,0,1,245.04938271604937,156.5493827160494) translate(10.043209876543202 24.11111111111111)"/><use xlink:href="#d" transform="matrix(1,0,0,1,245.04938271604937,156.5493827160494) translate(53.25308641975308 24.11111111111111)"/><use xlink:href="#e" transform="matrix(1,0,0,1,345.04938271604937,156.5493827160494) translate(10.475308641975303 14.777777777777775)"/><use xlink:href="#f" transform="matrix(1,0,0,1,345.04938271604937,156.5493827160494) translate(43.2716049382716 14.777777777777775)"/><use xlink:href="#g" transform="matrix(1,0,0,1,345.04938271604937,156.5493827160494) translate(26.009259259259256 33.44444444444444)"/><use xlink:href="#j" transform="matrix(1,0,0,1,245.04938271604937,203.5493827160494) translate(13.975308641975307 14.777777777777775)"/><use xlink:href="#d" transform="matrix(1,0,0,1,245.04938271604937,203.5493827160494) translate(31.648148148148145 33.44444444444444)"/><use xlink:href="#e" transform="matrix(1,0,0,1,345.04938271604937,203.5493827160494) translate(10.475308641975303 14.777777777777775)"/><use xlink:href="#f" transform="matrix(1,0,0,1,345.04938271604937,203.5493827160494) translate(43.2716049382716 14.777777777777775)"/><use xlink:href="#g" transform="matrix(1,0,0,1,345.04938271604937,203.5493827160494) translate(26.009259259259256 33.44444444444444)"/><use xlink:href="#k" transform="matrix(1,0,0,1,245.04938271604937,250.5493827160494) translate(0.12654320987653733 24.11111111111111)"/><use xlink:href="#d" transform="matrix(1,0,0,1,245.04938271604937,250.5493827160494) translate(63.16975308641975 24.11111111111111)"/><use xlink:href="#e" transform="matrix(1,0,0,1,345.04938271604937,250.5493827160494) translate(10.475308641975303 14.777777777777775)"/><use xlink:href="#f" transform="matrix(1,0,0,1,345.04938271604937,250.5493827160494) translate(43.2716049382716 14.777777777777775)"/><use xlink:href="#g" transform="matrix(1,0,0,1,345.04938271604937,250.5493827160494) translate(26.009259259259256 33.44444444444444)"/><use xlink:href="#l" transform="matrix(1,0,0,1,245.04938271604937,297.5493827160494) translate(9.675925925925924 15.11111111111111)"/><use xlink:href="#d" transform="matrix(1,0,0,1,245.04938271604937,297.5493827160494) translate(53.62037037037037 15.11111111111111)"/><use xlink:href="#m" transform="matrix(1,0,0,1,345.04938271604937,297.5493827160494) translate(14.342592592592592 15.11111111111111)"/><use xlink:href="#n" transform="matrix(1,0,0,1,345.04938271604937,297.5493827160494) translate(46.2746913580247 15.11111111111111)"/><path d="M20.05 220.05h200v286h-200z" fill="#fff"/><path d="M20.05 289.05h200v47h-200zM20.05 383.05h200v47h-200zM20.05 477.05h200v29h-200z" fill="#e6e6e6"/><path d="M20.05 220.05h200v40h-200z" fill="#ccc"/><path d="M20.05 220.05h200v286h-200zM20.05 260.05h200M120.05 260.05v246" stroke="#000" stroke-width="2" fill="none"/><use xlink:href="#o" transform="matrix(1,0,0,1,30.049382716049365,220.04938271604937) translate(39.07716049382716 23.11111111111111)"/><use xlink:href="#b" transform="matrix(1,0,0,1,30.049382716049365,220.04938271604937) translate(102.07716049382717 23.11111111111111)"/><use xlink:href="#c" transform="matrix(1,0,0,1,25.049382716049365,262.54938271604937) translate(0.14814814814814525 15.11111111111111)"/><use xlink:href="#d" transform="matrix(1,0,0,1,25.049382716049365,262.54938271604937) translate(63.148148148148145 15.11111111111111)"/><use xlink:href="#m" transform="matrix(1,0,0,1,125.04938271604937,262.54938271604937) translate(14.342592592592592 15.11111111111111)"/><use xlink:href="#n" transform="matrix(1,0,0,1,125.04938271604937,262.54938271604937) translate(46.2746913580247 15.11111111111111)"/><use xlink:href="#h" transform="matrix(1,0,0,1,25.049382716049365,291.54938271604937) translate(1.401234567901227 24.11111111111111)"/><use xlink:href="#d" transform="matrix(1,0,0,1,25.049382716049365,291.54938271604937) translate(61.895061728395056 24.11111111111111)"/><use xlink:href="#e" transform="matrix(1,0,0,1,125.04938271604937,291.54938271604937) translate(10.475308641975303 14.777777777777775)"/><use xlink:href="#f" transform="matrix(1,0,0,1,125.04938271604937,291.54938271604937) translate(43.2716049382716 14.777777777777775)"/><use xlink:href="#g" transform="matrix(1,0,0,1,125.04938271604937,291.54938271604937) translate(26.009259259259256 33.44444444444444)"/><use xlink:href="#i" transform="matrix(1,0,0,1,25.049382716049365,338.54938271604937) translate(10.043209876543202 24.11111111111111)"/><use xlink:href="#d" transform="matrix(1,0,0,1,25.049382716049365,338.54938271604937) translate(53.25308641975308 24.11111111111111)"/><use xlink:href="#e" transform="matrix(1,0,0,1,125.04938271604937,338.54938271604937) translate(10.475308641975303 14.777777777777775)"/><use xlink:href="#f" transform="matrix(1,0,0,1,125.04938271604937,338.54938271604937) translate(43.2716049382716 14.777777777777775)"/><use xlink:href="#g" transform="matrix(1,0,0,1,125.04938271604937,338.54938271604937) translate(26.009259259259256 33.44444444444444)"/><use xlink:href="#j" transform="matrix(1,0,0,1,25.049382716049365,385.54938271604937) translate(13.975308641975307 14.777777777777775)"/><use xlink:href="#d" transform="matrix(1,0,0,1,25.049382716049365,385.54938271604937) translate(31.648148148148145 33.44444444444444)"/><use xlink:href="#e" transform="matrix(1,0,0,1,125.04938271604937,385.54938271604937) translate(10.475308641975303 14.777777777777775)"/><use xlink:href="#f" transform="matrix(1,0,0,1,125.04938271604937,385.54938271604937) translate(43.2716049382716 14.777777777777775)"/><use xlink:href="#g" transform="matrix(1,0,0,1,125.04938271604937,385.54938271604937) translate(26.009259259259256 33.44444444444444)"/><use xlink:href="#k" transform="matrix(1,0,0,1,25.049382716049365,432.54938271604937) translate(0.12654320987653733 24.11111111111111)"/><use xlink:href="#d" transform="matrix(1,0,0,1,25.049382716049365,432.54938271604937) translate(63.16975308641975 24.11111111111111)"/><use xlink:href="#e" transform="matrix(1,0,0,1,125.04938271604937,432.54938271604937) translate(10.475308641975303 14.777777777777775)"/><use xlink:href="#f" transform="matrix(1,0,0,1,125.04938271604937,432.54938271604937) translate(43.2716049382716 14.777777777777775)"/><use xlink:href="#g" transform="matrix(1,0,0,1,125.04938271604937,432.54938271604937) translate(26.009259259259256 33.44444444444444)"/><use xlink:href="#l" transform="matrix(1,0,0,1,25.049382716049365,479.54938271604937) translate(9.675925925925924 15.11111111111111)"/><use xlink:href="#d" transform="matrix(1,0,0,1,25.049382716049365,479.54938271604937) translate(53.62037037037037 15.11111111111111)"/><use xlink:href="#m" transform="matrix(1,0,0,1,125.04938271604937,479.54938271604937) translate(14.342592592592592 15.11111111111111)"/><use xlink:href="#n" transform="matrix(1,0,0,1,125.04938271604937,479.54938271604937) translate(46.2746913580247 15.11111111111111)"/><path d="M240.05 420.05h200v268h-200z" fill="#fff"/><path d="M240.05 489.05h200v29h-200zM240.05 565.05h200v47h-200zM240.05 659.05h200v29h-200z" fill="#e6e6e6"/><path d="M240.05 420.05h200v40h-200z" fill="#ccc"/><path d="M240.05 420.05h200v268h-200zM240.05 460.05h200M340.05 460.05v228" stroke="#000" stroke-width="2" fill="none"/><use xlink:href="#p" transform="matrix(1,0,0,1,250.04938271604937,420.0493827160494) translate(40.33024691358024 23.11111111111111)"/><use xlink:href="#b" transform="matrix(1,0,0,1,250.04938271604937,420.0493827160494) translate(100.82407407407408 23.11111111111111)"/><use xlink:href="#c" transform="matrix(1,0,0,1,245.04938271604937,462.5493827160494) translate(0.14814814814814525 15.11111111111111)"/><use xlink:href="#d" transform="matrix(1,0,0,1,245.04938271604937,462.5493827160494) translate(63.148148148148145 15.11111111111111)"/><use xlink:href="#m" transform="matrix(1,0,0,1,345.04938271604937,462.5493827160494) translate(14.342592592592592 15.11111111111111)"/><use xlink:href="#n" transform="matrix(1,0,0,1,345.04938271604937,462.5493827160494) translate(46.2746913580247 15.11111111111111)"/><use xlink:href="#h" transform="matrix(1,0,0,1,245.04938271604937,491.5493827160494) translate(1.401234567901227 15.11111111111111)"/><use xlink:href="#d" transform="matrix(1,0,0,1,245.04938271604937,491.5493827160494) translate(61.895061728395056 15.11111111111111)"/><use xlink:href="#m" transform="matrix(1,0,0,1,345.04938271604937,491.5493827160494) translate(14.342592592592592 15.11111111111111)"/><use xlink:href="#n" transform="matrix(1,0,0,1,345.04938271604937,491.5493827160494) translate(46.2746913580247 15.11111111111111)"/><use xlink:href="#i" transform="matrix(1,0,0,1,245.04938271604937,520.5493827160494) translate(10.043209876543202 24.11111111111111)"/><use xlink:href="#d" transform="matrix(1,0,0,1,245.04938271604937,520.5493827160494) translate(53.25308641975308 24.11111111111111)"/><use xlink:href="#e" transform="matrix(1,0,0,1,345.04938271604937,520.5493827160494) translate(10.475308641975303 14.777777777777775)"/><use xlink:href="#f" transform="matrix(1,0,0,1,345.04938271604937,520.5493827160494) translate(43.2716049382716 14.777777777777775)"/><use xlink:href="#g" transform="matrix(1,0,0,1,345.04938271604937,520.5493827160494) translate(26.009259259259256 33.44444444444444)"/><use xlink:href="#j" transform="matrix(1,0,0,1,245.04938271604937,567.5493827160494) translate(13.975308641975307 14.777777777777775)"/><use xlink:href="#d" transform="matrix(1,0,0,1,245.04938271604937,567.5493827160494) translate(31.648148148148145 33.44444444444444)"/><use xlink:href="#e" transform="matrix(1,0,0,1,345.04938271604937,567.5493827160494) translate(10.475308641975303 14.777777777777775)"/><use xlink:href="#f" transform="matrix(1,0,0,1,345.04938271604937,567.5493827160494) translate(43.2716049382716 14.777777777777775)"/><use xlink:href="#g" transform="matrix(1,0,0,1,345.04938271604937,567.5493827160494) translate(26.009259259259256 33.44444444444444)"/><use xlink:href="#k" transform="matrix(1,0,0,1,245.04938271604937,614.5493827160494) translate(0.12654320987653733 24.11111111111111)"/><use xlink:href="#d" transform="matrix(1,0,0,1,245.04938271604937,614.5493827160494) translate(63.16975308641975 24.11111111111111)"/><use xlink:href="#e" transform="matrix(1,0,0,1,345.04938271604937,614.5493827160494) translate(10.475308641975303 14.777777777777775)"/><use xlink:href="#f" transform="matrix(1,0,0,1,345.04938271604937,614.5493827160494) translate(43.2716049382716 14.777777777777775)"/><use xlink:href="#g" transform="matrix(1,0,0,1,345.04938271604937,614.5493827160494) translate(26.009259259259256 33.44444444444444)"/><use xlink:href="#l" transform="matrix(1,0,0,1,245.04938271604937,661.5493827160494) translate(9.675925925925924 15.11111111111111)"/><use xlink:href="#d" transform="matrix(1,0,0,1,245.04938271604937,661.5493827160494) translate(53.62037037037037 15.11111111111111)"/><use xlink:href="#m" transform="matrix(1,0,0,1,345.04938271604937,661.5493827160494) translate(14.342592592592592 15.11111111111111)"/><use xlink:href="#n" transform="matrix(1,0,0,1,345.04938271604937,661.5493827160494) translate(46.2746913580247 15.11111111111111)"/><path d="M20.05 600.05h200v232h-200z" fill="#fff"/><path d="M20.05 669.05h200v29h-200zM20.05 727.05h200v47h-200zM20.05 803.05h200v29h-200z" fill="#e6e6e6"/><path d="M20.05 600.05h200v40h-200z" fill="#ccc"/><path d="M20.05 600.05h200v232h-200zM20.05 640.05h200M120.05 640.05v192" stroke="#000" stroke-width="2" fill="none"/><use xlink:href="#q" transform="matrix(1,0,0,1,30.049382716049365,600.0493827160494) translate(48.972222222222214 23.11111111111111)"/><use xlink:href="#b" transform="matrix(1,0,0,1,30.049382716049365,600.0493827160494) translate(92.1820987654321 23.11111111111111)"/><use xlink:href="#c" transform="matrix(1,0,0,1,25.049382716049365,642.5493827160494) translate(0.14814814814814525 15.11111111111111)"/><use xlink:href="#d" transform="matrix(1,0,0,1,25.049382716049365,642.5493827160494) translate(63.148148148148145 15.11111111111111)"/><use xlink:href="#m" transform="matrix(1,0,0,1,125.04938271604937,642.5493827160494) translate(14.342592592592592 15.11111111111111)"/><use xlink:href="#n" transform="matrix(1,0,0,1,125.04938271604937,642.5493827160494) translate(46.2746913580247 15.11111111111111)"/><use xlink:href="#h" transform="matrix(1,0,0,1,25.049382716049365,671.5493827160494) translate(1.401234567901227 15.11111111111111)"/><use xlink:href="#d" transform="matrix(1,0,0,1,25.049382716049365,671.5493827160494) translate(61.895061728395056 15.11111111111111)"/><use xlink:href="#m" transform="matrix(1,0,0,1,125.04938271604937,671.5493827160494) translate(14.342592592592592 15.11111111111111)"/><use xlink:href="#n" transform="matrix(1,0,0,1,125.04938271604937,671.5493827160494) translate(46.2746913580247 15.11111111111111)"/><use xlink:href="#i" transform="matrix(1,0,0,1,25.049382716049365,700.5493827160494) translate(10.043209876543202 15.11111111111111)"/><use xlink:href="#d" transform="matrix(1,0,0,1,25.049382716049365,700.5493827160494) translate(53.25308641975308 15.11111111111111)"/><use xlink:href="#m" transform="matrix(1,0,0,1,125.04938271604937,700.5493827160494) translate(14.342592592592592 15.11111111111111)"/><use xlink:href="#n" transform="matrix(1,0,0,1,125.04938271604937,700.5493827160494) translate(46.2746913580247 15.11111111111111)"/><use xlink:href="#j" transform="matrix(1,0,0,1,25.049382716049365,729.5493827160494) translate(13.975308641975307 14.777777777777775)"/><use xlink:href="#d" transform="matrix(1,0,0,1,25.049382716049365,729.5493827160494) translate(31.648148148148145 33.44444444444444)"/><use xlink:href="#e" transform="matrix(1,0,0,1,125.04938271604937,729.5493827160494) translate(10.475308641975303 14.777777777777775)"/><use xlink:href="#f" transform="matrix(1,0,0,1,125.04938271604937,729.5493827160494) translate(43.2716049382716 14.777777777777775)"/><use xlink:href="#g" transform="matrix(1,0,0,1,125.04938271604937,729.5493827160494) translate(26.009259259259256 33.44444444444444)"/><use xlink:href="#k" transform="matrix(1,0,0,1,25.049382716049365,776.5493827160494) translate(0.12654320987653733 15.11111111111111)"/><use xlink:href="#d" transform="matrix(1,0,0,1,25.049382716049365,776.5493827160494) translate(63.16975308641975 15.11111111111111)"/><g><use xlink:href="#m" transform="matrix(1,0,0,1,125.04938271604937,776.5493827160494) translate(14.342592592592592 15.11111111111111)"/><use xlink:href="#n" transform="matrix(1,0,0,1,125.04938271604937,776.5493827160494) translate(46.2746913580247 15.11111111111111)"/></g><g><use xlink:href="#l" transform="matrix(1,0,0,1,25.049382716049365,805.5493827160494) translate(9.675925925925924 15.11111111111111)"/><use xlink:href="#d" transform="matrix(1,0,0,1,25.049382716049365,805.5493827160494) translate(53.62037037037037 15.11111111111111)"/></g><g><use xlink:href="#m" transform="matrix(1,0,0,1,125.04938271604937,805.5493827160494) translate(14.342592592592592 15.11111111111111)"/><use xlink:href="#n" transform="matrix(1,0,0,1,125.04938271604937,805.5493827160494) translate(46.2746913580247 15.11111111111111)"/></g><path d="M340.03 326.05l-.02 1.13-.12 1.94-.18 1.78-.25 1.65-.3 1.53-.33 1.43-.37 1.35-.4 1.26-.46 1.2-.5 1.15-.5 1.1-.55 1.03-.58 1-.62.97-.65.94-.7.9-.73.88-.78.86-.84.85-.9.82-.94.8-1.02.82-1.1.8-1.2.78-1.3.77-1.4.77-1.56.76-1.72.76-1.9.74-2.16.74-2.45.72-2.8.7-3.26.7-3.88.62-4.7.57-5.94.46-7.95.3-12.26-.1-33.16-1.3" stroke="#000" stroke-width="2" fill="none"/><path d="M341.03 326.1l-2-.04.02-1h2z"/><path d="M224.28 359.64l14.44-4.06-.37 9.26z" stroke="#000" stroke-width="2"/><path d="M120.07 508.05l.02 1.12.12 1.94.18 1.8.25 1.64.3 1.53.32 1.43.38 1.34.4 1.26.46 1.2.5 1.14.5 1.08.55 1.04.58 1 .6.97.66.93.68.9.74.9.78.85.83.86.88.83.96.8 1.02.8 1.1.8 1.2.78 1.28.77 1.4.77 1.56.77 1.7.74 1.93.75 2.14.73 2.43.72 2.8.7 3.25.68 3.87.64 4.7.56 5.9.47 7.9.28 12.17-.08 33.44-1.34" stroke="#000" stroke-width="2" fill="none"/><path d="M121.07 508.06l-2 .04-.02-1.05h2z"/><path d="M235.82 541.55l-14.07 5.2-.37-9.26z" stroke="#000" stroke-width="2"/><path d="M340.03 690.05l-.04 1.7-.17 2.5-.25 2.4-.33 2.25-.4 2.15-.5 2.05-.55 1.97-.6 1.9-.7 1.83-.75 1.77-.8 1.73-.9 1.68-.95 1.65-1.03 1.62-1.1 1.6-1.2 1.56-1.3 1.57-1.4 1.54-1.5 1.54-1.64 1.53-1.78 1.53-1.94 1.52-2.1 1.54-2.34 1.53-2.57 1.54-2.86 1.55-3.18 1.55-3.56 1.57-4.02 1.57-4.57 1.56-5.23 1.56-6.07 1.53-7.1 1.48-8.45 1.38-10.2 1.25-12.66 1-5.76.2" stroke="#000" stroke-width="2" fill="none"/><path d="M341.03 690.1l-2-.04.02-1h2z"/><path d="M224.28 750.82l14.15-4.98.23 9.27z" stroke="#000" stroke-width="2"/><path d="M520.05 120.05h200v286h-200z" fill="#fff"/><path d="M520.05 207.05h200v47h-200zM520.05 301.05h200v47h-200zM520.05 377.05h200v29h-200z" fill="#e6e6e6"/><path d="M520.05 120.05h200v40h-200z" fill="#ccc"/><path d="M520.05 120.05h200v286h-200zM520.05 160.05h200M620.05 160.05v246" stroke="#000" stroke-width="2" fill="none"/><g><use xlink:href="#r" transform="matrix(1,0,0,1,530.0493827160494,120.04938271604937) translate(37.39197530864197 23.11111111111111)"/><use xlink:href="#b" transform="matrix(1,0,0,1,530.0493827160494,120.04938271604937) translate(103.76234567901236 23.11111111111111)"/></g><g><use xlink:href="#c" transform="matrix(1,0,0,1,525.0493827160494,162.54938271604937) translate(0.14814814814814525 24.11111111111111)"/><use xlink:href="#d" transform="matrix(1,0,0,1,525.0493827160494,162.54938271604937) translate(63.148148148148145 24.11111111111111)"/></g><g><use xlink:href="#e" transform="matrix(1,0,0,1,625.0493827160494,162.54938271604937) translate(10.475308641975303 14.777777777777775)"/><use xlink:href="#f" transform="matrix(1,0,0,1,625.0493827160494,162.54938271604937) translate(43.2716049382716 14.777777777777775)"/><use xlink:href="#g" transform="matrix(1,0,0,1,625.0493827160494,162.54938271604937) translate(26.009259259259256 33.44444444444444)"/></g><g><use xlink:href="#h" transform="matrix(1,0,0,1,525.0493827160494,209.54938271604937) translate(1.401234567901227 24.11111111111111)"/><use xlink:href="#d" transform="matrix(1,0,0,1,525.0493827160494,209.54938271604937) translate(61.895061728395056 24.11111111111111)"/></g><g><use xlink:href="#e" transform="matrix(1,0,0,1,625.0493827160494,209.54938271604937) translate(10.475308641975303 14.777777777777775)"/><use xlink:href="#f" transform="matrix(1,0,0,1,625.0493827160494,209.54938271604937) translate(43.2716049382716 14.777777777777775)"/><use xlink:href="#g" transform="matrix(1,0,0,1,625.0493827160494,209.54938271604937) translate(26.009259259259256 33.44444444444444)"/></g><g><use xlink:href="#i" transform="matrix(1,0,0,1,525.0493827160494,256.54938271604937) translate(10.043209876543202 24.11111111111111)"/><use xlink:href="#d" transform="matrix(1,0,0,1,525.0493827160494,256.54938271604937) translate(53.25308641975308 24.11111111111111)"/></g><g><use xlink:href="#e" transform="matrix(1,0,0,1,625.0493827160494,256.54938271604937) translate(10.475308641975303 14.777777777777775)"/><use xlink:href="#f" transform="matrix(1,0,0,1,625.0493827160494,256.54938271604937) translate(43.2716049382716 14.777777777777775)"/><use xlink:href="#g" transform="matrix(1,0,0,1,625.0493827160494,256.54938271604937) translate(26.009259259259256 33.44444444444444)"/></g><g><use xlink:href="#j" transform="matrix(1,0,0,1,525.0493827160494,303.54938271604937) translate(13.975308641975307 14.777777777777775)"/><use xlink:href="#d" transform="matrix(1,0,0,1,525.0493827160494,303.54938271604937) translate(31.648148148148145 33.44444444444444)"/></g><g><use xlink:href="#m" transform="matrix(1,0,0,1,625.0493827160494,303.54938271604937) translate(14.342592592592592 24.11111111111111)"/><use xlink:href="#n" transform="matrix(1,0,0,1,625.0493827160494,303.54938271604937) translate(46.2746913580247 24.11111111111111)"/></g><g><use xlink:href="#k" transform="matrix(1,0,0,1,525.0493827160494,350.54938271604937) translate(0.12654320987653733 15.11111111111111)"/><use xlink:href="#d" transform="matrix(1,0,0,1,525.0493827160494,350.54938271604937) translate(63.16975308641975 15.11111111111111)"/></g><g><use xlink:href="#m" transform="matrix(1,0,0,1,625.0493827160494,350.54938271604937) translate(14.342592592592592 15.11111111111111)"/><use xlink:href="#n" transform="matrix(1,0,0,1,625.0493827160494,350.54938271604937) translate(46.2746913580247 15.11111111111111)"/></g><g><use xlink:href="#l" transform="matrix(1,0,0,1,525.0493827160494,379.54938271604937) translate(9.675925925925924 15.11111111111111)"/><use xlink:href="#d" transform="matrix(1,0,0,1,525.0493827160494,379.54938271604937) translate(53.62037037037037 15.11111111111111)"/></g><g><use xlink:href="#m" transform="matrix(1,0,0,1,625.0493827160494,379.54938271604937) translate(14.342592592592592 15.11111111111111)"/><use xlink:href="#n" transform="matrix(1,0,0,1,625.0493827160494,379.54938271604937) translate(46.2746913580247 15.11111111111111)"/></g><path d="M780.05 20.05h200v304h-200z" fill="#fff"/><path d="M780.05 107.05h200v47h-200zM780.05 201.05h200v47h-200zM780.05 277.05h200v47h-200z" fill="#e6e6e6"/><path d="M780.05 20.05h200v40h-200z" fill="#ccc"/><path d="M780.05 20.05h200v304h-200zM780.05 60.05h200M880.05 60.05v264" stroke="#000" stroke-width="2" fill="none"/><g><use xlink:href="#s" transform="matrix(1,0,0,1,790.0493827160494,20.049382716049394) translate(39.05555555555555 23.11111111111111)"/><use xlink:href="#b" transform="matrix(1,0,0,1,790.0493827160494,20.049382716049394) translate(102.09876543209876 23.11111111111111)"/></g><g><use xlink:href="#c" transform="matrix(1,0,0,1,785.0493827160494,62.549382716049394) translate(0.14814814814814525 24.11111111111111)"/><use xlink:href="#d" transform="matrix(1,0,0,1,785.0493827160494,62.549382716049394) translate(63.148148148148145 24.11111111111111)"/></g><g><use xlink:href="#e" transform="matrix(1,0,0,1,885.0493827160494,62.549382716049394) translate(10.475308641975303 14.777777777777775)"/><use xlink:href="#f" transform="matrix(1,0,0,1,885.0493827160494,62.549382716049394) translate(43.2716049382716 14.777777777777775)"/><use xlink:href="#g" transform="matrix(1,0,0,1,885.0493827160494,62.549382716049394) translate(26.009259259259256 33.44444444444444)"/></g><g><use xlink:href="#h" transform="matrix(1,0,0,1,785.0493827160494,109.5493827160494) translate(1.401234567901227 24.11111111111111)"/><use xlink:href="#d" transform="matrix(1,0,0,1,785.0493827160494,109.5493827160494) translate(61.895061728395056 24.11111111111111)"/></g><g><use xlink:href="#e" transform="matrix(1,0,0,1,885.0493827160494,109.5493827160494) translate(10.475308641975303 14.777777777777775)"/><use xlink:href="#f" transform="matrix(1,0,0,1,885.0493827160494,109.5493827160494) translate(43.2716049382716 14.777777777777775)"/><use xlink:href="#g" transform="matrix(1,0,0,1,885.0493827160494,109.5493827160494) translate(26.009259259259256 33.44444444444444)"/></g><g><use xlink:href="#i" transform="matrix(1,0,0,1,785.0493827160494,156.5493827160494) translate(10.043209876543202 24.11111111111111)"/><use xlink:href="#d" transform="matrix(1,0,0,1,785.0493827160494,156.5493827160494) translate(53.25308641975308 24.11111111111111)"/></g><g><use xlink:href="#e" transform="matrix(1,0,0,1,885.0493827160494,156.5493827160494) translate(10.475308641975303 14.777777777777775)"/><use xlink:href="#f" transform="matrix(1,0,0,1,885.0493827160494,156.5493827160494) translate(43.2716049382716 14.777777777777775)"/><use xlink:href="#g" transform="matrix(1,0,0,1,885.0493827160494,156.5493827160494) translate(26.009259259259256 33.44444444444444)"/></g><g><use xlink:href="#j" transform="matrix(1,0,0,1,785.0493827160494,203.5493827160494) translate(13.975308641975307 14.777777777777775)"/><use xlink:href="#d" transform="matrix(1,0,0,1,785.0493827160494,203.5493827160494) translate(31.648148148148145 33.44444444444444)"/></g><g><use xlink:href="#e" transform="matrix(1,0,0,1,885.0493827160494,203.5493827160494) translate(10.475308641975303 14.777777777777775)"/><use xlink:href="#f" transform="matrix(1,0,0,1,885.0493827160494,203.5493827160494) translate(43.2716049382716 14.777777777777775)"/><use xlink:href="#g" transform="matrix(1,0,0,1,885.0493827160494,203.5493827160494) translate(26.009259259259256 33.44444444444444)"/></g><g><use xlink:href="#k" transform="matrix(1,0,0,1,785.0493827160494,250.5493827160494) translate(0.12654320987653733 15.11111111111111)"/><use xlink:href="#d" transform="matrix(1,0,0,1,785.0493827160494,250.5493827160494) translate(63.16975308641975 15.11111111111111)"/></g><g><use xlink:href="#m" transform="matrix(1,0,0,1,885.0493827160494,250.5493827160494) translate(14.342592592592592 15.11111111111111)"/><use xlink:href="#n" transform="matrix(1,0,0,1,885.0493827160494,250.5493827160494) translate(46.2746913580247 15.11111111111111)"/></g><g><use xlink:href="#l" transform="matrix(1,0,0,1,785.0493827160494,279.5493827160494) translate(9.675925925925924 24.11111111111111)"/><use xlink:href="#d" transform="matrix(1,0,0,1,785.0493827160494,279.5493827160494) translate(53.62037037037037 24.11111111111111)"/></g><g><use xlink:href="#e" transform="matrix(1,0,0,1,885.0493827160494,279.5493827160494) translate(10.475308641975303 14.777777777777775)"/><use xlink:href="#f" transform="matrix(1,0,0,1,885.0493827160494,279.5493827160494) translate(43.2716049382716 14.777777777777775)"/><use xlink:href="#g" transform="matrix(1,0,0,1,885.0493827160494,279.5493827160494) translate(26.009259259259256 33.44444444444444)"/></g><path d="M518.05 138.82h-58.5" stroke="#000" stroke-width="2" fill="none"/><path d="M519.05 139.82h-1.03v-2h1.03z"/><path d="M444.3 138.82l14.25-4.64v9.27z" stroke="#000" stroke-width="2"/><path d="M760.55 38.73h-301" stroke="#000" stroke-width="2" fill="none"/><path d="M775.8 38.73l-14.25 4.63V34.1zM444.3 38.73l14.25-4.64v9.26z" stroke="#000" stroke-width="2"/><defs><path d="M212-179c-10-28-35-45-73-45-59 0-87 40-87 99 0 60 29 101 89 101 43 0 62-24 78-52l27 14C228-24 195 4 139 4 59 4 22-46 18-125c-6-104 99-153 187-111 19 9 31 26 39 46" id="t"/><path d="M24 0v-261h32V0H24" id="u"/><path d="M24-231v-30h32v30H24zM24 0v-190h32V0H24" id="v"/><path d="M100-194c63 0 86 42 84 106H49c0 40 14 67 53 68 26 1 43-12 49-29l28 8c-11 28-37 45-77 45C44 4 14-33 15-96c1-61 26-98 85-98zm52 81c6-60-76-77-97-28-3 7-6 17-6 28h103" id="w"/><path d="M117-194c89-4 53 116 60 194h-32v-121c0-31-8-49-39-48C34-167 62-67 57 0H25l-1-190h30c1 10-1 24 2 32 11-22 29-35 61-36" id="x"/><path d="M59-47c-2 24 18 29 38 22v24C64 9 27 4 27-40v-127H5v-23h24l9-43h21v43h35v23H59v120" id="y"/><g id="a"><use transform="matrix(0.04320987654320988,0,0,0.04320987654320988,0,0)" xlink:href="#t"/><use transform="matrix(0.04320987654320988,0,0,0.04320987654320988,11.19135802469136,0)" xlink:href="#u"/><use transform="matrix(0.04320987654320988,0,0,0.04320987654320988,14.60493827160494,0)" xlink:href="#v"/><use transform="matrix(0.04320987654320988,0,0,0.04320987654320988,18.01851851851852,0)" xlink:href="#w"/><use transform="matrix(0.04320987654320988,0,0,0.04320987654320988,26.66049382716049,0)" xlink:href="#x"/><use transform="matrix(0.04320987654320988,0,0,0.04320987654320988,35.30246913580247,0)" xlink:href="#y"/></g><path d="M30 0v-248h187v28H63v79h144v27H63v87h162V0H30" id="z"/><path d="M179-190L93 31C79 59 56 82 12 73V49c39 6 53-20 64-50L1-190h34L92-34l54-156h33" id="A"/><g id="b"><use transform="matrix(0.04320987654320988,0,0,0.04320987654320988,0,0)" xlink:href="#z"/><use transform="matrix(0.04320987654320988,0,0,0.04320987654320988,10.370370370370372,0)" xlink:href="#x"/><use transform="matrix(0.04320987654320988,0,0,0.04320987654320988,19.01234567901235,0)" xlink:href="#y"/><use transform="matrix(0.04320987654320988,0,0,0.04320987654320988,23.333333333333336,0)" xlink:href="#v"/><use transform="matrix(0.04320987654320988,0,0,0.04320987654320988,26.746913580246915,0)" xlink:href="#y"/><use transform="matrix(0.04320987654320988,0,0,0.04320987654320988,31.067901234567906,0)" xlink:href="#A"/></g><path d="M100-194c62-1 85 37 85 99 1 63-27 99-86 99S16-35 15-95c0-66 28-99 85-99zM99-20c44 1 53-31 53-75 0-43-8-75-51-75s-53 32-53 75 10 74 51 75" id="B"/><path d="M114-163C36-179 61-72 57 0H25l-1-190h30c1 12-1 29 2 39 6-27 23-49 58-41v29" id="C"/><path d="M141-36C126-15 110 5 73 4 37 3 15-17 15-53c-1-64 63-63 125-63 3-35-9-54-41-54-24 1-41 7-42 31l-33-3c5-37 33-52 76-52 45 0 72 20 72 64v82c-1 20 7 32 28 27v20c-31 9-61-2-59-35zM48-53c0 20 12 33 32 33 41-3 63-29 60-74-43 2-92-5-92 41" id="D"/><path d="M96-169c-40 0-48 33-48 73s9 75 48 75c24 0 41-14 43-38l32 2c-6 37-31 61-74 61-59 0-76-41-82-99-10-93 101-131 147-64 4 7 5 14 7 22l-32 3c-4-21-16-35-41-35" id="E"/><g id="c"><use transform="matrix(0.04320987654320988,0,0,0.04320987654320988,0,0)" xlink:href="#t"/><use transform="matrix(0.04320987654320988,0,0,0.04320987654320988,11.19135802469136,0)" xlink:href="#B"/><use transform="matrix(0.04320987654320988,0,0,0.04320987654320988,19.833333333333336,0)" xlink:href="#x"/><use transform="matrix(0.04320987654320988,0,0,0.04320987654320988,28.47530864197531,0)" xlink:href="#y"/><use transform="matrix(0.04320987654320988,0,0,0.04320987654320988,32.7962962962963,0)" xlink:href="#C"/><use transform="matrix(0.04320987654320988,0,0,0.04320987654320988,37.93827160493827,0)" xlink:href="#D"/><use transform="matrix(0.04320987654320988,0,0,0.04320987654320988,46.58024691358024,0)" xlink:href="#E"/><use transform="matrix(0.04320987654320988,0,0,0.04320987654320988,54.35802469135802,0)" xlink:href="#y"/></g><path d="M232-93c-1 65-40 97-104 97C67 4 28-28 28-90v-158h33c8 89-33 224 67 224 102 0 64-133 71-224h33v155" id="F"/><path d="M33 0v-248h34V0H33" id="G"/><path d="M30-248c118-7 216 8 213 122C240-48 200 0 122 0H30v-248zM63-27c89 8 146-16 146-99s-60-101-146-95v194" id="H"/><g id="d"><use transform="matrix(0.04320987654320988,0,0,0.04320987654320988,0,0)" xlink:href="#F"/><use transform="matrix(0.04320987654320988,0,0,0.04320987654320988,11.19135802469136,0)" xlink:href="#G"/><use transform="matrix(0.04320987654320988,0,0,0.04320987654320988,15.512345679012347,0)" xlink:href="#H"/></g><g id="e"><use transform="matrix(0.04320987654320988,0,0,0.04320987654320988,0,0)" xlink:href="#t"/><use transform="matrix(0.04320987654320988,0,0,0.04320987654320988,11.19135802469136,0)" xlink:href="#D"/><use transform="matrix(0.04320987654320988,0,0,0.04320987654320988,19.833333333333336,0)" xlink:href="#x"/></g><path d="M197 0v-115H63V0H30v-248h33v105h134v-105h34V0h-34" id="I"/><path d="M108 0H70L1-190h34L89-25l56-165h34" id="J"/><g id="f"><use transform="matrix(0.04320987654320988,0,0,0.04320987654320988,0,0)" xlink:href="#I"/><use transform="matrix(0.04320987654320988,0,0,0.04320987654320988,11.19135802469136,0)" xlink:href="#D"/><use transform="matrix(0.04320987654320988,0,0,0.04320987654320988,19.833333333333336,0)" xlink:href="#J"/><use transform="matrix(0.04320987654320988,0,0,0.04320987654320988,27.611111111111114,0)" xlink:href="#w"/></g><path d="M240 0l2-218c-23 76-54 145-80 218h-23L58-218 59 0H30v-248h44l77 211c21-75 51-140 76-211h43V0h-30" id="K"/><g id="g"><use transform="matrix(0.04320987654320988,0,0,0.04320987654320988,0,0)" xlink:href="#K"/><use transform="matrix(0.04320987654320988,0,0,0.04320987654320988,12.919753086419755,0)" xlink:href="#D"/><use transform="matrix(0.04320987654320988,0,0,0.04320987654320988,21.56172839506173,0)" xlink:href="#x"/><use transform="matrix(0.04320987654320988,0,0,0.04320987654320988,30.203703703703713,0)" xlink:href="#A"/></g><path d="M205 0l-28-72H64L36 0H1l101-248h38L239 0h-34zm-38-99l-47-123c-12 45-31 82-46 123h93" id="L"/><path d="M84 4C-5 8 30-112 23-190h32v120c0 31 7 50 39 49 72-2 45-101 50-169h31l1 190h-30c-1-10 1-25-2-33-11 22-28 36-60 37" id="M"/><g id="h"><use transform="matrix(0.04320987654320988,0,0,0.04320987654320988,0,0)" xlink:href="#L"/><use transform="matrix(0.04320987654320988,0,0,0.04320987654320988,10.370370370370372,0)" xlink:href="#E"/><use transform="matrix(0.04320987654320988,0,0,0.04320987654320988,18.148148148148152,0)" xlink:href="#E"/><use transform="matrix(0.04320987654320988,0,0,0.04320987654320988,25.925925925925927,0)" xlink:href="#B"/><use transform="matrix(0.04320987654320988,0,0,0.04320987654320988,34.567901234567906,0)" xlink:href="#M"/><use transform="matrix(0.04320987654320988,0,0,0.04320987654320988,43.20987654320988,0)" xlink:href="#x"/><use transform="matrix(0.04320987654320988,0,0,0.04320987654320988,51.851851851851855,0)" xlink:href="#y"/></g><path d="M135-143c-3-34-86-38-87 0 15 53 115 12 119 90S17 21 10-45l28-5c4 36 97 45 98 0-10-56-113-15-118-90-4-57 82-63 122-42 12 7 21 19 24 35" id="N"/><g id="i"><use transform="matrix(0.04320987654320988,0,0,0.04320987654320988,0,0)" xlink:href="#L"/><use transform="matrix(0.04320987654320988,0,0,0.04320987654320988,10.370370370370372,0)" xlink:href="#N"/><use transform="matrix(0.04320987654320988,0,0,0.04320987654320988,18.148148148148152,0)" xlink:href="#N"/><use transform="matrix(0.04320987654320988,0,0,0.04320987654320988,25.925925925925927,0)" xlink:href="#w"/><use transform="matrix(0.04320987654320988,0,0,0.04320987654320988,34.567901234567906,0)" xlink:href="#y"/></g><g id="j"><use transform="matrix(0.04320987654320988,0,0,0.04320987654320988,0,0)" xlink:href="#H"/><use transform="matrix(0.04320987654320988,0,0,0.04320987654320988,11.19135802469136,0)" xlink:href="#v"/><use transform="matrix(0.04320987654320988,0,0,0.04320987654320988,14.60493827160494,0)" xlink:href="#C"/><use transform="matrix(0.04320987654320988,0,0,0.04320987654320988,19.746913580246915,0)" xlink:href="#w"/><use transform="matrix(0.04320987654320988,0,0,0.04320987654320988,28.388888888888893,0)" xlink:href="#E"/><use transform="matrix(0.04320987654320988,0,0,0.04320987654320988,36.16666666666667,0)" xlink:href="#y"/><use transform="matrix(0.04320987654320988,0,0,0.04320987654320988,40.48765432098766,0)" xlink:href="#B"/><use transform="matrix(0.04320987654320988,0,0,0.04320987654320988,49.12962962962963,0)" xlink:href="#C"/><use transform="matrix(0.04320987654320988,0,0,0.04320987654320988,54.27160493827161,0)" xlink:href="#A"/></g><path d="M30 0v-248h33v221h125V0H30" id="O"/><g id="k"><use transform="matrix(0.04320987654320988,0,0,0.04320987654320988,0,0)" xlink:href="#O"/><use transform="matrix(0.04320987654320988,0,0,0.04320987654320988,8.641975308641976,0)" xlink:href="#B"/><use transform="matrix(0.04320987654320988,0,0,0.04320987654320988,17.283950617283953,0)" xlink:href="#E"/><use transform="matrix(0.04320987654320988,0,0,0.04320987654320988,25.06172839506173,0)" xlink:href="#D"/><use transform="matrix(0.04320987654320988,0,0,0.04320987654320988,33.70370370370371,0)" xlink:href="#y"/><use transform="matrix(0.04320987654320988,0,0,0.04320987654320988,38.0246913580247,0)" xlink:href="#v"/><use transform="matrix(0.04320987654320988,0,0,0.04320987654320988,41.43827160493828,0)" xlink:href="#B"/><use transform="matrix(0.04320987654320988,0,0,0.04320987654320988,50.080246913580254,0)" xlink:href="#x"/></g><g id="l"><use transform="matrix(0.04320987654320988,0,0,0.04320987654320988,0,0)" xlink:href="#t"/><use transform="matrix(0.04320987654320988,0,0,0.04320987654320988,11.19135802469136,0)" xlink:href="#u"/><use transform="matrix(0.04320987654320988,0,0,0.04320987654320988,14.60493827160494,0)" xlink:href="#v"/><use transform="matrix(0.04320987654320988,0,0,0.04320987654320988,18.01851851851852,0)" xlink:href="#w"/><use transform="matrix(0.04320987654320988,0,0,0.04320987654320988,26.66049382716049,0)" xlink:href="#x"/><use transform="matrix(0.04320987654320988,0,0,0.04320987654320988,35.30246913580247,0)" xlink:href="#y"/></g><g id="m"><use transform="matrix(0.04320987654320988,0,0,0.04320987654320988,0,0)" xlink:href="#I"/><use transform="matrix(0.04320987654320988,0,0,0.04320987654320988,11.19135802469136,0)" xlink:href="#D"/><use transform="matrix(0.04320987654320988,0,0,0.04320987654320988,19.833333333333336,0)" xlink:href="#N"/></g><path d="M140-251c81 0 123 46 123 126C263-46 219 4 140 4 59 4 17-45 17-125s42-126 123-126zm0 227c63 0 89-41 89-101s-29-99-89-99c-61 0-89 39-89 99S79-25 140-24" id="P"/><g id="n"><use transform="matrix(0.04320987654320988,0,0,0.04320987654320988,0,0)" xlink:href="#P"/><use transform="matrix(0.04320987654320988,0,0,0.04320987654320988,12.098765432098766,0)" xlink:href="#x"/><use transform="matrix(0.04320987654320988,0,0,0.04320987654320988,20.74074074074074,0)" xlink:href="#w"/></g><g id="o"><use transform="matrix(0.04320987654320988,0,0,0.04320987654320988,0,0)" xlink:href="#t"/><use transform="matrix(0.04320987654320988,0,0,0.04320987654320988,11.19135802469136,0)" xlink:href="#B"/><use transform="matrix(0.04320987654320988,0,0,0.04320987654320988,19.833333333333336,0)" xlink:href="#x"/><use transform="matrix(0.04320987654320988,0,0,0.04320987654320988,28.47530864197531,0)" xlink:href="#y"/><use transform="matrix(0.04320987654320988,0,0,0.04320987654320988,32.7962962962963,0)" xlink:href="#C"/><use transform="matrix(0.04320987654320988,0,0,0.04320987654320988,37.93827160493827,0)" xlink:href="#D"/><use transform="matrix(0.04320987654320988,0,0,0.04320987654320988,46.58024691358024,0)" xlink:href="#E"/><use transform="matrix(0.04320987654320988,0,0,0.04320987654320988,54.35802469135802,0)" xlink:href="#y"/></g><g id="p"><use transform="matrix(0.04320987654320988,0,0,0.04320987654320988,0,0)" xlink:href="#L"/><use transform="matrix(0.04320987654320988,0,0,0.04320987654320988,10.370370370370372,0)" xlink:href="#E"/><use transform="matrix(0.04320987654320988,0,0,0.04320987654320988,18.148148148148152,0)" xlink:href="#E"/><use transform="matrix(0.04320987654320988,0,0,0.04320987654320988,25.925925925925927,0)" xlink:href="#B"/><use transform="matrix(0.04320987654320988,0,0,0.04320987654320988,34.567901234567906,0)" xlink:href="#M"/><use transform="matrix(0.04320987654320988,0,0,0.04320987654320988,43.20987654320988,0)" xlink:href="#x"/><use transform="matrix(0.04320987654320988,0,0,0.04320987654320988,51.851851851851855,0)" xlink:href="#y"/></g><g id="q"><use transform="matrix(0.04320987654320988,0,0,0.04320987654320988,0,0)" xlink:href="#L"/><use transform="matrix(0.04320987654320988,0,0,0.04320987654320988,10.370370370370372,0)" xlink:href="#N"/><use transform="matrix(0.04320987654320988,0,0,0.04320987654320988,18.148148148148152,0)" xlink:href="#N"/><use transform="matrix(0.04320987654320988,0,0,0.04320987654320988,25.925925925925927,0)" xlink:href="#w"/><use transform="matrix(0.04320987654320988,0,0,0.04320987654320988,34.567901234567906,0)" xlink:href="#y"/></g><g id="r"><use transform="matrix(0.04320987654320988,0,0,0.04320987654320988,0,0)" xlink:href="#H"/><use transform="matrix(0.04320987654320988,0,0,0.04320987654320988,11.19135802469136,0)" xlink:href="#v"/><use transform="matrix(0.04320987654320988,0,0,0.04320987654320988,14.60493827160494,0)" xlink:href="#C"/><use transform="matrix(0.04320987654320988,0,0,0.04320987654320988,19.746913580246915,0)" xlink:href="#w"/><use transform="matrix(0.04320987654320988,0,0,0.04320987654320988,28.388888888888893,0)" xlink:href="#E"/><use transform="matrix(0.04320987654320988,0,0,0.04320987654320988,36.16666666666667,0)" xlink:href="#y"/><use transform="matrix(0.04320987654320988,0,0,0.04320987654320988,40.48765432098766,0)" xlink:href="#B"/><use transform="matrix(0.04320987654320988,0,0,0.04320987654320988,49.12962962962963,0)" xlink:href="#C"/><use transform="matrix(0.04320987654320988,0,0,0.04320987654320988,54.27160493827161,0)" xlink:href="#A"/></g><g id="s"><use transform="matrix(0.04320987654320988,0,0,0.04320987654320988,0,0)" xlink:href="#O"/><use transform="matrix(0.04320987654320988,0,0,0.04320987654320988,8.641975308641976,0)" xlink:href="#B"/><use transform="matrix(0.04320987654320988,0,0,0.04320987654320988,17.283950617283953,0)" xlink:href="#E"/><use transform="matrix(0.04320987654320988,0,0,0.04320987654320988,25.06172839506173,0)" xlink:href="#D"/><use transform="matrix(0.04320987654320988,0,0,0.04320987654320988,33.70370370370371,0)" xlink:href="#y"/><use transform="matrix(0.04320987654320988,0,0,0.04320987654320988,38.0246913580247,0)" xlink:href="#v"/><use transform="matrix(0.04320987654320988,0,0,0.04320987654320988,41.43827160493828,0)" xlink:href="#B"/><use transform="matrix(0.04320987654320988,0,0,0.04320987654320988,50.080246913580254,0)" xlink:href="#x"/></g></defs></g></svg>