<svg xmlns="http://www.w3.org/2000/svg" xmlns:xlink="http://www.w3.org/1999/xlink" xmlns:lucid="lucid" width="1036" height="1044.58"><g transform="translate(-4.804444444444442 -4.804444444444442)" lucid:page-tab-id="0_0"><path d="M24.8 62.46h224v376h-224z" fill="#fff"/><path d="M24.8 156.46h224v47h-224zM24.8 250.46h224v47h-224zM24.8 344.46h224v47h-224z" fill="#e6e6e6"/><path d="M24.8 62.46h224v47h-224z" fill="#ccc"/><path d="M24.8 62.46h224v376h-224zM24.8 109.46h224M84.8 109.46v329M166.8 109.46v329" stroke="#000" stroke-width="2" fill="none"/><use xlink:href="#a" transform="matrix(1,0,0,1,34.80444444444444,62.46444444444441) translate(25.669753086419746 17.277777777777775)"/><use xlink:href="#b" transform="matrix(1,0,0,1,34.80444444444444,62.46444444444441) translate(47.188271604938265 17.277777777777775)"/><use xlink:href="#c" transform="matrix(1,0,0,1,34.80444444444444,62.46444444444441) translate(90.35493827160494 17.277777777777775)"/><use xlink:href="#d" transform="matrix(1,0,0,1,34.80444444444444,62.46444444444441) translate(144.75617283950618 17.277777777777775)"/><use xlink:href="#e" transform="matrix(1,0,0,1,34.80444444444444,62.46444444444441) translate(70.52160493827161 35.94444444444444)"/><use xlink:href="#f" transform="matrix(1,0,0,1,29.804444444444442,111.96444444444441) translate(12.922839506172838 14.777777777777775)"/><use xlink:href="#g" transform="matrix(1,0,0,1,29.804444444444442,111.96444444444441) translate(11.66975308641975 33.44444444444444)"/><use xlink:href="#h" transform="matrix(1,0,0,1,89.80444444444444,111.96444444444441) translate(8.38888888888889 14.777777777777775)"/><use xlink:href="#i" transform="matrix(1,0,0,1,89.80444444444444,111.96444444444441) translate(25.62962962962963 33.44444444444444)"/><use xlink:href="#j" transform="matrix(1,0,0,1,171.80444444444444,111.96444444444441) translate(-2.0895061728395063 24.11111111111111)"/><use xlink:href="#f" transform="matrix(1,0,0,1,29.804444444444442,158.9644444444444) translate(12.922839506172838 14.777777777777775)"/><use xlink:href="#g" transform="matrix(1,0,0,1,29.804444444444442,158.9644444444444) translate(11.66975308641975 33.44444444444444)"/><use xlink:href="#h" transform="matrix(1,0,0,1,89.80444444444444,158.9644444444444) translate(8.38888888888889 14.777777777777775)"/><use xlink:href="#k" transform="matrix(1,0,0,1,89.80444444444444,158.9644444444444) translate(26.925925925925924 33.44444444444444)"/><use xlink:href="#l" transform="matrix(1,0,0,1,171.80444444444444,158.9644444444444) translate(0.6759259259259238 24.11111111111111)"/><use xlink:href="#m" transform="matrix(1,0,0,1,171.80444444444444,158.9644444444444) translate(45.52777777777778 24.11111111111111)"/><use xlink:href="#f" transform="matrix(1,0,0,1,29.804444444444442,205.9644444444444) translate(12.922839506172838 14.777777777777775)"/><use xlink:href="#g" transform="matrix(1,0,0,1,29.804444444444442,205.9644444444444) translate(11.66975308641975 33.44444444444444)"/><use xlink:href="#n" transform="matrix(1,0,0,1,89.80444444444444,205.9644444444444) translate(6.638888888888889 14.777777777777775)"/><use xlink:href="#i" transform="matrix(1,0,0,1,89.80444444444444,205.9644444444444) translate(25.62962962962963 33.44444444444444)"/><use xlink:href="#j" transform="matrix(1,0,0,1,171.80444444444444,205.9644444444444) translate(-2.0895061728395063 24.11111111111111)"/><use xlink:href="#f" transform="matrix(1,0,0,1,29.804444444444442,252.9644444444444) translate(12.922839506172838 14.777777777777775)"/><use xlink:href="#g" transform="matrix(1,0,0,1,29.804444444444442,252.9644444444444) translate(11.66975308641975 33.44444444444444)"/><use xlink:href="#n" transform="matrix(1,0,0,1,89.80444444444444,252.9644444444444) translate(6.638888888888889 14.777777777777775)"/><use xlink:href="#k" transform="matrix(1,0,0,1,89.80444444444444,252.9644444444444) translate(26.925925925925924 33.44444444444444)"/><use xlink:href="#l" transform="matrix(1,0,0,1,171.80444444444444,252.9644444444444) translate(0.6759259259259238 24.11111111111111)"/><use xlink:href="#m" transform="matrix(1,0,0,1,171.80444444444444,252.9644444444444) translate(45.52777777777778 24.11111111111111)"/><use xlink:href="#o" transform="matrix(1,0,0,1,29.804444444444442,299.96444444444444) translate(-3.0000000000000036 24.11111111111111)"/><use xlink:href="#p" transform="matrix(1,0,0,1,89.80444444444444,299.96444444444444) translate(9.253086419753085 14.777777777777775)"/><use xlink:href="#i" transform="matrix(1,0,0,1,89.80444444444444,299.96444444444444) translate(25.62962962962963 33.44444444444444)"/><use xlink:href="#j" transform="matrix(1,0,0,1,171.80444444444444,299.96444444444444) translate(-2.0895061728395063 24.11111111111111)"/><use xlink:href="#o" transform="matrix(1,0,0,1,29.804444444444442,346.96444444444444) translate(-3.0000000000000036 24.11111111111111)"/><use xlink:href="#p" transform="matrix(1,0,0,1,89.80444444444444,346.96444444444444) translate(9.253086419753085 14.777777777777775)"/><use xlink:href="#k" transform="matrix(1,0,0,1,89.80444444444444,346.96444444444444) translate(26.925925925925924 33.44444444444444)"/><use xlink:href="#l" transform="matrix(1,0,0,1,171.80444444444444,346.96444444444444) translate(0.6759259259259238 24.11111111111111)"/><use xlink:href="#m" transform="matrix(1,0,0,1,171.80444444444444,346.96444444444444) translate(45.52777777777778 24.11111111111111)"/><use xlink:href="#q" transform="matrix(1,0,0,1,29.804444444444442,393.96444444444444) translate(11.604938271604937 24.11111111111111)"/><use xlink:href="#r" transform="matrix(1,0,0,1,89.80444444444444,393.96444444444444) translate(2.361111111111107 14.777777777777775)"/><use xlink:href="#s" transform="matrix(1,0,0,1,89.80444444444444,393.96444444444444) translate(22.648148148148145 33.44444444444444)"/><use xlink:href="#t" transform="matrix(1,0,0,1,171.80444444444444,393.96444444444444) translate(15.734567901234566 24.11111111111111)"/><path d="M228.8 594.38c0 7.74-26.86 14-60 14-33.13 0-60-6.26-60-14v-112c0-7.73 26.87-14 60-14 33.14 0 60 6.27 60 14z" stroke="#000" stroke-width="2" fill="#fff"/><path d="M228.8 482.38c0 7.74-26.86 14-60 14-33.13 0-60-6.26-60-14" stroke="#000" stroke-width="2" fill="none"/><use xlink:href="#u" transform="matrix(1,0,0,1,113.80444444444444,501.3844444444444) translate(2.3919753086419675 44.77777777777777)"/><use xlink:href="#v" transform="matrix(1,0,0,1,113.80444444444444,501.3844444444444) translate(68.76234567901236 44.77777777777777)"/><use xlink:href="#w" transform="matrix(1,0,0,1,113.80444444444444,501.3844444444444) translate(41.648148148148145 63.44444444444444)"/><path d="M284.8 140.38h224v842h-224z" fill="#fff"/><path d="M284.8 227.38h224v66h-224zM284.8 359.38h224v47h-224zM284.8 453.38h224v47h-224zM284.8 547.38h224v47h-224zM284.8 641.38h224v66h-224zM284.8 736.38h224v29h-224zM284.8 794.38h224v47h-224zM284.8 888.38h224v47h-224z" fill="#e6e6e6"/><path d="M284.8 140.38h224v40h-224z" fill="#ccc"/><path d="M284.8 140.38h224v842h-224zM284.8 180.38h224M344.8 180.38v802M426.8 180.38v802" stroke="#000" stroke-width="2" fill="none"/><use xlink:href="#x" transform="matrix(1,0,0,1,294.80444444444447,140.3844444444444) translate(39 23.11111111111111)"/><use xlink:href="#e" transform="matrix(1,0,0,1,294.80444444444447,140.3844444444444) translate(102.04320987654322 23.11111111111111)"/><use xlink:href="#y" transform="matrix(1,0,0,1,289.80444444444447,182.8844444444444) translate(6.873456790123456 14.777777777777775)"/><use xlink:href="#z" transform="matrix(1,0,0,1,289.80444444444447,182.8844444444444) translate(37.98456790123457 14.777777777777775)"/><use xlink:href="#A" transform="matrix(1,0,0,1,289.80444444444447,182.8844444444444) translate(-1.3580246913580254 33.44444444444444)"/><use xlink:href="#B" transform="matrix(1,0,0,1,349.80444444444447,182.8844444444444) translate(6.638888888888886 14.777777777777775)"/><use xlink:href="#s" transform="matrix(1,0,0,1,349.80444444444447,182.8844444444444) translate(22.648148148148145 33.44444444444444)"/><use xlink:href="#t" transform="matrix(1,0,0,1,431.80444444444447,182.8844444444444) translate(15.734567901234566 24.11111111111111)"/><use xlink:href="#f" transform="matrix(1,0,0,1,289.80444444444447,229.8844444444444) translate(12.922839506172838 24.277777777777775)"/><use xlink:href="#g" transform="matrix(1,0,0,1,289.80444444444447,229.8844444444444) translate(11.66975308641975 42.94444444444444)"/><use xlink:href="#B" transform="matrix(1,0,0,1,349.80444444444447,229.8844444444444) translate(6.638888888888886 14.944444444444443)"/><use xlink:href="#C" transform="matrix(1,0,0,1,349.80444444444447,229.8844444444444) translate(20.055555555555554 33.611111111111114)"/><use xlink:href="#D" transform="matrix(1,0,0,1,349.80444444444447,229.8844444444444) translate(12.299382716049383 52.277777777777786)"/><use xlink:href="#E" transform="matrix(1,0,0,1,431.80444444444447,229.8844444444444) translate(8.410493827160494 33.611111111111114)"/><use xlink:href="#f" transform="matrix(1,0,0,1,289.80444444444447,295.8844444444444) translate(12.922839506172838 24.277777777777775)"/><use xlink:href="#g" transform="matrix(1,0,0,1,289.80444444444447,295.8844444444444) translate(11.66975308641975 42.94444444444444)"/><use xlink:href="#B" transform="matrix(1,0,0,1,349.80444444444447,295.8844444444444) translate(6.638888888888886 14.944444444444443)"/><use xlink:href="#F" transform="matrix(1,0,0,1,349.80444444444447,295.8844444444444) translate(19.169753086419753 33.611111111111114)"/><use xlink:href="#D" transform="matrix(1,0,0,1,349.80444444444447,295.8844444444444) translate(12.299382716049383 52.277777777777786)"/><use xlink:href="#E" transform="matrix(1,0,0,1,431.80444444444447,295.8844444444444) translate(8.410493827160494 33.611111111111114)"/><use xlink:href="#f" transform="matrix(1,0,0,1,289.80444444444447,361.8844444444444) translate(12.922839506172838 14.777777777777775)"/><use xlink:href="#g" transform="matrix(1,0,0,1,289.80444444444447,361.8844444444444) translate(11.66975308641975 33.44444444444444)"/><use xlink:href="#G" transform="matrix(1,0,0,1,349.80444444444447,361.8844444444444) translate(7.503086419753085 14.777777777777775)"/><use xlink:href="#H" transform="matrix(1,0,0,1,349.80444444444447,361.8844444444444) translate(14.848765432098766 33.44444444444444)"/><use xlink:href="#I" transform="matrix(1,0,0,1,349.80444444444447,361.8844444444444) translate(48.50925925925926 33.44444444444444)"/><use xlink:href="#t" transform="matrix(1,0,0,1,431.80444444444447,361.8844444444444) translate(15.734567901234566 24.11111111111111)"/><use xlink:href="#o" transform="matrix(1,0,0,1,289.80444444444447,408.8844444444444) translate(-3.0000000000000036 24.11111111111111)"/><use xlink:href="#G" transform="matrix(1,0,0,1,349.80444444444447,408.8844444444444) translate(7.503086419753085 14.777777777777775)"/><use xlink:href="#H" transform="matrix(1,0,0,1,349.80444444444447,408.8844444444444) translate(14.848765432098766 33.44444444444444)"/><use xlink:href="#J" transform="matrix(1,0,0,1,349.80444444444447,408.8844444444444) translate(48.50925925925926 33.44444444444444)"/><use xlink:href="#t" transform="matrix(1,0,0,1,431.80444444444447,408.8844444444444) translate(15.734567901234566 24.11111111111111)"/><use xlink:href="#o" transform="matrix(1,0,0,1,289.80444444444447,455.8844444444444) translate(-3.0000000000000036 24.11111111111111)"/><use xlink:href="#G" transform="matrix(1,0,0,1,349.80444444444447,455.8844444444444) translate(7.503086419753085 14.777777777777775)"/><use xlink:href="#H" transform="matrix(1,0,0,1,349.80444444444447,455.8844444444444) translate(14.848765432098766 33.44444444444444)"/><use xlink:href="#K" transform="matrix(1,0,0,1,349.80444444444447,455.8844444444444) translate(48.50925925925926 33.44444444444444)"/><use xlink:href="#t" transform="matrix(1,0,0,1,431.80444444444447,455.8844444444444) translate(15.734567901234566 24.11111111111111)"/><use xlink:href="#f" transform="matrix(1,0,0,1,289.80444444444447,502.8844444444444) translate(12.922839506172838 14.777777777777775)"/><use xlink:href="#g" transform="matrix(1,0,0,1,289.80444444444447,502.8844444444444) translate(11.66975308641975 33.44444444444444)"/><use xlink:href="#L" transform="matrix(1,0,0,1,349.80444444444447,502.8844444444444) translate(22.648148148148145 24.11111111111111)"/><use xlink:href="#t" transform="matrix(1,0,0,1,431.80444444444447,502.8844444444444) translate(15.734567901234566 24.11111111111111)"/><use xlink:href="#f" transform="matrix(1,0,0,1,289.80444444444447,549.8844444444444) translate(12.922839506172838 14.777777777777775)"/><use xlink:href="#g" transform="matrix(1,0,0,1,289.80444444444447,549.8844444444444) translate(11.66975308641975 33.44444444444444)"/><use xlink:href="#M" transform="matrix(1,0,0,1,349.80444444444447,549.8844444444444) translate(13.530864197530864 14.777777777777775)"/><use xlink:href="#N" transform="matrix(1,0,0,1,349.80444444444447,549.8844444444444) translate(54.14814814814815 14.777777777777775)"/><use xlink:href="#O" transform="matrix(1,0,0,1,349.80444444444447,549.8844444444444) translate(5.796296296296294 33.44444444444444)"/><use xlink:href="#t" transform="matrix(1,0,0,1,431.80444444444447,549.8844444444444) translate(15.734567901234566 24.11111111111111)"/><use xlink:href="#f" transform="matrix(1,0,0,1,289.80444444444447,596.8844444444444) translate(12.922839506172838 14.777777777777775)"/><use xlink:href="#g" transform="matrix(1,0,0,1,289.80444444444447,596.8844444444444) translate(11.66975308641975 33.44444444444444)"/><use xlink:href="#P" transform="matrix(1,0,0,1,349.80444444444447,596.8844444444444) translate(8.820987654320987 24.11111111111111)"/><use xlink:href="#t" transform="matrix(1,0,0,1,431.80444444444447,596.8844444444444) translate(15.734567901234566 24.11111111111111)"/><use xlink:href="#f" transform="matrix(1,0,0,1,289.80444444444447,643.8844444444444) translate(12.922839506172838 24.277777777777775)"/><use xlink:href="#g" transform="matrix(1,0,0,1,289.80444444444447,643.8844444444444) translate(11.66975308641975 42.94444444444444)"/><use xlink:href="#Q" transform="matrix(1,0,0,1,349.80444444444447,643.8844444444444) translate(20.919753086419753 14.944444444444443)"/><use xlink:href="#N" transform="matrix(1,0,0,1,349.80444444444447,643.8844444444444) translate(46.75925925925926 14.944444444444443)"/><use xlink:href="#R" transform="matrix(1,0,0,1,349.80444444444447,643.8844444444444) translate(14.416666666666664 33.611111111111114)"/><use xlink:href="#S" transform="matrix(1,0,0,1,349.80444444444447,643.8844444444444) translate(17.441358024691358 52.277777777777786)"/><use xlink:href="#t" transform="matrix(1,0,0,1,431.80444444444447,643.8844444444444) translate(15.734567901234566 33.611111111111114)"/><use xlink:href="#o" transform="matrix(1,0,0,1,289.80444444444447,709.8844444444444) translate(-3.0000000000000036 15.11111111111111)"/><use xlink:href="#T" transform="matrix(1,0,0,1,349.80444444444447,709.8844444444444) translate(11.391975308641975 15.11111111111111)"/><use xlink:href="#t" transform="matrix(1,0,0,1,431.80444444444447,709.8844444444444) translate(15.734567901234566 15.11111111111111)"/><use xlink:href="#U" transform="matrix(1,0,0,1,289.80444444444447,738.8844444444444) translate(1.7314814814814774 15.11111111111111)"/><use xlink:href="#V" transform="matrix(1,0,0,1,349.80444444444447,738.8844444444444) translate(1.8858024691357969 15.11111111111111)"/><use xlink:href="#t" transform="matrix(1,0,0,1,431.80444444444447,738.8844444444444) translate(15.734567901234566 15.11111111111111)"/><use xlink:href="#U" transform="matrix(1,0,0,1,289.80444444444447,767.8844444444444) translate(1.7314814814814774 15.11111111111111)"/><use xlink:href="#W" transform="matrix(1,0,0,1,349.80444444444447,767.8844444444444) translate(8.367283950617285 15.11111111111111)"/><use xlink:href="#t" transform="matrix(1,0,0,1,431.80444444444447,767.8844444444444) translate(15.734567901234566 15.11111111111111)"/><use xlink:href="#U" transform="matrix(1,0,0,1,289.80444444444447,796.8844444444444) translate(1.7314814814814774 24.11111111111111)"/><use xlink:href="#X" transform="matrix(1,0,0,1,349.80444444444447,796.8844444444444) translate(20.077160493827158 14.777777777777775)"/><use xlink:href="#Y" transform="matrix(1,0,0,1,349.80444444444447,796.8844444444444) translate(15.410493827160494 33.44444444444444)"/><use xlink:href="#t" transform="matrix(1,0,0,1,431.80444444444447,796.8844444444444) translate(15.734567901234566 24.11111111111111)"/><use xlink:href="#Z" transform="matrix(1,0,0,1,289.80444444444447,843.8844444444444) translate(-1.7469135802469147 14.777777777777775)"/><use xlink:href="#aa" transform="matrix(1,0,0,1,289.80444444444447,843.8844444444444) translate(8.601851851851851 33.44444444444444)"/><use xlink:href="#ab" transform="matrix(1,0,0,1,349.80444444444447,843.8844444444444) translate(9.209876543209873 24.11111111111111)"/><use xlink:href="#ac" transform="matrix(1,0,0,1,349.80444444444447,843.8844444444444) translate(36 24.11111111111111)"/><use xlink:href="#ad" transform="matrix(1,0,0,1,431.80444444444447,843.8844444444444) translate(7.503086419753085 24.11111111111111)"/><use xlink:href="#U" transform="matrix(1,0,0,1,289.80444444444447,890.8844444444444) translate(1.7314814814814774 24.11111111111111)"/><use xlink:href="#B" transform="matrix(1,0,0,1,349.80444444444447,890.8844444444444) translate(6.638888888888886 14.777777777777775)"/><use xlink:href="#ae" transform="matrix(1,0,0,1,349.80444444444447,890.8844444444444) translate(-1.095679012345684 33.44444444444444)"/><use xlink:href="#t" transform="matrix(1,0,0,1,431.80444444444447,890.8844444444444) translate(15.734567901234566 24.11111111111111)"/><use xlink:href="#o" transform="matrix(1,0,0,1,289.80444444444447,937.8844444444444) translate(-3.0000000000000036 24.11111111111111)"/><use xlink:href="#af" transform="matrix(1,0,0,1,349.80444444444447,937.8844444444444) translate(7.913580246913579 14.777777777777775)"/><use xlink:href="#s" transform="matrix(1,0,0,1,349.80444444444447,937.8844444444444) translate(22.648148148148145 33.44444444444444)"/><use xlink:href="#t" transform="matrix(1,0,0,1,431.80444444444447,937.8844444444444) translate(15.734567901234566 24.11111111111111)"/><path d="M564.8 240.38h200v106h-200z" fill="#fff"/><path d="M564.8 240.38h200v40h-200z" fill="#ccc"/><path d="M564.8 240.38h200v106h-200zM564.8 280.38h200M624.8 280.38v66M694.8 280.38v66" stroke="#000" stroke-width="2" fill="none"/><use xlink:href="#x" transform="matrix(1,0,0,1,574.8044444444445,240.3844444444444) translate(7.9876543209876445 23.11111111111111)"/><use xlink:href="#ag" transform="matrix(1,0,0,1,574.8044444444445,240.3844444444444) translate(71.03086419753086 23.11111111111111)"/><use xlink:href="#ah" transform="matrix(1,0,0,1,574.8044444444445,240.3844444444444) translate(107.24074074074073 23.11111111111111)"/><use xlink:href="#f" transform="matrix(1,0,0,1,569.8044444444445,282.8844444444444) translate(12.922839506172838 24.277777777777775)"/><use xlink:href="#g" transform="matrix(1,0,0,1,569.8044444444445,282.8844444444444) translate(11.66975308641975 42.94444444444444)"/><use xlink:href="#ai" transform="matrix(1,0,0,1,629.8044444444445,282.8844444444444) translate(11.441358024691358 14.944444444444443)"/><use xlink:href="#aj" transform="matrix(1,0,0,1,629.8044444444445,282.8844444444444) translate(9.712962962962962 33.611111111111114)"/><use xlink:href="#ak" transform="matrix(1,0,0,1,629.8044444444445,282.8844444444444) translate(18.787037037037038 52.277777777777786)"/><use xlink:href="#E" transform="matrix(1,0,0,1,699.8044444444445,282.8844444444444) translate(2.4104938271604937 33.611111111111114)"/><path d="M564.8 660.38h200v106h-200z" fill="#fff"/><path d="M564.8 660.38h200v40h-200z" fill="#ccc"/><path d="M564.8 660.38h200v106h-200zM564.8 700.38h200M624.8 700.38v66M694.8 700.38v66" stroke="#000" stroke-width="2" fill="none"/><use xlink:href="#x" transform="matrix(1,0,0,1,574.8044444444445,660.3844444444444) translate(7.101851851851848 23.11111111111111)"/><use xlink:href="#al" transform="matrix(1,0,0,1,574.8044444444445,660.3844444444444) translate(70.14506172839506 23.11111111111111)"/><use xlink:href="#ah" transform="matrix(1,0,0,1,574.8044444444445,660.3844444444444) translate(108.12654320987654 23.11111111111111)"/><use xlink:href="#f" transform="matrix(1,0,0,1,569.8044444444445,702.8844444444444) translate(12.922839506172838 24.277777777777775)"/><use xlink:href="#g" transform="matrix(1,0,0,1,569.8044444444445,702.8844444444444) translate(11.66975308641975 42.94444444444444)"/><use xlink:href="#ai" transform="matrix(1,0,0,1,629.8044444444445,702.8844444444444) translate(11.441358024691358 14.944444444444443)"/><use xlink:href="#aj" transform="matrix(1,0,0,1,629.8044444444445,702.8844444444444) translate(9.712962962962962 33.611111111111114)"/><use xlink:href="#ak" transform="matrix(1,0,0,1,629.8044444444445,702.8844444444444) translate(18.787037037037038 52.277777777777786)"/><use xlink:href="#E" transform="matrix(1,0,0,1,699.8044444444445,702.8844444444444) translate(2.4104938271604937 33.611111111111114)"/><path d="M820.8 24.8h200v69h-200z" fill="#fff"/><path d="M820.8 24.8h200v40h-200z" fill="#ccc"/><path d="M820.8 24.8h200v69h-200zM820.8 64.8h200M920.8 64.8v29" stroke="#000" stroke-width="2" fill="none"/><use xlink:href="#am" transform="matrix(1,0,0,1,830.8044444444445,24.804444444444442) translate(32.638888888888886 23.11111111111111)"/><use xlink:href="#an" transform="matrix(1,0,0,1,830.8044444444445,24.804444444444442) translate(90.36728395061729 23.11111111111111)"/><use xlink:href="#ao" transform="matrix(1,0,0,1,825.8044444444445,67.30444444444444) translate(26.441358024691358 15.11111111111111)"/><use xlink:href="#ap" transform="matrix(1,0,0,1,925.8044444444445,67.30444444444444) translate(40.67901234567901 15.11111111111111)"/><path d="M820.8 120.38h200v69h-200z" fill="#fff"/><path d="M820.8 120.38h200v40h-200z" fill="#ccc"/><path d="M820.8 120.38h200v69h-200zM820.8 160.38h200M920.8 160.38v29" stroke="#000" stroke-width="2" fill="none"/><use xlink:href="#aq" transform="matrix(1,0,0,1,830.8044444444445,120.38444444444443) translate(38.688271604938265 23.11111111111111)"/><use xlink:href="#ar" transform="matrix(1,0,0,1,830.8044444444445,120.38444444444443) translate(63.62037037037037 23.11111111111111)"/><use xlink:href="#an" transform="matrix(1,0,0,1,830.8044444444445,120.38444444444443) translate(84.3179012345679 23.11111111111111)"/><use xlink:href="#ao" transform="matrix(1,0,0,1,825.8044444444445,162.88444444444443) translate(26.441358024691358 15.11111111111111)"/><use xlink:href="#as" transform="matrix(1,0,0,1,925.8044444444445,162.88444444444443) translate(40.67901234567901 15.11111111111111)"/><path d="M820.8 215.96h200v69h-200z" fill="#fff"/><path d="M820.8 215.96h200v40h-200z" fill="#ccc"/><path d="M820.8 215.96h200v69h-200zM820.8 255.96h200M920.8 255.96v29" stroke="#000" stroke-width="2" fill="none"/><use xlink:href="#at" transform="matrix(1,0,0,1,830.8044444444445,215.9644444444444) translate(33.45987654320987 23.11111111111111)"/><use xlink:href="#ar" transform="matrix(1,0,0,1,830.8044444444445,215.9644444444444) translate(68.84876543209876 23.11111111111111)"/><use xlink:href="#an" transform="matrix(1,0,0,1,830.8044444444445,215.9644444444444) translate(89.5462962962963 23.11111111111111)"/><use xlink:href="#ao" transform="matrix(1,0,0,1,825.8044444444445,258.46444444444444) translate(26.441358024691358 15.11111111111111)"/><use xlink:href="#au" transform="matrix(1,0,0,1,925.8044444444445,258.46444444444444) translate(40.67901234567901 15.11111111111111)"/><path d="M820.8 311.54h200v69h-200z" fill="#fff"/><path d="M820.8 311.54h200v40h-200z" fill="#ccc"/><path d="M820.8 311.54h200v69h-200zM820.8 351.54h200M920.8 351.54v29" stroke="#000" stroke-width="2" fill="none"/><use xlink:href="#av" transform="matrix(1,0,0,1,830.8044444444445,311.54444444444437) translate(9.262345679012341 23.11111111111111)"/><use xlink:href="#aw" transform="matrix(1,0,0,1,830.8044444444445,311.54444444444437) translate(52.47222222222222 23.11111111111111)"/><use xlink:href="#an" transform="matrix(1,0,0,1,830.8044444444445,311.54444444444437) translate(113.74382716049384 23.11111111111111)"/><use xlink:href="#ao" transform="matrix(1,0,0,1,825.8044444444445,354.04444444444437) translate(26.441358024691358 15.11111111111111)"/><use xlink:href="#ax" transform="matrix(1,0,0,1,925.8044444444445,354.04444444444437) translate(40.67901234567901 15.11111111111111)"/><path d="M820.8 407.12h200v69h-200z" fill="#fff"/><path d="M820.8 407.12h200v40h-200z" fill="#ccc"/><path d="M820.8 407.12h200v69h-200zM820.8 447.12h200M920.8 447.12v29" stroke="#000" stroke-width="2" fill="none"/><use xlink:href="#ay" transform="matrix(1,0,0,1,830.8044444444445,407.1244444444444) translate(39.91975308641975 23.11111111111111)"/><use xlink:href="#an" transform="matrix(1,0,0,1,830.8044444444445,407.1244444444444) translate(83.08641975308642 23.11111111111111)"/><use xlink:href="#ao" transform="matrix(1,0,0,1,825.8044444444445,449.6244444444444) translate(26.441358024691358 15.11111111111111)"/><use xlink:href="#az" transform="matrix(1,0,0,1,925.8044444444445,449.6244444444444) translate(36.141975308641975 15.11111111111111)"/><path d="M820.8 560.38h200v69h-200z" fill="#fff"/><path d="M820.8 560.38h200v40h-200z" fill="#ccc"/><path d="M820.8 560.38h200v69h-200zM820.8 600.38h200M920.8 600.38v29" stroke="#000" stroke-width="2" fill="none"/><use xlink:href="#aA" transform="matrix(1,0,0,1,830.8044444444445,560.3844444444444) translate(70.18827160493828 23.11111111111111)"/><use xlink:href="#ao" transform="matrix(1,0,0,1,825.8044444444445,602.8844444444444) translate(26.441358024691358 15.11111111111111)"/><use xlink:href="#ap" transform="matrix(1,0,0,1,925.8044444444445,602.8844444444444) translate(40.67901234567901 15.11111111111111)"/><path d="M820.8 660.38h200v69h-200z" fill="#fff"/><path d="M820.8 660.38h200v40h-200z" fill="#ccc"/><path d="M820.8 660.38h200v69h-200zM820.8 700.38h200M920.8 700.38v29" stroke="#000" stroke-width="2" fill="none"/><use xlink:href="#aB" transform="matrix(1,0,0,1,830.8044444444445,660.3844444444444) translate(75.76234567901234 23.11111111111111)"/><use xlink:href="#ao" transform="matrix(1,0,0,1,825.8044444444445,702.8844444444444) translate(26.441358024691358 15.11111111111111)"/><use xlink:href="#as" transform="matrix(1,0,0,1,925.8044444444445,702.8844444444444) translate(40.67901234567901 15.11111111111111)"/><path d="M820.8 760.38h200v69h-200z" fill="#fff"/><path d="M820.8 760.38h200v40h-200z" fill="#ccc"/><path d="M820.8 760.38h200v69h-200zM820.8 800.38h200M920.8 800.38v29" stroke="#000" stroke-width="2" fill="none"/><use xlink:href="#aC" transform="matrix(1,0,0,1,830.8044444444445,760.3844444444444) translate(64.54938271604938 23.11111111111111)"/><use xlink:href="#ao" transform="matrix(1,0,0,1,825.8044444444445,802.8844444444444) translate(26.441358024691358 15.11111111111111)"/><use xlink:href="#au" transform="matrix(1,0,0,1,925.8044444444445,802.8844444444444) translate(40.67901234567901 15.11111111111111)"/><path d="M820.8 860.38h200v69h-200z" fill="#fff"/><path d="M820.8 860.38h200v40h-200z" fill="#ccc"/><path d="M820.8 860.38h200v69h-200zM820.8 900.38h200M920.8 900.38v29" stroke="#000" stroke-width="2" fill="none"/><use xlink:href="#aD" transform="matrix(1,0,0,1,830.8044444444445,860.3844444444444) translate(64.50617283950618 23.11111111111111)"/><use xlink:href="#ao" transform="matrix(1,0,0,1,825.8044444444445,902.8844444444444) translate(26.441358024691358 15.11111111111111)"/><use xlink:href="#ax" transform="matrix(1,0,0,1,925.8044444444445,902.8844444444444) translate(40.67901234567901 15.11111111111111)"/><path d="M820.8 960.38h200v69h-200z" fill="#fff"/><path d="M820.8 960.38h200v40h-200z" fill="#ccc"/><path d="M820.8 960.38h200v69h-200zM820.8 1000.38h200M920.8 1000.38v29" stroke="#000" stroke-width="2" fill="none"/><use xlink:href="#aE" transform="matrix(1,0,0,1,830.8044444444445,960.3844444444444) translate(70.57716049382717 23.11111111111111)"/><use xlink:href="#ao" transform="matrix(1,0,0,1,825.8044444444445,1002.8844444444444) translate(26.441358024691358 15.11111111111111)"/><use xlink:href="#az" transform="matrix(1,0,0,1,925.8044444444445,1002.8844444444444) translate(36.141975308641975 15.11111111111111)"/><path d="M54.58 459.46v78.92h34.4" stroke="#000" stroke-width="2" fill="none"/><path d="M44.58 459.46h20M54.58 439.46v20M107.36 548.38l-20-10 20-10M107.36 538.38h-20" stroke="#000" stroke-width="2" fill="#fff"/><path d="M230.8 538.38h34.5" stroke="#000" stroke-width="2" fill="none"/><path d="M230.83 539.38h-1.03v-2h1.03z"/><path d="M280.57 538.38l-14.27 4.64v-9.27z" stroke="#000" stroke-width="2"/><path d="M528.8 260.38h16.18" stroke="#000" stroke-width="2" fill="none"/><path d="M528.8 270.38v-20M508.8 260.38h20M563.36 270.38l-20-10 20-10M563.36 260.38h-20" stroke="#000" stroke-width="2" fill="#fff"/><path d="M528.8 326.38h7.5v353.67h8.68" stroke="#000" stroke-width="2" fill="none"/><path d="M528.8 336.38v-20M508.8 326.38h20M563.36 690.05l-20-10 20-10M563.36 680.05h-20" stroke="#000" stroke-width="2" fill="#fff"/><path d="M785.8 313.58h7V79.3h8.18" stroke="#000" stroke-width="2" fill="none"/><path d="M785.8 323.58v-20M765.8 313.58h20M819.36 89.3l-20-10 20-10M819.36 79.3h-20" stroke="#000" stroke-width="2" fill="#fff"/><path d="M785.8 313.58h7v-138.7h8.18" stroke="#000" stroke-width="2" fill="none"/><path d="M785.8 323.58v-20M765.8 313.58h20M819.36 184.88l-20-10 20-10M819.36 174.88h-20" stroke="#000" stroke-width="2" fill="#fff"/><path d="M785.8 313.58h7v-43.12h8.18" stroke="#000" stroke-width="2" fill="none"/><path d="M785.8 323.58v-20M765.8 313.58h20M819.36 280.46l-20-10 20-10M819.36 270.46h-20" stroke="#000" stroke-width="2" fill="#fff"/><path d="M785.8 313.58h7v52.46h8.18" stroke="#000" stroke-width="2" fill="none"/><path d="M785.8 323.58v-20M765.8 313.58h20M819.36 376.04l-20-10 20-10M819.36 366.04h-20" stroke="#000" stroke-width="2" fill="#fff"/><path d="M785.8 313.58h7v148.04h8.18" stroke="#000" stroke-width="2" fill="none"/><path d="M785.8 323.58v-20M765.8 313.58h20M819.36 471.62l-20-10 20-10M819.36 461.62h-20" stroke="#000" stroke-width="2" fill="#fff"/><path d="M785.8 733.58h7v-118.5h8.18" stroke="#000" stroke-width="2" fill="none"/><path d="M785.8 743.58v-20M765.8 733.58h20M819.36 625.08l-20-10 20-10M819.36 615.08h-20" stroke="#000" stroke-width="2" fill="#fff"/><path d="M785.8 733.58h7v-18.5h8.18" stroke="#000" stroke-width="2" fill="none"/><path d="M785.8 743.58v-20M765.8 733.58h20M819.36 725.08l-20-10 20-10M819.36 715.08h-20" stroke="#000" stroke-width="2" fill="#fff"/><path d="M785.8 733.58h7v81.5h8.18" stroke="#000" stroke-width="2" fill="none"/><path d="M785.8 743.58v-20M765.8 733.58h20M819.36 825.08l-20-10 20-10M819.36 815.08h-20" stroke="#000" stroke-width="2" fill="#fff"/><path d="M785.8 733.58h7v181.5h8.18" stroke="#000" stroke-width="2" fill="none"/><path d="M785.8 743.58v-20M765.8 733.58h20M819.36 925.08l-20-10 20-10M819.36 915.08h-20" stroke="#000" stroke-width="2" fill="#fff"/><path d="M785.8 733.58h7v281.5h8.18" stroke="#000" stroke-width="2" fill="none"/><path d="M785.8 743.58v-20M765.8 733.58h20M819.36 1025.08l-20-10 20-10M819.36 1015.08h-20" stroke="#000" stroke-width="2" fill="#fff"/><defs><path d="M205 0l-28-72H64L36 0H1l101-248h38L239 0h-34zm-38-99l-47-123c-12 45-31 82-46 123h93" id="aF"/><path d="M24 0v-261h32V0H24" id="aG"/><g id="a"><use transform="matrix(0.04320987654320988,0,0,0.04320987654320988,0,0)" xlink:href="#aF"/><use transform="matrix(0.04320987654320988,0,0,0.04320987654320988,10.370370370370372,0)" xlink:href="#aG"/><use transform="matrix(0.04320987654320988,0,0,0.04320987654320988,13.783950617283953,0)" xlink:href="#aG"/></g><path d="M30 0v-248h187v28H63v79h144v27H63v87h162V0H30" id="aH"/><path d="M117-194c89-4 53 116 60 194h-32v-121c0-31-8-49-39-48C34-167 62-67 57 0H25l-1-190h30c1 10-1 24 2 32 11-22 29-35 61-36" id="aI"/><path d="M59-47c-2 24 18 29 38 22v24C64 9 27 4 27-40v-127H5v-23h24l9-43h21v43h35v23H59v120" id="aJ"/><path d="M24-231v-30h32v30H24zM24 0v-190h32V0H24" id="aK"/><path d="M179-190L93 31C79 59 56 82 12 73V49c39 6 53-20 64-50L1-190h34L92-34l54-156h33" id="aL"/><g id="b"><use transform="matrix(0.04320987654320988,0,0,0.04320987654320988,0,0)" xlink:href="#aH"/><use transform="matrix(0.04320987654320988,0,0,0.04320987654320988,10.370370370370372,0)" xlink:href="#aI"/><use transform="matrix(0.04320987654320988,0,0,0.04320987654320988,19.01234567901235,0)" xlink:href="#aJ"/><use transform="matrix(0.04320987654320988,0,0,0.04320987654320988,23.333333333333336,0)" xlink:href="#aK"/><use transform="matrix(0.04320987654320988,0,0,0.04320987654320988,26.746913580246915,0)" xlink:href="#aJ"/><use transform="matrix(0.04320987654320988,0,0,0.04320987654320988,31.067901234567906,0)" xlink:href="#aL"/></g><path d="M185-189c-5-48-123-54-124 2 14 75 158 14 163 119 3 78-121 87-175 55-17-10-28-26-33-46l33-7c5 56 141 63 141-1 0-78-155-14-162-118-5-82 145-84 179-34 5 7 8 16 11 25" id="aM"/><path d="M106-169C34-169 62-67 57 0H25v-261h32l-1 103c12-21 28-36 61-36 89 0 53 116 60 194h-32v-121c2-32-8-49-39-48" id="aN"/><path d="M141-36C126-15 110 5 73 4 37 3 15-17 15-53c-1-64 63-63 125-63 3-35-9-54-41-54-24 1-41 7-42 31l-33-3c5-37 33-52 76-52 45 0 72 20 72 64v82c-1 20 7 32 28 27v20c-31 9-61-2-59-35zM48-53c0 20 12 33 32 33 41-3 63-29 60-74-43 2-92-5-92 41" id="aO"/><path d="M114-163C36-179 61-72 57 0H25l-1-190h30c1 12-1 29 2 39 6-27 23-49 58-41v29" id="aP"/><path d="M100-194c63 0 86 42 84 106H49c0 40 14 67 53 68 26 1 43-12 49-29l28 8c-11 28-37 45-77 45C44 4 14-33 15-96c1-61 26-98 85-98zm52 81c6-60-76-77-97-28-3 7-6 17-6 28h103" id="aQ"/><path d="M85-194c31 0 48 13 60 33l-1-100h32l1 261h-30c-2-10 0-23-3-31C134-8 116 4 85 4 32 4 16-35 15-94c0-66 23-100 70-100zm9 24c-40 0-46 34-46 75 0 40 6 74 45 74 42 0 51-32 51-76 0-42-9-74-50-73" id="aR"/><g id="c"><use transform="matrix(0.04320987654320988,0,0,0.04320987654320988,0,0)" xlink:href="#aM"/><use transform="matrix(0.04320987654320988,0,0,0.04320987654320988,10.370370370370372,0)" xlink:href="#aN"/><use transform="matrix(0.04320987654320988,0,0,0.04320987654320988,19.01234567901235,0)" xlink:href="#aO"/><use transform="matrix(0.04320987654320988,0,0,0.04320987654320988,27.654320987654323,0)" xlink:href="#aP"/><use transform="matrix(0.04320987654320988,0,0,0.04320987654320988,32.7962962962963,0)" xlink:href="#aQ"/><use transform="matrix(0.04320987654320988,0,0,0.04320987654320988,41.43827160493827,0)" xlink:href="#aR"/></g><path d="M63-220v92h138v28H63V0H30v-248h175v28H63" id="aS"/><g id="d"><use transform="matrix(0.04320987654320988,0,0,0.04320987654320988,0,0)" xlink:href="#aS"/><use transform="matrix(0.04320987654320988,0,0,0.04320987654320988,9.462962962962964,0)" xlink:href="#aK"/><use transform="matrix(0.04320987654320988,0,0,0.04320987654320988,12.876543209876544,0)" xlink:href="#aQ"/><use transform="matrix(0.04320987654320988,0,0,0.04320987654320988,21.51851851851852,0)" xlink:href="#aG"/><use transform="matrix(0.04320987654320988,0,0,0.04320987654320988,24.9320987654321,0)" xlink:href="#aR"/></g><path d="M127-220V0H93v-220H8v-28h204v28h-85" id="aT"/><path d="M210-169c-67 3-38 105-44 169h-31v-121c0-29-5-50-35-48C34-165 62-65 56 0H25l-1-190h30c1 10-1 24 2 32 10-44 99-50 107 0 11-21 27-35 58-36 85-2 47 119 55 194h-31v-121c0-29-5-49-35-48" id="aU"/><path d="M115-194c55 1 70 41 70 98S169 2 115 4C84 4 66-9 55-30l1 105H24l-1-265h31l2 30c10-21 28-34 59-34zm-8 174c40 0 45-34 45-75s-6-73-45-74c-42 0-51 32-51 76 0 43 10 73 51 73" id="aV"/><g id="e"><use transform="matrix(0.04320987654320988,0,0,0.04320987654320988,0,0)" xlink:href="#aT"/><use transform="matrix(0.04320987654320988,0,0,0.04320987654320988,7.734567901234567,0)" xlink:href="#aQ"/><use transform="matrix(0.04320987654320988,0,0,0.04320987654320988,16.376543209876544,0)" xlink:href="#aU"/><use transform="matrix(0.04320987654320988,0,0,0.04320987654320988,29.296296296296298,0)" xlink:href="#aV"/><use transform="matrix(0.04320987654320988,0,0,0.04320987654320988,37.93827160493827,0)" xlink:href="#aG"/><use transform="matrix(0.04320987654320988,0,0,0.04320987654320988,41.351851851851855,0)" xlink:href="#aO"/><use transform="matrix(0.04320987654320988,0,0,0.04320987654320988,49.99382716049383,0)" xlink:href="#aJ"/><use transform="matrix(0.04320987654320988,0,0,0.04320987654320988,54.314814814814824,0)" xlink:href="#aQ"/></g><path d="M190 0L58-211 59 0H30v-248h39L202-35l-2-213h31V0h-41" id="aW"/><path d="M100-194c62-1 85 37 85 99 1 63-27 99-86 99S16-35 15-95c0-66 28-99 85-99zM99-20c44 1 53-31 53-75 0-43-8-75-51-75s-53 32-53 75 10 74 51 75" id="aX"/><g id="f"><use transform="matrix(0.04320987654320988,0,0,0.04320987654320988,0,0)" xlink:href="#aW"/><use transform="matrix(0.04320987654320988,0,0,0.04320987654320988,11.19135802469136,0)" xlink:href="#aX"/><use transform="matrix(0.04320987654320988,0,0,0.04320987654320988,19.833333333333336,0)" xlink:href="#aJ"/></g><path d="M84 4C-5 8 30-112 23-190h32v120c0 31 7 50 39 49 72-2 45-101 50-169h31l1 190h-30c-1-10 1-25-2-33-11 22-28 36-60 37" id="aY"/><g id="g"><use transform="matrix(0.04320987654320988,0,0,0.04320987654320988,0,0)" xlink:href="#aW"/><use transform="matrix(0.04320987654320988,0,0,0.04320987654320988,11.19135802469136,0)" xlink:href="#aY"/><use transform="matrix(0.04320987654320988,0,0,0.04320987654320988,19.833333333333336,0)" xlink:href="#aG"/><use transform="matrix(0.04320987654320988,0,0,0.04320987654320988,23.246913580246915,0)" xlink:href="#aG"/></g><path d="M212-179c-10-28-35-45-73-45-59 0-87 40-87 99 0 60 29 101 89 101 43 0 62-24 78-52l27 14C228-24 195 4 139 4 59 4 22-46 18-125c-6-104 99-153 187-111 19 9 31 26 39 46" id="aZ"/><g id="h"><use transform="matrix(0.04320987654320988,0,0,0.04320987654320988,0,0)" xlink:href="#aZ"/><use transform="matrix(0.04320987654320988,0,0,0.04320987654320988,11.19135802469136,0)" xlink:href="#aP"/><use transform="matrix(0.04320987654320988,0,0,0.04320987654320988,16.333333333333336,0)" xlink:href="#aQ"/><use transform="matrix(0.04320987654320988,0,0,0.04320987654320988,24.97530864197531,0)" xlink:href="#aO"/><use transform="matrix(0.04320987654320988,0,0,0.04320987654320988,33.617283950617285,0)" xlink:href="#aJ"/><use transform="matrix(0.04320987654320988,0,0,0.04320987654320988,37.93827160493827,0)" xlink:href="#aQ"/><use transform="matrix(0.04320987654320988,0,0,0.04320987654320988,46.58024691358024,0)" xlink:href="#aR"/></g><path d="M140-251c81 0 123 46 123 126C263-46 219 4 140 4 59 4 17-45 17-125s42-126 123-126zm0 227c63 0 89-41 89-101s-29-99-89-99c-61 0-89 39-89 99S79-25 140-24" id="ba"/><g id="i"><use transform="matrix(0.04320987654320988,0,0,0.04320987654320988,0,0)" xlink:href="#ba"/><use transform="matrix(0.04320987654320988,0,0,0.04320987654320988,12.098765432098766,0)" xlink:href="#aI"/></g><path d="M135-143c-3-34-86-38-87 0 15 53 115 12 119 90S17 21 10-45l28-5c4 36 97 45 98 0-10-56-113-15-118-90-4-57 82-63 122-42 12 7 21 19 24 35" id="bb"/><g id="j"><use transform="matrix(0.04320987654320988,0,0,0.04320987654320988,0,0)" xlink:href="#aT"/><use transform="matrix(0.04320987654320988,0,0,0.04320987654320988,8.901234567901236,0)" xlink:href="#aK"/><use transform="matrix(0.04320987654320988,0,0,0.04320987654320988,12.314814814814817,0)" xlink:href="#aU"/><use transform="matrix(0.04320987654320988,0,0,0.04320987654320988,25.23456790123457,0)" xlink:href="#aQ"/><use transform="matrix(0.04320987654320988,0,0,0.04320987654320988,33.876543209876544,0)" xlink:href="#bb"/><use transform="matrix(0.04320987654320988,0,0,0.04320987654320988,41.65432098765432,0)" xlink:href="#aJ"/><use transform="matrix(0.04320987654320988,0,0,0.04320987654320988,45.97530864197531,0)" xlink:href="#aO"/><use transform="matrix(0.04320987654320988,0,0,0.04320987654320988,54.61728395061729,0)" xlink:href="#aU"/><use transform="matrix(0.04320987654320988,0,0,0.04320987654320988,67.53703703703704,0)" xlink:href="#aV"/></g><path d="M160-131c35 5 61 23 61 61C221 17 115-2 30 0v-248c76 3 177-17 177 60 0 33-19 50-47 57zm-97-11c50-1 110 9 110-42 0-47-63-36-110-37v79zm0 115c55-2 124 14 124-45 0-56-70-42-124-44v89" id="bc"/><g id="k"><use transform="matrix(0.04320987654320988,0,0,0.04320987654320988,0,0)" xlink:href="#bc"/><use transform="matrix(0.04320987654320988,0,0,0.04320987654320988,10.370370370370372,0)" xlink:href="#aL"/></g><path d="M177-190C167-65 218 103 67 71c-23-6-38-20-44-43l32-5c15 47 100 32 89-28v-30C133-14 115 1 83 1 29 1 15-40 15-95c0-56 16-97 71-98 29-1 48 16 59 35 1-10 0-23 2-32h30zM94-22c36 0 50-32 50-73 0-42-14-75-50-75-39 0-46 34-46 75s6 73 46 73" id="bd"/><g id="l"><use transform="matrix(0.04320987654320988,0,0,0.04320987654320988,0,0)" xlink:href="#aM"/><use transform="matrix(0.04320987654320988,0,0,0.04320987654320988,10.370370370370372,0)" xlink:href="#aJ"/><use transform="matrix(0.04320987654320988,0,0,0.04320987654320988,14.691358024691363,0)" xlink:href="#aP"/><use transform="matrix(0.04320987654320988,0,0,0.04320987654320988,19.833333333333336,0)" xlink:href="#aK"/><use transform="matrix(0.04320987654320988,0,0,0.04320987654320988,23.246913580246915,0)" xlink:href="#aI"/><use transform="matrix(0.04320987654320988,0,0,0.04320987654320988,31.888888888888893,0)" xlink:href="#bd"/></g><path d="M87 75C49 33 22-17 22-94c0-76 28-126 65-167h31c-38 41-64 92-64 168S80 34 118 75H87" id="be"/><path d="M33 0v-248h34V0H33" id="bf"/><path d="M30-248c118-7 216 8 213 122C240-48 200 0 122 0H30v-248zM63-27c89 8 146-16 146-99s-60-101-146-95v194" id="bg"/><path d="M33-261c38 41 65 92 65 168S71 34 33 75H2C39 34 66-17 66-93S39-220 2-261h31" id="bh"/><g id="m"><use transform="matrix(0.04320987654320988,0,0,0.04320987654320988,0,0)" xlink:href="#be"/><use transform="matrix(0.04320987654320988,0,0,0.04320987654320988,5.1419753086419755,0)" xlink:href="#bf"/><use transform="matrix(0.04320987654320988,0,0,0.04320987654320988,9.462962962962964,0)" xlink:href="#bg"/><use transform="matrix(0.04320987654320988,0,0,0.04320987654320988,20.654320987654323,0)" xlink:href="#bh"/></g><path d="M232-93c-1 65-40 97-104 97C67 4 28-28 28-90v-158h33c8 89-33 224 67 224 102 0 64-133 71-224h33v155" id="bi"/><g id="n"><use transform="matrix(0.04320987654320988,0,0,0.04320987654320988,0,0)" xlink:href="#bi"/><use transform="matrix(0.04320987654320988,0,0,0.04320987654320988,11.19135802469136,0)" xlink:href="#aV"/><use transform="matrix(0.04320987654320988,0,0,0.04320987654320988,19.833333333333336,0)" xlink:href="#aR"/><use transform="matrix(0.04320987654320988,0,0,0.04320987654320988,28.47530864197531,0)" xlink:href="#aO"/><use transform="matrix(0.04320987654320988,0,0,0.04320987654320988,37.117283950617285,0)" xlink:href="#aJ"/><use transform="matrix(0.04320987654320988,0,0,0.04320987654320988,41.43827160493827,0)" xlink:href="#aQ"/><use transform="matrix(0.04320987654320988,0,0,0.04320987654320988,50.08024691358024,0)" xlink:href="#aR"/></g><path d="M115-194c53 0 69 39 70 98 0 66-23 100-70 100C84 3 66-7 56-30L54 0H23l1-261h32v101c10-23 28-34 59-34zm-8 174c40 0 45-34 45-75 0-40-5-75-45-74-42 0-51 32-51 76 0 43 10 73 51 73" id="bj"/><g id="o"><use transform="matrix(0.04320987654320988,0,0,0.04320987654320988,0,0)" xlink:href="#aW"/><use transform="matrix(0.04320987654320988,0,0,0.04320987654320988,11.19135802469136,0)" xlink:href="#aY"/><use transform="matrix(0.04320987654320988,0,0,0.04320987654320988,19.833333333333336,0)" xlink:href="#aG"/><use transform="matrix(0.04320987654320988,0,0,0.04320987654320988,23.246913580246915,0)" xlink:href="#aG"/><use transform="matrix(0.04320987654320988,0,0,0.04320987654320988,26.6604938271605,0)" xlink:href="#aO"/><use transform="matrix(0.04320987654320988,0,0,0.04320987654320988,35.302469135802475,0)" xlink:href="#bj"/><use transform="matrix(0.04320987654320988,0,0,0.04320987654320988,43.94444444444445,0)" xlink:href="#aG"/><use transform="matrix(0.04320987654320988,0,0,0.04320987654320988,47.35802469135803,0)" xlink:href="#aQ"/></g><g id="p"><use transform="matrix(0.04320987654320988,0,0,0.04320987654320988,0,0)" xlink:href="#bg"/><use transform="matrix(0.04320987654320988,0,0,0.04320987654320988,11.19135802469136,0)" xlink:href="#aQ"/><use transform="matrix(0.04320987654320988,0,0,0.04320987654320988,19.833333333333336,0)" xlink:href="#aG"/><use transform="matrix(0.04320987654320988,0,0,0.04320987654320988,23.246913580246915,0)" xlink:href="#aQ"/><use transform="matrix(0.04320987654320988,0,0,0.04320987654320988,31.888888888888893,0)" xlink:href="#aJ"/><use transform="matrix(0.04320987654320988,0,0,0.04320987654320988,36.20987654320988,0)" xlink:href="#aQ"/><use transform="matrix(0.04320987654320988,0,0,0.04320987654320988,44.851851851851855,0)" xlink:href="#aR"/></g><path d="M194 0L95-120 63-95V0H30v-248h33v124l119-124h40L117-140 236 0h-42" id="bk"/><g id="q"><use transform="matrix(0.04320987654320988,0,0,0.04320987654320988,0,0)" xlink:href="#bk"/><use transform="matrix(0.04320987654320988,0,0,0.04320987654320988,10.370370370370372,0)" xlink:href="#aQ"/><use transform="matrix(0.04320987654320988,0,0,0.04320987654320988,19.01234567901235,0)" xlink:href="#aL"/></g><g id="r"><use transform="matrix(0.04320987654320988,0,0,0.04320987654320988,0,0)" xlink:href="#aZ"/><use transform="matrix(0.04320987654320988,0,0,0.04320987654320988,11.19135802469136,0)" xlink:href="#aY"/><use transform="matrix(0.04320987654320988,0,0,0.04320987654320988,19.833333333333336,0)" xlink:href="#bb"/><use transform="matrix(0.04320987654320988,0,0,0.04320987654320988,27.611111111111114,0)" xlink:href="#aJ"/><use transform="matrix(0.04320987654320988,0,0,0.04320987654320988,31.9320987654321,0)" xlink:href="#aX"/><use transform="matrix(0.04320987654320988,0,0,0.04320987654320988,40.574074074074076,0)" xlink:href="#aU"/><use transform="matrix(0.04320987654320988,0,0,0.04320987654320988,53.49382716049383,0)" xlink:href="#aQ"/><use transform="matrix(0.04320987654320988,0,0,0.04320987654320988,62.1358024691358,0)" xlink:href="#aP"/></g><g id="s"><use transform="matrix(0.04320987654320988,0,0,0.04320987654320988,0,0)" xlink:href="#bi"/><use transform="matrix(0.04320987654320988,0,0,0.04320987654320988,11.19135802469136,0)" xlink:href="#bf"/><use transform="matrix(0.04320987654320988,0,0,0.04320987654320988,15.512345679012347,0)" xlink:href="#bg"/></g><g id="t"><use transform="matrix(0.04320987654320988,0,0,0.04320987654320988,0,0)" xlink:href="#aM"/><use transform="matrix(0.04320987654320988,0,0,0.04320987654320988,10.370370370370372,0)" xlink:href="#aJ"/><use transform="matrix(0.04320987654320988,0,0,0.04320987654320988,14.691358024691363,0)" xlink:href="#aP"/><use transform="matrix(0.04320987654320988,0,0,0.04320987654320988,19.833333333333336,0)" xlink:href="#aK"/><use transform="matrix(0.04320987654320988,0,0,0.04320987654320988,23.246913580246915,0)" xlink:href="#aI"/><use transform="matrix(0.04320987654320988,0,0,0.04320987654320988,31.888888888888893,0)" xlink:href="#bd"/></g><path d="M96-169c-40 0-48 33-48 73s9 75 48 75c24 0 41-14 43-38l32 2c-6 37-31 61-74 61-59 0-76-41-82-99-10-93 101-131 147-64 4 7 5 14 7 22l-32 3c-4-21-16-35-41-35" id="bl"/><g id="u"><use transform="matrix(0.04320987654320988,0,0,0.04320987654320988,0,0)" xlink:href="#bg"/><use transform="matrix(0.04320987654320988,0,0,0.04320987654320988,11.19135802469136,0)" xlink:href="#aK"/><use transform="matrix(0.04320987654320988,0,0,0.04320987654320988,14.60493827160494,0)" xlink:href="#aP"/><use transform="matrix(0.04320987654320988,0,0,0.04320987654320988,19.746913580246915,0)" xlink:href="#aQ"/><use transform="matrix(0.04320987654320988,0,0,0.04320987654320988,28.388888888888893,0)" xlink:href="#bl"/><use transform="matrix(0.04320987654320988,0,0,0.04320987654320988,36.16666666666667,0)" xlink:href="#aJ"/><use transform="matrix(0.04320987654320988,0,0,0.04320987654320988,40.48765432098766,0)" xlink:href="#aX"/><use transform="matrix(0.04320987654320988,0,0,0.04320987654320988,49.12962962962963,0)" xlink:href="#aP"/><use transform="matrix(0.04320987654320988,0,0,0.04320987654320988,54.27160493827161,0)" xlink:href="#aL"/></g><g id="v"><use transform="matrix(0.04320987654320988,0,0,0.04320987654320988,0,0)" xlink:href="#aH"/><use transform="matrix(0.04320987654320988,0,0,0.04320987654320988,10.370370370370372,0)" xlink:href="#aI"/><use transform="matrix(0.04320987654320988,0,0,0.04320987654320988,19.01234567901235,0)" xlink:href="#aJ"/><use transform="matrix(0.04320987654320988,0,0,0.04320987654320988,23.333333333333336,0)" xlink:href="#aK"/><use transform="matrix(0.04320987654320988,0,0,0.04320987654320988,26.746913580246915,0)" xlink:href="#aJ"/><use transform="matrix(0.04320987654320988,0,0,0.04320987654320988,31.067901234567906,0)" xlink:href="#aL"/></g><g id="w"><use transform="matrix(0.04320987654320988,0,0,0.04320987654320988,0,0)" xlink:href="#bi"/><use transform="matrix(0.04320987654320988,0,0,0.04320987654320988,11.19135802469136,0)" xlink:href="#bf"/><use transform="matrix(0.04320987654320988,0,0,0.04320987654320988,15.512345679012347,0)" xlink:href="#bg"/></g><path d="M30 0v-248h33v221h125V0H30" id="bm"/><g id="x"><use transform="matrix(0.04320987654320988,0,0,0.04320987654320988,0,0)" xlink:href="#bm"/><use transform="matrix(0.04320987654320988,0,0,0.04320987654320988,8.641975308641976,0)" xlink:href="#aX"/><use transform="matrix(0.04320987654320988,0,0,0.04320987654320988,17.283950617283953,0)" xlink:href="#bl"/><use transform="matrix(0.04320987654320988,0,0,0.04320987654320988,25.06172839506173,0)" xlink:href="#aO"/><use transform="matrix(0.04320987654320988,0,0,0.04320987654320988,33.70370370370371,0)" xlink:href="#aJ"/><use transform="matrix(0.04320987654320988,0,0,0.04320987654320988,38.0246913580247,0)" xlink:href="#aK"/><use transform="matrix(0.04320987654320988,0,0,0.04320987654320988,41.43827160493828,0)" xlink:href="#aX"/><use transform="matrix(0.04320987654320988,0,0,0.04320987654320988,50.080246913580254,0)" xlink:href="#aI"/></g><g id="y"><use transform="matrix(0.04320987654320988,0,0,0.04320987654320988,0,0)" xlink:href="#bk"/><use transform="matrix(0.04320987654320988,0,0,0.04320987654320988,10.370370370370372,0)" xlink:href="#aQ"/><use transform="matrix(0.04320987654320988,0,0,0.04320987654320988,19.01234567901235,0)" xlink:href="#aL"/></g><path d="M16-82v-28h88v28H16" id="bn"/><use transform="matrix(0.04320987654320988,0,0,0.04320987654320988,0,0)" xlink:href="#bn" id="z"/><g id="A"><use transform="matrix(0.04320987654320988,0,0,0.04320987654320988,0,0)" xlink:href="#aF"/><use transform="matrix(0.04320987654320988,0,0,0.04320987654320988,10.370370370370372,0)" xlink:href="#aY"/><use transform="matrix(0.04320987654320988,0,0,0.04320987654320988,19.01234567901235,0)" xlink:href="#aJ"/><use transform="matrix(0.04320987654320988,0,0,0.04320987654320988,23.333333333333336,0)" xlink:href="#aX"/><use transform="matrix(0.04320987654320988,0,0,0.04320987654320988,31.97530864197531,0)" xlink:href="#bf"/><use transform="matrix(0.04320987654320988,0,0,0.04320987654320988,36.2962962962963,0)" xlink:href="#aI"/><use transform="matrix(0.04320987654320988,0,0,0.04320987654320988,44.93827160493828,0)" xlink:href="#bl"/></g><g id="B"><use transform="matrix(0.04320987654320988,0,0,0.04320987654320988,0,0)" xlink:href="#bm"/><use transform="matrix(0.04320987654320988,0,0,0.04320987654320988,8.641975308641976,0)" xlink:href="#aX"/><use transform="matrix(0.04320987654320988,0,0,0.04320987654320988,17.283950617283953,0)" xlink:href="#bl"/><use transform="matrix(0.04320987654320988,0,0,0.04320987654320988,25.06172839506173,0)" xlink:href="#aO"/><use transform="matrix(0.04320987654320988,0,0,0.04320987654320988,33.70370370370371,0)" xlink:href="#aJ"/><use transform="matrix(0.04320987654320988,0,0,0.04320987654320988,38.0246913580247,0)" xlink:href="#aK"/><use transform="matrix(0.04320987654320988,0,0,0.04320987654320988,41.43827160493828,0)" xlink:href="#aX"/><use transform="matrix(0.04320987654320988,0,0,0.04320987654320988,50.080246913580254,0)" xlink:href="#aI"/></g><path d="M233-177c-1 41-23 64-60 70L243 0h-38l-65-103H63V0H30v-248c88 3 205-21 203 71zM63-129c60-2 137 13 137-47 0-61-80-42-137-45v92" id="bo"/><g id="C"><use transform="matrix(0.04320987654320988,0,0,0.04320987654320988,0,0)" xlink:href="#bo"/><use transform="matrix(0.04320987654320988,0,0,0.04320987654320988,11.19135802469136,0)" xlink:href="#aX"/><use transform="matrix(0.04320987654320988,0,0,0.04320987654320988,19.833333333333336,0)" xlink:href="#aG"/><use transform="matrix(0.04320987654320988,0,0,0.04320987654320988,23.246913580246915,0)" xlink:href="#aQ"/></g><g id="D"><use transform="matrix(0.04320987654320988,0,0,0.04320987654320988,0,0)" xlink:href="#be"/><use transform="matrix(0.04320987654320988,0,0,0.04320987654320988,5.1419753086419755,0)" xlink:href="#aZ"/><use transform="matrix(0.04320987654320988,0,0,0.04320987654320988,16.333333333333336,0)" xlink:href="#aX"/><use transform="matrix(0.04320987654320988,0,0,0.04320987654320988,24.97530864197531,0)" xlink:href="#aR"/><use transform="matrix(0.04320987654320988,0,0,0.04320987654320988,33.617283950617285,0)" xlink:href="#aQ"/><use transform="matrix(0.04320987654320988,0,0,0.04320987654320988,42.25925925925926,0)" xlink:href="#bh"/></g><g id="E"><use transform="matrix(0.04320987654320988,0,0,0.04320987654320988,0,0)" xlink:href="#aW"/><use transform="matrix(0.04320987654320988,0,0,0.04320987654320988,11.19135802469136,0)" xlink:href="#aY"/><use transform="matrix(0.04320987654320988,0,0,0.04320987654320988,19.833333333333336,0)" xlink:href="#aU"/><use transform="matrix(0.04320987654320988,0,0,0.04320987654320988,32.75308641975309,0)" xlink:href="#bj"/><use transform="matrix(0.04320987654320988,0,0,0.04320987654320988,41.39506172839506,0)" xlink:href="#aQ"/><use transform="matrix(0.04320987654320988,0,0,0.04320987654320988,50.037037037037045,0)" xlink:href="#aP"/></g><g id="F"><use transform="matrix(0.04320987654320988,0,0,0.04320987654320988,0,0)" xlink:href="#aT"/><use transform="matrix(0.04320987654320988,0,0,0.04320987654320988,8.598765432098766,0)" xlink:href="#aL"/><use transform="matrix(0.04320987654320988,0,0,0.04320987654320988,16.376543209876544,0)" xlink:href="#aV"/><use transform="matrix(0.04320987654320988,0,0,0.04320987654320988,25.018518518518523,0)" xlink:href="#aQ"/></g><g id="G"><use transform="matrix(0.04320987654320988,0,0,0.04320987654320988,0,0)" xlink:href="#aF"/><use transform="matrix(0.04320987654320988,0,0,0.04320987654320988,10.370370370370372,0)" xlink:href="#aR"/><use transform="matrix(0.04320987654320988,0,0,0.04320987654320988,19.01234567901235,0)" xlink:href="#aR"/><use transform="matrix(0.04320987654320988,0,0,0.04320987654320988,27.654320987654323,0)" xlink:href="#aP"/><use transform="matrix(0.04320987654320988,0,0,0.04320987654320988,32.7962962962963,0)" xlink:href="#aQ"/><use transform="matrix(0.04320987654320988,0,0,0.04320987654320988,41.43827160493827,0)" xlink:href="#bb"/><use transform="matrix(0.04320987654320988,0,0,0.04320987654320988,49.21604938271606,0)" xlink:href="#bb"/></g><g id="H"><use transform="matrix(0.04320987654320988,0,0,0.04320987654320988,0,0)" xlink:href="#bm"/><use transform="matrix(0.04320987654320988,0,0,0.04320987654320988,8.641975308641976,0)" xlink:href="#aK"/><use transform="matrix(0.04320987654320988,0,0,0.04320987654320988,12.055555555555557,0)" xlink:href="#aI"/><use transform="matrix(0.04320987654320988,0,0,0.04320987654320988,20.69753086419753,0)" xlink:href="#aQ"/></g><path d="M27 0v-27h64v-190l-56 39v-29l58-41h29v221h61V0H27" id="bp"/><use transform="matrix(0.04320987654320988,0,0,0.04320987654320988,0,0)" xlink:href="#bp" id="I"/><path d="M101-251c82-7 93 87 43 132L82-64C71-53 59-42 53-27h129V0H18c2-99 128-94 128-182 0-28-16-43-45-43s-46 15-49 41l-32-3c6-41 34-60 81-64" id="bq"/><use transform="matrix(0.04320987654320988,0,0,0.04320987654320988,0,0)" xlink:href="#bq" id="J"/><path d="M126-127c33 6 58 20 58 59 0 88-139 92-164 29-3-8-5-16-6-25l32-3c6 27 21 44 54 44 32 0 52-15 52-46 0-38-36-46-79-43v-28c39 1 72-4 72-42 0-27-17-43-46-43-28 0-47 15-49 41l-32-3c6-42 35-63 81-64 48-1 79 21 79 65 0 36-21 52-52 59" id="br"/><use transform="matrix(0.04320987654320988,0,0,0.04320987654320988,0,0)" xlink:href="#br" id="K"/><g id="L"><use transform="matrix(0.04320987654320988,0,0,0.04320987654320988,0,0)" xlink:href="#aZ"/><use transform="matrix(0.04320987654320988,0,0,0.04320987654320988,11.19135802469136,0)" xlink:href="#aK"/><use transform="matrix(0.04320987654320988,0,0,0.04320987654320988,14.60493827160494,0)" xlink:href="#aJ"/><use transform="matrix(0.04320987654320988,0,0,0.04320987654320988,18.925925925925927,0)" xlink:href="#aL"/></g><g id="M"><use transform="matrix(0.04320987654320988,0,0,0.04320987654320988,0,0)" xlink:href="#aM"/><use transform="matrix(0.04320987654320988,0,0,0.04320987654320988,10.370370370370372,0)" xlink:href="#aJ"/><use transform="matrix(0.04320987654320988,0,0,0.04320987654320988,14.691358024691363,0)" xlink:href="#aO"/><use transform="matrix(0.04320987654320988,0,0,0.04320987654320988,23.333333333333336,0)" xlink:href="#aJ"/><use transform="matrix(0.04320987654320988,0,0,0.04320987654320988,27.654320987654323,0)" xlink:href="#aQ"/></g><path d="M0 4l72-265h28L28 4H0" id="bs"/><use transform="matrix(0.04320987654320988,0,0,0.04320987654320988,0,0)" xlink:href="#bs" id="N"/><path d="M30-248c87 1 191-15 191 75 0 78-77 80-158 76V0H30v-248zm33 125c57 0 124 11 124-50 0-59-68-47-124-48v98" id="bt"/><path d="M108 0H70L1-190h34L89-25l56-165h34" id="bu"/><g id="O"><use transform="matrix(0.04320987654320988,0,0,0.04320987654320988,0,0)" xlink:href="#bt"/><use transform="matrix(0.04320987654320988,0,0,0.04320987654320988,10.370370370370372,0)" xlink:href="#aP"/><use transform="matrix(0.04320987654320988,0,0,0.04320987654320988,15.512345679012347,0)" xlink:href="#aX"/><use transform="matrix(0.04320987654320988,0,0,0.04320987654320988,24.154320987654323,0)" xlink:href="#bu"/><use transform="matrix(0.04320987654320988,0,0,0.04320987654320988,31.9320987654321,0)" xlink:href="#aK"/><use transform="matrix(0.04320987654320988,0,0,0.04320987654320988,35.345679012345684,0)" xlink:href="#aI"/><use transform="matrix(0.04320987654320988,0,0,0.04320987654320988,43.98765432098766,0)" xlink:href="#bl"/><use transform="matrix(0.04320987654320988,0,0,0.04320987654320988,51.76543209876544,0)" xlink:href="#aQ"/></g><g id="P"><use transform="matrix(0.04320987654320988,0,0,0.04320987654320988,0,0)" xlink:href="#aZ"/><use transform="matrix(0.04320987654320988,0,0,0.04320987654320988,11.19135802469136,0)" xlink:href="#aX"/><use transform="matrix(0.04320987654320988,0,0,0.04320987654320988,19.833333333333336,0)" xlink:href="#aY"/><use transform="matrix(0.04320987654320988,0,0,0.04320987654320988,28.47530864197531,0)" xlink:href="#aI"/><use transform="matrix(0.04320987654320988,0,0,0.04320987654320988,37.117283950617285,0)" xlink:href="#aJ"/><use transform="matrix(0.04320987654320988,0,0,0.04320987654320988,41.43827160493827,0)" xlink:href="#aP"/><use transform="matrix(0.04320987654320988,0,0,0.04320987654320988,46.58024691358024,0)" xlink:href="#aL"/></g><path d="M209 0H11v-25l151-195H24v-28h176v25L50-27h159V0" id="bv"/><g id="Q"><use transform="matrix(0.04320987654320988,0,0,0.04320987654320988,0,0)" xlink:href="#bv"/><use transform="matrix(0.04320987654320988,0,0,0.04320987654320988,9.462962962962964,0)" xlink:href="#aK"/><use transform="matrix(0.04320987654320988,0,0,0.04320987654320988,12.876543209876544,0)" xlink:href="#aV"/></g><g id="R"><use transform="matrix(0.04320987654320988,0,0,0.04320987654320988,0,0)" xlink:href="#bt"/><use transform="matrix(0.04320987654320988,0,0,0.04320987654320988,10.370370370370372,0)" xlink:href="#aX"/><use transform="matrix(0.04320987654320988,0,0,0.04320987654320988,19.01234567901235,0)" xlink:href="#bb"/><use transform="matrix(0.04320987654320988,0,0,0.04320987654320988,26.790123456790127,0)" xlink:href="#aJ"/><use transform="matrix(0.04320987654320988,0,0,0.04320987654320988,31.111111111111114,0)" xlink:href="#aO"/><use transform="matrix(0.04320987654320988,0,0,0.04320987654320988,39.75308641975309,0)" xlink:href="#aG"/></g><g id="S"><use transform="matrix(0.04320987654320988,0,0,0.04320987654320988,0,0)" xlink:href="#aZ"/><use transform="matrix(0.04320987654320988,0,0,0.04320987654320988,11.19135802469136,0)" xlink:href="#aX"/><use transform="matrix(0.04320987654320988,0,0,0.04320987654320988,19.833333333333336,0)" xlink:href="#aR"/><use transform="matrix(0.04320987654320988,0,0,0.04320987654320988,28.47530864197531,0)" xlink:href="#aQ"/></g><g id="T"><use transform="matrix(0.04320987654320988,0,0,0.04320987654320988,0,0)" xlink:href="#aZ"/><use transform="matrix(0.04320987654320988,0,0,0.04320987654320988,11.19135802469136,0)" xlink:href="#aX"/><use transform="matrix(0.04320987654320988,0,0,0.04320987654320988,19.833333333333336,0)" xlink:href="#aY"/><use transform="matrix(0.04320987654320988,0,0,0.04320987654320988,28.47530864197531,0)" xlink:href="#aI"/><use transform="matrix(0.04320987654320988,0,0,0.04320987654320988,37.117283950617285,0)" xlink:href="#aJ"/><use transform="matrix(0.04320987654320988,0,0,0.04320987654320988,41.43827160493827,0)" xlink:href="#aL"/></g><path d="M101-234c-31-9-42 10-38 44h38v23H63V0H32v-167H5v-23h27c-7-52 17-82 69-68v24" id="bw"/><g id="U"><use transform="matrix(0.04320987654320988,0,0,0.04320987654320988,0,0)" xlink:href="#aF"/><use transform="matrix(0.04320987654320988,0,0,0.04320987654320988,10.370370370370372,0)" xlink:href="#aY"/><use transform="matrix(0.04320987654320988,0,0,0.04320987654320988,19.01234567901235,0)" xlink:href="#aJ"/><use transform="matrix(0.04320987654320988,0,0,0.04320987654320988,23.333333333333336,0)" xlink:href="#aX"/><use transform="matrix(0.04320987654320988,0,0,0.04320987654320988,31.97530864197531,0)" xlink:href="#bw"/><use transform="matrix(0.04320987654320988,0,0,0.04320987654320988,36.2962962962963,0)" xlink:href="#aK"/><use transform="matrix(0.04320987654320988,0,0,0.04320987654320988,39.70987654320988,0)" xlink:href="#aG"/><use transform="matrix(0.04320987654320988,0,0,0.04320987654320988,43.12345679012346,0)" xlink:href="#aG"/></g><g id="V"><use transform="matrix(0.04320987654320988,0,0,0.04320987654320988,0,0)" xlink:href="#bm"/><use transform="matrix(0.04320987654320988,0,0,0.04320987654320988,8.641975308641976,0)" xlink:href="#aX"/><use transform="matrix(0.04320987654320988,0,0,0.04320987654320988,17.283950617283953,0)" xlink:href="#aI"/><use transform="matrix(0.04320987654320988,0,0,0.04320987654320988,25.925925925925927,0)" xlink:href="#bd"/><use transform="matrix(0.04320987654320988,0,0,0.04320987654320988,34.567901234567906,0)" xlink:href="#aK"/><use transform="matrix(0.04320987654320988,0,0,0.04320987654320988,37.98148148148149,0)" xlink:href="#aJ"/><use transform="matrix(0.04320987654320988,0,0,0.04320987654320988,42.302469135802475,0)" xlink:href="#aY"/><use transform="matrix(0.04320987654320988,0,0,0.04320987654320988,50.94444444444445,0)" xlink:href="#aR"/><use transform="matrix(0.04320987654320988,0,0,0.04320987654320988,59.586419753086425,0)" xlink:href="#aQ"/></g><g id="W"><use transform="matrix(0.04320987654320988,0,0,0.04320987654320988,0,0)" xlink:href="#bm"/><use transform="matrix(0.04320987654320988,0,0,0.04320987654320988,8.641975308641976,0)" xlink:href="#aO"/><use transform="matrix(0.04320987654320988,0,0,0.04320987654320988,17.283950617283953,0)" xlink:href="#aJ"/><use transform="matrix(0.04320987654320988,0,0,0.04320987654320988,21.60493827160494,0)" xlink:href="#aK"/><use transform="matrix(0.04320987654320988,0,0,0.04320987654320988,25.018518518518523,0)" xlink:href="#aJ"/><use transform="matrix(0.04320987654320988,0,0,0.04320987654320988,29.339506172839503,0)" xlink:href="#aY"/><use transform="matrix(0.04320987654320988,0,0,0.04320987654320988,37.98148148148148,0)" xlink:href="#aR"/><use transform="matrix(0.04320987654320988,0,0,0.04320987654320988,46.62345679012345,0)" xlink:href="#aQ"/></g><g id="X"><use transform="matrix(0.04320987654320988,0,0,0.04320987654320988,0,0)" xlink:href="#bi"/><use transform="matrix(0.04320987654320988,0,0,0.04320987654320988,11.19135802469136,0)" xlink:href="#aT"/><use transform="matrix(0.04320987654320988,0,0,0.04320987654320988,20.654320987654323,0)" xlink:href="#aZ"/></g><g id="Y"><use transform="matrix(0.04320987654320988,0,0,0.04320987654320988,0,0)" xlink:href="#ba"/><use transform="matrix(0.04320987654320988,0,0,0.04320987654320988,12.098765432098766,0)" xlink:href="#bw"/><use transform="matrix(0.04320987654320988,0,0,0.04320987654320988,16.117283950617285,0)" xlink:href="#bw"/><use transform="matrix(0.04320987654320988,0,0,0.04320987654320988,20.438271604938272,0)" xlink:href="#bb"/><use transform="matrix(0.04320987654320988,0,0,0.04320987654320988,28.21604938271605,0)" xlink:href="#aQ"/><use transform="matrix(0.04320987654320988,0,0,0.04320987654320988,36.858024691358025,0)" xlink:href="#aJ"/></g><path d="M33-154v-36h34v36H33zM33 0v-36h34V0H33" id="bx"/><g id="Z"><use transform="matrix(0.04320987654320988,0,0,0.04320987654320988,0,0)" xlink:href="#bg"/><use transform="matrix(0.04320987654320988,0,0,0.04320987654320988,11.19135802469136,0)" xlink:href="#aQ"/><use transform="matrix(0.04320987654320988,0,0,0.04320987654320988,19.833333333333336,0)" xlink:href="#bw"/><use transform="matrix(0.04320987654320988,0,0,0.04320987654320988,24.154320987654323,0)" xlink:href="#aO"/><use transform="matrix(0.04320987654320988,0,0,0.04320987654320988,32.7962962962963,0)" xlink:href="#aY"/><use transform="matrix(0.04320987654320988,0,0,0.04320987654320988,41.43827160493827,0)" xlink:href="#aG"/><use transform="matrix(0.04320987654320988,0,0,0.04320987654320988,44.851851851851855,0)" xlink:href="#aJ"/><use transform="matrix(0.04320987654320988,0,0,0.04320987654320988,49.17283950617284,0)" xlink:href="#bx"/></g><g id="aa"><use transform="matrix(0.04320987654320988,0,0,0.04320987654320988,0,0)" xlink:href="#bw"/><use transform="matrix(0.04320987654320988,0,0,0.04320987654320988,4.320987654320988,0)" xlink:href="#aO"/><use transform="matrix(0.04320987654320988,0,0,0.04320987654320988,12.962962962962964,0)" xlink:href="#aG"/><use transform="matrix(0.04320987654320988,0,0,0.04320987654320988,16.376543209876544,0)" xlink:href="#bb"/><use transform="matrix(0.04320987654320988,0,0,0.04320987654320988,24.154320987654323,0)" xlink:href="#aQ"/></g><g id="ab"><use transform="matrix(0.04320987654320988,0,0,0.04320987654320988,0,0)" xlink:href="#bt"/><use transform="matrix(0.04320987654320988,0,0,0.04320987654320988,10.370370370370372,0)" xlink:href="#ba"/></g><path d="M141 0L90-78 38 0H4l68-98-65-92h35l48 74 47-74h35l-64 92 68 98h-35" id="by"/><g id="ac"><use transform="matrix(0.04320987654320988,0,0,0.04320987654320988,0,0)" xlink:href="#bc"/><use transform="matrix(0.04320987654320988,0,0,0.04320987654320988,10.370370370370372,0)" xlink:href="#aX"/><use transform="matrix(0.04320987654320988,0,0,0.04320987654320988,19.01234567901235,0)" xlink:href="#by"/></g><g id="ad"><use transform="matrix(0.04320987654320988,0,0,0.04320987654320988,0,0)" xlink:href="#bc"/><use transform="matrix(0.04320987654320988,0,0,0.04320987654320988,10.370370370370372,0)" xlink:href="#aX"/><use transform="matrix(0.04320987654320988,0,0,0.04320987654320988,19.01234567901235,0)" xlink:href="#aX"/><use transform="matrix(0.04320987654320988,0,0,0.04320987654320988,27.654320987654323,0)" xlink:href="#aG"/><use transform="matrix(0.04320987654320988,0,0,0.04320987654320988,31.067901234567906,0)" xlink:href="#aQ"/><use transform="matrix(0.04320987654320988,0,0,0.04320987654320988,39.70987654320988,0)" xlink:href="#aO"/><use transform="matrix(0.04320987654320988,0,0,0.04320987654320988,48.351851851851855,0)" xlink:href="#aI"/></g><g id="ae"><use transform="matrix(0.04320987654320988,0,0,0.04320987654320988,0,0)" xlink:href="#aZ"/><use transform="matrix(0.04320987654320988,0,0,0.04320987654320988,11.19135802469136,0)" xlink:href="#aX"/><use transform="matrix(0.04320987654320988,0,0,0.04320987654320988,19.833333333333336,0)" xlink:href="#aU"/><use transform="matrix(0.04320987654320988,0,0,0.04320987654320988,32.75308641975309,0)" xlink:href="#aV"/><use transform="matrix(0.04320987654320988,0,0,0.04320987654320988,41.39506172839506,0)" xlink:href="#aX"/><use transform="matrix(0.04320987654320988,0,0,0.04320987654320988,50.037037037037045,0)" xlink:href="#bb"/><use transform="matrix(0.04320987654320988,0,0,0.04320987654320988,57.814814814814824,0)" xlink:href="#aK"/><use transform="matrix(0.04320987654320988,0,0,0.04320987654320988,61.2283950617284,0)" xlink:href="#aJ"/><use transform="matrix(0.04320987654320988,0,0,0.04320987654320988,65.5493827160494,0)" xlink:href="#aQ"/></g><g id="af"><use transform="matrix(0.04320987654320988,0,0,0.04320987654320988,0,0)" xlink:href="#aF"/><use transform="matrix(0.04320987654320988,0,0,0.04320987654320988,10.370370370370372,0)" xlink:href="#bl"/><use transform="matrix(0.04320987654320988,0,0,0.04320987654320988,18.148148148148152,0)" xlink:href="#bl"/><use transform="matrix(0.04320987654320988,0,0,0.04320987654320988,25.925925925925927,0)" xlink:href="#aX"/><use transform="matrix(0.04320987654320988,0,0,0.04320987654320988,34.567901234567906,0)" xlink:href="#aY"/><use transform="matrix(0.04320987654320988,0,0,0.04320987654320988,43.20987654320988,0)" xlink:href="#aI"/><use transform="matrix(0.04320987654320988,0,0,0.04320987654320988,51.851851851851855,0)" xlink:href="#aJ"/></g><g id="ag"><use transform="matrix(0.04320987654320988,0,0,0.04320987654320988,0,0)" xlink:href="#bo"/><use transform="matrix(0.04320987654320988,0,0,0.04320987654320988,11.19135802469136,0)" xlink:href="#aX"/><use transform="matrix(0.04320987654320988,0,0,0.04320987654320988,19.833333333333336,0)" xlink:href="#aG"/><use transform="matrix(0.04320987654320988,0,0,0.04320987654320988,23.246913580246915,0)" xlink:href="#aQ"/></g><g id="ah"><use transform="matrix(0.04320987654320988,0,0,0.04320987654320988,0,0)" xlink:href="#aM"/><use transform="matrix(0.04320987654320988,0,0,0.04320987654320988,10.370370370370372,0)" xlink:href="#aY"/><use transform="matrix(0.04320987654320988,0,0,0.04320987654320988,19.01234567901235,0)" xlink:href="#bj"/><use transform="matrix(0.04320987654320988,0,0,0.04320987654320988,27.654320987654323,0)" xlink:href="#aQ"/><use transform="matrix(0.04320987654320988,0,0,0.04320987654320988,36.2962962962963,0)" xlink:href="#aI"/><use transform="matrix(0.04320987654320988,0,0,0.04320987654320988,44.93827160493828,0)" xlink:href="#aJ"/><use transform="matrix(0.04320987654320988,0,0,0.04320987654320988,49.25925925925925,0)" xlink:href="#aK"/><use transform="matrix(0.04320987654320988,0,0,0.04320987654320988,52.67283950617284,0)" xlink:href="#aJ"/><use transform="matrix(0.04320987654320988,0,0,0.04320987654320988,56.99382716049384,0)" xlink:href="#aL"/></g><g id="ai"><use transform="matrix(0.04320987654320988,0,0,0.04320987654320988,0,0)" xlink:href="#aZ"/><use transform="matrix(0.04320987654320988,0,0,0.04320987654320988,11.19135802469136,0)" xlink:href="#aX"/><use transform="matrix(0.04320987654320988,0,0,0.04320987654320988,19.833333333333336,0)" xlink:href="#aR"/><use transform="matrix(0.04320987654320988,0,0,0.04320987654320988,28.47530864197531,0)" xlink:href="#aQ"/></g><g id="aj"><use transform="matrix(0.04320987654320988,0,0,0.04320987654320988,0,0)" xlink:href="#be"/><use transform="matrix(0.04320987654320988,0,0,0.04320987654320988,5.1419753086419755,0)" xlink:href="#bc"/><use transform="matrix(0.04320987654320988,0,0,0.04320987654320988,15.512345679012347,0)" xlink:href="#aO"/><use transform="matrix(0.04320987654320988,0,0,0.04320987654320988,24.154320987654323,0)" xlink:href="#bb"/><use transform="matrix(0.04320987654320988,0,0,0.04320987654320988,31.9320987654321,0)" xlink:href="#aQ"/></g><path d="M101-251c68 0 85 55 85 127S166 4 100 4C33 4 14-52 14-124c0-73 17-127 87-127zm-1 229c47 0 54-49 54-102s-4-102-53-102c-51 0-55 48-55 102 0 53 5 102 54 102" id="bz"/><g id="ak"><use transform="matrix(0.04320987654320988,0,0,0.04320987654320988,0,0)" xlink:href="#bp"/><use transform="matrix(0.04320987654320988,0,0,0.04320987654320988,8.641975308641976,0)" xlink:href="#bz"/><use transform="matrix(0.04320987654320988,0,0,0.04320987654320988,17.283950617283953,0)" xlink:href="#bh"/></g><g id="al"><use transform="matrix(0.04320987654320988,0,0,0.04320987654320988,0,0)" xlink:href="#aT"/><use transform="matrix(0.04320987654320988,0,0,0.04320987654320988,8.598765432098766,0)" xlink:href="#aL"/><use transform="matrix(0.04320987654320988,0,0,0.04320987654320988,16.376543209876544,0)" xlink:href="#aV"/><use transform="matrix(0.04320987654320988,0,0,0.04320987654320988,25.018518518518523,0)" xlink:href="#aQ"/></g><g id="am"><use transform="matrix(0.04320987654320988,0,0,0.04320987654320988,0,0)" xlink:href="#bt"/><use transform="matrix(0.04320987654320988,0,0,0.04320987654320988,10.370370370370372,0)" xlink:href="#aP"/><use transform="matrix(0.04320987654320988,0,0,0.04320987654320988,15.512345679012347,0)" xlink:href="#aK"/><use transform="matrix(0.04320987654320988,0,0,0.04320987654320988,18.92592592592593,0)" xlink:href="#aU"/><use transform="matrix(0.04320987654320988,0,0,0.04320987654320988,31.845679012345684,0)" xlink:href="#aO"/><use transform="matrix(0.04320987654320988,0,0,0.04320987654320988,40.48765432098766,0)" xlink:href="#aP"/><use transform="matrix(0.04320987654320988,0,0,0.04320987654320988,45.62962962962963,0)" xlink:href="#aL"/></g><g id="an"><use transform="matrix(0.04320987654320988,0,0,0.04320987654320988,0,0)" xlink:href="#aF"/><use transform="matrix(0.04320987654320988,0,0,0.04320987654320988,10.370370370370372,0)" xlink:href="#aR"/><use transform="matrix(0.04320987654320988,0,0,0.04320987654320988,19.01234567901235,0)" xlink:href="#aR"/><use transform="matrix(0.04320987654320988,0,0,0.04320987654320988,27.654320987654323,0)" xlink:href="#aP"/><use transform="matrix(0.04320987654320988,0,0,0.04320987654320988,32.7962962962963,0)" xlink:href="#aQ"/><use transform="matrix(0.04320987654320988,0,0,0.04320987654320988,41.43827160493827,0)" xlink:href="#bb"/><use transform="matrix(0.04320987654320988,0,0,0.04320987654320988,49.21604938271606,0)" xlink:href="#bb"/></g><g id="ao"><use transform="matrix(0.04320987654320988,0,0,0.04320987654320988,0,0)" xlink:href="#aZ"/><use transform="matrix(0.04320987654320988,0,0,0.04320987654320988,11.19135802469136,0)" xlink:href="#aX"/><use transform="matrix(0.04320987654320988,0,0,0.04320987654320988,19.833333333333336,0)" xlink:href="#aR"/><use transform="matrix(0.04320987654320988,0,0,0.04320987654320988,28.47530864197531,0)" xlink:href="#aQ"/></g><use transform="matrix(0.04320987654320988,0,0,0.04320987654320988,0,0)" xlink:href="#bp" id="ap"/><g id="aq"><use transform="matrix(0.04320987654320988,0,0,0.04320987654320988,0,0)" xlink:href="#bc"/><use transform="matrix(0.04320987654320988,0,0,0.04320987654320988,10.370370370370372,0)" xlink:href="#aK"/><use transform="matrix(0.04320987654320988,0,0,0.04320987654320988,13.783950617283953,0)" xlink:href="#aG"/><use transform="matrix(0.04320987654320988,0,0,0.04320987654320988,17.19753086419753,0)" xlink:href="#aG"/></g><g id="ar"><use transform="matrix(0.04320987654320988,0,0,0.04320987654320988,0,0)" xlink:href="#aT"/><use transform="matrix(0.04320987654320988,0,0,0.04320987654320988,7.734567901234567,0)" xlink:href="#aX"/></g><use transform="matrix(0.04320987654320988,0,0,0.04320987654320988,0,0)" xlink:href="#bq" id="as"/><g id="at"><use transform="matrix(0.04320987654320988,0,0,0.04320987654320988,0,0)" xlink:href="#aM"/><use transform="matrix(0.04320987654320988,0,0,0.04320987654320988,10.370370370370372,0)" xlink:href="#aN"/><use transform="matrix(0.04320987654320988,0,0,0.04320987654320988,19.01234567901235,0)" xlink:href="#aK"/><use transform="matrix(0.04320987654320988,0,0,0.04320987654320988,22.425925925925934,0)" xlink:href="#aV"/></g><use transform="matrix(0.04320987654320988,0,0,0.04320987654320988,0,0)" xlink:href="#br" id="au"/><g id="av"><use transform="matrix(0.04320987654320988,0,0,0.04320987654320988,0,0)" xlink:href="#aF"/><use transform="matrix(0.04320987654320988,0,0,0.04320987654320988,10.370370370370372,0)" xlink:href="#bb"/><use transform="matrix(0.04320987654320988,0,0,0.04320987654320988,18.148148148148152,0)" xlink:href="#bb"/><use transform="matrix(0.04320987654320988,0,0,0.04320987654320988,25.925925925925927,0)" xlink:href="#aQ"/><use transform="matrix(0.04320987654320988,0,0,0.04320987654320988,34.567901234567906,0)" xlink:href="#aJ"/></g><path d="M197 0v-115H63V0H30v-248h33v105h134v-105h34V0h-34" id="bA"/><g id="aw"><use transform="matrix(0.04320987654320988,0,0,0.04320987654320988,0,0)" xlink:href="#bA"/><use transform="matrix(0.04320987654320988,0,0,0.04320987654320988,11.19135802469136,0)" xlink:href="#aX"/><use transform="matrix(0.04320987654320988,0,0,0.04320987654320988,19.833333333333336,0)" xlink:href="#aY"/><use transform="matrix(0.04320987654320988,0,0,0.04320987654320988,28.47530864197531,0)" xlink:href="#bb"/><use transform="matrix(0.04320987654320988,0,0,0.04320987654320988,36.25308641975309,0)" xlink:href="#aK"/><use transform="matrix(0.04320987654320988,0,0,0.04320987654320988,39.66666666666667,0)" xlink:href="#aI"/><use transform="matrix(0.04320987654320988,0,0,0.04320987654320988,48.308641975308646,0)" xlink:href="#bd"/></g><path d="M155-56V0h-30v-56H8v-25l114-167h33v167h35v25h-35zm-30-156c-27 46-58 90-88 131h88v-131" id="bB"/><use transform="matrix(0.04320987654320988,0,0,0.04320987654320988,0,0)" xlink:href="#bB" id="ax"/><g id="ay"><use transform="matrix(0.04320987654320988,0,0,0.04320987654320988,0,0)" xlink:href="#ba"/><use transform="matrix(0.04320987654320988,0,0,0.04320987654320988,12.098765432098766,0)" xlink:href="#aJ"/><use transform="matrix(0.04320987654320988,0,0,0.04320987654320988,16.419753086419753,0)" xlink:href="#aN"/><use transform="matrix(0.04320987654320988,0,0,0.04320987654320988,25.061728395061728,0)" xlink:href="#aQ"/><use transform="matrix(0.04320987654320988,0,0,0.04320987654320988,33.7037037037037,0)" xlink:href="#aP"/></g><path d="M54-142c48-35 137-8 131 61C196 18 31 33 14-55l32-4c7 23 22 37 52 37 35-1 51-22 54-58 4-55-73-65-99-34H22l8-134h141v27H59" id="bC"/><path d="M118-107v75H92v-75H18v-26h74v-75h26v75h74v26h-74" id="bD"/><g id="az"><use transform="matrix(0.04320987654320988,0,0,0.04320987654320988,0,0)" xlink:href="#bC"/><use transform="matrix(0.04320987654320988,0,0,0.04320987654320988,8.641975308641976,0)" xlink:href="#bD"/></g><g id="aA"><use transform="matrix(0.04320987654320988,0,0,0.04320987654320988,0,0)" xlink:href="#aZ"/><use transform="matrix(0.04320987654320988,0,0,0.04320987654320988,11.19135802469136,0)" xlink:href="#aG"/><use transform="matrix(0.04320987654320988,0,0,0.04320987654320988,14.60493827160494,0)" xlink:href="#aK"/><use transform="matrix(0.04320987654320988,0,0,0.04320987654320988,18.01851851851852,0)" xlink:href="#aQ"/><use transform="matrix(0.04320987654320988,0,0,0.04320987654320988,26.66049382716049,0)" xlink:href="#aI"/><use transform="matrix(0.04320987654320988,0,0,0.04320987654320988,35.30246913580247,0)" xlink:href="#aJ"/></g><g id="aB"><use transform="matrix(0.04320987654320988,0,0,0.04320987654320988,0,0)" xlink:href="#bm"/><use transform="matrix(0.04320987654320988,0,0,0.04320987654320988,8.641975308641976,0)" xlink:href="#aS"/><use transform="matrix(0.04320987654320988,0,0,0.04320987654320988,18.10493827160494,0)" xlink:href="#aM"/></g><g id="aC"><use transform="matrix(0.04320987654320988,0,0,0.04320987654320988,0,0)" xlink:href="#bt"/><use transform="matrix(0.04320987654320988,0,0,0.04320987654320988,10.370370370370372,0)" xlink:href="#aO"/><use transform="matrix(0.04320987654320988,0,0,0.04320987654320988,19.01234567901235,0)" xlink:href="#aP"/><use transform="matrix(0.04320987654320988,0,0,0.04320987654320988,24.154320987654323,0)" xlink:href="#aJ"/><use transform="matrix(0.04320987654320988,0,0,0.04320987654320988,28.47530864197531,0)" xlink:href="#aI"/><use transform="matrix(0.04320987654320988,0,0,0.04320987654320988,37.117283950617285,0)" xlink:href="#aQ"/><use transform="matrix(0.04320987654320988,0,0,0.04320987654320988,45.75925925925927,0)" xlink:href="#aP"/></g><g id="aD"><use transform="matrix(0.04320987654320988,0,0,0.04320987654320988,0,0)" xlink:href="#bm"/><use transform="matrix(0.04320987654320988,0,0,0.04320987654320988,8.641975308641976,0)" xlink:href="#aQ"/><use transform="matrix(0.04320987654320988,0,0,0.04320987654320988,17.283950617283953,0)" xlink:href="#aI"/><use transform="matrix(0.04320987654320988,0,0,0.04320987654320988,25.925925925925927,0)" xlink:href="#aX"/><use transform="matrix(0.04320987654320988,0,0,0.04320987654320988,34.567901234567906,0)" xlink:href="#bu"/><use transform="matrix(0.04320987654320988,0,0,0.04320987654320988,42.345679012345684,0)" xlink:href="#aX"/></g><g id="aE"><use transform="matrix(0.04320987654320988,0,0,0.04320987654320988,0,0)" xlink:href="#ba"/><use transform="matrix(0.04320987654320988,0,0,0.04320987654320988,12.098765432098766,0)" xlink:href="#aJ"/><use transform="matrix(0.04320987654320988,0,0,0.04320987654320988,16.419753086419753,0)" xlink:href="#aN"/><use transform="matrix(0.04320987654320988,0,0,0.04320987654320988,25.061728395061728,0)" xlink:href="#aQ"/><use transform="matrix(0.04320987654320988,0,0,0.04320987654320988,33.7037037037037,0)" xlink:href="#aP"/></g></defs></g></svg>